G04 #@! TF.FileFunction,Copper,L1,Top,Signal*
%FSLAX46Y46*%
G04 Gerber Fmt 4.6, Leading zero omitted, Abs format (unit mm)*
G04 Created by KiCad (PCBNEW 4.0.6) date 2017 April 03, Monday 14:55:28*
%MOMM*%
%LPD*%
G01*
G04 APERTURE LIST*
%ADD10C,0.100000*%
%ADD11R,2.500000X1.100000*%
%ADD12O,2.500000X1.100000*%
%ADD13O,1.100000X2.500000*%
%ADD14C,1.524000*%
%ADD15R,1.250000X1.500000*%
%ADD16R,1.600000X3.500000*%
%ADD17R,1.727200X2.032000*%
%ADD18O,1.727200X2.032000*%
%ADD19R,2.032000X1.727200*%
%ADD20O,2.032000X1.727200*%
%ADD21R,1.300000X1.500000*%
%ADD22C,2.000000*%
%ADD23C,1.998980*%
%ADD24R,2.501900X1.000760*%
%ADD25R,4.000500X1.998980*%
%ADD26C,2.032000*%
%ADD27C,0.600000*%
%ADD28C,0.250000*%
%ADD29C,0.504000*%
%ADD30C,0.254000*%
G04 APERTURE END LIST*
D10*
D11*
X119315000Y-72390000D03*
D12*
X119315000Y-74390000D03*
X119315000Y-76390000D03*
X119315000Y-78390000D03*
X119315000Y-80390000D03*
X119315000Y-82390000D03*
X119315000Y-84390000D03*
X119315000Y-86390000D03*
X134715000Y-86390000D03*
X134615000Y-84390000D03*
X134715000Y-82390000D03*
X134715000Y-80390000D03*
X134715000Y-78390000D03*
X134715000Y-76390000D03*
X134715000Y-74390000D03*
X134715000Y-72390000D03*
D13*
X122005000Y-88090000D03*
X124005000Y-88090000D03*
X126005000Y-88090000D03*
X128005000Y-88090000D03*
X130005000Y-88090000D03*
X132005000Y-88090000D03*
D14*
X148717000Y-77470000D03*
X151257000Y-77470000D03*
X153797000Y-77470000D03*
X156337000Y-77470000D03*
X158877000Y-77470000D03*
X161417000Y-77470000D03*
X148717000Y-80010000D03*
X151257000Y-80010000D03*
X153797000Y-80010000D03*
X156337000Y-80010000D03*
X158877000Y-80010000D03*
X161417000Y-80010000D03*
X148717000Y-82550000D03*
X151257000Y-82550000D03*
X153797000Y-82550000D03*
X156337000Y-82550000D03*
X158877000Y-82550000D03*
X161417000Y-82550000D03*
X148717000Y-85090000D03*
X151257000Y-85090000D03*
X153797000Y-85090000D03*
X156337000Y-85090000D03*
X158877000Y-85090000D03*
X161417000Y-85090000D03*
X148717000Y-87630000D03*
X151257000Y-87630000D03*
X153797000Y-87630000D03*
X156337000Y-87630000D03*
X158877000Y-87630000D03*
X161417000Y-87630000D03*
X148717000Y-90170000D03*
X151257000Y-90170000D03*
X153797000Y-90170000D03*
X156337000Y-90170000D03*
X158877000Y-90170000D03*
X161417000Y-90170000D03*
X148717000Y-92710000D03*
X151257000Y-92710000D03*
X153797000Y-92710000D03*
X156337000Y-92710000D03*
X158877000Y-92710000D03*
X161417000Y-92710000D03*
X148717000Y-95250000D03*
X151257000Y-95250000D03*
X153797000Y-95250000D03*
X156337000Y-95250000D03*
X158877000Y-95250000D03*
X161417000Y-95250000D03*
X148717000Y-97790000D03*
X151257000Y-97790000D03*
X153797000Y-97790000D03*
X156337000Y-97790000D03*
X158877000Y-97790000D03*
X161417000Y-97790000D03*
X148717000Y-100330000D03*
X151257000Y-100330000D03*
X153797000Y-100330000D03*
X156337000Y-100330000D03*
X158877000Y-100330000D03*
X161417000Y-100330000D03*
D15*
X131445000Y-95885000D03*
X131445000Y-98385000D03*
X138938000Y-98278000D03*
X138938000Y-95778000D03*
D16*
X120015000Y-102710000D03*
X120015000Y-108110000D03*
D17*
X139700000Y-65405000D03*
D18*
X142240000Y-65405000D03*
X144780000Y-65405000D03*
X147320000Y-65405000D03*
X149860000Y-65405000D03*
D19*
X146050000Y-100330000D03*
D20*
X146050000Y-97790000D03*
X146050000Y-95250000D03*
X146050000Y-92710000D03*
X146050000Y-90170000D03*
X146050000Y-87630000D03*
X146050000Y-85090000D03*
X146050000Y-82550000D03*
X146050000Y-80010000D03*
X146050000Y-77470000D03*
X146050000Y-74930000D03*
X146050000Y-72390000D03*
D17*
X161417000Y-103505000D03*
D18*
X158877000Y-103505000D03*
X156337000Y-103505000D03*
X153797000Y-103505000D03*
X151257000Y-103505000D03*
D19*
X111125000Y-92075000D03*
D20*
X111125000Y-94615000D03*
X111125000Y-97155000D03*
X111125000Y-99695000D03*
D21*
X114300000Y-76835000D03*
X114300000Y-79535000D03*
X127635000Y-95725000D03*
X127635000Y-98425000D03*
X135255000Y-98425000D03*
X135255000Y-95725000D03*
D22*
X128270000Y-111180000D03*
X128270000Y-106680000D03*
X134770000Y-111180000D03*
X134770000Y-106680000D03*
X139700000Y-111180000D03*
X139700000Y-106680000D03*
X146200000Y-111180000D03*
X146200000Y-106680000D03*
D23*
X158750000Y-71755000D03*
X161290000Y-71755000D03*
X156210000Y-71755000D03*
D24*
X117475000Y-94383860D03*
X117475000Y-95885000D03*
X117475000Y-97386140D03*
D25*
X121427240Y-95885000D03*
D10*
G36*
X119452390Y-96885760D02*
X118703090Y-96385380D01*
X118703090Y-95384620D01*
X119452390Y-94884240D01*
X119452390Y-96885760D01*
X119452390Y-96885760D01*
G37*
D26*
X148717000Y-74930000D03*
X151257000Y-74930000D03*
X153797000Y-74930000D03*
X156337000Y-74930000D03*
X158877000Y-74930000D03*
X161417000Y-74930000D03*
D27*
X123825000Y-74295000D03*
X155575000Y-66675000D03*
X127635000Y-93345000D03*
X117475000Y-91440000D03*
X114300000Y-81788000D03*
X135240888Y-94275303D03*
X126365000Y-98425000D03*
X135128000Y-99568000D03*
X128905000Y-84455018D03*
X138430000Y-80645000D03*
X136810000Y-78390000D03*
X138430000Y-75565000D03*
X140335000Y-85725000D03*
X124460000Y-81915000D03*
X122555000Y-84455000D03*
X138430000Y-85090000D03*
X141605000Y-80644992D03*
X123825000Y-79375000D03*
X124460000Y-93980000D03*
X130810000Y-90170000D03*
X134620000Y-88900000D03*
D28*
X123730000Y-74390000D02*
X123825000Y-74295000D01*
X120015000Y-74390000D02*
X123730000Y-74390000D01*
X155575000Y-66675000D02*
X158750000Y-69850000D01*
X158750000Y-69850000D02*
X158750000Y-71755000D01*
X156175170Y-71757752D02*
X155542922Y-72390000D01*
X155542922Y-72390000D02*
X150495000Y-72390000D01*
X150495000Y-72390000D02*
X146050000Y-72390000D01*
X127635000Y-93345000D02*
X127635000Y-95725000D01*
X112950000Y-86915000D02*
X117475000Y-91440000D01*
X131445000Y-95885000D02*
X127795000Y-95885000D01*
X127795000Y-95885000D02*
X127635000Y-95725000D01*
X120015000Y-72390000D02*
X113665000Y-72390000D01*
X113665000Y-72390000D02*
X111760000Y-74295000D01*
X111760000Y-74295000D02*
X111760000Y-85725000D01*
X111760000Y-85725000D02*
X112950000Y-86915000D01*
X112950000Y-86915000D02*
X113030000Y-86915000D01*
D29*
X114300000Y-79535000D02*
X114300000Y-81788000D01*
X135255000Y-94289415D02*
X135240888Y-94275303D01*
X135255000Y-95725000D02*
X135255000Y-94289415D01*
X138938000Y-98278000D02*
X137808000Y-98278000D01*
X137808000Y-98278000D02*
X135255000Y-95725000D01*
X127635000Y-98425000D02*
X126365000Y-98425000D01*
X117475000Y-99695000D02*
X119033480Y-99695000D01*
X115916520Y-99695000D02*
X117475000Y-99695000D01*
X117475000Y-98136520D02*
X119033480Y-99695000D01*
X119033480Y-99695000D02*
X120015000Y-100676520D01*
X120015000Y-100676520D02*
X120015000Y-102710000D01*
X111125000Y-99695000D02*
X115916520Y-99695000D01*
X117475000Y-98136520D02*
X117475000Y-97386140D01*
X115916520Y-99695000D02*
X117475000Y-98136520D01*
D28*
X134015000Y-72390000D02*
X137795000Y-72390000D01*
X142240000Y-67945000D02*
X137795000Y-72390000D01*
X142240000Y-67945000D02*
X142240000Y-65405000D01*
X144780000Y-65405000D02*
X144780000Y-67310000D01*
X137700000Y-74390000D02*
X134015000Y-74390000D01*
X144780000Y-67310000D02*
X137700000Y-74390000D01*
X136161048Y-100395271D02*
X135861049Y-100095272D01*
X137209377Y-101443600D02*
X136161048Y-100395271D01*
X144784000Y-101443600D02*
X137209377Y-101443600D01*
X145897600Y-100330000D02*
X144784000Y-101443600D01*
X146050000Y-100330000D02*
X145897600Y-100330000D01*
X135561050Y-99795273D02*
X135861049Y-100095272D01*
X135255000Y-99489223D02*
X135561050Y-99795273D01*
X135255000Y-98425000D02*
X135255000Y-99489223D01*
X146200000Y-106680000D02*
X139700000Y-106680000D01*
X146050000Y-100330000D02*
X146050000Y-106530000D01*
X146050000Y-106530000D02*
X146200000Y-106680000D01*
X132970018Y-80390000D02*
X129204999Y-84155019D01*
X134015000Y-80390000D02*
X132970018Y-80390000D01*
X129204999Y-84155019D02*
X128905000Y-84455018D01*
X149860000Y-65405000D02*
X149860000Y-67310000D01*
X136780000Y-80390000D02*
X134015000Y-80390000D01*
X142875000Y-74295000D02*
X136780000Y-80390000D01*
X142875000Y-71120000D02*
X142875000Y-74295000D01*
X144780000Y-69215000D02*
X142875000Y-71120000D01*
X147955000Y-69215000D02*
X144780000Y-69215000D01*
X149860000Y-67310000D02*
X147955000Y-69215000D01*
X136685000Y-82390000D02*
X138430000Y-80645000D01*
X134015000Y-82390000D02*
X136685000Y-82390000D01*
X134015000Y-78390000D02*
X136810000Y-78390000D01*
X134015000Y-76390000D02*
X137605000Y-76390000D01*
X137605000Y-76390000D02*
X138430000Y-75565000D01*
X144784000Y-90170000D02*
X146050000Y-90170000D01*
X135820344Y-92144656D02*
X137795000Y-90170000D01*
X127704656Y-92144656D02*
X135820344Y-92144656D01*
X126005000Y-90445000D02*
X127704656Y-92144656D01*
X137795000Y-90170000D02*
X144784000Y-90170000D01*
X126005000Y-87390000D02*
X126005000Y-90445000D01*
X144784000Y-87630000D02*
X146050000Y-87630000D01*
X134365355Y-91694645D02*
X138430000Y-87630000D01*
X128005000Y-87390000D02*
X128005000Y-89160020D01*
X128005000Y-89160020D02*
X130539625Y-91694645D01*
X130539625Y-91694645D02*
X134365355Y-91694645D01*
X138430000Y-87630000D02*
X144784000Y-87630000D01*
X140634999Y-85425001D02*
X140335000Y-85725000D01*
X146050000Y-85090000D02*
X140970000Y-85090000D01*
X140970000Y-85090000D02*
X140634999Y-85425001D01*
X124460000Y-81915000D02*
X120490000Y-81915000D01*
X120490000Y-81915000D02*
X120015000Y-82390000D01*
X122555000Y-84455000D02*
X120080000Y-84455000D01*
X120080000Y-84455000D02*
X120015000Y-84390000D01*
X140970000Y-82550000D02*
X138430000Y-85090000D01*
X146050000Y-82550000D02*
X140970000Y-82550000D01*
X142239992Y-80010000D02*
X146050000Y-80010000D01*
X141605000Y-80644992D02*
X142239992Y-80010000D01*
X122810000Y-80390000D02*
X123825000Y-79375000D01*
X120015000Y-80390000D02*
X122810000Y-80390000D01*
X136590000Y-84390000D02*
X134015000Y-84390000D01*
X139709999Y-81270001D02*
X136590000Y-84390000D01*
X139709999Y-80980001D02*
X139709999Y-81270001D01*
X143220000Y-77470000D02*
X139709999Y-80980001D01*
X146050000Y-77470000D02*
X143220000Y-77470000D01*
X122005000Y-91525000D02*
X124460000Y-93980000D01*
X122005000Y-87390000D02*
X122005000Y-91525000D01*
X130005000Y-89365000D02*
X130810000Y-90170000D01*
X130005000Y-87390000D02*
X130005000Y-89365000D01*
X124005000Y-87390000D02*
X124005000Y-90985000D01*
X138430000Y-109220000D02*
X151130000Y-109220000D01*
X124005000Y-90985000D02*
X125730000Y-92710000D01*
X125730000Y-92710000D02*
X125730000Y-100330000D01*
X125730000Y-100330000D02*
X128270000Y-102870000D01*
X128270000Y-102870000D02*
X135890000Y-102870000D01*
X135890000Y-102870000D02*
X137160000Y-104140000D01*
X137160000Y-104140000D02*
X137160000Y-107950000D01*
X137160000Y-107950000D02*
X138430000Y-109220000D01*
X151130000Y-109220000D02*
X153670000Y-106680000D01*
X153670000Y-106680000D02*
X153670000Y-103505000D01*
X133110000Y-87390000D02*
X134620000Y-88900000D01*
X132005000Y-87390000D02*
X133110000Y-87390000D01*
D29*
X111125000Y-92075000D02*
X115766660Y-92075000D01*
X115766660Y-92075000D02*
X117493999Y-93802339D01*
X117493999Y-93802339D02*
X117493999Y-94552902D01*
D28*
X116395000Y-76390000D02*
X115950000Y-76835000D01*
X115950000Y-76835000D02*
X114300000Y-76835000D01*
X120015000Y-76390000D02*
X116395000Y-76390000D01*
D30*
G36*
X117983000Y-69850000D02*
X117991685Y-69896159D01*
X118018965Y-69938553D01*
X118060590Y-69966994D01*
X118110000Y-69977000D01*
X135763000Y-69977000D01*
X135809159Y-69968315D01*
X135851553Y-69941035D01*
X135879994Y-69899410D01*
X135890000Y-69850000D01*
X135890000Y-62305000D01*
X165025000Y-62305000D01*
X165025000Y-114860000D01*
X108025000Y-114860000D01*
X108025000Y-112202619D01*
X108889613Y-112202619D01*
X109229155Y-113024372D01*
X109857321Y-113653636D01*
X110678481Y-113994611D01*
X111567619Y-113995387D01*
X112389372Y-113655845D01*
X113018636Y-113027679D01*
X113307285Y-112332532D01*
X127297073Y-112332532D01*
X127395736Y-112599387D01*
X128005461Y-112825908D01*
X128655460Y-112801856D01*
X129144264Y-112599387D01*
X129242927Y-112332532D01*
X133797073Y-112332532D01*
X133895736Y-112599387D01*
X134505461Y-112825908D01*
X135155460Y-112801856D01*
X135644264Y-112599387D01*
X135742927Y-112332532D01*
X138727073Y-112332532D01*
X138825736Y-112599387D01*
X139435461Y-112825908D01*
X140085460Y-112801856D01*
X140574264Y-112599387D01*
X140672927Y-112332532D01*
X145227073Y-112332532D01*
X145325736Y-112599387D01*
X145935461Y-112825908D01*
X146585460Y-112801856D01*
X147074264Y-112599387D01*
X147172927Y-112332532D01*
X147043014Y-112202619D01*
X159689613Y-112202619D01*
X160029155Y-113024372D01*
X160657321Y-113653636D01*
X161478481Y-113994611D01*
X162367619Y-113995387D01*
X163189372Y-113655845D01*
X163818636Y-113027679D01*
X164159611Y-112206519D01*
X164160387Y-111317381D01*
X163820845Y-110495628D01*
X163192679Y-109866364D01*
X162371519Y-109525389D01*
X161482381Y-109524613D01*
X160660628Y-109864155D01*
X160031364Y-110492321D01*
X159690389Y-111313481D01*
X159689613Y-112202619D01*
X147043014Y-112202619D01*
X146200000Y-111359605D01*
X145227073Y-112332532D01*
X140672927Y-112332532D01*
X139700000Y-111359605D01*
X138727073Y-112332532D01*
X135742927Y-112332532D01*
X134770000Y-111359605D01*
X133797073Y-112332532D01*
X129242927Y-112332532D01*
X128270000Y-111359605D01*
X127297073Y-112332532D01*
X113307285Y-112332532D01*
X113359611Y-112206519D01*
X113360387Y-111317381D01*
X113194317Y-110915461D01*
X126624092Y-110915461D01*
X126648144Y-111565460D01*
X126850613Y-112054264D01*
X127117468Y-112152927D01*
X128090395Y-111180000D01*
X128449605Y-111180000D01*
X129422532Y-112152927D01*
X129689387Y-112054264D01*
X129915908Y-111444539D01*
X129896331Y-110915461D01*
X133124092Y-110915461D01*
X133148144Y-111565460D01*
X133350613Y-112054264D01*
X133617468Y-112152927D01*
X134590395Y-111180000D01*
X134949605Y-111180000D01*
X135922532Y-112152927D01*
X136189387Y-112054264D01*
X136415908Y-111444539D01*
X136396331Y-110915461D01*
X138054092Y-110915461D01*
X138078144Y-111565460D01*
X138280613Y-112054264D01*
X138547468Y-112152927D01*
X139520395Y-111180000D01*
X139879605Y-111180000D01*
X140852532Y-112152927D01*
X141119387Y-112054264D01*
X141345908Y-111444539D01*
X141326331Y-110915461D01*
X144554092Y-110915461D01*
X144578144Y-111565460D01*
X144780613Y-112054264D01*
X145047468Y-112152927D01*
X146020395Y-111180000D01*
X146379605Y-111180000D01*
X147352532Y-112152927D01*
X147619387Y-112054264D01*
X147845908Y-111444539D01*
X147821856Y-110794540D01*
X147619387Y-110305736D01*
X147352532Y-110207073D01*
X146379605Y-111180000D01*
X146020395Y-111180000D01*
X145047468Y-110207073D01*
X144780613Y-110305736D01*
X144554092Y-110915461D01*
X141326331Y-110915461D01*
X141321856Y-110794540D01*
X141119387Y-110305736D01*
X140852532Y-110207073D01*
X139879605Y-111180000D01*
X139520395Y-111180000D01*
X138547468Y-110207073D01*
X138280613Y-110305736D01*
X138054092Y-110915461D01*
X136396331Y-110915461D01*
X136391856Y-110794540D01*
X136189387Y-110305736D01*
X135922532Y-110207073D01*
X134949605Y-111180000D01*
X134590395Y-111180000D01*
X133617468Y-110207073D01*
X133350613Y-110305736D01*
X133124092Y-110915461D01*
X129896331Y-110915461D01*
X129891856Y-110794540D01*
X129689387Y-110305736D01*
X129422532Y-110207073D01*
X128449605Y-111180000D01*
X128090395Y-111180000D01*
X127117468Y-110207073D01*
X126850613Y-110305736D01*
X126624092Y-110915461D01*
X113194317Y-110915461D01*
X113020845Y-110495628D01*
X112392679Y-109866364D01*
X111571519Y-109525389D01*
X110682381Y-109524613D01*
X109860628Y-109864155D01*
X109231364Y-110492321D01*
X108890389Y-111313481D01*
X108889613Y-112202619D01*
X108025000Y-112202619D01*
X108025000Y-108395750D01*
X118580000Y-108395750D01*
X118580000Y-109986309D01*
X118676673Y-110219698D01*
X118855301Y-110398327D01*
X119088690Y-110495000D01*
X119729250Y-110495000D01*
X119888000Y-110336250D01*
X119888000Y-108237000D01*
X120142000Y-108237000D01*
X120142000Y-110336250D01*
X120300750Y-110495000D01*
X120941310Y-110495000D01*
X121174699Y-110398327D01*
X121353327Y-110219698D01*
X121432951Y-110027468D01*
X127297073Y-110027468D01*
X128270000Y-111000395D01*
X129242927Y-110027468D01*
X133797073Y-110027468D01*
X134770000Y-111000395D01*
X135742927Y-110027468D01*
X135644264Y-109760613D01*
X135034539Y-109534092D01*
X134384540Y-109558144D01*
X133895736Y-109760613D01*
X133797073Y-110027468D01*
X129242927Y-110027468D01*
X129144264Y-109760613D01*
X128534539Y-109534092D01*
X127884540Y-109558144D01*
X127395736Y-109760613D01*
X127297073Y-110027468D01*
X121432951Y-110027468D01*
X121450000Y-109986309D01*
X121450000Y-108395750D01*
X121291250Y-108237000D01*
X120142000Y-108237000D01*
X119888000Y-108237000D01*
X118738750Y-108237000D01*
X118580000Y-108395750D01*
X108025000Y-108395750D01*
X108025000Y-106233691D01*
X118580000Y-106233691D01*
X118580000Y-107824250D01*
X118738750Y-107983000D01*
X119888000Y-107983000D01*
X119888000Y-105883750D01*
X120142000Y-105883750D01*
X120142000Y-107983000D01*
X121291250Y-107983000D01*
X121450000Y-107824250D01*
X121450000Y-107003795D01*
X126634716Y-107003795D01*
X126883106Y-107604943D01*
X127342637Y-108065278D01*
X127943352Y-108314716D01*
X128593795Y-108315284D01*
X129194943Y-108066894D01*
X129655278Y-107607363D01*
X129904716Y-107006648D01*
X129905284Y-106356205D01*
X129656894Y-105755057D01*
X129197363Y-105294722D01*
X128596648Y-105045284D01*
X127946205Y-105044716D01*
X127345057Y-105293106D01*
X126884722Y-105752637D01*
X126635284Y-106353352D01*
X126634716Y-107003795D01*
X121450000Y-107003795D01*
X121450000Y-106233691D01*
X121353327Y-106000302D01*
X121174699Y-105821673D01*
X120941310Y-105725000D01*
X120300750Y-105725000D01*
X120142000Y-105883750D01*
X119888000Y-105883750D01*
X119729250Y-105725000D01*
X119088690Y-105725000D01*
X118855301Y-105821673D01*
X118676673Y-106000302D01*
X118580000Y-106233691D01*
X108025000Y-106233691D01*
X108025000Y-99695000D01*
X109441655Y-99695000D01*
X109555729Y-100268489D01*
X109880585Y-100754670D01*
X110366766Y-101079526D01*
X110940255Y-101193600D01*
X111309745Y-101193600D01*
X111883234Y-101079526D01*
X112369415Y-100754670D01*
X112484789Y-100582000D01*
X118666072Y-100582000D01*
X118689042Y-100604970D01*
X118618569Y-100708110D01*
X118567560Y-100960000D01*
X118567560Y-104460000D01*
X118611838Y-104695317D01*
X118750910Y-104911441D01*
X118963110Y-105056431D01*
X119215000Y-105107440D01*
X120815000Y-105107440D01*
X121050317Y-105063162D01*
X121266441Y-104924090D01*
X121411431Y-104711890D01*
X121462440Y-104460000D01*
X121462440Y-100960000D01*
X121418162Y-100724683D01*
X121279090Y-100508559D01*
X121066890Y-100363569D01*
X120818582Y-100313285D01*
X120642204Y-100049316D01*
X119660684Y-99067796D01*
X119660681Y-99067794D01*
X119035075Y-98442188D01*
X119177391Y-98350610D01*
X119322381Y-98138410D01*
X119373390Y-97886520D01*
X119373390Y-97519490D01*
X119392214Y-97519490D01*
X119434503Y-97532953D01*
X119511923Y-97519490D01*
X121141490Y-97519490D01*
X121300240Y-97360740D01*
X121300240Y-96012000D01*
X121554240Y-96012000D01*
X121554240Y-97360740D01*
X121712990Y-97519490D01*
X123553800Y-97519490D01*
X123787189Y-97422817D01*
X123965817Y-97244188D01*
X124062490Y-97010799D01*
X124062490Y-96170750D01*
X123903740Y-96012000D01*
X121554240Y-96012000D01*
X121300240Y-96012000D01*
X117602000Y-96012000D01*
X117602000Y-96032000D01*
X117348000Y-96032000D01*
X117348000Y-96012000D01*
X115747800Y-96012000D01*
X115589050Y-96170750D01*
X115589050Y-96511689D01*
X115635115Y-96622899D01*
X115627619Y-96633870D01*
X115576610Y-96885760D01*
X115576610Y-97886520D01*
X115620888Y-98121837D01*
X115759960Y-98337961D01*
X115913941Y-98443172D01*
X115549112Y-98808000D01*
X112484789Y-98808000D01*
X112369415Y-98635330D01*
X112059931Y-98428539D01*
X112475732Y-98057036D01*
X112729709Y-97529791D01*
X112732358Y-97514026D01*
X112611217Y-97282000D01*
X111252000Y-97282000D01*
X111252000Y-97302000D01*
X110998000Y-97302000D01*
X110998000Y-97282000D01*
X109638783Y-97282000D01*
X109517642Y-97514026D01*
X109520291Y-97529791D01*
X109774268Y-98057036D01*
X110190069Y-98428539D01*
X109880585Y-98635330D01*
X109555729Y-99121511D01*
X109441655Y-99695000D01*
X108025000Y-99695000D01*
X108025000Y-94974026D01*
X109517642Y-94974026D01*
X109520291Y-94989791D01*
X109774268Y-95517036D01*
X110186108Y-95885000D01*
X109774268Y-96252964D01*
X109520291Y-96780209D01*
X109517642Y-96795974D01*
X109638783Y-97028000D01*
X110998000Y-97028000D01*
X110998000Y-94742000D01*
X111252000Y-94742000D01*
X111252000Y-97028000D01*
X112611217Y-97028000D01*
X112732358Y-96795974D01*
X112729709Y-96780209D01*
X112475732Y-96252964D01*
X112063892Y-95885000D01*
X112475732Y-95517036D01*
X112729709Y-94989791D01*
X112732358Y-94974026D01*
X112611217Y-94742000D01*
X111252000Y-94742000D01*
X110998000Y-94742000D01*
X109638783Y-94742000D01*
X109517642Y-94974026D01*
X108025000Y-94974026D01*
X108025000Y-91211400D01*
X109461560Y-91211400D01*
X109461560Y-92938600D01*
X109505838Y-93173917D01*
X109644910Y-93390041D01*
X109857110Y-93535031D01*
X109951927Y-93554232D01*
X109774268Y-93712964D01*
X109520291Y-94240209D01*
X109517642Y-94255974D01*
X109638783Y-94488000D01*
X110998000Y-94488000D01*
X110998000Y-94468000D01*
X111252000Y-94468000D01*
X111252000Y-94488000D01*
X112611217Y-94488000D01*
X112732358Y-94255974D01*
X112729709Y-94240209D01*
X112475732Y-93712964D01*
X112300155Y-93556093D01*
X112376317Y-93541762D01*
X112592441Y-93402690D01*
X112737431Y-93190490D01*
X112783701Y-92962000D01*
X115399252Y-92962000D01*
X115823740Y-93386488D01*
X115772609Y-93419390D01*
X115627619Y-93631590D01*
X115576610Y-93883480D01*
X115576610Y-94884240D01*
X115620888Y-95119557D01*
X115636484Y-95143794D01*
X115589050Y-95258311D01*
X115589050Y-95599250D01*
X115747800Y-95758000D01*
X117348000Y-95758000D01*
X117348000Y-95738000D01*
X117602000Y-95738000D01*
X117602000Y-95758000D01*
X121300240Y-95758000D01*
X121300240Y-94409260D01*
X121141490Y-94250510D01*
X119533801Y-94250510D01*
X119373390Y-94248805D01*
X119373390Y-93883480D01*
X119329112Y-93648163D01*
X119190040Y-93432039D01*
X118977840Y-93287049D01*
X118725950Y-93236040D01*
X118161898Y-93236040D01*
X118121203Y-93175135D01*
X117320935Y-92374867D01*
X117660167Y-92375162D01*
X118003943Y-92233117D01*
X118267192Y-91970327D01*
X118409838Y-91626799D01*
X118410162Y-91254833D01*
X118268117Y-90911057D01*
X118005327Y-90647808D01*
X117661799Y-90505162D01*
X117614923Y-90505121D01*
X113728493Y-86618691D01*
X113567401Y-86377599D01*
X113326309Y-86216507D01*
X112520000Y-85410198D01*
X112520000Y-74609802D01*
X113979802Y-73150000D01*
X117457074Y-73150000D01*
X117461838Y-73175317D01*
X117600910Y-73391441D01*
X117788615Y-73519694D01*
X117740149Y-73552078D01*
X117483274Y-73936520D01*
X117393071Y-74390000D01*
X117483274Y-74843480D01*
X117740149Y-75227922D01*
X117982717Y-75390000D01*
X117740149Y-75552078D01*
X117688083Y-75630000D01*
X116395000Y-75630000D01*
X116104161Y-75687852D01*
X115857599Y-75852599D01*
X115635198Y-76075000D01*
X115595558Y-76075000D01*
X115553162Y-75849683D01*
X115414090Y-75633559D01*
X115201890Y-75488569D01*
X114950000Y-75437560D01*
X113650000Y-75437560D01*
X113414683Y-75481838D01*
X113198559Y-75620910D01*
X113053569Y-75833110D01*
X113002560Y-76085000D01*
X113002560Y-77585000D01*
X113046838Y-77820317D01*
X113185910Y-78036441D01*
X113398110Y-78181431D01*
X113411197Y-78184081D01*
X113198559Y-78320910D01*
X113053569Y-78533110D01*
X113002560Y-78785000D01*
X113002560Y-80285000D01*
X113046838Y-80520317D01*
X113185910Y-80736441D01*
X113398110Y-80881431D01*
X113413000Y-80884446D01*
X113413000Y-81485995D01*
X113365162Y-81601201D01*
X113364838Y-81973167D01*
X113506883Y-82316943D01*
X113769673Y-82580192D01*
X114113201Y-82722838D01*
X114485167Y-82723162D01*
X114828943Y-82581117D01*
X115092192Y-82318327D01*
X115234838Y-81974799D01*
X115235162Y-81602833D01*
X115187000Y-81486272D01*
X115187000Y-80887079D01*
X115401441Y-80749090D01*
X115546431Y-80536890D01*
X115597440Y-80285000D01*
X115597440Y-78785000D01*
X115553162Y-78549683D01*
X115414090Y-78333559D01*
X115201890Y-78188569D01*
X115188803Y-78185919D01*
X115401441Y-78049090D01*
X115546431Y-77836890D01*
X115595415Y-77595000D01*
X115950000Y-77595000D01*
X116240839Y-77537148D01*
X116487401Y-77372401D01*
X116709802Y-77150000D01*
X117688083Y-77150000D01*
X117740149Y-77227922D01*
X117982717Y-77390000D01*
X117740149Y-77552078D01*
X117483274Y-77936520D01*
X117393071Y-78390000D01*
X117483274Y-78843480D01*
X117740149Y-79227922D01*
X117982717Y-79390000D01*
X117740149Y-79552078D01*
X117483274Y-79936520D01*
X117393071Y-80390000D01*
X117483274Y-80843480D01*
X117740149Y-81227922D01*
X117982717Y-81390000D01*
X117740149Y-81552078D01*
X117483274Y-81936520D01*
X117393071Y-82390000D01*
X117483274Y-82843480D01*
X117740149Y-83227922D01*
X117982717Y-83390000D01*
X117740149Y-83552078D01*
X117483274Y-83936520D01*
X117393071Y-84390000D01*
X117483274Y-84843480D01*
X117740149Y-85227922D01*
X117982717Y-85390000D01*
X117740149Y-85552078D01*
X117483274Y-85936520D01*
X117393071Y-86390000D01*
X117483274Y-86843480D01*
X117740149Y-87227922D01*
X118124591Y-87484797D01*
X118578071Y-87575000D01*
X120051929Y-87575000D01*
X120505409Y-87484797D01*
X120838003Y-87262566D01*
X120820000Y-87353071D01*
X120820000Y-88826929D01*
X120910203Y-89280409D01*
X121167078Y-89664851D01*
X121245000Y-89716917D01*
X121245000Y-91525000D01*
X121302852Y-91815839D01*
X121467599Y-92062401D01*
X123524878Y-94119680D01*
X123524838Y-94165167D01*
X123561402Y-94253659D01*
X123553800Y-94250510D01*
X121712990Y-94250510D01*
X121554240Y-94409260D01*
X121554240Y-95758000D01*
X123903740Y-95758000D01*
X124062490Y-95599250D01*
X124062490Y-94827343D01*
X124273201Y-94914838D01*
X124645167Y-94915162D01*
X124970000Y-94780944D01*
X124970000Y-100330000D01*
X125027852Y-100620839D01*
X125192599Y-100867401D01*
X127732599Y-103407401D01*
X127979160Y-103572148D01*
X128027414Y-103581746D01*
X128270000Y-103630000D01*
X135575198Y-103630000D01*
X136400000Y-104454802D01*
X136400000Y-106343417D01*
X136156894Y-105755057D01*
X135697363Y-105294722D01*
X135096648Y-105045284D01*
X134446205Y-105044716D01*
X133845057Y-105293106D01*
X133384722Y-105752637D01*
X133135284Y-106353352D01*
X133134716Y-107003795D01*
X133383106Y-107604943D01*
X133842637Y-108065278D01*
X134443352Y-108314716D01*
X135093795Y-108315284D01*
X135694943Y-108066894D01*
X136155278Y-107607363D01*
X136400000Y-107018005D01*
X136400000Y-107950000D01*
X136457852Y-108240839D01*
X136622599Y-108487401D01*
X137892599Y-109757401D01*
X138139160Y-109922148D01*
X138430000Y-109980000D01*
X138744623Y-109980000D01*
X138727073Y-110027468D01*
X139700000Y-111000395D01*
X140672927Y-110027468D01*
X140655377Y-109980000D01*
X145244623Y-109980000D01*
X145227073Y-110027468D01*
X146200000Y-111000395D01*
X147172927Y-110027468D01*
X147155377Y-109980000D01*
X151130000Y-109980000D01*
X151420839Y-109922148D01*
X151667401Y-109757401D01*
X154207401Y-107217401D01*
X154372148Y-106970840D01*
X154401985Y-106820839D01*
X154430000Y-106680000D01*
X154430000Y-105034507D01*
X154856670Y-104749415D01*
X155067000Y-104434634D01*
X155277330Y-104749415D01*
X155763511Y-105074271D01*
X156337000Y-105188345D01*
X156910489Y-105074271D01*
X157396670Y-104749415D01*
X157607000Y-104434634D01*
X157817330Y-104749415D01*
X158303511Y-105074271D01*
X158877000Y-105188345D01*
X159450489Y-105074271D01*
X159936670Y-104749415D01*
X159951500Y-104727220D01*
X160015073Y-104880698D01*
X160193701Y-105059327D01*
X160427090Y-105156000D01*
X161131250Y-105156000D01*
X161290000Y-104997250D01*
X161290000Y-103632000D01*
X161544000Y-103632000D01*
X161544000Y-104997250D01*
X161702750Y-105156000D01*
X162406910Y-105156000D01*
X162640299Y-105059327D01*
X162818927Y-104880698D01*
X162915600Y-104647309D01*
X162915600Y-103790750D01*
X162756850Y-103632000D01*
X161544000Y-103632000D01*
X161290000Y-103632000D01*
X161270000Y-103632000D01*
X161270000Y-103378000D01*
X161290000Y-103378000D01*
X161290000Y-102012750D01*
X161544000Y-102012750D01*
X161544000Y-103378000D01*
X162756850Y-103378000D01*
X162915600Y-103219250D01*
X162915600Y-102362691D01*
X162818927Y-102129302D01*
X162640299Y-101950673D01*
X162406910Y-101854000D01*
X161702750Y-101854000D01*
X161544000Y-102012750D01*
X161290000Y-102012750D01*
X161131250Y-101854000D01*
X160427090Y-101854000D01*
X160193701Y-101950673D01*
X160015073Y-102129302D01*
X159951500Y-102282780D01*
X159936670Y-102260585D01*
X159450489Y-101935729D01*
X158877000Y-101821655D01*
X158303511Y-101935729D01*
X157817330Y-102260585D01*
X157607000Y-102575366D01*
X157396670Y-102260585D01*
X156910489Y-101935729D01*
X156337000Y-101821655D01*
X155763511Y-101935729D01*
X155277330Y-102260585D01*
X155067000Y-102575366D01*
X154856670Y-102260585D01*
X154370489Y-101935729D01*
X153797000Y-101821655D01*
X153223511Y-101935729D01*
X152737330Y-102260585D01*
X152527000Y-102575366D01*
X152316670Y-102260585D01*
X151830489Y-101935729D01*
X151257000Y-101821655D01*
X150683511Y-101935729D01*
X150197330Y-102260585D01*
X149872474Y-102746766D01*
X149758400Y-103320255D01*
X149758400Y-103689745D01*
X149872474Y-104263234D01*
X150197330Y-104749415D01*
X150683511Y-105074271D01*
X151257000Y-105188345D01*
X151830489Y-105074271D01*
X152316670Y-104749415D01*
X152527000Y-104434634D01*
X152737330Y-104749415D01*
X152910000Y-104864789D01*
X152910000Y-106365198D01*
X150815198Y-108460000D01*
X138744802Y-108460000D01*
X137920000Y-107635198D01*
X137920000Y-104140000D01*
X137862148Y-103849161D01*
X137862148Y-103849160D01*
X137697401Y-103602599D01*
X136427401Y-102332599D01*
X136180839Y-102167852D01*
X135890000Y-102110000D01*
X128584802Y-102110000D01*
X126490000Y-100015198D01*
X126490000Y-99578406D01*
X126520910Y-99626441D01*
X126733110Y-99771431D01*
X126985000Y-99822440D01*
X128285000Y-99822440D01*
X128520317Y-99778162D01*
X128736441Y-99639090D01*
X128881431Y-99426890D01*
X128932440Y-99175000D01*
X128932440Y-98670750D01*
X130185000Y-98670750D01*
X130185000Y-99261309D01*
X130281673Y-99494698D01*
X130460301Y-99673327D01*
X130693690Y-99770000D01*
X131159250Y-99770000D01*
X131318000Y-99611250D01*
X131318000Y-98512000D01*
X131572000Y-98512000D01*
X131572000Y-99611250D01*
X131730750Y-99770000D01*
X132196310Y-99770000D01*
X132429699Y-99673327D01*
X132608327Y-99494698D01*
X132705000Y-99261309D01*
X132705000Y-98670750D01*
X132546250Y-98512000D01*
X131572000Y-98512000D01*
X131318000Y-98512000D01*
X130343750Y-98512000D01*
X130185000Y-98670750D01*
X128932440Y-98670750D01*
X128932440Y-97675000D01*
X128888162Y-97439683D01*
X128749090Y-97223559D01*
X128536890Y-97078569D01*
X128523803Y-97075919D01*
X128736441Y-96939090D01*
X128881431Y-96726890D01*
X128898014Y-96645000D01*
X130174442Y-96645000D01*
X130216838Y-96870317D01*
X130355910Y-97086441D01*
X130424006Y-97132969D01*
X130281673Y-97275302D01*
X130185000Y-97508691D01*
X130185000Y-98099250D01*
X130343750Y-98258000D01*
X131318000Y-98258000D01*
X131318000Y-98238000D01*
X131572000Y-98238000D01*
X131572000Y-98258000D01*
X132546250Y-98258000D01*
X132705000Y-98099250D01*
X132705000Y-97508691D01*
X132608327Y-97275302D01*
X132467090Y-97134064D01*
X132521441Y-97099090D01*
X132666431Y-96886890D01*
X132717440Y-96635000D01*
X132717440Y-95135000D01*
X132673162Y-94899683D01*
X132534090Y-94683559D01*
X132321890Y-94538569D01*
X132070000Y-94487560D01*
X130820000Y-94487560D01*
X130584683Y-94531838D01*
X130368559Y-94670910D01*
X130223569Y-94883110D01*
X130174585Y-95125000D01*
X128932440Y-95125000D01*
X128932440Y-94975000D01*
X128888162Y-94739683D01*
X128749090Y-94523559D01*
X128536890Y-94378569D01*
X128395000Y-94349836D01*
X128395000Y-93907463D01*
X128427192Y-93875327D01*
X128569838Y-93531799D01*
X128570162Y-93159833D01*
X128464725Y-92904656D01*
X135820344Y-92904656D01*
X136111183Y-92846804D01*
X136357745Y-92682057D01*
X138109802Y-90930000D01*
X144605352Y-90930000D01*
X144805585Y-91229670D01*
X145120366Y-91440000D01*
X144805585Y-91650330D01*
X144480729Y-92136511D01*
X144366655Y-92710000D01*
X144480729Y-93283489D01*
X144805585Y-93769670D01*
X145120366Y-93980000D01*
X144805585Y-94190330D01*
X144480729Y-94676511D01*
X144366655Y-95250000D01*
X144480729Y-95823489D01*
X144805585Y-96309670D01*
X145120366Y-96520000D01*
X144805585Y-96730330D01*
X144480729Y-97216511D01*
X144366655Y-97790000D01*
X144480729Y-98363489D01*
X144805585Y-98849670D01*
X144819913Y-98859243D01*
X144798683Y-98863238D01*
X144582559Y-99002310D01*
X144437569Y-99214510D01*
X144386560Y-99466400D01*
X144386560Y-100683600D01*
X137524179Y-100683600D01*
X136406462Y-99565883D01*
X136501431Y-99426890D01*
X136552440Y-99175000D01*
X136552440Y-98276848D01*
X137180796Y-98905204D01*
X137468560Y-99097481D01*
X137686802Y-99140892D01*
X137709838Y-99263317D01*
X137848910Y-99479441D01*
X138061110Y-99624431D01*
X138313000Y-99675440D01*
X139563000Y-99675440D01*
X139798317Y-99631162D01*
X140014441Y-99492090D01*
X140159431Y-99279890D01*
X140210440Y-99028000D01*
X140210440Y-97528000D01*
X140166162Y-97292683D01*
X140027090Y-97076559D01*
X139958994Y-97030031D01*
X140101327Y-96887698D01*
X140198000Y-96654309D01*
X140198000Y-96063750D01*
X140039250Y-95905000D01*
X139065000Y-95905000D01*
X139065000Y-95925000D01*
X138811000Y-95925000D01*
X138811000Y-95905000D01*
X137836750Y-95905000D01*
X137678000Y-96063750D01*
X137678000Y-96654309D01*
X137774673Y-96887698D01*
X137915910Y-97028936D01*
X137861559Y-97063910D01*
X137856184Y-97071776D01*
X136552440Y-95768032D01*
X136552440Y-94975000D01*
X136538646Y-94901691D01*
X137678000Y-94901691D01*
X137678000Y-95492250D01*
X137836750Y-95651000D01*
X138811000Y-95651000D01*
X138811000Y-94551750D01*
X139065000Y-94551750D01*
X139065000Y-95651000D01*
X140039250Y-95651000D01*
X140198000Y-95492250D01*
X140198000Y-94901691D01*
X140101327Y-94668302D01*
X139922699Y-94489673D01*
X139689310Y-94393000D01*
X139223750Y-94393000D01*
X139065000Y-94551750D01*
X138811000Y-94551750D01*
X138652250Y-94393000D01*
X138186690Y-94393000D01*
X137953301Y-94489673D01*
X137774673Y-94668302D01*
X137678000Y-94901691D01*
X136538646Y-94901691D01*
X136508162Y-94739683D01*
X136369090Y-94523559D01*
X136175788Y-94391481D01*
X136176050Y-94090136D01*
X136034005Y-93746360D01*
X135771215Y-93483111D01*
X135427687Y-93340465D01*
X135055721Y-93340141D01*
X134711945Y-93482186D01*
X134448696Y-93744976D01*
X134306050Y-94088504D01*
X134305767Y-94412967D01*
X134153559Y-94510910D01*
X134008569Y-94723110D01*
X133957560Y-94975000D01*
X133957560Y-96475000D01*
X134001838Y-96710317D01*
X134140910Y-96926441D01*
X134353110Y-97071431D01*
X134366197Y-97074081D01*
X134153559Y-97210910D01*
X134008569Y-97423110D01*
X133957560Y-97675000D01*
X133957560Y-99175000D01*
X134001838Y-99410317D01*
X134140910Y-99626441D01*
X134192917Y-99661976D01*
X134192838Y-99753167D01*
X134334883Y-100096943D01*
X134597673Y-100360192D01*
X134941201Y-100502838D01*
X135194033Y-100503058D01*
X136671976Y-101981001D01*
X136918538Y-102145748D01*
X137209377Y-102203600D01*
X144784000Y-102203600D01*
X145074839Y-102145748D01*
X145290000Y-102001982D01*
X145290000Y-105286932D01*
X145275057Y-105293106D01*
X144814722Y-105752637D01*
X144745227Y-105920000D01*
X141155047Y-105920000D01*
X141086894Y-105755057D01*
X140627363Y-105294722D01*
X140026648Y-105045284D01*
X139376205Y-105044716D01*
X138775057Y-105293106D01*
X138314722Y-105752637D01*
X138065284Y-106353352D01*
X138064716Y-107003795D01*
X138313106Y-107604943D01*
X138772637Y-108065278D01*
X139373352Y-108314716D01*
X140023795Y-108315284D01*
X140624943Y-108066894D01*
X141085278Y-107607363D01*
X141154773Y-107440000D01*
X144744953Y-107440000D01*
X144813106Y-107604943D01*
X145272637Y-108065278D01*
X145873352Y-108314716D01*
X146523795Y-108315284D01*
X147124943Y-108066894D01*
X147585278Y-107607363D01*
X147834716Y-107006648D01*
X147835284Y-106356205D01*
X147586894Y-105755057D01*
X147127363Y-105294722D01*
X146810000Y-105162942D01*
X146810000Y-101841040D01*
X147066000Y-101841040D01*
X147301317Y-101796762D01*
X147517441Y-101657690D01*
X147662431Y-101445490D01*
X147695179Y-101283777D01*
X147924630Y-101513629D01*
X148437900Y-101726757D01*
X148993661Y-101727242D01*
X149507303Y-101515010D01*
X149900629Y-101122370D01*
X149986949Y-100914488D01*
X150071990Y-101120303D01*
X150464630Y-101513629D01*
X150977900Y-101726757D01*
X151533661Y-101727242D01*
X152047303Y-101515010D01*
X152440629Y-101122370D01*
X152526949Y-100914488D01*
X152611990Y-101120303D01*
X153004630Y-101513629D01*
X153517900Y-101726757D01*
X154073661Y-101727242D01*
X154587303Y-101515010D01*
X154980629Y-101122370D01*
X155066949Y-100914488D01*
X155151990Y-101120303D01*
X155544630Y-101513629D01*
X156057900Y-101726757D01*
X156613661Y-101727242D01*
X157127303Y-101515010D01*
X157520629Y-101122370D01*
X157606949Y-100914488D01*
X157691990Y-101120303D01*
X158084630Y-101513629D01*
X158597900Y-101726757D01*
X159153661Y-101727242D01*
X159667303Y-101515010D01*
X160060629Y-101122370D01*
X160146949Y-100914488D01*
X160231990Y-101120303D01*
X160624630Y-101513629D01*
X161137900Y-101726757D01*
X161693661Y-101727242D01*
X162207303Y-101515010D01*
X162600629Y-101122370D01*
X162813757Y-100609100D01*
X162814242Y-100053339D01*
X162602010Y-99539697D01*
X162209370Y-99146371D01*
X162001488Y-99060051D01*
X162207303Y-98975010D01*
X162600629Y-98582370D01*
X162813757Y-98069100D01*
X162814242Y-97513339D01*
X162602010Y-96999697D01*
X162209370Y-96606371D01*
X162001488Y-96520051D01*
X162207303Y-96435010D01*
X162600629Y-96042370D01*
X162813757Y-95529100D01*
X162814242Y-94973339D01*
X162602010Y-94459697D01*
X162209370Y-94066371D01*
X162001488Y-93980051D01*
X162207303Y-93895010D01*
X162600629Y-93502370D01*
X162813757Y-92989100D01*
X162814242Y-92433339D01*
X162602010Y-91919697D01*
X162209370Y-91526371D01*
X162001488Y-91440051D01*
X162207303Y-91355010D01*
X162600629Y-90962370D01*
X162813757Y-90449100D01*
X162814242Y-89893339D01*
X162602010Y-89379697D01*
X162209370Y-88986371D01*
X162001488Y-88900051D01*
X162207303Y-88815010D01*
X162600629Y-88422370D01*
X162813757Y-87909100D01*
X162814242Y-87353339D01*
X162602010Y-86839697D01*
X162209370Y-86446371D01*
X162001488Y-86360051D01*
X162207303Y-86275010D01*
X162600629Y-85882370D01*
X162813757Y-85369100D01*
X162814242Y-84813339D01*
X162602010Y-84299697D01*
X162209370Y-83906371D01*
X162001488Y-83820051D01*
X162207303Y-83735010D01*
X162600629Y-83342370D01*
X162813757Y-82829100D01*
X162814242Y-82273339D01*
X162602010Y-81759697D01*
X162209370Y-81366371D01*
X162001488Y-81280051D01*
X162207303Y-81195010D01*
X162600629Y-80802370D01*
X162813757Y-80289100D01*
X162814242Y-79733339D01*
X162602010Y-79219697D01*
X162209370Y-78826371D01*
X162001488Y-78740051D01*
X162207303Y-78655010D01*
X162600629Y-78262370D01*
X162813757Y-77749100D01*
X162814242Y-77193339D01*
X162602010Y-76679697D01*
X162289991Y-76367133D01*
X162300880Y-76362622D01*
X162401502Y-76094107D01*
X161417000Y-75109605D01*
X160432498Y-76094107D01*
X160533120Y-76362622D01*
X160544634Y-76366909D01*
X160233371Y-76677630D01*
X160147051Y-76885512D01*
X160062010Y-76679697D01*
X159749991Y-76367133D01*
X159760880Y-76362622D01*
X159861502Y-76094107D01*
X158877000Y-75109605D01*
X157892498Y-76094107D01*
X157993120Y-76362622D01*
X158004634Y-76366909D01*
X157693371Y-76677630D01*
X157607051Y-76885512D01*
X157522010Y-76679697D01*
X157209991Y-76367133D01*
X157220880Y-76362622D01*
X157321502Y-76094107D01*
X156337000Y-75109605D01*
X155352498Y-76094107D01*
X155453120Y-76362622D01*
X155464634Y-76366909D01*
X155153371Y-76677630D01*
X155067051Y-76885512D01*
X154982010Y-76679697D01*
X154669991Y-76367133D01*
X154680880Y-76362622D01*
X154781502Y-76094107D01*
X153797000Y-75109605D01*
X152812498Y-76094107D01*
X152913120Y-76362622D01*
X152924634Y-76366909D01*
X152613371Y-76677630D01*
X152527051Y-76885512D01*
X152442010Y-76679697D01*
X152129991Y-76367133D01*
X152140880Y-76362622D01*
X152241502Y-76094107D01*
X151257000Y-75109605D01*
X150272498Y-76094107D01*
X150373120Y-76362622D01*
X150384634Y-76366909D01*
X150073371Y-76677630D01*
X149987051Y-76885512D01*
X149902010Y-76679697D01*
X149589991Y-76367133D01*
X149600880Y-76362622D01*
X149701502Y-76094107D01*
X148717000Y-75109605D01*
X147732498Y-76094107D01*
X147833120Y-76362622D01*
X147844634Y-76366909D01*
X147533371Y-76677630D01*
X147510240Y-76733335D01*
X147294415Y-76410330D01*
X146984931Y-76203539D01*
X147380667Y-75849963D01*
X147552893Y-75914502D01*
X148537395Y-74930000D01*
X148896605Y-74930000D01*
X149881107Y-75914502D01*
X149987000Y-75874820D01*
X150092893Y-75914502D01*
X151077395Y-74930000D01*
X151436605Y-74930000D01*
X152421107Y-75914502D01*
X152527000Y-75874820D01*
X152632893Y-75914502D01*
X153617395Y-74930000D01*
X153976605Y-74930000D01*
X154961107Y-75914502D01*
X155067000Y-75874820D01*
X155172893Y-75914502D01*
X156157395Y-74930000D01*
X156516605Y-74930000D01*
X157501107Y-75914502D01*
X157607000Y-75874820D01*
X157712893Y-75914502D01*
X158697395Y-74930000D01*
X159056605Y-74930000D01*
X160041107Y-75914502D01*
X160147000Y-75874820D01*
X160252893Y-75914502D01*
X161237395Y-74930000D01*
X161596605Y-74930000D01*
X162581107Y-75914502D01*
X162849622Y-75813880D01*
X163078816Y-75198358D01*
X163055014Y-74541981D01*
X162849622Y-74046120D01*
X162581107Y-73945498D01*
X161596605Y-74930000D01*
X161237395Y-74930000D01*
X160252893Y-73945498D01*
X160147000Y-73985180D01*
X160041107Y-73945498D01*
X159056605Y-74930000D01*
X158697395Y-74930000D01*
X157712893Y-73945498D01*
X157607000Y-73985180D01*
X157501107Y-73945498D01*
X156516605Y-74930000D01*
X156157395Y-74930000D01*
X155172893Y-73945498D01*
X155067000Y-73985180D01*
X154961107Y-73945498D01*
X153976605Y-74930000D01*
X153617395Y-74930000D01*
X152632893Y-73945498D01*
X152527000Y-73985180D01*
X152421107Y-73945498D01*
X151436605Y-74930000D01*
X151077395Y-74930000D01*
X150092893Y-73945498D01*
X149987000Y-73985180D01*
X149881107Y-73945498D01*
X148896605Y-74930000D01*
X148537395Y-74930000D01*
X147552893Y-73945498D01*
X147380667Y-74010037D01*
X147107412Y-73765893D01*
X147732498Y-73765893D01*
X148717000Y-74750395D01*
X149701502Y-73765893D01*
X150272498Y-73765893D01*
X151257000Y-74750395D01*
X152241502Y-73765893D01*
X152812498Y-73765893D01*
X153797000Y-74750395D01*
X154781502Y-73765893D01*
X154680880Y-73497378D01*
X154065358Y-73268184D01*
X153408981Y-73291986D01*
X152913120Y-73497378D01*
X152812498Y-73765893D01*
X152241502Y-73765893D01*
X152140880Y-73497378D01*
X151525358Y-73268184D01*
X150868981Y-73291986D01*
X150373120Y-73497378D01*
X150272498Y-73765893D01*
X149701502Y-73765893D01*
X149600880Y-73497378D01*
X148985358Y-73268184D01*
X148328981Y-73291986D01*
X147833120Y-73497378D01*
X147732498Y-73765893D01*
X147107412Y-73765893D01*
X146984931Y-73656461D01*
X147294415Y-73449670D01*
X147494648Y-73150000D01*
X155307381Y-73150000D01*
X155798966Y-73354124D01*
X155453120Y-73497378D01*
X155352498Y-73765893D01*
X156337000Y-74750395D01*
X157321502Y-73765893D01*
X157220880Y-73497378D01*
X156722447Y-73311783D01*
X157134655Y-73141462D01*
X157480199Y-72796520D01*
X157822927Y-73139846D01*
X158338966Y-73354124D01*
X157993120Y-73497378D01*
X157892498Y-73765893D01*
X158877000Y-74750395D01*
X159861502Y-73765893D01*
X159760880Y-73497378D01*
X159262447Y-73311783D01*
X159674655Y-73141462D01*
X159909362Y-72907163D01*
X160317443Y-72907163D01*
X160416042Y-73173965D01*
X160889389Y-73349807D01*
X160533120Y-73497378D01*
X160432498Y-73765893D01*
X161417000Y-74750395D01*
X162401502Y-73765893D01*
X162300880Y-73497378D01*
X161817607Y-73317428D01*
X162163958Y-73173965D01*
X162262557Y-72907163D01*
X161290000Y-71934605D01*
X160317443Y-72907163D01*
X159909362Y-72907163D01*
X160102401Y-72714461D01*
X160137837Y-72727557D01*
X161110395Y-71755000D01*
X161469605Y-71755000D01*
X162442163Y-72727557D01*
X162708965Y-72628958D01*
X162935401Y-72019418D01*
X162911341Y-71369623D01*
X162708965Y-70881042D01*
X162442163Y-70782443D01*
X161469605Y-71755000D01*
X161110395Y-71755000D01*
X160137837Y-70782443D01*
X160101901Y-70795724D01*
X159909351Y-70602837D01*
X160317443Y-70602837D01*
X161290000Y-71575395D01*
X162262557Y-70602837D01*
X162163958Y-70336035D01*
X161554418Y-70109599D01*
X160904623Y-70133659D01*
X160416042Y-70336035D01*
X160317443Y-70602837D01*
X159909351Y-70602837D01*
X159677073Y-70370154D01*
X159510000Y-70300779D01*
X159510000Y-69850000D01*
X159452148Y-69559161D01*
X159287401Y-69312599D01*
X156510122Y-66535320D01*
X156510162Y-66489833D01*
X156368117Y-66146057D01*
X156105327Y-65882808D01*
X156020583Y-65847619D01*
X159689613Y-65847619D01*
X160029155Y-66669372D01*
X160657321Y-67298636D01*
X161478481Y-67639611D01*
X162367619Y-67640387D01*
X163189372Y-67300845D01*
X163818636Y-66672679D01*
X164159611Y-65851519D01*
X164160387Y-64962381D01*
X163820845Y-64140628D01*
X163192679Y-63511364D01*
X162371519Y-63170389D01*
X161482381Y-63169613D01*
X160660628Y-63509155D01*
X160031364Y-64137321D01*
X159690389Y-64958481D01*
X159689613Y-65847619D01*
X156020583Y-65847619D01*
X155761799Y-65740162D01*
X155389833Y-65739838D01*
X155046057Y-65881883D01*
X154782808Y-66144673D01*
X154640162Y-66488201D01*
X154639838Y-66860167D01*
X154781883Y-67203943D01*
X155044673Y-67467192D01*
X155388201Y-67609838D01*
X155435077Y-67609879D01*
X157990000Y-70164802D01*
X157990000Y-70300504D01*
X157825345Y-70368538D01*
X157479801Y-70713480D01*
X157137073Y-70370154D01*
X156536547Y-70120794D01*
X155886306Y-70120226D01*
X155285345Y-70368538D01*
X154825154Y-70827927D01*
X154575794Y-71428453D01*
X154575618Y-71630000D01*
X147494648Y-71630000D01*
X147294415Y-71330330D01*
X146808234Y-71005474D01*
X146234745Y-70891400D01*
X145865255Y-70891400D01*
X145291766Y-71005474D01*
X144805585Y-71330330D01*
X144480729Y-71816511D01*
X144366655Y-72390000D01*
X144480729Y-72963489D01*
X144805585Y-73449670D01*
X145115069Y-73656461D01*
X144699268Y-74027964D01*
X144445291Y-74555209D01*
X144442642Y-74570974D01*
X144563783Y-74803000D01*
X145923000Y-74803000D01*
X145923000Y-74783000D01*
X146177000Y-74783000D01*
X146177000Y-74803000D01*
X146197000Y-74803000D01*
X146197000Y-75057000D01*
X146177000Y-75057000D01*
X146177000Y-75077000D01*
X145923000Y-75077000D01*
X145923000Y-75057000D01*
X144563783Y-75057000D01*
X144442642Y-75289026D01*
X144445291Y-75304791D01*
X144699268Y-75832036D01*
X145115069Y-76203539D01*
X144805585Y-76410330D01*
X144605352Y-76710000D01*
X143220000Y-76710000D01*
X142929161Y-76767852D01*
X142682599Y-76932599D01*
X139303821Y-80311377D01*
X139223117Y-80116057D01*
X138960327Y-79852808D01*
X138616799Y-79710162D01*
X138534712Y-79710090D01*
X143412401Y-74832401D01*
X143577148Y-74585839D01*
X143635000Y-74295000D01*
X143635000Y-71434802D01*
X145094802Y-69975000D01*
X147955000Y-69975000D01*
X148245839Y-69917148D01*
X148492401Y-69752401D01*
X150397401Y-67847401D01*
X150562148Y-67600839D01*
X150620000Y-67310000D01*
X150620000Y-66849648D01*
X150919670Y-66649415D01*
X151244526Y-66163234D01*
X151358600Y-65589745D01*
X151358600Y-65220255D01*
X151244526Y-64646766D01*
X150919670Y-64160585D01*
X150433489Y-63835729D01*
X149860000Y-63721655D01*
X149286511Y-63835729D01*
X148800330Y-64160585D01*
X148593539Y-64470069D01*
X148222036Y-64054268D01*
X147694791Y-63800291D01*
X147679026Y-63797642D01*
X147447000Y-63918783D01*
X147447000Y-65278000D01*
X147467000Y-65278000D01*
X147467000Y-65532000D01*
X147447000Y-65532000D01*
X147447000Y-66891217D01*
X147679026Y-67012358D01*
X147694791Y-67009709D01*
X148222036Y-66755732D01*
X148593539Y-66339931D01*
X148800330Y-66649415D01*
X149100000Y-66849648D01*
X149100000Y-66995198D01*
X147640198Y-68455000D01*
X144780000Y-68455000D01*
X144692371Y-68472431D01*
X145317401Y-67847401D01*
X145482148Y-67600839D01*
X145540000Y-67310000D01*
X145540000Y-66849648D01*
X145839670Y-66649415D01*
X146046461Y-66339931D01*
X146417964Y-66755732D01*
X146945209Y-67009709D01*
X146960974Y-67012358D01*
X147193000Y-66891217D01*
X147193000Y-65532000D01*
X147173000Y-65532000D01*
X147173000Y-65278000D01*
X147193000Y-65278000D01*
X147193000Y-63918783D01*
X146960974Y-63797642D01*
X146945209Y-63800291D01*
X146417964Y-64054268D01*
X146046461Y-64470069D01*
X145839670Y-64160585D01*
X145353489Y-63835729D01*
X144780000Y-63721655D01*
X144206511Y-63835729D01*
X143720330Y-64160585D01*
X143510000Y-64475366D01*
X143299670Y-64160585D01*
X142813489Y-63835729D01*
X142240000Y-63721655D01*
X141666511Y-63835729D01*
X141180330Y-64160585D01*
X141170757Y-64174913D01*
X141166762Y-64153683D01*
X141027690Y-63937559D01*
X140815490Y-63792569D01*
X140563600Y-63741560D01*
X138836400Y-63741560D01*
X138601083Y-63785838D01*
X138384959Y-63924910D01*
X138239969Y-64137110D01*
X138188960Y-64389000D01*
X138188960Y-66421000D01*
X138233238Y-66656317D01*
X138372310Y-66872441D01*
X138584510Y-67017431D01*
X138836400Y-67068440D01*
X140563600Y-67068440D01*
X140798917Y-67024162D01*
X141015041Y-66885090D01*
X141160031Y-66672890D01*
X141168400Y-66631561D01*
X141180330Y-66649415D01*
X141480000Y-66849648D01*
X141480000Y-67630198D01*
X137480198Y-71630000D01*
X136341917Y-71630000D01*
X136289851Y-71552078D01*
X135905409Y-71295203D01*
X135451929Y-71205000D01*
X133978071Y-71205000D01*
X133524591Y-71295203D01*
X133140149Y-71552078D01*
X132883274Y-71936520D01*
X132793071Y-72390000D01*
X132883274Y-72843480D01*
X133140149Y-73227922D01*
X133382717Y-73390000D01*
X133140149Y-73552078D01*
X132883274Y-73936520D01*
X132793071Y-74390000D01*
X132883274Y-74843480D01*
X133140149Y-75227922D01*
X133382717Y-75390000D01*
X133140149Y-75552078D01*
X132883274Y-75936520D01*
X132793071Y-76390000D01*
X132883274Y-76843480D01*
X133140149Y-77227922D01*
X133382717Y-77390000D01*
X133140149Y-77552078D01*
X132883274Y-77936520D01*
X132793071Y-78390000D01*
X132883274Y-78843480D01*
X133140149Y-79227922D01*
X133382717Y-79390000D01*
X133140149Y-79552078D01*
X133088083Y-79630000D01*
X132970018Y-79630000D01*
X132679179Y-79687852D01*
X132432617Y-79852599D01*
X128765320Y-83519896D01*
X128719833Y-83519856D01*
X128376057Y-83661901D01*
X128112808Y-83924691D01*
X127970162Y-84268219D01*
X127969838Y-84640185D01*
X128111883Y-84983961D01*
X128374673Y-85247210D01*
X128718201Y-85389856D01*
X129090167Y-85390180D01*
X129433943Y-85248135D01*
X129697192Y-84985345D01*
X129839838Y-84641817D01*
X129839879Y-84594941D01*
X133180162Y-81254658D01*
X133382717Y-81390000D01*
X133140149Y-81552078D01*
X132883274Y-81936520D01*
X132793071Y-82390000D01*
X132883274Y-82843480D01*
X133140149Y-83227922D01*
X133332717Y-83356591D01*
X133040149Y-83552078D01*
X132783274Y-83936520D01*
X132693071Y-84390000D01*
X132783274Y-84843480D01*
X133040149Y-85227922D01*
X133341691Y-85429405D01*
X133087276Y-85641882D01*
X132871602Y-86053854D01*
X132871197Y-86080256D01*
X132996639Y-86263000D01*
X134588000Y-86263000D01*
X134588000Y-86243000D01*
X134842000Y-86243000D01*
X134842000Y-86263000D01*
X136433361Y-86263000D01*
X136558803Y-86080256D01*
X136558398Y-86053854D01*
X136342724Y-85641882D01*
X135999417Y-85355165D01*
X136189851Y-85227922D01*
X136241917Y-85150000D01*
X136590000Y-85150000D01*
X136880839Y-85092148D01*
X137127401Y-84927401D01*
X140247400Y-81807402D01*
X140412147Y-81560840D01*
X140463841Y-81300961D01*
X140747262Y-81017540D01*
X140811883Y-81173935D01*
X141074673Y-81437184D01*
X141418201Y-81579830D01*
X141790167Y-81580154D01*
X142133943Y-81438109D01*
X142397192Y-81175319D01*
X142539838Y-80831791D01*
X142539879Y-80784915D01*
X142554794Y-80770000D01*
X144605352Y-80770000D01*
X144805585Y-81069670D01*
X145120366Y-81280000D01*
X144805585Y-81490330D01*
X144605352Y-81790000D01*
X140970000Y-81790000D01*
X140727414Y-81838254D01*
X140679160Y-81847852D01*
X140432599Y-82012599D01*
X138290320Y-84154878D01*
X138244833Y-84154838D01*
X137901057Y-84296883D01*
X137637808Y-84559673D01*
X137495162Y-84903201D01*
X137494838Y-85275167D01*
X137636883Y-85618943D01*
X137899673Y-85882192D01*
X138243201Y-86024838D01*
X138615167Y-86025162D01*
X138958943Y-85883117D01*
X139222192Y-85620327D01*
X139364838Y-85276799D01*
X139364879Y-85229923D01*
X141284802Y-83310000D01*
X144605352Y-83310000D01*
X144805585Y-83609670D01*
X145120366Y-83820000D01*
X144805585Y-84030330D01*
X144605352Y-84330000D01*
X140970000Y-84330000D01*
X140679161Y-84387852D01*
X140432599Y-84552599D01*
X140195320Y-84789878D01*
X140149833Y-84789838D01*
X139806057Y-84931883D01*
X139542808Y-85194673D01*
X139400162Y-85538201D01*
X139399838Y-85910167D01*
X139541883Y-86253943D01*
X139804673Y-86517192D01*
X140148201Y-86659838D01*
X140520167Y-86660162D01*
X140863943Y-86518117D01*
X141127192Y-86255327D01*
X141269838Y-85911799D01*
X141269879Y-85864923D01*
X141284802Y-85850000D01*
X144605352Y-85850000D01*
X144805585Y-86149670D01*
X145120366Y-86360000D01*
X144805585Y-86570330D01*
X144605352Y-86870000D01*
X138430000Y-86870000D01*
X138139161Y-86927852D01*
X137892599Y-87092599D01*
X134050553Y-90934645D01*
X131367465Y-90934645D01*
X131602192Y-90700327D01*
X131744838Y-90356799D01*
X131745162Y-89984833D01*
X131734092Y-89958042D01*
X132005000Y-90011929D01*
X132458480Y-89921726D01*
X132842922Y-89664851D01*
X133099797Y-89280409D01*
X133190000Y-88826929D01*
X133190000Y-88544802D01*
X133684878Y-89039680D01*
X133684838Y-89085167D01*
X133826883Y-89428943D01*
X134089673Y-89692192D01*
X134433201Y-89834838D01*
X134805167Y-89835162D01*
X135148943Y-89693117D01*
X135412192Y-89430327D01*
X135554838Y-89086799D01*
X135555162Y-88714833D01*
X135413117Y-88371057D01*
X135150327Y-88107808D01*
X134806799Y-87965162D01*
X134759923Y-87965121D01*
X134369802Y-87575000D01*
X134588000Y-87575000D01*
X134588000Y-86517000D01*
X134842000Y-86517000D01*
X134842000Y-87575000D01*
X135542000Y-87575000D01*
X135985813Y-87436196D01*
X136342724Y-87138118D01*
X136558398Y-86726146D01*
X136558803Y-86699744D01*
X136433361Y-86517000D01*
X134842000Y-86517000D01*
X134588000Y-86517000D01*
X132996639Y-86517000D01*
X132919371Y-86629564D01*
X132842922Y-86515149D01*
X132458480Y-86258274D01*
X132005000Y-86168071D01*
X131551520Y-86258274D01*
X131167078Y-86515149D01*
X131005000Y-86757717D01*
X130842922Y-86515149D01*
X130458480Y-86258274D01*
X130005000Y-86168071D01*
X129551520Y-86258274D01*
X129167078Y-86515149D01*
X129005000Y-86757717D01*
X128842922Y-86515149D01*
X128458480Y-86258274D01*
X128005000Y-86168071D01*
X127551520Y-86258274D01*
X127167078Y-86515149D01*
X127005000Y-86757717D01*
X126842922Y-86515149D01*
X126458480Y-86258274D01*
X126005000Y-86168071D01*
X125551520Y-86258274D01*
X125167078Y-86515149D01*
X125005000Y-86757717D01*
X124842922Y-86515149D01*
X124458480Y-86258274D01*
X124005000Y-86168071D01*
X123551520Y-86258274D01*
X123167078Y-86515149D01*
X123005000Y-86757717D01*
X122842922Y-86515149D01*
X122458480Y-86258274D01*
X122005000Y-86168071D01*
X121551520Y-86258274D01*
X121218926Y-86480505D01*
X121236929Y-86390000D01*
X121146726Y-85936520D01*
X120889851Y-85552078D01*
X120647283Y-85390000D01*
X120889851Y-85227922D01*
X120898485Y-85215000D01*
X121992537Y-85215000D01*
X122024673Y-85247192D01*
X122368201Y-85389838D01*
X122740167Y-85390162D01*
X123083943Y-85248117D01*
X123347192Y-84985327D01*
X123489838Y-84641799D01*
X123490162Y-84269833D01*
X123348117Y-83926057D01*
X123085327Y-83662808D01*
X122741799Y-83520162D01*
X122369833Y-83519838D01*
X122026057Y-83661883D01*
X121992882Y-83695000D01*
X120985348Y-83695000D01*
X120889851Y-83552078D01*
X120647283Y-83390000D01*
X120889851Y-83227922D01*
X121146726Y-82843480D01*
X121180239Y-82675000D01*
X123897537Y-82675000D01*
X123929673Y-82707192D01*
X124273201Y-82849838D01*
X124645167Y-82850162D01*
X124988943Y-82708117D01*
X125252192Y-82445327D01*
X125394838Y-82101799D01*
X125395162Y-81729833D01*
X125253117Y-81386057D01*
X124990327Y-81122808D01*
X124646799Y-80980162D01*
X124274833Y-80979838D01*
X123931057Y-81121883D01*
X123897882Y-81155000D01*
X120938576Y-81155000D01*
X120941917Y-81150000D01*
X122810000Y-81150000D01*
X123100839Y-81092148D01*
X123347401Y-80927401D01*
X123964680Y-80310122D01*
X124010167Y-80310162D01*
X124353943Y-80168117D01*
X124617192Y-79905327D01*
X124759838Y-79561799D01*
X124760162Y-79189833D01*
X124618117Y-78846057D01*
X124355327Y-78582808D01*
X124011799Y-78440162D01*
X123639833Y-78439838D01*
X123296057Y-78581883D01*
X123032808Y-78844673D01*
X122890162Y-79188201D01*
X122890121Y-79235077D01*
X122495198Y-79630000D01*
X120941917Y-79630000D01*
X120889851Y-79552078D01*
X120647283Y-79390000D01*
X120889851Y-79227922D01*
X121146726Y-78843480D01*
X121236929Y-78390000D01*
X121146726Y-77936520D01*
X120889851Y-77552078D01*
X120647283Y-77390000D01*
X120889851Y-77227922D01*
X121146726Y-76843480D01*
X121236929Y-76390000D01*
X121146726Y-75936520D01*
X120889851Y-75552078D01*
X120647283Y-75390000D01*
X120889851Y-75227922D01*
X120941917Y-75150000D01*
X123445931Y-75150000D01*
X123638201Y-75229838D01*
X124010167Y-75230162D01*
X124353943Y-75088117D01*
X124617192Y-74825327D01*
X124759838Y-74481799D01*
X124760162Y-74109833D01*
X124618117Y-73766057D01*
X124355327Y-73502808D01*
X124011799Y-73360162D01*
X123639833Y-73359838D01*
X123296057Y-73501883D01*
X123167716Y-73630000D01*
X120941917Y-73630000D01*
X120889851Y-73552078D01*
X120839129Y-73518187D01*
X121016441Y-73404090D01*
X121161431Y-73191890D01*
X121212440Y-72940000D01*
X121212440Y-71840000D01*
X121168162Y-71604683D01*
X121029090Y-71388559D01*
X120816890Y-71243569D01*
X120565000Y-71192560D01*
X118065000Y-71192560D01*
X117829683Y-71236838D01*
X117613559Y-71375910D01*
X117468569Y-71588110D01*
X117460086Y-71630000D01*
X113665000Y-71630000D01*
X113374161Y-71687852D01*
X113127599Y-71852599D01*
X111222599Y-73757599D01*
X111057852Y-74004161D01*
X111000000Y-74295000D01*
X111000000Y-85725000D01*
X111057852Y-86015839D01*
X111222599Y-86262401D01*
X116539878Y-91579680D01*
X116539865Y-91593797D01*
X116393864Y-91447796D01*
X116106100Y-91255519D01*
X115766660Y-91188000D01*
X112784037Y-91188000D01*
X112744162Y-90976083D01*
X112605090Y-90759959D01*
X112392890Y-90614969D01*
X112141000Y-90563960D01*
X110109000Y-90563960D01*
X109873683Y-90608238D01*
X109657559Y-90747310D01*
X109512569Y-90959510D01*
X109461560Y-91211400D01*
X108025000Y-91211400D01*
X108025000Y-65847619D01*
X108889613Y-65847619D01*
X109229155Y-66669372D01*
X109857321Y-67298636D01*
X110678481Y-67639611D01*
X111567619Y-67640387D01*
X112389372Y-67300845D01*
X113018636Y-66672679D01*
X113359611Y-65851519D01*
X113360387Y-64962381D01*
X113020845Y-64140628D01*
X112392679Y-63511364D01*
X111571519Y-63170389D01*
X110682381Y-63169613D01*
X109860628Y-63509155D01*
X109231364Y-64137321D01*
X108890389Y-64958481D01*
X108889613Y-65847619D01*
X108025000Y-65847619D01*
X108025000Y-62305000D01*
X117983000Y-62305000D01*
X117983000Y-69850000D01*
X117983000Y-69850000D01*
G37*
X117983000Y-69850000D02*
X117991685Y-69896159D01*
X118018965Y-69938553D01*
X118060590Y-69966994D01*
X118110000Y-69977000D01*
X135763000Y-69977000D01*
X135809159Y-69968315D01*
X135851553Y-69941035D01*
X135879994Y-69899410D01*
X135890000Y-69850000D01*
X135890000Y-62305000D01*
X165025000Y-62305000D01*
X165025000Y-114860000D01*
X108025000Y-114860000D01*
X108025000Y-112202619D01*
X108889613Y-112202619D01*
X109229155Y-113024372D01*
X109857321Y-113653636D01*
X110678481Y-113994611D01*
X111567619Y-113995387D01*
X112389372Y-113655845D01*
X113018636Y-113027679D01*
X113307285Y-112332532D01*
X127297073Y-112332532D01*
X127395736Y-112599387D01*
X128005461Y-112825908D01*
X128655460Y-112801856D01*
X129144264Y-112599387D01*
X129242927Y-112332532D01*
X133797073Y-112332532D01*
X133895736Y-112599387D01*
X134505461Y-112825908D01*
X135155460Y-112801856D01*
X135644264Y-112599387D01*
X135742927Y-112332532D01*
X138727073Y-112332532D01*
X138825736Y-112599387D01*
X139435461Y-112825908D01*
X140085460Y-112801856D01*
X140574264Y-112599387D01*
X140672927Y-112332532D01*
X145227073Y-112332532D01*
X145325736Y-112599387D01*
X145935461Y-112825908D01*
X146585460Y-112801856D01*
X147074264Y-112599387D01*
X147172927Y-112332532D01*
X147043014Y-112202619D01*
X159689613Y-112202619D01*
X160029155Y-113024372D01*
X160657321Y-113653636D01*
X161478481Y-113994611D01*
X162367619Y-113995387D01*
X163189372Y-113655845D01*
X163818636Y-113027679D01*
X164159611Y-112206519D01*
X164160387Y-111317381D01*
X163820845Y-110495628D01*
X163192679Y-109866364D01*
X162371519Y-109525389D01*
X161482381Y-109524613D01*
X160660628Y-109864155D01*
X160031364Y-110492321D01*
X159690389Y-111313481D01*
X159689613Y-112202619D01*
X147043014Y-112202619D01*
X146200000Y-111359605D01*
X145227073Y-112332532D01*
X140672927Y-112332532D01*
X139700000Y-111359605D01*
X138727073Y-112332532D01*
X135742927Y-112332532D01*
X134770000Y-111359605D01*
X133797073Y-112332532D01*
X129242927Y-112332532D01*
X128270000Y-111359605D01*
X127297073Y-112332532D01*
X113307285Y-112332532D01*
X113359611Y-112206519D01*
X113360387Y-111317381D01*
X113194317Y-110915461D01*
X126624092Y-110915461D01*
X126648144Y-111565460D01*
X126850613Y-112054264D01*
X127117468Y-112152927D01*
X128090395Y-111180000D01*
X128449605Y-111180000D01*
X129422532Y-112152927D01*
X129689387Y-112054264D01*
X129915908Y-111444539D01*
X129896331Y-110915461D01*
X133124092Y-110915461D01*
X133148144Y-111565460D01*
X133350613Y-112054264D01*
X133617468Y-112152927D01*
X134590395Y-111180000D01*
X134949605Y-111180000D01*
X135922532Y-112152927D01*
X136189387Y-112054264D01*
X136415908Y-111444539D01*
X136396331Y-110915461D01*
X138054092Y-110915461D01*
X138078144Y-111565460D01*
X138280613Y-112054264D01*
X138547468Y-112152927D01*
X139520395Y-111180000D01*
X139879605Y-111180000D01*
X140852532Y-112152927D01*
X141119387Y-112054264D01*
X141345908Y-111444539D01*
X141326331Y-110915461D01*
X144554092Y-110915461D01*
X144578144Y-111565460D01*
X144780613Y-112054264D01*
X145047468Y-112152927D01*
X146020395Y-111180000D01*
X146379605Y-111180000D01*
X147352532Y-112152927D01*
X147619387Y-112054264D01*
X147845908Y-111444539D01*
X147821856Y-110794540D01*
X147619387Y-110305736D01*
X147352532Y-110207073D01*
X146379605Y-111180000D01*
X146020395Y-111180000D01*
X145047468Y-110207073D01*
X144780613Y-110305736D01*
X144554092Y-110915461D01*
X141326331Y-110915461D01*
X141321856Y-110794540D01*
X141119387Y-110305736D01*
X140852532Y-110207073D01*
X139879605Y-111180000D01*
X139520395Y-111180000D01*
X138547468Y-110207073D01*
X138280613Y-110305736D01*
X138054092Y-110915461D01*
X136396331Y-110915461D01*
X136391856Y-110794540D01*
X136189387Y-110305736D01*
X135922532Y-110207073D01*
X134949605Y-111180000D01*
X134590395Y-111180000D01*
X133617468Y-110207073D01*
X133350613Y-110305736D01*
X133124092Y-110915461D01*
X129896331Y-110915461D01*
X129891856Y-110794540D01*
X129689387Y-110305736D01*
X129422532Y-110207073D01*
X128449605Y-111180000D01*
X128090395Y-111180000D01*
X127117468Y-110207073D01*
X126850613Y-110305736D01*
X126624092Y-110915461D01*
X113194317Y-110915461D01*
X113020845Y-110495628D01*
X112392679Y-109866364D01*
X111571519Y-109525389D01*
X110682381Y-109524613D01*
X109860628Y-109864155D01*
X109231364Y-110492321D01*
X108890389Y-111313481D01*
X108889613Y-112202619D01*
X108025000Y-112202619D01*
X108025000Y-108395750D01*
X118580000Y-108395750D01*
X118580000Y-109986309D01*
X118676673Y-110219698D01*
X118855301Y-110398327D01*
X119088690Y-110495000D01*
X119729250Y-110495000D01*
X119888000Y-110336250D01*
X119888000Y-108237000D01*
X120142000Y-108237000D01*
X120142000Y-110336250D01*
X120300750Y-110495000D01*
X120941310Y-110495000D01*
X121174699Y-110398327D01*
X121353327Y-110219698D01*
X121432951Y-110027468D01*
X127297073Y-110027468D01*
X128270000Y-111000395D01*
X129242927Y-110027468D01*
X133797073Y-110027468D01*
X134770000Y-111000395D01*
X135742927Y-110027468D01*
X135644264Y-109760613D01*
X135034539Y-109534092D01*
X134384540Y-109558144D01*
X133895736Y-109760613D01*
X133797073Y-110027468D01*
X129242927Y-110027468D01*
X129144264Y-109760613D01*
X128534539Y-109534092D01*
X127884540Y-109558144D01*
X127395736Y-109760613D01*
X127297073Y-110027468D01*
X121432951Y-110027468D01*
X121450000Y-109986309D01*
X121450000Y-108395750D01*
X121291250Y-108237000D01*
X120142000Y-108237000D01*
X119888000Y-108237000D01*
X118738750Y-108237000D01*
X118580000Y-108395750D01*
X108025000Y-108395750D01*
X108025000Y-106233691D01*
X118580000Y-106233691D01*
X118580000Y-107824250D01*
X118738750Y-107983000D01*
X119888000Y-107983000D01*
X119888000Y-105883750D01*
X120142000Y-105883750D01*
X120142000Y-107983000D01*
X121291250Y-107983000D01*
X121450000Y-107824250D01*
X121450000Y-107003795D01*
X126634716Y-107003795D01*
X126883106Y-107604943D01*
X127342637Y-108065278D01*
X127943352Y-108314716D01*
X128593795Y-108315284D01*
X129194943Y-108066894D01*
X129655278Y-107607363D01*
X129904716Y-107006648D01*
X129905284Y-106356205D01*
X129656894Y-105755057D01*
X129197363Y-105294722D01*
X128596648Y-105045284D01*
X127946205Y-105044716D01*
X127345057Y-105293106D01*
X126884722Y-105752637D01*
X126635284Y-106353352D01*
X126634716Y-107003795D01*
X121450000Y-107003795D01*
X121450000Y-106233691D01*
X121353327Y-106000302D01*
X121174699Y-105821673D01*
X120941310Y-105725000D01*
X120300750Y-105725000D01*
X120142000Y-105883750D01*
X119888000Y-105883750D01*
X119729250Y-105725000D01*
X119088690Y-105725000D01*
X118855301Y-105821673D01*
X118676673Y-106000302D01*
X118580000Y-106233691D01*
X108025000Y-106233691D01*
X108025000Y-99695000D01*
X109441655Y-99695000D01*
X109555729Y-100268489D01*
X109880585Y-100754670D01*
X110366766Y-101079526D01*
X110940255Y-101193600D01*
X111309745Y-101193600D01*
X111883234Y-101079526D01*
X112369415Y-100754670D01*
X112484789Y-100582000D01*
X118666072Y-100582000D01*
X118689042Y-100604970D01*
X118618569Y-100708110D01*
X118567560Y-100960000D01*
X118567560Y-104460000D01*
X118611838Y-104695317D01*
X118750910Y-104911441D01*
X118963110Y-105056431D01*
X119215000Y-105107440D01*
X120815000Y-105107440D01*
X121050317Y-105063162D01*
X121266441Y-104924090D01*
X121411431Y-104711890D01*
X121462440Y-104460000D01*
X121462440Y-100960000D01*
X121418162Y-100724683D01*
X121279090Y-100508559D01*
X121066890Y-100363569D01*
X120818582Y-100313285D01*
X120642204Y-100049316D01*
X119660684Y-99067796D01*
X119660681Y-99067794D01*
X119035075Y-98442188D01*
X119177391Y-98350610D01*
X119322381Y-98138410D01*
X119373390Y-97886520D01*
X119373390Y-97519490D01*
X119392214Y-97519490D01*
X119434503Y-97532953D01*
X119511923Y-97519490D01*
X121141490Y-97519490D01*
X121300240Y-97360740D01*
X121300240Y-96012000D01*
X121554240Y-96012000D01*
X121554240Y-97360740D01*
X121712990Y-97519490D01*
X123553800Y-97519490D01*
X123787189Y-97422817D01*
X123965817Y-97244188D01*
X124062490Y-97010799D01*
X124062490Y-96170750D01*
X123903740Y-96012000D01*
X121554240Y-96012000D01*
X121300240Y-96012000D01*
X117602000Y-96012000D01*
X117602000Y-96032000D01*
X117348000Y-96032000D01*
X117348000Y-96012000D01*
X115747800Y-96012000D01*
X115589050Y-96170750D01*
X115589050Y-96511689D01*
X115635115Y-96622899D01*
X115627619Y-96633870D01*
X115576610Y-96885760D01*
X115576610Y-97886520D01*
X115620888Y-98121837D01*
X115759960Y-98337961D01*
X115913941Y-98443172D01*
X115549112Y-98808000D01*
X112484789Y-98808000D01*
X112369415Y-98635330D01*
X112059931Y-98428539D01*
X112475732Y-98057036D01*
X112729709Y-97529791D01*
X112732358Y-97514026D01*
X112611217Y-97282000D01*
X111252000Y-97282000D01*
X111252000Y-97302000D01*
X110998000Y-97302000D01*
X110998000Y-97282000D01*
X109638783Y-97282000D01*
X109517642Y-97514026D01*
X109520291Y-97529791D01*
X109774268Y-98057036D01*
X110190069Y-98428539D01*
X109880585Y-98635330D01*
X109555729Y-99121511D01*
X109441655Y-99695000D01*
X108025000Y-99695000D01*
X108025000Y-94974026D01*
X109517642Y-94974026D01*
X109520291Y-94989791D01*
X109774268Y-95517036D01*
X110186108Y-95885000D01*
X109774268Y-96252964D01*
X109520291Y-96780209D01*
X109517642Y-96795974D01*
X109638783Y-97028000D01*
X110998000Y-97028000D01*
X110998000Y-94742000D01*
X111252000Y-94742000D01*
X111252000Y-97028000D01*
X112611217Y-97028000D01*
X112732358Y-96795974D01*
X112729709Y-96780209D01*
X112475732Y-96252964D01*
X112063892Y-95885000D01*
X112475732Y-95517036D01*
X112729709Y-94989791D01*
X112732358Y-94974026D01*
X112611217Y-94742000D01*
X111252000Y-94742000D01*
X110998000Y-94742000D01*
X109638783Y-94742000D01*
X109517642Y-94974026D01*
X108025000Y-94974026D01*
X108025000Y-91211400D01*
X109461560Y-91211400D01*
X109461560Y-92938600D01*
X109505838Y-93173917D01*
X109644910Y-93390041D01*
X109857110Y-93535031D01*
X109951927Y-93554232D01*
X109774268Y-93712964D01*
X109520291Y-94240209D01*
X109517642Y-94255974D01*
X109638783Y-94488000D01*
X110998000Y-94488000D01*
X110998000Y-94468000D01*
X111252000Y-94468000D01*
X111252000Y-94488000D01*
X112611217Y-94488000D01*
X112732358Y-94255974D01*
X112729709Y-94240209D01*
X112475732Y-93712964D01*
X112300155Y-93556093D01*
X112376317Y-93541762D01*
X112592441Y-93402690D01*
X112737431Y-93190490D01*
X112783701Y-92962000D01*
X115399252Y-92962000D01*
X115823740Y-93386488D01*
X115772609Y-93419390D01*
X115627619Y-93631590D01*
X115576610Y-93883480D01*
X115576610Y-94884240D01*
X115620888Y-95119557D01*
X115636484Y-95143794D01*
X115589050Y-95258311D01*
X115589050Y-95599250D01*
X115747800Y-95758000D01*
X117348000Y-95758000D01*
X117348000Y-95738000D01*
X117602000Y-95738000D01*
X117602000Y-95758000D01*
X121300240Y-95758000D01*
X121300240Y-94409260D01*
X121141490Y-94250510D01*
X119533801Y-94250510D01*
X119373390Y-94248805D01*
X119373390Y-93883480D01*
X119329112Y-93648163D01*
X119190040Y-93432039D01*
X118977840Y-93287049D01*
X118725950Y-93236040D01*
X118161898Y-93236040D01*
X118121203Y-93175135D01*
X117320935Y-92374867D01*
X117660167Y-92375162D01*
X118003943Y-92233117D01*
X118267192Y-91970327D01*
X118409838Y-91626799D01*
X118410162Y-91254833D01*
X118268117Y-90911057D01*
X118005327Y-90647808D01*
X117661799Y-90505162D01*
X117614923Y-90505121D01*
X113728493Y-86618691D01*
X113567401Y-86377599D01*
X113326309Y-86216507D01*
X112520000Y-85410198D01*
X112520000Y-74609802D01*
X113979802Y-73150000D01*
X117457074Y-73150000D01*
X117461838Y-73175317D01*
X117600910Y-73391441D01*
X117788615Y-73519694D01*
X117740149Y-73552078D01*
X117483274Y-73936520D01*
X117393071Y-74390000D01*
X117483274Y-74843480D01*
X117740149Y-75227922D01*
X117982717Y-75390000D01*
X117740149Y-75552078D01*
X117688083Y-75630000D01*
X116395000Y-75630000D01*
X116104161Y-75687852D01*
X115857599Y-75852599D01*
X115635198Y-76075000D01*
X115595558Y-76075000D01*
X115553162Y-75849683D01*
X115414090Y-75633559D01*
X115201890Y-75488569D01*
X114950000Y-75437560D01*
X113650000Y-75437560D01*
X113414683Y-75481838D01*
X113198559Y-75620910D01*
X113053569Y-75833110D01*
X113002560Y-76085000D01*
X113002560Y-77585000D01*
X113046838Y-77820317D01*
X113185910Y-78036441D01*
X113398110Y-78181431D01*
X113411197Y-78184081D01*
X113198559Y-78320910D01*
X113053569Y-78533110D01*
X113002560Y-78785000D01*
X113002560Y-80285000D01*
X113046838Y-80520317D01*
X113185910Y-80736441D01*
X113398110Y-80881431D01*
X113413000Y-80884446D01*
X113413000Y-81485995D01*
X113365162Y-81601201D01*
X113364838Y-81973167D01*
X113506883Y-82316943D01*
X113769673Y-82580192D01*
X114113201Y-82722838D01*
X114485167Y-82723162D01*
X114828943Y-82581117D01*
X115092192Y-82318327D01*
X115234838Y-81974799D01*
X115235162Y-81602833D01*
X115187000Y-81486272D01*
X115187000Y-80887079D01*
X115401441Y-80749090D01*
X115546431Y-80536890D01*
X115597440Y-80285000D01*
X115597440Y-78785000D01*
X115553162Y-78549683D01*
X115414090Y-78333559D01*
X115201890Y-78188569D01*
X115188803Y-78185919D01*
X115401441Y-78049090D01*
X115546431Y-77836890D01*
X115595415Y-77595000D01*
X115950000Y-77595000D01*
X116240839Y-77537148D01*
X116487401Y-77372401D01*
X116709802Y-77150000D01*
X117688083Y-77150000D01*
X117740149Y-77227922D01*
X117982717Y-77390000D01*
X117740149Y-77552078D01*
X117483274Y-77936520D01*
X117393071Y-78390000D01*
X117483274Y-78843480D01*
X117740149Y-79227922D01*
X117982717Y-79390000D01*
X117740149Y-79552078D01*
X117483274Y-79936520D01*
X117393071Y-80390000D01*
X117483274Y-80843480D01*
X117740149Y-81227922D01*
X117982717Y-81390000D01*
X117740149Y-81552078D01*
X117483274Y-81936520D01*
X117393071Y-82390000D01*
X117483274Y-82843480D01*
X117740149Y-83227922D01*
X117982717Y-83390000D01*
X117740149Y-83552078D01*
X117483274Y-83936520D01*
X117393071Y-84390000D01*
X117483274Y-84843480D01*
X117740149Y-85227922D01*
X117982717Y-85390000D01*
X117740149Y-85552078D01*
X117483274Y-85936520D01*
X117393071Y-86390000D01*
X117483274Y-86843480D01*
X117740149Y-87227922D01*
X118124591Y-87484797D01*
X118578071Y-87575000D01*
X120051929Y-87575000D01*
X120505409Y-87484797D01*
X120838003Y-87262566D01*
X120820000Y-87353071D01*
X120820000Y-88826929D01*
X120910203Y-89280409D01*
X121167078Y-89664851D01*
X121245000Y-89716917D01*
X121245000Y-91525000D01*
X121302852Y-91815839D01*
X121467599Y-92062401D01*
X123524878Y-94119680D01*
X123524838Y-94165167D01*
X123561402Y-94253659D01*
X123553800Y-94250510D01*
X121712990Y-94250510D01*
X121554240Y-94409260D01*
X121554240Y-95758000D01*
X123903740Y-95758000D01*
X124062490Y-95599250D01*
X124062490Y-94827343D01*
X124273201Y-94914838D01*
X124645167Y-94915162D01*
X124970000Y-94780944D01*
X124970000Y-100330000D01*
X125027852Y-100620839D01*
X125192599Y-100867401D01*
X127732599Y-103407401D01*
X127979160Y-103572148D01*
X128027414Y-103581746D01*
X128270000Y-103630000D01*
X135575198Y-103630000D01*
X136400000Y-104454802D01*
X136400000Y-106343417D01*
X136156894Y-105755057D01*
X135697363Y-105294722D01*
X135096648Y-105045284D01*
X134446205Y-105044716D01*
X133845057Y-105293106D01*
X133384722Y-105752637D01*
X133135284Y-106353352D01*
X133134716Y-107003795D01*
X133383106Y-107604943D01*
X133842637Y-108065278D01*
X134443352Y-108314716D01*
X135093795Y-108315284D01*
X135694943Y-108066894D01*
X136155278Y-107607363D01*
X136400000Y-107018005D01*
X136400000Y-107950000D01*
X136457852Y-108240839D01*
X136622599Y-108487401D01*
X137892599Y-109757401D01*
X138139160Y-109922148D01*
X138430000Y-109980000D01*
X138744623Y-109980000D01*
X138727073Y-110027468D01*
X139700000Y-111000395D01*
X140672927Y-110027468D01*
X140655377Y-109980000D01*
X145244623Y-109980000D01*
X145227073Y-110027468D01*
X146200000Y-111000395D01*
X147172927Y-110027468D01*
X147155377Y-109980000D01*
X151130000Y-109980000D01*
X151420839Y-109922148D01*
X151667401Y-109757401D01*
X154207401Y-107217401D01*
X154372148Y-106970840D01*
X154401985Y-106820839D01*
X154430000Y-106680000D01*
X154430000Y-105034507D01*
X154856670Y-104749415D01*
X155067000Y-104434634D01*
X155277330Y-104749415D01*
X155763511Y-105074271D01*
X156337000Y-105188345D01*
X156910489Y-105074271D01*
X157396670Y-104749415D01*
X157607000Y-104434634D01*
X157817330Y-104749415D01*
X158303511Y-105074271D01*
X158877000Y-105188345D01*
X159450489Y-105074271D01*
X159936670Y-104749415D01*
X159951500Y-104727220D01*
X160015073Y-104880698D01*
X160193701Y-105059327D01*
X160427090Y-105156000D01*
X161131250Y-105156000D01*
X161290000Y-104997250D01*
X161290000Y-103632000D01*
X161544000Y-103632000D01*
X161544000Y-104997250D01*
X161702750Y-105156000D01*
X162406910Y-105156000D01*
X162640299Y-105059327D01*
X162818927Y-104880698D01*
X162915600Y-104647309D01*
X162915600Y-103790750D01*
X162756850Y-103632000D01*
X161544000Y-103632000D01*
X161290000Y-103632000D01*
X161270000Y-103632000D01*
X161270000Y-103378000D01*
X161290000Y-103378000D01*
X161290000Y-102012750D01*
X161544000Y-102012750D01*
X161544000Y-103378000D01*
X162756850Y-103378000D01*
X162915600Y-103219250D01*
X162915600Y-102362691D01*
X162818927Y-102129302D01*
X162640299Y-101950673D01*
X162406910Y-101854000D01*
X161702750Y-101854000D01*
X161544000Y-102012750D01*
X161290000Y-102012750D01*
X161131250Y-101854000D01*
X160427090Y-101854000D01*
X160193701Y-101950673D01*
X160015073Y-102129302D01*
X159951500Y-102282780D01*
X159936670Y-102260585D01*
X159450489Y-101935729D01*
X158877000Y-101821655D01*
X158303511Y-101935729D01*
X157817330Y-102260585D01*
X157607000Y-102575366D01*
X157396670Y-102260585D01*
X156910489Y-101935729D01*
X156337000Y-101821655D01*
X155763511Y-101935729D01*
X155277330Y-102260585D01*
X155067000Y-102575366D01*
X154856670Y-102260585D01*
X154370489Y-101935729D01*
X153797000Y-101821655D01*
X153223511Y-101935729D01*
X152737330Y-102260585D01*
X152527000Y-102575366D01*
X152316670Y-102260585D01*
X151830489Y-101935729D01*
X151257000Y-101821655D01*
X150683511Y-101935729D01*
X150197330Y-102260585D01*
X149872474Y-102746766D01*
X149758400Y-103320255D01*
X149758400Y-103689745D01*
X149872474Y-104263234D01*
X150197330Y-104749415D01*
X150683511Y-105074271D01*
X151257000Y-105188345D01*
X151830489Y-105074271D01*
X152316670Y-104749415D01*
X152527000Y-104434634D01*
X152737330Y-104749415D01*
X152910000Y-104864789D01*
X152910000Y-106365198D01*
X150815198Y-108460000D01*
X138744802Y-108460000D01*
X137920000Y-107635198D01*
X137920000Y-104140000D01*
X137862148Y-103849161D01*
X137862148Y-103849160D01*
X137697401Y-103602599D01*
X136427401Y-102332599D01*
X136180839Y-102167852D01*
X135890000Y-102110000D01*
X128584802Y-102110000D01*
X126490000Y-100015198D01*
X126490000Y-99578406D01*
X126520910Y-99626441D01*
X126733110Y-99771431D01*
X126985000Y-99822440D01*
X128285000Y-99822440D01*
X128520317Y-99778162D01*
X128736441Y-99639090D01*
X128881431Y-99426890D01*
X128932440Y-99175000D01*
X128932440Y-98670750D01*
X130185000Y-98670750D01*
X130185000Y-99261309D01*
X130281673Y-99494698D01*
X130460301Y-99673327D01*
X130693690Y-99770000D01*
X131159250Y-99770000D01*
X131318000Y-99611250D01*
X131318000Y-98512000D01*
X131572000Y-98512000D01*
X131572000Y-99611250D01*
X131730750Y-99770000D01*
X132196310Y-99770000D01*
X132429699Y-99673327D01*
X132608327Y-99494698D01*
X132705000Y-99261309D01*
X132705000Y-98670750D01*
X132546250Y-98512000D01*
X131572000Y-98512000D01*
X131318000Y-98512000D01*
X130343750Y-98512000D01*
X130185000Y-98670750D01*
X128932440Y-98670750D01*
X128932440Y-97675000D01*
X128888162Y-97439683D01*
X128749090Y-97223559D01*
X128536890Y-97078569D01*
X128523803Y-97075919D01*
X128736441Y-96939090D01*
X128881431Y-96726890D01*
X128898014Y-96645000D01*
X130174442Y-96645000D01*
X130216838Y-96870317D01*
X130355910Y-97086441D01*
X130424006Y-97132969D01*
X130281673Y-97275302D01*
X130185000Y-97508691D01*
X130185000Y-98099250D01*
X130343750Y-98258000D01*
X131318000Y-98258000D01*
X131318000Y-98238000D01*
X131572000Y-98238000D01*
X131572000Y-98258000D01*
X132546250Y-98258000D01*
X132705000Y-98099250D01*
X132705000Y-97508691D01*
X132608327Y-97275302D01*
X132467090Y-97134064D01*
X132521441Y-97099090D01*
X132666431Y-96886890D01*
X132717440Y-96635000D01*
X132717440Y-95135000D01*
X132673162Y-94899683D01*
X132534090Y-94683559D01*
X132321890Y-94538569D01*
X132070000Y-94487560D01*
X130820000Y-94487560D01*
X130584683Y-94531838D01*
X130368559Y-94670910D01*
X130223569Y-94883110D01*
X130174585Y-95125000D01*
X128932440Y-95125000D01*
X128932440Y-94975000D01*
X128888162Y-94739683D01*
X128749090Y-94523559D01*
X128536890Y-94378569D01*
X128395000Y-94349836D01*
X128395000Y-93907463D01*
X128427192Y-93875327D01*
X128569838Y-93531799D01*
X128570162Y-93159833D01*
X128464725Y-92904656D01*
X135820344Y-92904656D01*
X136111183Y-92846804D01*
X136357745Y-92682057D01*
X138109802Y-90930000D01*
X144605352Y-90930000D01*
X144805585Y-91229670D01*
X145120366Y-91440000D01*
X144805585Y-91650330D01*
X144480729Y-92136511D01*
X144366655Y-92710000D01*
X144480729Y-93283489D01*
X144805585Y-93769670D01*
X145120366Y-93980000D01*
X144805585Y-94190330D01*
X144480729Y-94676511D01*
X144366655Y-95250000D01*
X144480729Y-95823489D01*
X144805585Y-96309670D01*
X145120366Y-96520000D01*
X144805585Y-96730330D01*
X144480729Y-97216511D01*
X144366655Y-97790000D01*
X144480729Y-98363489D01*
X144805585Y-98849670D01*
X144819913Y-98859243D01*
X144798683Y-98863238D01*
X144582559Y-99002310D01*
X144437569Y-99214510D01*
X144386560Y-99466400D01*
X144386560Y-100683600D01*
X137524179Y-100683600D01*
X136406462Y-99565883D01*
X136501431Y-99426890D01*
X136552440Y-99175000D01*
X136552440Y-98276848D01*
X137180796Y-98905204D01*
X137468560Y-99097481D01*
X137686802Y-99140892D01*
X137709838Y-99263317D01*
X137848910Y-99479441D01*
X138061110Y-99624431D01*
X138313000Y-99675440D01*
X139563000Y-99675440D01*
X139798317Y-99631162D01*
X140014441Y-99492090D01*
X140159431Y-99279890D01*
X140210440Y-99028000D01*
X140210440Y-97528000D01*
X140166162Y-97292683D01*
X140027090Y-97076559D01*
X139958994Y-97030031D01*
X140101327Y-96887698D01*
X140198000Y-96654309D01*
X140198000Y-96063750D01*
X140039250Y-95905000D01*
X139065000Y-95905000D01*
X139065000Y-95925000D01*
X138811000Y-95925000D01*
X138811000Y-95905000D01*
X137836750Y-95905000D01*
X137678000Y-96063750D01*
X137678000Y-96654309D01*
X137774673Y-96887698D01*
X137915910Y-97028936D01*
X137861559Y-97063910D01*
X137856184Y-97071776D01*
X136552440Y-95768032D01*
X136552440Y-94975000D01*
X136538646Y-94901691D01*
X137678000Y-94901691D01*
X137678000Y-95492250D01*
X137836750Y-95651000D01*
X138811000Y-95651000D01*
X138811000Y-94551750D01*
X139065000Y-94551750D01*
X139065000Y-95651000D01*
X140039250Y-95651000D01*
X140198000Y-95492250D01*
X140198000Y-94901691D01*
X140101327Y-94668302D01*
X139922699Y-94489673D01*
X139689310Y-94393000D01*
X139223750Y-94393000D01*
X139065000Y-94551750D01*
X138811000Y-94551750D01*
X138652250Y-94393000D01*
X138186690Y-94393000D01*
X137953301Y-94489673D01*
X137774673Y-94668302D01*
X137678000Y-94901691D01*
X136538646Y-94901691D01*
X136508162Y-94739683D01*
X136369090Y-94523559D01*
X136175788Y-94391481D01*
X136176050Y-94090136D01*
X136034005Y-93746360D01*
X135771215Y-93483111D01*
X135427687Y-93340465D01*
X135055721Y-93340141D01*
X134711945Y-93482186D01*
X134448696Y-93744976D01*
X134306050Y-94088504D01*
X134305767Y-94412967D01*
X134153559Y-94510910D01*
X134008569Y-94723110D01*
X133957560Y-94975000D01*
X133957560Y-96475000D01*
X134001838Y-96710317D01*
X134140910Y-96926441D01*
X134353110Y-97071431D01*
X134366197Y-97074081D01*
X134153559Y-97210910D01*
X134008569Y-97423110D01*
X133957560Y-97675000D01*
X133957560Y-99175000D01*
X134001838Y-99410317D01*
X134140910Y-99626441D01*
X134192917Y-99661976D01*
X134192838Y-99753167D01*
X134334883Y-100096943D01*
X134597673Y-100360192D01*
X134941201Y-100502838D01*
X135194033Y-100503058D01*
X136671976Y-101981001D01*
X136918538Y-102145748D01*
X137209377Y-102203600D01*
X144784000Y-102203600D01*
X145074839Y-102145748D01*
X145290000Y-102001982D01*
X145290000Y-105286932D01*
X145275057Y-105293106D01*
X144814722Y-105752637D01*
X144745227Y-105920000D01*
X141155047Y-105920000D01*
X141086894Y-105755057D01*
X140627363Y-105294722D01*
X140026648Y-105045284D01*
X139376205Y-105044716D01*
X138775057Y-105293106D01*
X138314722Y-105752637D01*
X138065284Y-106353352D01*
X138064716Y-107003795D01*
X138313106Y-107604943D01*
X138772637Y-108065278D01*
X139373352Y-108314716D01*
X140023795Y-108315284D01*
X140624943Y-108066894D01*
X141085278Y-107607363D01*
X141154773Y-107440000D01*
X144744953Y-107440000D01*
X144813106Y-107604943D01*
X145272637Y-108065278D01*
X145873352Y-108314716D01*
X146523795Y-108315284D01*
X147124943Y-108066894D01*
X147585278Y-107607363D01*
X147834716Y-107006648D01*
X147835284Y-106356205D01*
X147586894Y-105755057D01*
X147127363Y-105294722D01*
X146810000Y-105162942D01*
X146810000Y-101841040D01*
X147066000Y-101841040D01*
X147301317Y-101796762D01*
X147517441Y-101657690D01*
X147662431Y-101445490D01*
X147695179Y-101283777D01*
X147924630Y-101513629D01*
X148437900Y-101726757D01*
X148993661Y-101727242D01*
X149507303Y-101515010D01*
X149900629Y-101122370D01*
X149986949Y-100914488D01*
X150071990Y-101120303D01*
X150464630Y-101513629D01*
X150977900Y-101726757D01*
X151533661Y-101727242D01*
X152047303Y-101515010D01*
X152440629Y-101122370D01*
X152526949Y-100914488D01*
X152611990Y-101120303D01*
X153004630Y-101513629D01*
X153517900Y-101726757D01*
X154073661Y-101727242D01*
X154587303Y-101515010D01*
X154980629Y-101122370D01*
X155066949Y-100914488D01*
X155151990Y-101120303D01*
X155544630Y-101513629D01*
X156057900Y-101726757D01*
X156613661Y-101727242D01*
X157127303Y-101515010D01*
X157520629Y-101122370D01*
X157606949Y-100914488D01*
X157691990Y-101120303D01*
X158084630Y-101513629D01*
X158597900Y-101726757D01*
X159153661Y-101727242D01*
X159667303Y-101515010D01*
X160060629Y-101122370D01*
X160146949Y-100914488D01*
X160231990Y-101120303D01*
X160624630Y-101513629D01*
X161137900Y-101726757D01*
X161693661Y-101727242D01*
X162207303Y-101515010D01*
X162600629Y-101122370D01*
X162813757Y-100609100D01*
X162814242Y-100053339D01*
X162602010Y-99539697D01*
X162209370Y-99146371D01*
X162001488Y-99060051D01*
X162207303Y-98975010D01*
X162600629Y-98582370D01*
X162813757Y-98069100D01*
X162814242Y-97513339D01*
X162602010Y-96999697D01*
X162209370Y-96606371D01*
X162001488Y-96520051D01*
X162207303Y-96435010D01*
X162600629Y-96042370D01*
X162813757Y-95529100D01*
X162814242Y-94973339D01*
X162602010Y-94459697D01*
X162209370Y-94066371D01*
X162001488Y-93980051D01*
X162207303Y-93895010D01*
X162600629Y-93502370D01*
X162813757Y-92989100D01*
X162814242Y-92433339D01*
X162602010Y-91919697D01*
X162209370Y-91526371D01*
X162001488Y-91440051D01*
X162207303Y-91355010D01*
X162600629Y-90962370D01*
X162813757Y-90449100D01*
X162814242Y-89893339D01*
X162602010Y-89379697D01*
X162209370Y-88986371D01*
X162001488Y-88900051D01*
X162207303Y-88815010D01*
X162600629Y-88422370D01*
X162813757Y-87909100D01*
X162814242Y-87353339D01*
X162602010Y-86839697D01*
X162209370Y-86446371D01*
X162001488Y-86360051D01*
X162207303Y-86275010D01*
X162600629Y-85882370D01*
X162813757Y-85369100D01*
X162814242Y-84813339D01*
X162602010Y-84299697D01*
X162209370Y-83906371D01*
X162001488Y-83820051D01*
X162207303Y-83735010D01*
X162600629Y-83342370D01*
X162813757Y-82829100D01*
X162814242Y-82273339D01*
X162602010Y-81759697D01*
X162209370Y-81366371D01*
X162001488Y-81280051D01*
X162207303Y-81195010D01*
X162600629Y-80802370D01*
X162813757Y-80289100D01*
X162814242Y-79733339D01*
X162602010Y-79219697D01*
X162209370Y-78826371D01*
X162001488Y-78740051D01*
X162207303Y-78655010D01*
X162600629Y-78262370D01*
X162813757Y-77749100D01*
X162814242Y-77193339D01*
X162602010Y-76679697D01*
X162289991Y-76367133D01*
X162300880Y-76362622D01*
X162401502Y-76094107D01*
X161417000Y-75109605D01*
X160432498Y-76094107D01*
X160533120Y-76362622D01*
X160544634Y-76366909D01*
X160233371Y-76677630D01*
X160147051Y-76885512D01*
X160062010Y-76679697D01*
X159749991Y-76367133D01*
X159760880Y-76362622D01*
X159861502Y-76094107D01*
X158877000Y-75109605D01*
X157892498Y-76094107D01*
X157993120Y-76362622D01*
X158004634Y-76366909D01*
X157693371Y-76677630D01*
X157607051Y-76885512D01*
X157522010Y-76679697D01*
X157209991Y-76367133D01*
X157220880Y-76362622D01*
X157321502Y-76094107D01*
X156337000Y-75109605D01*
X155352498Y-76094107D01*
X155453120Y-76362622D01*
X155464634Y-76366909D01*
X155153371Y-76677630D01*
X155067051Y-76885512D01*
X154982010Y-76679697D01*
X154669991Y-76367133D01*
X154680880Y-76362622D01*
X154781502Y-76094107D01*
X153797000Y-75109605D01*
X152812498Y-76094107D01*
X152913120Y-76362622D01*
X152924634Y-76366909D01*
X152613371Y-76677630D01*
X152527051Y-76885512D01*
X152442010Y-76679697D01*
X152129991Y-76367133D01*
X152140880Y-76362622D01*
X152241502Y-76094107D01*
X151257000Y-75109605D01*
X150272498Y-76094107D01*
X150373120Y-76362622D01*
X150384634Y-76366909D01*
X150073371Y-76677630D01*
X149987051Y-76885512D01*
X149902010Y-76679697D01*
X149589991Y-76367133D01*
X149600880Y-76362622D01*
X149701502Y-76094107D01*
X148717000Y-75109605D01*
X147732498Y-76094107D01*
X147833120Y-76362622D01*
X147844634Y-76366909D01*
X147533371Y-76677630D01*
X147510240Y-76733335D01*
X147294415Y-76410330D01*
X146984931Y-76203539D01*
X147380667Y-75849963D01*
X147552893Y-75914502D01*
X148537395Y-74930000D01*
X148896605Y-74930000D01*
X149881107Y-75914502D01*
X149987000Y-75874820D01*
X150092893Y-75914502D01*
X151077395Y-74930000D01*
X151436605Y-74930000D01*
X152421107Y-75914502D01*
X152527000Y-75874820D01*
X152632893Y-75914502D01*
X153617395Y-74930000D01*
X153976605Y-74930000D01*
X154961107Y-75914502D01*
X155067000Y-75874820D01*
X155172893Y-75914502D01*
X156157395Y-74930000D01*
X156516605Y-74930000D01*
X157501107Y-75914502D01*
X157607000Y-75874820D01*
X157712893Y-75914502D01*
X158697395Y-74930000D01*
X159056605Y-74930000D01*
X160041107Y-75914502D01*
X160147000Y-75874820D01*
X160252893Y-75914502D01*
X161237395Y-74930000D01*
X161596605Y-74930000D01*
X162581107Y-75914502D01*
X162849622Y-75813880D01*
X163078816Y-75198358D01*
X163055014Y-74541981D01*
X162849622Y-74046120D01*
X162581107Y-73945498D01*
X161596605Y-74930000D01*
X161237395Y-74930000D01*
X160252893Y-73945498D01*
X160147000Y-73985180D01*
X160041107Y-73945498D01*
X159056605Y-74930000D01*
X158697395Y-74930000D01*
X157712893Y-73945498D01*
X157607000Y-73985180D01*
X157501107Y-73945498D01*
X156516605Y-74930000D01*
X156157395Y-74930000D01*
X155172893Y-73945498D01*
X155067000Y-73985180D01*
X154961107Y-73945498D01*
X153976605Y-74930000D01*
X153617395Y-74930000D01*
X152632893Y-73945498D01*
X152527000Y-73985180D01*
X152421107Y-73945498D01*
X151436605Y-74930000D01*
X151077395Y-74930000D01*
X150092893Y-73945498D01*
X149987000Y-73985180D01*
X149881107Y-73945498D01*
X148896605Y-74930000D01*
X148537395Y-74930000D01*
X147552893Y-73945498D01*
X147380667Y-74010037D01*
X147107412Y-73765893D01*
X147732498Y-73765893D01*
X148717000Y-74750395D01*
X149701502Y-73765893D01*
X150272498Y-73765893D01*
X151257000Y-74750395D01*
X152241502Y-73765893D01*
X152812498Y-73765893D01*
X153797000Y-74750395D01*
X154781502Y-73765893D01*
X154680880Y-73497378D01*
X154065358Y-73268184D01*
X153408981Y-73291986D01*
X152913120Y-73497378D01*
X152812498Y-73765893D01*
X152241502Y-73765893D01*
X152140880Y-73497378D01*
X151525358Y-73268184D01*
X150868981Y-73291986D01*
X150373120Y-73497378D01*
X150272498Y-73765893D01*
X149701502Y-73765893D01*
X149600880Y-73497378D01*
X148985358Y-73268184D01*
X148328981Y-73291986D01*
X147833120Y-73497378D01*
X147732498Y-73765893D01*
X147107412Y-73765893D01*
X146984931Y-73656461D01*
X147294415Y-73449670D01*
X147494648Y-73150000D01*
X155307381Y-73150000D01*
X155798966Y-73354124D01*
X155453120Y-73497378D01*
X155352498Y-73765893D01*
X156337000Y-74750395D01*
X157321502Y-73765893D01*
X157220880Y-73497378D01*
X156722447Y-73311783D01*
X157134655Y-73141462D01*
X157480199Y-72796520D01*
X157822927Y-73139846D01*
X158338966Y-73354124D01*
X157993120Y-73497378D01*
X157892498Y-73765893D01*
X158877000Y-74750395D01*
X159861502Y-73765893D01*
X159760880Y-73497378D01*
X159262447Y-73311783D01*
X159674655Y-73141462D01*
X159909362Y-72907163D01*
X160317443Y-72907163D01*
X160416042Y-73173965D01*
X160889389Y-73349807D01*
X160533120Y-73497378D01*
X160432498Y-73765893D01*
X161417000Y-74750395D01*
X162401502Y-73765893D01*
X162300880Y-73497378D01*
X161817607Y-73317428D01*
X162163958Y-73173965D01*
X162262557Y-72907163D01*
X161290000Y-71934605D01*
X160317443Y-72907163D01*
X159909362Y-72907163D01*
X160102401Y-72714461D01*
X160137837Y-72727557D01*
X161110395Y-71755000D01*
X161469605Y-71755000D01*
X162442163Y-72727557D01*
X162708965Y-72628958D01*
X162935401Y-72019418D01*
X162911341Y-71369623D01*
X162708965Y-70881042D01*
X162442163Y-70782443D01*
X161469605Y-71755000D01*
X161110395Y-71755000D01*
X160137837Y-70782443D01*
X160101901Y-70795724D01*
X159909351Y-70602837D01*
X160317443Y-70602837D01*
X161290000Y-71575395D01*
X162262557Y-70602837D01*
X162163958Y-70336035D01*
X161554418Y-70109599D01*
X160904623Y-70133659D01*
X160416042Y-70336035D01*
X160317443Y-70602837D01*
X159909351Y-70602837D01*
X159677073Y-70370154D01*
X159510000Y-70300779D01*
X159510000Y-69850000D01*
X159452148Y-69559161D01*
X159287401Y-69312599D01*
X156510122Y-66535320D01*
X156510162Y-66489833D01*
X156368117Y-66146057D01*
X156105327Y-65882808D01*
X156020583Y-65847619D01*
X159689613Y-65847619D01*
X160029155Y-66669372D01*
X160657321Y-67298636D01*
X161478481Y-67639611D01*
X162367619Y-67640387D01*
X163189372Y-67300845D01*
X163818636Y-66672679D01*
X164159611Y-65851519D01*
X164160387Y-64962381D01*
X163820845Y-64140628D01*
X163192679Y-63511364D01*
X162371519Y-63170389D01*
X161482381Y-63169613D01*
X160660628Y-63509155D01*
X160031364Y-64137321D01*
X159690389Y-64958481D01*
X159689613Y-65847619D01*
X156020583Y-65847619D01*
X155761799Y-65740162D01*
X155389833Y-65739838D01*
X155046057Y-65881883D01*
X154782808Y-66144673D01*
X154640162Y-66488201D01*
X154639838Y-66860167D01*
X154781883Y-67203943D01*
X155044673Y-67467192D01*
X155388201Y-67609838D01*
X155435077Y-67609879D01*
X157990000Y-70164802D01*
X157990000Y-70300504D01*
X157825345Y-70368538D01*
X157479801Y-70713480D01*
X157137073Y-70370154D01*
X156536547Y-70120794D01*
X155886306Y-70120226D01*
X155285345Y-70368538D01*
X154825154Y-70827927D01*
X154575794Y-71428453D01*
X154575618Y-71630000D01*
X147494648Y-71630000D01*
X147294415Y-71330330D01*
X146808234Y-71005474D01*
X146234745Y-70891400D01*
X145865255Y-70891400D01*
X145291766Y-71005474D01*
X144805585Y-71330330D01*
X144480729Y-71816511D01*
X144366655Y-72390000D01*
X144480729Y-72963489D01*
X144805585Y-73449670D01*
X145115069Y-73656461D01*
X144699268Y-74027964D01*
X144445291Y-74555209D01*
X144442642Y-74570974D01*
X144563783Y-74803000D01*
X145923000Y-74803000D01*
X145923000Y-74783000D01*
X146177000Y-74783000D01*
X146177000Y-74803000D01*
X146197000Y-74803000D01*
X146197000Y-75057000D01*
X146177000Y-75057000D01*
X146177000Y-75077000D01*
X145923000Y-75077000D01*
X145923000Y-75057000D01*
X144563783Y-75057000D01*
X144442642Y-75289026D01*
X144445291Y-75304791D01*
X144699268Y-75832036D01*
X145115069Y-76203539D01*
X144805585Y-76410330D01*
X144605352Y-76710000D01*
X143220000Y-76710000D01*
X142929161Y-76767852D01*
X142682599Y-76932599D01*
X139303821Y-80311377D01*
X139223117Y-80116057D01*
X138960327Y-79852808D01*
X138616799Y-79710162D01*
X138534712Y-79710090D01*
X143412401Y-74832401D01*
X143577148Y-74585839D01*
X143635000Y-74295000D01*
X143635000Y-71434802D01*
X145094802Y-69975000D01*
X147955000Y-69975000D01*
X148245839Y-69917148D01*
X148492401Y-69752401D01*
X150397401Y-67847401D01*
X150562148Y-67600839D01*
X150620000Y-67310000D01*
X150620000Y-66849648D01*
X150919670Y-66649415D01*
X151244526Y-66163234D01*
X151358600Y-65589745D01*
X151358600Y-65220255D01*
X151244526Y-64646766D01*
X150919670Y-64160585D01*
X150433489Y-63835729D01*
X149860000Y-63721655D01*
X149286511Y-63835729D01*
X148800330Y-64160585D01*
X148593539Y-64470069D01*
X148222036Y-64054268D01*
X147694791Y-63800291D01*
X147679026Y-63797642D01*
X147447000Y-63918783D01*
X147447000Y-65278000D01*
X147467000Y-65278000D01*
X147467000Y-65532000D01*
X147447000Y-65532000D01*
X147447000Y-66891217D01*
X147679026Y-67012358D01*
X147694791Y-67009709D01*
X148222036Y-66755732D01*
X148593539Y-66339931D01*
X148800330Y-66649415D01*
X149100000Y-66849648D01*
X149100000Y-66995198D01*
X147640198Y-68455000D01*
X144780000Y-68455000D01*
X144692371Y-68472431D01*
X145317401Y-67847401D01*
X145482148Y-67600839D01*
X145540000Y-67310000D01*
X145540000Y-66849648D01*
X145839670Y-66649415D01*
X146046461Y-66339931D01*
X146417964Y-66755732D01*
X146945209Y-67009709D01*
X146960974Y-67012358D01*
X147193000Y-66891217D01*
X147193000Y-65532000D01*
X147173000Y-65532000D01*
X147173000Y-65278000D01*
X147193000Y-65278000D01*
X147193000Y-63918783D01*
X146960974Y-63797642D01*
X146945209Y-63800291D01*
X146417964Y-64054268D01*
X146046461Y-64470069D01*
X145839670Y-64160585D01*
X145353489Y-63835729D01*
X144780000Y-63721655D01*
X144206511Y-63835729D01*
X143720330Y-64160585D01*
X143510000Y-64475366D01*
X143299670Y-64160585D01*
X142813489Y-63835729D01*
X142240000Y-63721655D01*
X141666511Y-63835729D01*
X141180330Y-64160585D01*
X141170757Y-64174913D01*
X141166762Y-64153683D01*
X141027690Y-63937559D01*
X140815490Y-63792569D01*
X140563600Y-63741560D01*
X138836400Y-63741560D01*
X138601083Y-63785838D01*
X138384959Y-63924910D01*
X138239969Y-64137110D01*
X138188960Y-64389000D01*
X138188960Y-66421000D01*
X138233238Y-66656317D01*
X138372310Y-66872441D01*
X138584510Y-67017431D01*
X138836400Y-67068440D01*
X140563600Y-67068440D01*
X140798917Y-67024162D01*
X141015041Y-66885090D01*
X141160031Y-66672890D01*
X141168400Y-66631561D01*
X141180330Y-66649415D01*
X141480000Y-66849648D01*
X141480000Y-67630198D01*
X137480198Y-71630000D01*
X136341917Y-71630000D01*
X136289851Y-71552078D01*
X135905409Y-71295203D01*
X135451929Y-71205000D01*
X133978071Y-71205000D01*
X133524591Y-71295203D01*
X133140149Y-71552078D01*
X132883274Y-71936520D01*
X132793071Y-72390000D01*
X132883274Y-72843480D01*
X133140149Y-73227922D01*
X133382717Y-73390000D01*
X133140149Y-73552078D01*
X132883274Y-73936520D01*
X132793071Y-74390000D01*
X132883274Y-74843480D01*
X133140149Y-75227922D01*
X133382717Y-75390000D01*
X133140149Y-75552078D01*
X132883274Y-75936520D01*
X132793071Y-76390000D01*
X132883274Y-76843480D01*
X133140149Y-77227922D01*
X133382717Y-77390000D01*
X133140149Y-77552078D01*
X132883274Y-77936520D01*
X132793071Y-78390000D01*
X132883274Y-78843480D01*
X133140149Y-79227922D01*
X133382717Y-79390000D01*
X133140149Y-79552078D01*
X133088083Y-79630000D01*
X132970018Y-79630000D01*
X132679179Y-79687852D01*
X132432617Y-79852599D01*
X128765320Y-83519896D01*
X128719833Y-83519856D01*
X128376057Y-83661901D01*
X128112808Y-83924691D01*
X127970162Y-84268219D01*
X127969838Y-84640185D01*
X128111883Y-84983961D01*
X128374673Y-85247210D01*
X128718201Y-85389856D01*
X129090167Y-85390180D01*
X129433943Y-85248135D01*
X129697192Y-84985345D01*
X129839838Y-84641817D01*
X129839879Y-84594941D01*
X133180162Y-81254658D01*
X133382717Y-81390000D01*
X133140149Y-81552078D01*
X132883274Y-81936520D01*
X132793071Y-82390000D01*
X132883274Y-82843480D01*
X133140149Y-83227922D01*
X133332717Y-83356591D01*
X133040149Y-83552078D01*
X132783274Y-83936520D01*
X132693071Y-84390000D01*
X132783274Y-84843480D01*
X133040149Y-85227922D01*
X133341691Y-85429405D01*
X133087276Y-85641882D01*
X132871602Y-86053854D01*
X132871197Y-86080256D01*
X132996639Y-86263000D01*
X134588000Y-86263000D01*
X134588000Y-86243000D01*
X134842000Y-86243000D01*
X134842000Y-86263000D01*
X136433361Y-86263000D01*
X136558803Y-86080256D01*
X136558398Y-86053854D01*
X136342724Y-85641882D01*
X135999417Y-85355165D01*
X136189851Y-85227922D01*
X136241917Y-85150000D01*
X136590000Y-85150000D01*
X136880839Y-85092148D01*
X137127401Y-84927401D01*
X140247400Y-81807402D01*
X140412147Y-81560840D01*
X140463841Y-81300961D01*
X140747262Y-81017540D01*
X140811883Y-81173935D01*
X141074673Y-81437184D01*
X141418201Y-81579830D01*
X141790167Y-81580154D01*
X142133943Y-81438109D01*
X142397192Y-81175319D01*
X142539838Y-80831791D01*
X142539879Y-80784915D01*
X142554794Y-80770000D01*
X144605352Y-80770000D01*
X144805585Y-81069670D01*
X145120366Y-81280000D01*
X144805585Y-81490330D01*
X144605352Y-81790000D01*
X140970000Y-81790000D01*
X140727414Y-81838254D01*
X140679160Y-81847852D01*
X140432599Y-82012599D01*
X138290320Y-84154878D01*
X138244833Y-84154838D01*
X137901057Y-84296883D01*
X137637808Y-84559673D01*
X137495162Y-84903201D01*
X137494838Y-85275167D01*
X137636883Y-85618943D01*
X137899673Y-85882192D01*
X138243201Y-86024838D01*
X138615167Y-86025162D01*
X138958943Y-85883117D01*
X139222192Y-85620327D01*
X139364838Y-85276799D01*
X139364879Y-85229923D01*
X141284802Y-83310000D01*
X144605352Y-83310000D01*
X144805585Y-83609670D01*
X145120366Y-83820000D01*
X144805585Y-84030330D01*
X144605352Y-84330000D01*
X140970000Y-84330000D01*
X140679161Y-84387852D01*
X140432599Y-84552599D01*
X140195320Y-84789878D01*
X140149833Y-84789838D01*
X139806057Y-84931883D01*
X139542808Y-85194673D01*
X139400162Y-85538201D01*
X139399838Y-85910167D01*
X139541883Y-86253943D01*
X139804673Y-86517192D01*
X140148201Y-86659838D01*
X140520167Y-86660162D01*
X140863943Y-86518117D01*
X141127192Y-86255327D01*
X141269838Y-85911799D01*
X141269879Y-85864923D01*
X141284802Y-85850000D01*
X144605352Y-85850000D01*
X144805585Y-86149670D01*
X145120366Y-86360000D01*
X144805585Y-86570330D01*
X144605352Y-86870000D01*
X138430000Y-86870000D01*
X138139161Y-86927852D01*
X137892599Y-87092599D01*
X134050553Y-90934645D01*
X131367465Y-90934645D01*
X131602192Y-90700327D01*
X131744838Y-90356799D01*
X131745162Y-89984833D01*
X131734092Y-89958042D01*
X132005000Y-90011929D01*
X132458480Y-89921726D01*
X132842922Y-89664851D01*
X133099797Y-89280409D01*
X133190000Y-88826929D01*
X133190000Y-88544802D01*
X133684878Y-89039680D01*
X133684838Y-89085167D01*
X133826883Y-89428943D01*
X134089673Y-89692192D01*
X134433201Y-89834838D01*
X134805167Y-89835162D01*
X135148943Y-89693117D01*
X135412192Y-89430327D01*
X135554838Y-89086799D01*
X135555162Y-88714833D01*
X135413117Y-88371057D01*
X135150327Y-88107808D01*
X134806799Y-87965162D01*
X134759923Y-87965121D01*
X134369802Y-87575000D01*
X134588000Y-87575000D01*
X134588000Y-86517000D01*
X134842000Y-86517000D01*
X134842000Y-87575000D01*
X135542000Y-87575000D01*
X135985813Y-87436196D01*
X136342724Y-87138118D01*
X136558398Y-86726146D01*
X136558803Y-86699744D01*
X136433361Y-86517000D01*
X134842000Y-86517000D01*
X134588000Y-86517000D01*
X132996639Y-86517000D01*
X132919371Y-86629564D01*
X132842922Y-86515149D01*
X132458480Y-86258274D01*
X132005000Y-86168071D01*
X131551520Y-86258274D01*
X131167078Y-86515149D01*
X131005000Y-86757717D01*
X130842922Y-86515149D01*
X130458480Y-86258274D01*
X130005000Y-86168071D01*
X129551520Y-86258274D01*
X129167078Y-86515149D01*
X129005000Y-86757717D01*
X128842922Y-86515149D01*
X128458480Y-86258274D01*
X128005000Y-86168071D01*
X127551520Y-86258274D01*
X127167078Y-86515149D01*
X127005000Y-86757717D01*
X126842922Y-86515149D01*
X126458480Y-86258274D01*
X126005000Y-86168071D01*
X125551520Y-86258274D01*
X125167078Y-86515149D01*
X125005000Y-86757717D01*
X124842922Y-86515149D01*
X124458480Y-86258274D01*
X124005000Y-86168071D01*
X123551520Y-86258274D01*
X123167078Y-86515149D01*
X123005000Y-86757717D01*
X122842922Y-86515149D01*
X122458480Y-86258274D01*
X122005000Y-86168071D01*
X121551520Y-86258274D01*
X121218926Y-86480505D01*
X121236929Y-86390000D01*
X121146726Y-85936520D01*
X120889851Y-85552078D01*
X120647283Y-85390000D01*
X120889851Y-85227922D01*
X120898485Y-85215000D01*
X121992537Y-85215000D01*
X122024673Y-85247192D01*
X122368201Y-85389838D01*
X122740167Y-85390162D01*
X123083943Y-85248117D01*
X123347192Y-84985327D01*
X123489838Y-84641799D01*
X123490162Y-84269833D01*
X123348117Y-83926057D01*
X123085327Y-83662808D01*
X122741799Y-83520162D01*
X122369833Y-83519838D01*
X122026057Y-83661883D01*
X121992882Y-83695000D01*
X120985348Y-83695000D01*
X120889851Y-83552078D01*
X120647283Y-83390000D01*
X120889851Y-83227922D01*
X121146726Y-82843480D01*
X121180239Y-82675000D01*
X123897537Y-82675000D01*
X123929673Y-82707192D01*
X124273201Y-82849838D01*
X124645167Y-82850162D01*
X124988943Y-82708117D01*
X125252192Y-82445327D01*
X125394838Y-82101799D01*
X125395162Y-81729833D01*
X125253117Y-81386057D01*
X124990327Y-81122808D01*
X124646799Y-80980162D01*
X124274833Y-80979838D01*
X123931057Y-81121883D01*
X123897882Y-81155000D01*
X120938576Y-81155000D01*
X120941917Y-81150000D01*
X122810000Y-81150000D01*
X123100839Y-81092148D01*
X123347401Y-80927401D01*
X123964680Y-80310122D01*
X124010167Y-80310162D01*
X124353943Y-80168117D01*
X124617192Y-79905327D01*
X124759838Y-79561799D01*
X124760162Y-79189833D01*
X124618117Y-78846057D01*
X124355327Y-78582808D01*
X124011799Y-78440162D01*
X123639833Y-78439838D01*
X123296057Y-78581883D01*
X123032808Y-78844673D01*
X122890162Y-79188201D01*
X122890121Y-79235077D01*
X122495198Y-79630000D01*
X120941917Y-79630000D01*
X120889851Y-79552078D01*
X120647283Y-79390000D01*
X120889851Y-79227922D01*
X121146726Y-78843480D01*
X121236929Y-78390000D01*
X121146726Y-77936520D01*
X120889851Y-77552078D01*
X120647283Y-77390000D01*
X120889851Y-77227922D01*
X121146726Y-76843480D01*
X121236929Y-76390000D01*
X121146726Y-75936520D01*
X120889851Y-75552078D01*
X120647283Y-75390000D01*
X120889851Y-75227922D01*
X120941917Y-75150000D01*
X123445931Y-75150000D01*
X123638201Y-75229838D01*
X124010167Y-75230162D01*
X124353943Y-75088117D01*
X124617192Y-74825327D01*
X124759838Y-74481799D01*
X124760162Y-74109833D01*
X124618117Y-73766057D01*
X124355327Y-73502808D01*
X124011799Y-73360162D01*
X123639833Y-73359838D01*
X123296057Y-73501883D01*
X123167716Y-73630000D01*
X120941917Y-73630000D01*
X120889851Y-73552078D01*
X120839129Y-73518187D01*
X121016441Y-73404090D01*
X121161431Y-73191890D01*
X121212440Y-72940000D01*
X121212440Y-71840000D01*
X121168162Y-71604683D01*
X121029090Y-71388559D01*
X120816890Y-71243569D01*
X120565000Y-71192560D01*
X118065000Y-71192560D01*
X117829683Y-71236838D01*
X117613559Y-71375910D01*
X117468569Y-71588110D01*
X117460086Y-71630000D01*
X113665000Y-71630000D01*
X113374161Y-71687852D01*
X113127599Y-71852599D01*
X111222599Y-73757599D01*
X111057852Y-74004161D01*
X111000000Y-74295000D01*
X111000000Y-85725000D01*
X111057852Y-86015839D01*
X111222599Y-86262401D01*
X116539878Y-91579680D01*
X116539865Y-91593797D01*
X116393864Y-91447796D01*
X116106100Y-91255519D01*
X115766660Y-91188000D01*
X112784037Y-91188000D01*
X112744162Y-90976083D01*
X112605090Y-90759959D01*
X112392890Y-90614969D01*
X112141000Y-90563960D01*
X110109000Y-90563960D01*
X109873683Y-90608238D01*
X109657559Y-90747310D01*
X109512569Y-90959510D01*
X109461560Y-91211400D01*
X108025000Y-91211400D01*
X108025000Y-65847619D01*
X108889613Y-65847619D01*
X109229155Y-66669372D01*
X109857321Y-67298636D01*
X110678481Y-67639611D01*
X111567619Y-67640387D01*
X112389372Y-67300845D01*
X113018636Y-66672679D01*
X113359611Y-65851519D01*
X113360387Y-64962381D01*
X113020845Y-64140628D01*
X112392679Y-63511364D01*
X111571519Y-63170389D01*
X110682381Y-63169613D01*
X109860628Y-63509155D01*
X109231364Y-64137321D01*
X108890389Y-64958481D01*
X108889613Y-65847619D01*
X108025000Y-65847619D01*
X108025000Y-62305000D01*
X117983000Y-62305000D01*
X117983000Y-69850000D01*
M02*
