%TF.GenerationSoftware,KiCad,Pcbnew,4.0.6*%
%TF.CreationDate,2017-04-04T12:59:26+02:00*%
%TF.ProjectId,ESP-Sensors,4553502D53656E736F72732E6B696361,rev?*%
%TF.FileFunction,Legend,Top*%
%FSLAX46Y46*%
G04 Gerber Fmt 4.6, Leading zero omitted, Abs format (unit mm)*
G04 Created by KiCad (PCBNEW 4.0.6) date 2017 April 04, Tuesday 12:59:26*
%MOMM*%
%LPD*%
G01*
G04 APERTURE LIST*
%ADD10C,0.100000*%
%ADD11C,0.254000*%
%ADD12C,0.203200*%
%ADD13C,0.200000*%
%ADD14C,0.152400*%
%ADD15C,0.150000*%
%ADD16C,0.010000*%
%ADD17C,0.120000*%
G04 APERTURE END LIST*
D10*
D11*
X163195000Y-75897619D02*
X163134524Y-76018571D01*
X163134524Y-76200000D01*
X163195000Y-76381428D01*
X163315952Y-76502381D01*
X163436905Y-76562857D01*
X163678810Y-76623333D01*
X163860238Y-76623333D01*
X164102143Y-76562857D01*
X164223095Y-76502381D01*
X164344048Y-76381428D01*
X164404524Y-76200000D01*
X164404524Y-76079048D01*
X164344048Y-75897619D01*
X164283571Y-75837143D01*
X163860238Y-75837143D01*
X163860238Y-76079048D01*
X164404524Y-75292857D02*
X163134524Y-75292857D01*
X164404524Y-74567143D01*
X163134524Y-74567143D01*
X164404524Y-73962381D02*
X163134524Y-73962381D01*
X163134524Y-73660000D01*
X163195000Y-73478572D01*
X163315952Y-73357619D01*
X163436905Y-73297143D01*
X163678810Y-73236667D01*
X163860238Y-73236667D01*
X164102143Y-73297143D01*
X164223095Y-73357619D01*
X164344048Y-73478572D01*
X164404524Y-73660000D01*
X164404524Y-73962381D01*
D12*
X109129286Y-87569523D02*
X109129286Y-87146190D01*
X109794524Y-86964761D02*
X109794524Y-87569523D01*
X108524524Y-87569523D01*
X108524524Y-86964761D01*
X109734048Y-86480951D02*
X109794524Y-86299523D01*
X109794524Y-85997142D01*
X109734048Y-85876189D01*
X109673571Y-85815713D01*
X109552619Y-85755237D01*
X109431667Y-85755237D01*
X109310714Y-85815713D01*
X109250238Y-85876189D01*
X109189762Y-85997142D01*
X109129286Y-86239046D01*
X109068810Y-86359999D01*
X109008333Y-86420475D01*
X108887381Y-86480951D01*
X108766429Y-86480951D01*
X108645476Y-86420475D01*
X108585000Y-86359999D01*
X108524524Y-86239046D01*
X108524524Y-85936666D01*
X108585000Y-85755237D01*
X109794524Y-85210951D02*
X108524524Y-85210951D01*
X108524524Y-84727142D01*
X108585000Y-84606189D01*
X108645476Y-84545713D01*
X108766429Y-84485237D01*
X108947857Y-84485237D01*
X109068810Y-84545713D01*
X109129286Y-84606189D01*
X109189762Y-84727142D01*
X109189762Y-85210951D01*
X109310714Y-83940951D02*
X109310714Y-82973332D01*
X109734048Y-82429046D02*
X109794524Y-82247618D01*
X109794524Y-81945237D01*
X109734048Y-81824284D01*
X109673571Y-81763808D01*
X109552619Y-81703332D01*
X109431667Y-81703332D01*
X109310714Y-81763808D01*
X109250238Y-81824284D01*
X109189762Y-81945237D01*
X109129286Y-82187141D01*
X109068810Y-82308094D01*
X109008333Y-82368570D01*
X108887381Y-82429046D01*
X108766429Y-82429046D01*
X108645476Y-82368570D01*
X108585000Y-82308094D01*
X108524524Y-82187141D01*
X108524524Y-81884761D01*
X108585000Y-81703332D01*
X109734048Y-80675237D02*
X109794524Y-80796189D01*
X109794524Y-81038094D01*
X109734048Y-81159046D01*
X109613095Y-81219522D01*
X109129286Y-81219522D01*
X109008333Y-81159046D01*
X108947857Y-81038094D01*
X108947857Y-80796189D01*
X109008333Y-80675237D01*
X109129286Y-80614760D01*
X109250238Y-80614760D01*
X109371190Y-81219522D01*
X108947857Y-80070475D02*
X109794524Y-80070475D01*
X109068810Y-80070475D02*
X109008333Y-80009999D01*
X108947857Y-79889046D01*
X108947857Y-79707618D01*
X109008333Y-79586666D01*
X109129286Y-79526189D01*
X109794524Y-79526189D01*
X109734048Y-78981903D02*
X109794524Y-78860951D01*
X109794524Y-78619046D01*
X109734048Y-78498094D01*
X109613095Y-78437618D01*
X109552619Y-78437618D01*
X109431667Y-78498094D01*
X109371190Y-78619046D01*
X109371190Y-78800475D01*
X109310714Y-78921427D01*
X109189762Y-78981903D01*
X109129286Y-78981903D01*
X109008333Y-78921427D01*
X108947857Y-78800475D01*
X108947857Y-78619046D01*
X109008333Y-78498094D01*
X109794524Y-77711903D02*
X109734048Y-77832856D01*
X109673571Y-77893332D01*
X109552619Y-77953808D01*
X109189762Y-77953808D01*
X109068810Y-77893332D01*
X109008333Y-77832856D01*
X108947857Y-77711903D01*
X108947857Y-77530475D01*
X109008333Y-77409523D01*
X109068810Y-77349046D01*
X109189762Y-77288570D01*
X109552619Y-77288570D01*
X109673571Y-77349046D01*
X109734048Y-77409523D01*
X109794524Y-77530475D01*
X109794524Y-77711903D01*
X109794524Y-76744284D02*
X108947857Y-76744284D01*
X109189762Y-76744284D02*
X109068810Y-76683808D01*
X109008333Y-76623332D01*
X108947857Y-76502379D01*
X108947857Y-76381427D01*
X109734048Y-76018570D02*
X109794524Y-75897618D01*
X109794524Y-75655713D01*
X109734048Y-75534761D01*
X109613095Y-75474285D01*
X109552619Y-75474285D01*
X109431667Y-75534761D01*
X109371190Y-75655713D01*
X109371190Y-75837142D01*
X109310714Y-75958094D01*
X109189762Y-76018570D01*
X109129286Y-76018570D01*
X109008333Y-75958094D01*
X108947857Y-75837142D01*
X108947857Y-75655713D01*
X109008333Y-75534761D01*
X109794524Y-73962380D02*
X108947857Y-73962380D01*
X109189762Y-73962380D02*
X109068810Y-73901904D01*
X109008333Y-73841428D01*
X108947857Y-73720475D01*
X108947857Y-73599523D01*
X109734048Y-72692381D02*
X109794524Y-72813333D01*
X109794524Y-73055238D01*
X109734048Y-73176190D01*
X109613095Y-73236666D01*
X109129286Y-73236666D01*
X109008333Y-73176190D01*
X108947857Y-73055238D01*
X108947857Y-72813333D01*
X109008333Y-72692381D01*
X109129286Y-72631904D01*
X109250238Y-72631904D01*
X109371190Y-73236666D01*
X108947857Y-72208571D02*
X109794524Y-71906190D01*
X108947857Y-71603810D01*
X109673571Y-71120000D02*
X109734048Y-71059524D01*
X109794524Y-71120000D01*
X109734048Y-71180476D01*
X109673571Y-71120000D01*
X109794524Y-71120000D01*
X109794524Y-69850000D02*
X109794524Y-70575714D01*
X109794524Y-70212857D02*
X108524524Y-70212857D01*
X108705952Y-70333809D01*
X108826905Y-70454762D01*
X108887381Y-70575714D01*
D13*
X165735000Y-115570000D02*
X165735000Y-109855000D01*
X107315000Y-115570000D02*
X165735000Y-115570000D01*
X107315000Y-61595000D02*
X107315000Y-115570000D01*
X165735000Y-61595000D02*
X165735000Y-109855000D01*
X107315000Y-61595000D02*
X165735000Y-61595000D01*
D14*
X118999000Y-87249000D02*
X118999000Y-88011000D01*
X118999000Y-88011000D02*
X135001000Y-88011000D01*
X135001000Y-88011000D02*
X135001000Y-87249000D01*
D15*
X132295000Y-97635000D02*
X132295000Y-96635000D01*
X130595000Y-96635000D02*
X130595000Y-97635000D01*
X138088000Y-96528000D02*
X138088000Y-97528000D01*
X139788000Y-97528000D02*
X139788000Y-96528000D01*
X118899738Y-102576978D02*
G75*
G03X118897400Y-108242100I1115262J-2833022D01*
G01*
X121130262Y-108243022D02*
G75*
G03X121132600Y-102577900I-1115262J2833022D01*
G01*
X117475000Y-102108000D02*
X118897400Y-102108000D01*
X116713000Y-108712000D02*
X118897400Y-108712000D01*
X123317000Y-108712000D02*
X121132600Y-108712000D01*
X122555000Y-102108000D02*
X121132600Y-102108000D01*
X116713000Y-108712000D02*
X116713000Y-102870000D01*
X116713000Y-102870000D02*
X117475000Y-102108000D01*
X122555000Y-102108000D02*
X123317000Y-102870000D01*
X123317000Y-102870000D02*
X123317000Y-108712000D01*
X139065000Y-66955000D02*
X137515000Y-66955000D01*
X137515000Y-66955000D02*
X137515000Y-63855000D01*
X137515000Y-63855000D02*
X139065000Y-63855000D01*
X140335000Y-64135000D02*
X150495000Y-64135000D01*
X150495000Y-64135000D02*
X150495000Y-66675000D01*
X150495000Y-66675000D02*
X140335000Y-66675000D01*
X140335000Y-64135000D02*
X140335000Y-66675000D01*
X144780000Y-99060000D02*
X144780000Y-71120000D01*
X144780000Y-71120000D02*
X147320000Y-71120000D01*
X147320000Y-71120000D02*
X147320000Y-99060000D01*
X144500000Y-101880000D02*
X144500000Y-100330000D01*
X144780000Y-99060000D02*
X147320000Y-99060000D01*
X147600000Y-100330000D02*
X147600000Y-101880000D01*
X147600000Y-101880000D02*
X144500000Y-101880000D01*
X161290000Y-101320000D02*
X162840000Y-101320000D01*
X162840000Y-101320000D02*
X162840000Y-104420000D01*
X162840000Y-104420000D02*
X161290000Y-104420000D01*
X160020000Y-104140000D02*
X149860000Y-104140000D01*
X149860000Y-104140000D02*
X149860000Y-101600000D01*
X149860000Y-101600000D02*
X160020000Y-101600000D01*
X160020000Y-104140000D02*
X160020000Y-101600000D01*
X109855000Y-93345000D02*
X109855000Y-100965000D01*
X112395000Y-93345000D02*
X112395000Y-100965000D01*
X112675000Y-90525000D02*
X112675000Y-92075000D01*
X109855000Y-100965000D02*
X112395000Y-100965000D01*
X112395000Y-93345000D02*
X109855000Y-93345000D01*
X109575000Y-92075000D02*
X109575000Y-90525000D01*
X109575000Y-90525000D02*
X112675000Y-90525000D01*
X113425000Y-76880000D02*
X113425000Y-75680000D01*
X115175000Y-75680000D02*
X115175000Y-76880000D01*
X126760000Y-97675000D02*
X126760000Y-96475000D01*
X128510000Y-96475000D02*
X128510000Y-97675000D01*
X136130000Y-96475000D02*
X136130000Y-97675000D01*
X134380000Y-97675000D02*
X134380000Y-96475000D01*
X129270000Y-112180000D02*
X133770000Y-112180000D01*
X128020000Y-108180000D02*
X128020000Y-109680000D01*
X133770000Y-105680000D02*
X129270000Y-105680000D01*
X135020000Y-109680000D02*
X135020000Y-108180000D01*
X140700000Y-112180000D02*
X145200000Y-112180000D01*
X139450000Y-108180000D02*
X139450000Y-109680000D01*
X145200000Y-105680000D02*
X140700000Y-105680000D01*
X146450000Y-109680000D02*
X146450000Y-108180000D01*
X119626380Y-93985080D02*
X119926100Y-94234000D01*
X119926100Y-94234000D02*
X120075960Y-94335600D01*
X120075960Y-94335600D02*
X119227600Y-94335600D01*
X121127520Y-93634560D02*
X119326660Y-93634560D01*
X121127520Y-93634560D02*
X121127520Y-94284800D01*
X121127520Y-98135440D02*
X119326660Y-98135440D01*
X121127520Y-98135440D02*
X121127520Y-97485200D01*
X149987000Y-73660000D02*
X162687000Y-73660000D01*
X162687000Y-73660000D02*
X162687000Y-76200000D01*
X162687000Y-76200000D02*
X149987000Y-76200000D01*
X147167000Y-73380000D02*
X148717000Y-73380000D01*
X149987000Y-73660000D02*
X149987000Y-76200000D01*
X148717000Y-76480000D02*
X147167000Y-76480000D01*
X147167000Y-76480000D02*
X147167000Y-73380000D01*
D16*
G36*
X159486865Y-109017643D02*
X159606087Y-109174614D01*
X159596732Y-109439975D01*
X159554738Y-109584780D01*
X159451441Y-109835369D01*
X159304560Y-110095653D01*
X159098097Y-110386199D01*
X158816050Y-110727576D01*
X158442419Y-111140351D01*
X157961204Y-111645093D01*
X157914695Y-111693032D01*
X157534676Y-112087559D01*
X157260145Y-112382687D01*
X157076066Y-112597956D01*
X156967400Y-112752908D01*
X156919111Y-112867086D01*
X156916160Y-112960030D01*
X156921206Y-112984100D01*
X157031637Y-113189879D01*
X157181839Y-113332921D01*
X157307468Y-113402535D01*
X157428027Y-113416453D01*
X157595625Y-113368356D01*
X157862371Y-113251929D01*
X157866826Y-113249890D01*
X158198033Y-113117224D01*
X158402533Y-113082964D01*
X158490678Y-113146071D01*
X158496000Y-113186692D01*
X158422610Y-113269104D01*
X158233605Y-113379731D01*
X157975733Y-113498700D01*
X157695741Y-113606138D01*
X157440376Y-113682173D01*
X157271258Y-113707333D01*
X156984814Y-113633616D01*
X156790098Y-113433651D01*
X156718001Y-113139219D01*
X156718000Y-113138161D01*
X156705353Y-112988084D01*
X156684175Y-112945333D01*
X156601743Y-112988834D01*
X156421376Y-113101967D01*
X156220718Y-113234454D01*
X155835743Y-113455669D01*
X155504207Y-113573164D01*
X155245579Y-113585757D01*
X155079324Y-113492271D01*
X155024667Y-113306907D01*
X154977507Y-113222974D01*
X154876500Y-113244442D01*
X154501336Y-113399967D01*
X154245320Y-113489571D01*
X154074164Y-113518966D01*
X153953581Y-113493867D01*
X153849282Y-113419985D01*
X153845167Y-113416279D01*
X153712738Y-113227489D01*
X153670000Y-113059211D01*
X153639302Y-112893800D01*
X153560865Y-112882230D01*
X153455169Y-113023356D01*
X153431317Y-113072527D01*
X153302379Y-113249861D01*
X153105113Y-113410964D01*
X152878052Y-113538937D01*
X152659728Y-113616882D01*
X152488673Y-113627898D01*
X152403420Y-113555089D01*
X152400000Y-113524825D01*
X152463598Y-113353086D01*
X152624772Y-113137402D01*
X152839095Y-112926070D01*
X153062138Y-112767386D01*
X153124719Y-112737012D01*
X153321528Y-112632031D01*
X153402308Y-112496646D01*
X153416000Y-112314653D01*
X153404008Y-112116972D01*
X153374473Y-112016991D01*
X153367668Y-112014000D01*
X153287708Y-112066978D01*
X153113141Y-112209142D01*
X152874257Y-112415332D01*
X152730596Y-112543166D01*
X151970868Y-113153193D01*
X151233814Y-113596522D01*
X150517404Y-113873977D01*
X149819608Y-113986381D01*
X149251152Y-113954609D01*
X148770006Y-113820731D01*
X148383422Y-113571297D01*
X148079101Y-113224970D01*
X147834754Y-112745619D01*
X147731283Y-112206130D01*
X147763820Y-111632578D01*
X147927499Y-111051035D01*
X148217451Y-110487576D01*
X148628808Y-109968273D01*
X148700636Y-109895842D01*
X149156350Y-109510242D01*
X149620437Y-109226516D01*
X150071859Y-109048450D01*
X150489577Y-108979827D01*
X150852553Y-109024430D01*
X151139751Y-109186045D01*
X151312208Y-109426112D01*
X151402039Y-109623269D01*
X151752853Y-109422654D01*
X152110357Y-109279806D01*
X152498363Y-109221509D01*
X152851075Y-109253604D01*
X153005400Y-109311481D01*
X153181642Y-109485653D01*
X153322997Y-109771115D01*
X153404952Y-110110145D01*
X153416000Y-110278428D01*
X153344511Y-110647241D01*
X153147379Y-111059372D01*
X152850606Y-111482789D01*
X152480194Y-111885459D01*
X152062143Y-112235352D01*
X151622458Y-112500435D01*
X151605913Y-112508293D01*
X151240925Y-112639887D01*
X150884442Y-112700084D01*
X150585455Y-112684665D01*
X150415329Y-112610813D01*
X150299832Y-112553078D01*
X150140851Y-112569878D01*
X149936714Y-112642303D01*
X149566343Y-112724850D01*
X149263393Y-112672360D01*
X149046886Y-112512065D01*
X148935845Y-112271198D01*
X148949293Y-111976990D01*
X149030810Y-111810634D01*
X149412378Y-111810634D01*
X149413487Y-112044749D01*
X149437076Y-112099431D01*
X149596074Y-112240176D01*
X149835957Y-112246917D01*
X150134969Y-112120330D01*
X150205135Y-112075594D01*
X150475500Y-111847976D01*
X150639513Y-111616960D01*
X150692404Y-111409418D01*
X150629397Y-111252224D01*
X150445722Y-111172250D01*
X150366453Y-111167333D01*
X150045294Y-111222868D01*
X149758850Y-111369035D01*
X149537689Y-111575177D01*
X149412378Y-111810634D01*
X149030810Y-111810634D01*
X149106253Y-111656675D01*
X149182050Y-111561970D01*
X149579420Y-111232293D01*
X150076141Y-111016133D01*
X150633808Y-110928538D01*
X150797249Y-110929162D01*
X151075301Y-110949776D01*
X151277611Y-110982791D01*
X151351776Y-111014358D01*
X151325405Y-111109794D01*
X151217853Y-111298139D01*
X151052277Y-111538929D01*
X151049270Y-111543003D01*
X150829798Y-111859483D01*
X150725746Y-112071135D01*
X150737053Y-112196983D01*
X150863661Y-112256048D01*
X151047016Y-112268000D01*
X151415554Y-112198687D01*
X151789926Y-112010836D01*
X152142569Y-111734576D01*
X152445919Y-111400037D01*
X152672411Y-111037348D01*
X152794483Y-110676639D01*
X152788828Y-110364045D01*
X152646452Y-110115153D01*
X152390041Y-109935827D01*
X152065780Y-109840834D01*
X151719855Y-109844941D01*
X151447500Y-109935167D01*
X151286077Y-110009419D01*
X151224122Y-109989828D01*
X151214667Y-109892312D01*
X151138319Y-109667421D01*
X150942399Y-109488045D01*
X150676590Y-109394597D01*
X150596290Y-109389333D01*
X150276109Y-109447378D01*
X149903883Y-109600428D01*
X149539985Y-109816857D01*
X149244790Y-110065038D01*
X149191237Y-110125371D01*
X148802380Y-110686416D01*
X148549571Y-111251415D01*
X148437367Y-111800460D01*
X148470324Y-112313645D01*
X148604989Y-112686376D01*
X148799842Y-113006789D01*
X149011963Y-113219004D01*
X149280978Y-113343391D01*
X149646514Y-113400318D01*
X150014666Y-113411000D01*
X150397786Y-113404146D01*
X150682514Y-113373113D01*
X150939581Y-113302192D01*
X151239714Y-113175674D01*
X151387361Y-113106128D01*
X151744902Y-112911180D01*
X152160208Y-112648134D01*
X152564652Y-112361580D01*
X152723024Y-112238295D01*
X153022901Y-112005426D01*
X153284108Y-111819492D01*
X153473395Y-111703201D01*
X153547279Y-111675333D01*
X153655112Y-111749449D01*
X153721858Y-111913458D01*
X153769483Y-112151583D01*
X154049941Y-111871125D01*
X154272443Y-111685459D01*
X154457094Y-111597885D01*
X154574641Y-111617515D01*
X154601333Y-111699411D01*
X154534718Y-111811928D01*
X154371842Y-111943198D01*
X154346900Y-111958454D01*
X154100431Y-112171834D01*
X153916692Y-112455082D01*
X153839608Y-112739280D01*
X153839333Y-112754862D01*
X153910932Y-112972799D01*
X154110937Y-113094944D01*
X154274088Y-113114666D01*
X154599371Y-113076367D01*
X154844115Y-112942665D01*
X155046978Y-112685356D01*
X155137952Y-112511671D01*
X155415213Y-112511671D01*
X155437825Y-112522000D01*
X155532148Y-112462900D01*
X155696582Y-112309198D01*
X155864138Y-112129079D01*
X156072923Y-111867955D01*
X156187921Y-111672332D01*
X156201933Y-111560610D01*
X156107759Y-111551190D01*
X156087439Y-111558345D01*
X155960679Y-111649829D01*
X155805579Y-111819052D01*
X155647810Y-112027931D01*
X155513044Y-112238382D01*
X155426954Y-112412323D01*
X155415213Y-112511671D01*
X155137952Y-112511671D01*
X155161103Y-112467474D01*
X155350013Y-112129359D01*
X155572335Y-111824617D01*
X155807275Y-111569570D01*
X156034041Y-111380536D01*
X156231841Y-111273835D01*
X156379882Y-111265789D01*
X156457373Y-111372715D01*
X156464000Y-111444827D01*
X156430071Y-111631821D01*
X156316948Y-111848192D01*
X156107623Y-112119407D01*
X155785088Y-112470928D01*
X155764242Y-112492563D01*
X155525123Y-112781864D01*
X155432302Y-112990466D01*
X155477991Y-113107893D01*
X155654403Y-113123671D01*
X155953750Y-113027323D01*
X156107539Y-112954342D01*
X156375233Y-112795663D01*
X156570809Y-112611818D01*
X156728445Y-112358563D01*
X156877487Y-112003179D01*
X157146234Y-112003179D01*
X157168434Y-112014000D01*
X157235331Y-111953965D01*
X157391430Y-111789570D01*
X157614983Y-111544375D01*
X157884242Y-111241941D01*
X157948274Y-111169128D01*
X158367945Y-110682880D01*
X158684414Y-110296149D01*
X158913336Y-109987838D01*
X159070362Y-109736849D01*
X159171143Y-109522085D01*
X159172118Y-109519529D01*
X159206404Y-109348781D01*
X159141183Y-109298546D01*
X158989948Y-109363225D01*
X158766194Y-109537217D01*
X158498255Y-109799180D01*
X158279594Y-110053643D01*
X158043397Y-110366953D01*
X157805526Y-110712692D01*
X157581843Y-111064442D01*
X157388211Y-111395783D01*
X157240490Y-111680299D01*
X157154544Y-111891570D01*
X157146234Y-112003179D01*
X156877487Y-112003179D01*
X156882321Y-111991653D01*
X156910536Y-111914870D01*
X157188828Y-111289030D01*
X157570046Y-110631200D01*
X158015432Y-110002131D01*
X158454221Y-109495166D01*
X158728703Y-109225320D01*
X158930645Y-109062899D01*
X159094870Y-108984378D01*
X159237496Y-108966000D01*
X159486865Y-109017643D01*
X159486865Y-109017643D01*
G37*
X159486865Y-109017643D02*
X159606087Y-109174614D01*
X159596732Y-109439975D01*
X159554738Y-109584780D01*
X159451441Y-109835369D01*
X159304560Y-110095653D01*
X159098097Y-110386199D01*
X158816050Y-110727576D01*
X158442419Y-111140351D01*
X157961204Y-111645093D01*
X157914695Y-111693032D01*
X157534676Y-112087559D01*
X157260145Y-112382687D01*
X157076066Y-112597956D01*
X156967400Y-112752908D01*
X156919111Y-112867086D01*
X156916160Y-112960030D01*
X156921206Y-112984100D01*
X157031637Y-113189879D01*
X157181839Y-113332921D01*
X157307468Y-113402535D01*
X157428027Y-113416453D01*
X157595625Y-113368356D01*
X157862371Y-113251929D01*
X157866826Y-113249890D01*
X158198033Y-113117224D01*
X158402533Y-113082964D01*
X158490678Y-113146071D01*
X158496000Y-113186692D01*
X158422610Y-113269104D01*
X158233605Y-113379731D01*
X157975733Y-113498700D01*
X157695741Y-113606138D01*
X157440376Y-113682173D01*
X157271258Y-113707333D01*
X156984814Y-113633616D01*
X156790098Y-113433651D01*
X156718001Y-113139219D01*
X156718000Y-113138161D01*
X156705353Y-112988084D01*
X156684175Y-112945333D01*
X156601743Y-112988834D01*
X156421376Y-113101967D01*
X156220718Y-113234454D01*
X155835743Y-113455669D01*
X155504207Y-113573164D01*
X155245579Y-113585757D01*
X155079324Y-113492271D01*
X155024667Y-113306907D01*
X154977507Y-113222974D01*
X154876500Y-113244442D01*
X154501336Y-113399967D01*
X154245320Y-113489571D01*
X154074164Y-113518966D01*
X153953581Y-113493867D01*
X153849282Y-113419985D01*
X153845167Y-113416279D01*
X153712738Y-113227489D01*
X153670000Y-113059211D01*
X153639302Y-112893800D01*
X153560865Y-112882230D01*
X153455169Y-113023356D01*
X153431317Y-113072527D01*
X153302379Y-113249861D01*
X153105113Y-113410964D01*
X152878052Y-113538937D01*
X152659728Y-113616882D01*
X152488673Y-113627898D01*
X152403420Y-113555089D01*
X152400000Y-113524825D01*
X152463598Y-113353086D01*
X152624772Y-113137402D01*
X152839095Y-112926070D01*
X153062138Y-112767386D01*
X153124719Y-112737012D01*
X153321528Y-112632031D01*
X153402308Y-112496646D01*
X153416000Y-112314653D01*
X153404008Y-112116972D01*
X153374473Y-112016991D01*
X153367668Y-112014000D01*
X153287708Y-112066978D01*
X153113141Y-112209142D01*
X152874257Y-112415332D01*
X152730596Y-112543166D01*
X151970868Y-113153193D01*
X151233814Y-113596522D01*
X150517404Y-113873977D01*
X149819608Y-113986381D01*
X149251152Y-113954609D01*
X148770006Y-113820731D01*
X148383422Y-113571297D01*
X148079101Y-113224970D01*
X147834754Y-112745619D01*
X147731283Y-112206130D01*
X147763820Y-111632578D01*
X147927499Y-111051035D01*
X148217451Y-110487576D01*
X148628808Y-109968273D01*
X148700636Y-109895842D01*
X149156350Y-109510242D01*
X149620437Y-109226516D01*
X150071859Y-109048450D01*
X150489577Y-108979827D01*
X150852553Y-109024430D01*
X151139751Y-109186045D01*
X151312208Y-109426112D01*
X151402039Y-109623269D01*
X151752853Y-109422654D01*
X152110357Y-109279806D01*
X152498363Y-109221509D01*
X152851075Y-109253604D01*
X153005400Y-109311481D01*
X153181642Y-109485653D01*
X153322997Y-109771115D01*
X153404952Y-110110145D01*
X153416000Y-110278428D01*
X153344511Y-110647241D01*
X153147379Y-111059372D01*
X152850606Y-111482789D01*
X152480194Y-111885459D01*
X152062143Y-112235352D01*
X151622458Y-112500435D01*
X151605913Y-112508293D01*
X151240925Y-112639887D01*
X150884442Y-112700084D01*
X150585455Y-112684665D01*
X150415329Y-112610813D01*
X150299832Y-112553078D01*
X150140851Y-112569878D01*
X149936714Y-112642303D01*
X149566343Y-112724850D01*
X149263393Y-112672360D01*
X149046886Y-112512065D01*
X148935845Y-112271198D01*
X148949293Y-111976990D01*
X149030810Y-111810634D01*
X149412378Y-111810634D01*
X149413487Y-112044749D01*
X149437076Y-112099431D01*
X149596074Y-112240176D01*
X149835957Y-112246917D01*
X150134969Y-112120330D01*
X150205135Y-112075594D01*
X150475500Y-111847976D01*
X150639513Y-111616960D01*
X150692404Y-111409418D01*
X150629397Y-111252224D01*
X150445722Y-111172250D01*
X150366453Y-111167333D01*
X150045294Y-111222868D01*
X149758850Y-111369035D01*
X149537689Y-111575177D01*
X149412378Y-111810634D01*
X149030810Y-111810634D01*
X149106253Y-111656675D01*
X149182050Y-111561970D01*
X149579420Y-111232293D01*
X150076141Y-111016133D01*
X150633808Y-110928538D01*
X150797249Y-110929162D01*
X151075301Y-110949776D01*
X151277611Y-110982791D01*
X151351776Y-111014358D01*
X151325405Y-111109794D01*
X151217853Y-111298139D01*
X151052277Y-111538929D01*
X151049270Y-111543003D01*
X150829798Y-111859483D01*
X150725746Y-112071135D01*
X150737053Y-112196983D01*
X150863661Y-112256048D01*
X151047016Y-112268000D01*
X151415554Y-112198687D01*
X151789926Y-112010836D01*
X152142569Y-111734576D01*
X152445919Y-111400037D01*
X152672411Y-111037348D01*
X152794483Y-110676639D01*
X152788828Y-110364045D01*
X152646452Y-110115153D01*
X152390041Y-109935827D01*
X152065780Y-109840834D01*
X151719855Y-109844941D01*
X151447500Y-109935167D01*
X151286077Y-110009419D01*
X151224122Y-109989828D01*
X151214667Y-109892312D01*
X151138319Y-109667421D01*
X150942399Y-109488045D01*
X150676590Y-109394597D01*
X150596290Y-109389333D01*
X150276109Y-109447378D01*
X149903883Y-109600428D01*
X149539985Y-109816857D01*
X149244790Y-110065038D01*
X149191237Y-110125371D01*
X148802380Y-110686416D01*
X148549571Y-111251415D01*
X148437367Y-111800460D01*
X148470324Y-112313645D01*
X148604989Y-112686376D01*
X148799842Y-113006789D01*
X149011963Y-113219004D01*
X149280978Y-113343391D01*
X149646514Y-113400318D01*
X150014666Y-113411000D01*
X150397786Y-113404146D01*
X150682514Y-113373113D01*
X150939581Y-113302192D01*
X151239714Y-113175674D01*
X151387361Y-113106128D01*
X151744902Y-112911180D01*
X152160208Y-112648134D01*
X152564652Y-112361580D01*
X152723024Y-112238295D01*
X153022901Y-112005426D01*
X153284108Y-111819492D01*
X153473395Y-111703201D01*
X153547279Y-111675333D01*
X153655112Y-111749449D01*
X153721858Y-111913458D01*
X153769483Y-112151583D01*
X154049941Y-111871125D01*
X154272443Y-111685459D01*
X154457094Y-111597885D01*
X154574641Y-111617515D01*
X154601333Y-111699411D01*
X154534718Y-111811928D01*
X154371842Y-111943198D01*
X154346900Y-111958454D01*
X154100431Y-112171834D01*
X153916692Y-112455082D01*
X153839608Y-112739280D01*
X153839333Y-112754862D01*
X153910932Y-112972799D01*
X154110937Y-113094944D01*
X154274088Y-113114666D01*
X154599371Y-113076367D01*
X154844115Y-112942665D01*
X155046978Y-112685356D01*
X155137952Y-112511671D01*
X155415213Y-112511671D01*
X155437825Y-112522000D01*
X155532148Y-112462900D01*
X155696582Y-112309198D01*
X155864138Y-112129079D01*
X156072923Y-111867955D01*
X156187921Y-111672332D01*
X156201933Y-111560610D01*
X156107759Y-111551190D01*
X156087439Y-111558345D01*
X155960679Y-111649829D01*
X155805579Y-111819052D01*
X155647810Y-112027931D01*
X155513044Y-112238382D01*
X155426954Y-112412323D01*
X155415213Y-112511671D01*
X155137952Y-112511671D01*
X155161103Y-112467474D01*
X155350013Y-112129359D01*
X155572335Y-111824617D01*
X155807275Y-111569570D01*
X156034041Y-111380536D01*
X156231841Y-111273835D01*
X156379882Y-111265789D01*
X156457373Y-111372715D01*
X156464000Y-111444827D01*
X156430071Y-111631821D01*
X156316948Y-111848192D01*
X156107623Y-112119407D01*
X155785088Y-112470928D01*
X155764242Y-112492563D01*
X155525123Y-112781864D01*
X155432302Y-112990466D01*
X155477991Y-113107893D01*
X155654403Y-113123671D01*
X155953750Y-113027323D01*
X156107539Y-112954342D01*
X156375233Y-112795663D01*
X156570809Y-112611818D01*
X156728445Y-112358563D01*
X156877487Y-112003179D01*
X157146234Y-112003179D01*
X157168434Y-112014000D01*
X157235331Y-111953965D01*
X157391430Y-111789570D01*
X157614983Y-111544375D01*
X157884242Y-111241941D01*
X157948274Y-111169128D01*
X158367945Y-110682880D01*
X158684414Y-110296149D01*
X158913336Y-109987838D01*
X159070362Y-109736849D01*
X159171143Y-109522085D01*
X159172118Y-109519529D01*
X159206404Y-109348781D01*
X159141183Y-109298546D01*
X158989948Y-109363225D01*
X158766194Y-109537217D01*
X158498255Y-109799180D01*
X158279594Y-110053643D01*
X158043397Y-110366953D01*
X157805526Y-110712692D01*
X157581843Y-111064442D01*
X157388211Y-111395783D01*
X157240490Y-111680299D01*
X157154544Y-111891570D01*
X157146234Y-112003179D01*
X156877487Y-112003179D01*
X156882321Y-111991653D01*
X156910536Y-111914870D01*
X157188828Y-111289030D01*
X157570046Y-110631200D01*
X158015432Y-110002131D01*
X158454221Y-109495166D01*
X158728703Y-109225320D01*
X158930645Y-109062899D01*
X159094870Y-108984378D01*
X159237496Y-108966000D01*
X159486865Y-109017643D01*
G36*
X153340584Y-107011876D02*
X153419906Y-107110632D01*
X153462196Y-107353674D01*
X153385881Y-107642314D01*
X153217689Y-107935250D01*
X152984351Y-108191181D01*
X152712597Y-108368805D01*
X152576298Y-108414136D01*
X152338932Y-108511562D01*
X152110217Y-108671041D01*
X152105994Y-108674924D01*
X151874255Y-108840128D01*
X151689274Y-108878708D01*
X151576259Y-108791056D01*
X151553333Y-108666293D01*
X151617790Y-108378226D01*
X151906696Y-108378226D01*
X151978961Y-108377478D01*
X152167882Y-108265494D01*
X152200148Y-108243781D01*
X152416022Y-108114643D01*
X152588493Y-108041126D01*
X152627330Y-108034666D01*
X152780814Y-107970632D01*
X152959472Y-107817800D01*
X153105669Y-107635078D01*
X153162000Y-107488181D01*
X153106033Y-107378748D01*
X152959147Y-107370470D01*
X152752861Y-107447533D01*
X152518695Y-107594120D01*
X152288168Y-107794415D01*
X152100839Y-108020640D01*
X151948263Y-108261395D01*
X151906696Y-108378226D01*
X151617790Y-108378226D01*
X151620703Y-108365209D01*
X151799743Y-108020745D01*
X152055845Y-107674828D01*
X152354403Y-107369385D01*
X152660811Y-107146342D01*
X152881829Y-107056797D01*
X153093320Y-107007277D01*
X153224208Y-106972414D01*
X153340584Y-107011876D01*
X153340584Y-107011876D01*
G37*
X153340584Y-107011876D02*
X153419906Y-107110632D01*
X153462196Y-107353674D01*
X153385881Y-107642314D01*
X153217689Y-107935250D01*
X152984351Y-108191181D01*
X152712597Y-108368805D01*
X152576298Y-108414136D01*
X152338932Y-108511562D01*
X152110217Y-108671041D01*
X152105994Y-108674924D01*
X151874255Y-108840128D01*
X151689274Y-108878708D01*
X151576259Y-108791056D01*
X151553333Y-108666293D01*
X151617790Y-108378226D01*
X151906696Y-108378226D01*
X151978961Y-108377478D01*
X152167882Y-108265494D01*
X152200148Y-108243781D01*
X152416022Y-108114643D01*
X152588493Y-108041126D01*
X152627330Y-108034666D01*
X152780814Y-107970632D01*
X152959472Y-107817800D01*
X153105669Y-107635078D01*
X153162000Y-107488181D01*
X153106033Y-107378748D01*
X152959147Y-107370470D01*
X152752861Y-107447533D01*
X152518695Y-107594120D01*
X152288168Y-107794415D01*
X152100839Y-108020640D01*
X151948263Y-108261395D01*
X151906696Y-108378226D01*
X151617790Y-108378226D01*
X151620703Y-108365209D01*
X151799743Y-108020745D01*
X152055845Y-107674828D01*
X152354403Y-107369385D01*
X152660811Y-107146342D01*
X152881829Y-107056797D01*
X153093320Y-107007277D01*
X153224208Y-106972414D01*
X153340584Y-107011876D01*
D15*
X115570000Y-84455000D02*
X115570000Y-86995000D01*
X115850000Y-81635000D02*
X115850000Y-83185000D01*
X115570000Y-84455000D02*
X113030000Y-84455000D01*
X112750000Y-83185000D02*
X112750000Y-81635000D01*
X112750000Y-81635000D02*
X115850000Y-81635000D01*
X113030000Y-84455000D02*
X113030000Y-86995000D01*
X113030000Y-86995000D02*
X115570000Y-86995000D01*
D17*
X151580000Y-70930000D02*
X151580000Y-67921000D01*
X151580000Y-66699000D02*
X151580000Y-63810000D01*
X158300000Y-70930000D02*
X158300000Y-67921000D01*
X158300000Y-66699000D02*
X158300000Y-63810000D01*
X151580000Y-70930000D02*
X158300000Y-70930000D01*
X151580000Y-63810000D02*
X158300000Y-63810000D01*
D15*
X125603095Y-74382381D02*
X125603095Y-75191905D01*
X125650714Y-75287143D01*
X125698333Y-75334762D01*
X125793571Y-75382381D01*
X125984048Y-75382381D01*
X126079286Y-75334762D01*
X126126905Y-75287143D01*
X126174524Y-75191905D01*
X126174524Y-74382381D01*
X127174524Y-75382381D02*
X126603095Y-75382381D01*
X126888809Y-75382381D02*
X126888809Y-74382381D01*
X126793571Y-74525238D01*
X126698333Y-74620476D01*
X126603095Y-74668095D01*
X131802143Y-93130666D02*
X131849762Y-93178285D01*
X131897381Y-93321142D01*
X131897381Y-93416380D01*
X131849762Y-93559238D01*
X131754524Y-93654476D01*
X131659286Y-93702095D01*
X131468810Y-93749714D01*
X131325952Y-93749714D01*
X131135476Y-93702095D01*
X131040238Y-93654476D01*
X130945000Y-93559238D01*
X130897381Y-93416380D01*
X130897381Y-93321142D01*
X130945000Y-93178285D01*
X130992619Y-93130666D01*
X131897381Y-92178285D02*
X131897381Y-92749714D01*
X131897381Y-92464000D02*
X130897381Y-92464000D01*
X131040238Y-92559238D01*
X131135476Y-92654476D01*
X131183095Y-92749714D01*
X133675381Y-98575619D02*
X133675381Y-99147048D01*
X133675381Y-98861334D02*
X132675381Y-98861334D01*
X132818238Y-98956572D01*
X132913476Y-99051810D01*
X132961095Y-99147048D01*
X132675381Y-97956572D02*
X132675381Y-97861333D01*
X132723000Y-97766095D01*
X132770619Y-97718476D01*
X132865857Y-97670857D01*
X133056333Y-97623238D01*
X133294429Y-97623238D01*
X133484905Y-97670857D01*
X133580143Y-97718476D01*
X133627762Y-97766095D01*
X133675381Y-97861333D01*
X133675381Y-97956572D01*
X133627762Y-98051810D01*
X133580143Y-98099429D01*
X133484905Y-98147048D01*
X133294429Y-98194667D01*
X133056333Y-98194667D01*
X132865857Y-98147048D01*
X132770619Y-98099429D01*
X132723000Y-98051810D01*
X132675381Y-97956572D01*
X132675381Y-97004191D02*
X132675381Y-96908952D01*
X132723000Y-96813714D01*
X132770619Y-96766095D01*
X132865857Y-96718476D01*
X133056333Y-96670857D01*
X133294429Y-96670857D01*
X133484905Y-96718476D01*
X133580143Y-96766095D01*
X133627762Y-96813714D01*
X133675381Y-96908952D01*
X133675381Y-97004191D01*
X133627762Y-97099429D01*
X133580143Y-97147048D01*
X133484905Y-97194667D01*
X133294429Y-97242286D01*
X133056333Y-97242286D01*
X132865857Y-97194667D01*
X132770619Y-97147048D01*
X132723000Y-97099429D01*
X132675381Y-97004191D01*
X133008714Y-96242286D02*
X133675381Y-96242286D01*
X133103952Y-96242286D02*
X133056333Y-96194667D01*
X133008714Y-96099429D01*
X133008714Y-95956571D01*
X133056333Y-95861333D01*
X133151571Y-95813714D01*
X133675381Y-95813714D01*
X133151571Y-95004190D02*
X133151571Y-95337524D01*
X133675381Y-95337524D02*
X132675381Y-95337524D01*
X132675381Y-94861333D01*
X139295143Y-93130666D02*
X139342762Y-93178285D01*
X139390381Y-93321142D01*
X139390381Y-93416380D01*
X139342762Y-93559238D01*
X139247524Y-93654476D01*
X139152286Y-93702095D01*
X138961810Y-93749714D01*
X138818952Y-93749714D01*
X138628476Y-93702095D01*
X138533238Y-93654476D01*
X138438000Y-93559238D01*
X138390381Y-93416380D01*
X138390381Y-93321142D01*
X138438000Y-93178285D01*
X138485619Y-93130666D01*
X138485619Y-92749714D02*
X138438000Y-92702095D01*
X138390381Y-92606857D01*
X138390381Y-92368761D01*
X138438000Y-92273523D01*
X138485619Y-92225904D01*
X138580857Y-92178285D01*
X138676095Y-92178285D01*
X138818952Y-92225904D01*
X139390381Y-92797333D01*
X139390381Y-92178285D01*
X141490381Y-98575619D02*
X141490381Y-99147048D01*
X141490381Y-98861334D02*
X140490381Y-98861334D01*
X140633238Y-98956572D01*
X140728476Y-99051810D01*
X140776095Y-99147048D01*
X140490381Y-97956572D02*
X140490381Y-97861333D01*
X140538000Y-97766095D01*
X140585619Y-97718476D01*
X140680857Y-97670857D01*
X140871333Y-97623238D01*
X141109429Y-97623238D01*
X141299905Y-97670857D01*
X141395143Y-97718476D01*
X141442762Y-97766095D01*
X141490381Y-97861333D01*
X141490381Y-97956572D01*
X141442762Y-98051810D01*
X141395143Y-98099429D01*
X141299905Y-98147048D01*
X141109429Y-98194667D01*
X140871333Y-98194667D01*
X140680857Y-98147048D01*
X140585619Y-98099429D01*
X140538000Y-98051810D01*
X140490381Y-97956572D01*
X140490381Y-97004191D02*
X140490381Y-96908952D01*
X140538000Y-96813714D01*
X140585619Y-96766095D01*
X140680857Y-96718476D01*
X140871333Y-96670857D01*
X141109429Y-96670857D01*
X141299905Y-96718476D01*
X141395143Y-96766095D01*
X141442762Y-96813714D01*
X141490381Y-96908952D01*
X141490381Y-97004191D01*
X141442762Y-97099429D01*
X141395143Y-97147048D01*
X141299905Y-97194667D01*
X141109429Y-97242286D01*
X140871333Y-97242286D01*
X140680857Y-97194667D01*
X140585619Y-97147048D01*
X140538000Y-97099429D01*
X140490381Y-97004191D01*
X140823714Y-96242286D02*
X141490381Y-96242286D01*
X140918952Y-96242286D02*
X140871333Y-96194667D01*
X140823714Y-96099429D01*
X140823714Y-95956571D01*
X140871333Y-95861333D01*
X140966571Y-95813714D01*
X141490381Y-95813714D01*
X140966571Y-95004190D02*
X140966571Y-95337524D01*
X141490381Y-95337524D02*
X140490381Y-95337524D01*
X140490381Y-94861333D01*
X115939843Y-105576666D02*
X115987462Y-105624285D01*
X116035081Y-105767142D01*
X116035081Y-105862380D01*
X115987462Y-106005238D01*
X115892224Y-106100476D01*
X115796986Y-106148095D01*
X115606510Y-106195714D01*
X115463652Y-106195714D01*
X115273176Y-106148095D01*
X115177938Y-106100476D01*
X115082700Y-106005238D01*
X115035081Y-105862380D01*
X115035081Y-105767142D01*
X115082700Y-105624285D01*
X115130319Y-105576666D01*
X115035081Y-105243333D02*
X115035081Y-104624285D01*
X115416033Y-104957619D01*
X115416033Y-104814761D01*
X115463652Y-104719523D01*
X115511271Y-104671904D01*
X115606510Y-104624285D01*
X115844605Y-104624285D01*
X115939843Y-104671904D01*
X115987462Y-104719523D01*
X116035081Y-104814761D01*
X116035081Y-105100476D01*
X115987462Y-105195714D01*
X115939843Y-105243333D01*
X124899681Y-107029047D02*
X124899681Y-107600476D01*
X124899681Y-107314762D02*
X123899681Y-107314762D01*
X124042538Y-107410000D01*
X124137776Y-107505238D01*
X124185395Y-107600476D01*
X123899681Y-106410000D02*
X123899681Y-106314761D01*
X123947300Y-106219523D01*
X123994919Y-106171904D01*
X124090157Y-106124285D01*
X124280633Y-106076666D01*
X124518729Y-106076666D01*
X124709205Y-106124285D01*
X124804443Y-106171904D01*
X124852062Y-106219523D01*
X124899681Y-106314761D01*
X124899681Y-106410000D01*
X124852062Y-106505238D01*
X124804443Y-106552857D01*
X124709205Y-106600476D01*
X124518729Y-106648095D01*
X124280633Y-106648095D01*
X124090157Y-106600476D01*
X123994919Y-106552857D01*
X123947300Y-106505238D01*
X123899681Y-106410000D01*
X123899681Y-105457619D02*
X123899681Y-105362380D01*
X123947300Y-105267142D01*
X123994919Y-105219523D01*
X124090157Y-105171904D01*
X124280633Y-105124285D01*
X124518729Y-105124285D01*
X124709205Y-105171904D01*
X124804443Y-105219523D01*
X124852062Y-105267142D01*
X124899681Y-105362380D01*
X124899681Y-105457619D01*
X124852062Y-105552857D01*
X124804443Y-105600476D01*
X124709205Y-105648095D01*
X124518729Y-105695714D01*
X124280633Y-105695714D01*
X124090157Y-105648095D01*
X123994919Y-105600476D01*
X123947300Y-105552857D01*
X123899681Y-105457619D01*
X124233014Y-104695714D02*
X125233014Y-104695714D01*
X124756824Y-104219523D02*
X124852062Y-104171904D01*
X124899681Y-104076666D01*
X124756824Y-104695714D02*
X124852062Y-104648095D01*
X124899681Y-104552857D01*
X124899681Y-104362380D01*
X124852062Y-104267142D01*
X124756824Y-104219523D01*
X124233014Y-104219523D01*
X124375871Y-103314761D02*
X124375871Y-103648095D01*
X124899681Y-103648095D02*
X123899681Y-103648095D01*
X123899681Y-103171904D01*
X117178129Y-101511052D02*
X117178129Y-100749147D01*
X117559081Y-101130099D02*
X116797176Y-101130099D01*
X152066667Y-64857381D02*
X152066667Y-65571667D01*
X152019047Y-65714524D01*
X151923809Y-65809762D01*
X151780952Y-65857381D01*
X151685714Y-65857381D01*
X153066667Y-65857381D02*
X152495238Y-65857381D01*
X152780952Y-65857381D02*
X152780952Y-64857381D01*
X152685714Y-65000238D01*
X152590476Y-65095476D01*
X152495238Y-65143095D01*
X140541905Y-68397381D02*
X140541905Y-67397381D01*
X140922858Y-67397381D01*
X141018096Y-67445000D01*
X141065715Y-67492619D01*
X141113334Y-67587857D01*
X141113334Y-67730714D01*
X141065715Y-67825952D01*
X141018096Y-67873571D01*
X140922858Y-67921190D01*
X140541905Y-67921190D01*
X142113334Y-68397381D02*
X141780000Y-67921190D01*
X141541905Y-68397381D02*
X141541905Y-67397381D01*
X141922858Y-67397381D01*
X142018096Y-67445000D01*
X142065715Y-67492619D01*
X142113334Y-67587857D01*
X142113334Y-67730714D01*
X142065715Y-67825952D01*
X142018096Y-67873571D01*
X141922858Y-67921190D01*
X141541905Y-67921190D01*
X142732381Y-67397381D02*
X142922858Y-67397381D01*
X143018096Y-67445000D01*
X143113334Y-67540238D01*
X143160953Y-67730714D01*
X143160953Y-68064048D01*
X143113334Y-68254524D01*
X143018096Y-68349762D01*
X142922858Y-68397381D01*
X142732381Y-68397381D01*
X142637143Y-68349762D01*
X142541905Y-68254524D01*
X142494286Y-68064048D01*
X142494286Y-67730714D01*
X142541905Y-67540238D01*
X142637143Y-67445000D01*
X142732381Y-67397381D01*
X144113334Y-67445000D02*
X144018096Y-67397381D01*
X143875239Y-67397381D01*
X143732381Y-67445000D01*
X143637143Y-67540238D01*
X143589524Y-67635476D01*
X143541905Y-67825952D01*
X143541905Y-67968810D01*
X143589524Y-68159286D01*
X143637143Y-68254524D01*
X143732381Y-68349762D01*
X143875239Y-68397381D01*
X143970477Y-68397381D01*
X144113334Y-68349762D01*
X144160953Y-68302143D01*
X144160953Y-67968810D01*
X143970477Y-67968810D01*
X144351429Y-68492619D02*
X145113334Y-68492619D01*
X145922858Y-68302143D02*
X145875239Y-68349762D01*
X145732382Y-68397381D01*
X145637144Y-68397381D01*
X145494286Y-68349762D01*
X145399048Y-68254524D01*
X145351429Y-68159286D01*
X145303810Y-67968810D01*
X145303810Y-67825952D01*
X145351429Y-67635476D01*
X145399048Y-67540238D01*
X145494286Y-67445000D01*
X145637144Y-67397381D01*
X145732382Y-67397381D01*
X145875239Y-67445000D01*
X145922858Y-67492619D01*
X146541905Y-67397381D02*
X146732382Y-67397381D01*
X146827620Y-67445000D01*
X146922858Y-67540238D01*
X146970477Y-67730714D01*
X146970477Y-68064048D01*
X146922858Y-68254524D01*
X146827620Y-68349762D01*
X146732382Y-68397381D01*
X146541905Y-68397381D01*
X146446667Y-68349762D01*
X146351429Y-68254524D01*
X146303810Y-68064048D01*
X146303810Y-67730714D01*
X146351429Y-67540238D01*
X146446667Y-67445000D01*
X146541905Y-67397381D01*
X147399048Y-68397381D02*
X147399048Y-67397381D01*
X147970477Y-68397381D01*
X147970477Y-67397381D01*
X148446667Y-68397381D02*
X148446667Y-67397381D01*
X149018096Y-68397381D01*
X149018096Y-67397381D01*
X143176667Y-71842381D02*
X143176667Y-72556667D01*
X143129047Y-72699524D01*
X143033809Y-72794762D01*
X142890952Y-72842381D01*
X142795714Y-72842381D01*
X143605238Y-71937619D02*
X143652857Y-71890000D01*
X143748095Y-71842381D01*
X143986191Y-71842381D01*
X144081429Y-71890000D01*
X144129048Y-71937619D01*
X144176667Y-72032857D01*
X144176667Y-72128095D01*
X144129048Y-72270952D01*
X143557619Y-72842381D01*
X144176667Y-72842381D01*
X145050001Y-102930000D02*
X144954763Y-102882381D01*
X144811906Y-102882381D01*
X144669048Y-102930000D01*
X144573810Y-103025238D01*
X144526191Y-103120476D01*
X144478572Y-103310952D01*
X144478572Y-103453810D01*
X144526191Y-103644286D01*
X144573810Y-103739524D01*
X144669048Y-103834762D01*
X144811906Y-103882381D01*
X144907144Y-103882381D01*
X145050001Y-103834762D01*
X145097620Y-103787143D01*
X145097620Y-103453810D01*
X144907144Y-103453810D01*
X145526191Y-103882381D02*
X145526191Y-102882381D01*
X145907144Y-102882381D01*
X146002382Y-102930000D01*
X146050001Y-102977619D01*
X146097620Y-103072857D01*
X146097620Y-103215714D01*
X146050001Y-103310952D01*
X146002382Y-103358571D01*
X145907144Y-103406190D01*
X145526191Y-103406190D01*
X146526191Y-103882381D02*
X146526191Y-102882381D01*
X147192857Y-102882381D02*
X147383334Y-102882381D01*
X147478572Y-102930000D01*
X147573810Y-103025238D01*
X147621429Y-103215714D01*
X147621429Y-103549048D01*
X147573810Y-103739524D01*
X147478572Y-103834762D01*
X147383334Y-103882381D01*
X147192857Y-103882381D01*
X147097619Y-103834762D01*
X147002381Y-103739524D01*
X146954762Y-103549048D01*
X146954762Y-103215714D01*
X147002381Y-103025238D01*
X147097619Y-102930000D01*
X147192857Y-102882381D01*
X150669667Y-104862381D02*
X150669667Y-105576667D01*
X150622047Y-105719524D01*
X150526809Y-105814762D01*
X150383952Y-105862381D01*
X150288714Y-105862381D01*
X151050619Y-104862381D02*
X151669667Y-104862381D01*
X151336333Y-105243333D01*
X151479191Y-105243333D01*
X151574429Y-105290952D01*
X151622048Y-105338571D01*
X151669667Y-105433810D01*
X151669667Y-105671905D01*
X151622048Y-105767143D01*
X151574429Y-105814762D01*
X151479191Y-105862381D01*
X151193476Y-105862381D01*
X151098238Y-105814762D01*
X151050619Y-105767143D01*
X155186191Y-105814762D02*
X155329048Y-105862381D01*
X155567144Y-105862381D01*
X155662382Y-105814762D01*
X155710001Y-105767143D01*
X155757620Y-105671905D01*
X155757620Y-105576667D01*
X155710001Y-105481429D01*
X155662382Y-105433810D01*
X155567144Y-105386190D01*
X155376667Y-105338571D01*
X155281429Y-105290952D01*
X155233810Y-105243333D01*
X155186191Y-105148095D01*
X155186191Y-105052857D01*
X155233810Y-104957619D01*
X155281429Y-104910000D01*
X155376667Y-104862381D01*
X155614763Y-104862381D01*
X155757620Y-104910000D01*
X156186191Y-105862381D02*
X156186191Y-104862381D01*
X156567144Y-104862381D01*
X156662382Y-104910000D01*
X156710001Y-104957619D01*
X156757620Y-105052857D01*
X156757620Y-105195714D01*
X156710001Y-105290952D01*
X156662382Y-105338571D01*
X156567144Y-105386190D01*
X156186191Y-105386190D01*
X157186191Y-105862381D02*
X157186191Y-104862381D01*
X113752381Y-91773333D02*
X114466667Y-91773333D01*
X114609524Y-91820953D01*
X114704762Y-91916191D01*
X114752381Y-92059048D01*
X114752381Y-92154286D01*
X114085714Y-90868571D02*
X114752381Y-90868571D01*
X113704762Y-91106667D02*
X114419048Y-91344762D01*
X114419048Y-90725714D01*
X108656429Y-102329524D02*
X108656429Y-101567619D01*
X109037381Y-101948571D02*
X108275476Y-101948571D01*
X108037381Y-101186667D02*
X108037381Y-100567619D01*
X108418333Y-100900953D01*
X108418333Y-100758095D01*
X108465952Y-100662857D01*
X108513571Y-100615238D01*
X108608810Y-100567619D01*
X108846905Y-100567619D01*
X108942143Y-100615238D01*
X108989762Y-100662857D01*
X109037381Y-100758095D01*
X109037381Y-101043810D01*
X108989762Y-101139048D01*
X108942143Y-101186667D01*
X108942143Y-100139048D02*
X108989762Y-100091429D01*
X109037381Y-100139048D01*
X108989762Y-100186667D01*
X108942143Y-100139048D01*
X109037381Y-100139048D01*
X108037381Y-99758096D02*
X108037381Y-99139048D01*
X108418333Y-99472382D01*
X108418333Y-99329524D01*
X108465952Y-99234286D01*
X108513571Y-99186667D01*
X108608810Y-99139048D01*
X108846905Y-99139048D01*
X108942143Y-99186667D01*
X108989762Y-99234286D01*
X109037381Y-99329524D01*
X109037381Y-99615239D01*
X108989762Y-99710477D01*
X108942143Y-99758096D01*
X108037381Y-98853334D02*
X109037381Y-98520001D01*
X108037381Y-98186667D01*
X108085000Y-96567619D02*
X108037381Y-96662857D01*
X108037381Y-96805714D01*
X108085000Y-96948572D01*
X108180238Y-97043810D01*
X108275476Y-97091429D01*
X108465952Y-97139048D01*
X108608810Y-97139048D01*
X108799286Y-97091429D01*
X108894524Y-97043810D01*
X108989762Y-96948572D01*
X109037381Y-96805714D01*
X109037381Y-96710476D01*
X108989762Y-96567619D01*
X108942143Y-96520000D01*
X108608810Y-96520000D01*
X108608810Y-96710476D01*
X109037381Y-96091429D02*
X108037381Y-96091429D01*
X109037381Y-95520000D01*
X108037381Y-95520000D01*
X109037381Y-95043810D02*
X108037381Y-95043810D01*
X108037381Y-94805715D01*
X108085000Y-94662857D01*
X108180238Y-94567619D01*
X108275476Y-94520000D01*
X108465952Y-94472381D01*
X108608810Y-94472381D01*
X108799286Y-94520000D01*
X108894524Y-94567619D01*
X108989762Y-94662857D01*
X109037381Y-94805715D01*
X109037381Y-95043810D01*
X108656429Y-93281905D02*
X108656429Y-92520000D01*
X109037381Y-92900952D02*
X108275476Y-92900952D01*
X108037381Y-91567619D02*
X108037381Y-92043810D01*
X108513571Y-92091429D01*
X108465952Y-92043810D01*
X108418333Y-91948572D01*
X108418333Y-91710476D01*
X108465952Y-91615238D01*
X108513571Y-91567619D01*
X108608810Y-91520000D01*
X108846905Y-91520000D01*
X108942143Y-91567619D01*
X108989762Y-91615238D01*
X109037381Y-91710476D01*
X109037381Y-91948572D01*
X108989762Y-92043810D01*
X108942143Y-92091429D01*
X108037381Y-91234286D02*
X109037381Y-90900953D01*
X108037381Y-90567619D01*
X116852381Y-76446666D02*
X116376190Y-76780000D01*
X116852381Y-77018095D02*
X115852381Y-77018095D01*
X115852381Y-76637142D01*
X115900000Y-76541904D01*
X115947619Y-76494285D01*
X116042857Y-76446666D01*
X116185714Y-76446666D01*
X116280952Y-76494285D01*
X116328571Y-76541904D01*
X116376190Y-76637142D01*
X116376190Y-77018095D01*
X116852381Y-75494285D02*
X116852381Y-76065714D01*
X116852381Y-75780000D02*
X115852381Y-75780000D01*
X115995238Y-75875238D01*
X116090476Y-75970476D01*
X116138095Y-76065714D01*
X112652381Y-76970476D02*
X112652381Y-77541905D01*
X112652381Y-77256191D02*
X111652381Y-77256191D01*
X111795238Y-77351429D01*
X111890476Y-77446667D01*
X111938095Y-77541905D01*
X111652381Y-76351429D02*
X111652381Y-76256190D01*
X111700000Y-76160952D01*
X111747619Y-76113333D01*
X111842857Y-76065714D01*
X112033333Y-76018095D01*
X112271429Y-76018095D01*
X112461905Y-76065714D01*
X112557143Y-76113333D01*
X112604762Y-76160952D01*
X112652381Y-76256190D01*
X112652381Y-76351429D01*
X112604762Y-76446667D01*
X112557143Y-76494286D01*
X112461905Y-76541905D01*
X112271429Y-76589524D01*
X112033333Y-76589524D01*
X111842857Y-76541905D01*
X111747619Y-76494286D01*
X111700000Y-76446667D01*
X111652381Y-76351429D01*
X112652381Y-75589524D02*
X111652381Y-75589524D01*
X112652381Y-75018095D02*
X112080952Y-75446667D01*
X111652381Y-75018095D02*
X112223810Y-75589524D01*
X128087381Y-93384666D02*
X127611190Y-93718000D01*
X128087381Y-93956095D02*
X127087381Y-93956095D01*
X127087381Y-93575142D01*
X127135000Y-93479904D01*
X127182619Y-93432285D01*
X127277857Y-93384666D01*
X127420714Y-93384666D01*
X127515952Y-93432285D01*
X127563571Y-93479904D01*
X127611190Y-93575142D01*
X127611190Y-93956095D01*
X127182619Y-93003714D02*
X127135000Y-92956095D01*
X127087381Y-92860857D01*
X127087381Y-92622761D01*
X127135000Y-92527523D01*
X127182619Y-92479904D01*
X127277857Y-92432285D01*
X127373095Y-92432285D01*
X127515952Y-92479904D01*
X128087381Y-93051333D01*
X128087381Y-92432285D01*
X129865381Y-97845476D02*
X129865381Y-98416905D01*
X129865381Y-98131191D02*
X128865381Y-98131191D01*
X129008238Y-98226429D01*
X129103476Y-98321667D01*
X129151095Y-98416905D01*
X128865381Y-97226429D02*
X128865381Y-97131190D01*
X128913000Y-97035952D01*
X128960619Y-96988333D01*
X129055857Y-96940714D01*
X129246333Y-96893095D01*
X129484429Y-96893095D01*
X129674905Y-96940714D01*
X129770143Y-96988333D01*
X129817762Y-97035952D01*
X129865381Y-97131190D01*
X129865381Y-97226429D01*
X129817762Y-97321667D01*
X129770143Y-97369286D01*
X129674905Y-97416905D01*
X129484429Y-97464524D01*
X129246333Y-97464524D01*
X129055857Y-97416905D01*
X128960619Y-97369286D01*
X128913000Y-97321667D01*
X128865381Y-97226429D01*
X129865381Y-96464524D02*
X128865381Y-96464524D01*
X129865381Y-95893095D02*
X129293952Y-96321667D01*
X128865381Y-95893095D02*
X129436810Y-96464524D01*
X135834381Y-93257666D02*
X135358190Y-93591000D01*
X135834381Y-93829095D02*
X134834381Y-93829095D01*
X134834381Y-93448142D01*
X134882000Y-93352904D01*
X134929619Y-93305285D01*
X135024857Y-93257666D01*
X135167714Y-93257666D01*
X135262952Y-93305285D01*
X135310571Y-93352904D01*
X135358190Y-93448142D01*
X135358190Y-93829095D01*
X134834381Y-92924333D02*
X134834381Y-92305285D01*
X135215333Y-92638619D01*
X135215333Y-92495761D01*
X135262952Y-92400523D01*
X135310571Y-92352904D01*
X135405810Y-92305285D01*
X135643905Y-92305285D01*
X135739143Y-92352904D01*
X135786762Y-92400523D01*
X135834381Y-92495761D01*
X135834381Y-92781476D01*
X135786762Y-92876714D01*
X135739143Y-92924333D01*
X137807381Y-97765476D02*
X137807381Y-98336905D01*
X137807381Y-98051191D02*
X136807381Y-98051191D01*
X136950238Y-98146429D01*
X137045476Y-98241667D01*
X137093095Y-98336905D01*
X136807381Y-97146429D02*
X136807381Y-97051190D01*
X136855000Y-96955952D01*
X136902619Y-96908333D01*
X136997857Y-96860714D01*
X137188333Y-96813095D01*
X137426429Y-96813095D01*
X137616905Y-96860714D01*
X137712143Y-96908333D01*
X137759762Y-96955952D01*
X137807381Y-97051190D01*
X137807381Y-97146429D01*
X137759762Y-97241667D01*
X137712143Y-97289286D01*
X137616905Y-97336905D01*
X137426429Y-97384524D01*
X137188333Y-97384524D01*
X136997857Y-97336905D01*
X136902619Y-97289286D01*
X136855000Y-97241667D01*
X136807381Y-97146429D01*
X137807381Y-96384524D02*
X136807381Y-96384524D01*
X137807381Y-95813095D02*
X137235952Y-96241667D01*
X136807381Y-95813095D02*
X137378810Y-96384524D01*
X130186667Y-105084762D02*
X130329524Y-105132381D01*
X130567620Y-105132381D01*
X130662858Y-105084762D01*
X130710477Y-105037143D01*
X130758096Y-104941905D01*
X130758096Y-104846667D01*
X130710477Y-104751429D01*
X130662858Y-104703810D01*
X130567620Y-104656190D01*
X130377143Y-104608571D01*
X130281905Y-104560952D01*
X130234286Y-104513333D01*
X130186667Y-104418095D01*
X130186667Y-104322857D01*
X130234286Y-104227619D01*
X130281905Y-104180000D01*
X130377143Y-104132381D01*
X130615239Y-104132381D01*
X130758096Y-104180000D01*
X131091429Y-104132381D02*
X131329524Y-105132381D01*
X131520001Y-104418095D01*
X131710477Y-105132381D01*
X131948572Y-104132381D01*
X132853334Y-105132381D02*
X132281905Y-105132381D01*
X132567619Y-105132381D02*
X132567619Y-104132381D01*
X132472381Y-104275238D01*
X132377143Y-104370476D01*
X132281905Y-104418095D01*
X129865619Y-113990381D02*
X129532285Y-113514190D01*
X129294190Y-113990381D02*
X129294190Y-112990381D01*
X129675143Y-112990381D01*
X129770381Y-113038000D01*
X129818000Y-113085619D01*
X129865619Y-113180857D01*
X129865619Y-113323714D01*
X129818000Y-113418952D01*
X129770381Y-113466571D01*
X129675143Y-113514190D01*
X129294190Y-113514190D01*
X130294190Y-113466571D02*
X130627524Y-113466571D01*
X130770381Y-113990381D02*
X130294190Y-113990381D01*
X130294190Y-112990381D01*
X130770381Y-112990381D01*
X131151333Y-113942762D02*
X131294190Y-113990381D01*
X131532286Y-113990381D01*
X131627524Y-113942762D01*
X131675143Y-113895143D01*
X131722762Y-113799905D01*
X131722762Y-113704667D01*
X131675143Y-113609429D01*
X131627524Y-113561810D01*
X131532286Y-113514190D01*
X131341809Y-113466571D01*
X131246571Y-113418952D01*
X131198952Y-113371333D01*
X131151333Y-113276095D01*
X131151333Y-113180857D01*
X131198952Y-113085619D01*
X131246571Y-113038000D01*
X131341809Y-112990381D01*
X131579905Y-112990381D01*
X131722762Y-113038000D01*
X132151333Y-113466571D02*
X132484667Y-113466571D01*
X132627524Y-113990381D02*
X132151333Y-113990381D01*
X132151333Y-112990381D01*
X132627524Y-112990381D01*
X132913238Y-112990381D02*
X133484667Y-112990381D01*
X133198952Y-113990381D02*
X133198952Y-112990381D01*
X141616667Y-105084762D02*
X141759524Y-105132381D01*
X141997620Y-105132381D01*
X142092858Y-105084762D01*
X142140477Y-105037143D01*
X142188096Y-104941905D01*
X142188096Y-104846667D01*
X142140477Y-104751429D01*
X142092858Y-104703810D01*
X141997620Y-104656190D01*
X141807143Y-104608571D01*
X141711905Y-104560952D01*
X141664286Y-104513333D01*
X141616667Y-104418095D01*
X141616667Y-104322857D01*
X141664286Y-104227619D01*
X141711905Y-104180000D01*
X141807143Y-104132381D01*
X142045239Y-104132381D01*
X142188096Y-104180000D01*
X142521429Y-104132381D02*
X142759524Y-105132381D01*
X142950001Y-104418095D01*
X143140477Y-105132381D01*
X143378572Y-104132381D01*
X143711905Y-104227619D02*
X143759524Y-104180000D01*
X143854762Y-104132381D01*
X144092858Y-104132381D01*
X144188096Y-104180000D01*
X144235715Y-104227619D01*
X144283334Y-104322857D01*
X144283334Y-104418095D01*
X144235715Y-104560952D01*
X143664286Y-105132381D01*
X144283334Y-105132381D01*
X140962286Y-114117381D02*
X140962286Y-113117381D01*
X141343239Y-113117381D01*
X141438477Y-113165000D01*
X141486096Y-113212619D01*
X141533715Y-113307857D01*
X141533715Y-113450714D01*
X141486096Y-113545952D01*
X141438477Y-113593571D01*
X141343239Y-113641190D01*
X140962286Y-113641190D01*
X142533715Y-114117381D02*
X142200381Y-113641190D01*
X141962286Y-114117381D02*
X141962286Y-113117381D01*
X142343239Y-113117381D01*
X142438477Y-113165000D01*
X142486096Y-113212619D01*
X142533715Y-113307857D01*
X142533715Y-113450714D01*
X142486096Y-113545952D01*
X142438477Y-113593571D01*
X142343239Y-113641190D01*
X141962286Y-113641190D01*
X143152762Y-113117381D02*
X143343239Y-113117381D01*
X143438477Y-113165000D01*
X143533715Y-113260238D01*
X143581334Y-113450714D01*
X143581334Y-113784048D01*
X143533715Y-113974524D01*
X143438477Y-114069762D01*
X143343239Y-114117381D01*
X143152762Y-114117381D01*
X143057524Y-114069762D01*
X142962286Y-113974524D01*
X142914667Y-113784048D01*
X142914667Y-113450714D01*
X142962286Y-113260238D01*
X143057524Y-113165000D01*
X143152762Y-113117381D01*
X144533715Y-113165000D02*
X144438477Y-113117381D01*
X144295620Y-113117381D01*
X144152762Y-113165000D01*
X144057524Y-113260238D01*
X144009905Y-113355476D01*
X143962286Y-113545952D01*
X143962286Y-113688810D01*
X144009905Y-113879286D01*
X144057524Y-113974524D01*
X144152762Y-114069762D01*
X144295620Y-114117381D01*
X144390858Y-114117381D01*
X144533715Y-114069762D01*
X144581334Y-114022143D01*
X144581334Y-113688810D01*
X144390858Y-113688810D01*
X122642381Y-92836905D02*
X123451905Y-92836905D01*
X123547143Y-92789286D01*
X123594762Y-92741667D01*
X123642381Y-92646429D01*
X123642381Y-92455952D01*
X123594762Y-92360714D01*
X123547143Y-92313095D01*
X123451905Y-92265476D01*
X122642381Y-92265476D01*
X122737619Y-91836905D02*
X122690000Y-91789286D01*
X122642381Y-91694048D01*
X122642381Y-91455952D01*
X122690000Y-91360714D01*
X122737619Y-91313095D01*
X122832857Y-91265476D01*
X122928095Y-91265476D01*
X123070952Y-91313095D01*
X123642381Y-91884524D01*
X123642381Y-91265476D01*
X114752381Y-99726429D02*
X113752381Y-99726429D01*
X114228571Y-99726429D02*
X114228571Y-99155000D01*
X114752381Y-99155000D02*
X113752381Y-99155000D01*
X113752381Y-98821667D02*
X113752381Y-98250238D01*
X114752381Y-98535953D02*
X113752381Y-98535953D01*
X113752381Y-98012143D02*
X113752381Y-97345476D01*
X114752381Y-97774048D01*
X113752381Y-97059762D02*
X113752381Y-96440714D01*
X114133333Y-96774048D01*
X114133333Y-96631190D01*
X114180952Y-96535952D01*
X114228571Y-96488333D01*
X114323810Y-96440714D01*
X114561905Y-96440714D01*
X114657143Y-96488333D01*
X114704762Y-96535952D01*
X114752381Y-96631190D01*
X114752381Y-96916905D01*
X114704762Y-97012143D01*
X114657143Y-97059762D01*
X113752381Y-96107381D02*
X113752381Y-95488333D01*
X114133333Y-95821667D01*
X114133333Y-95678809D01*
X114180952Y-95583571D01*
X114228571Y-95535952D01*
X114323810Y-95488333D01*
X114561905Y-95488333D01*
X114657143Y-95535952D01*
X114704762Y-95583571D01*
X114752381Y-95678809D01*
X114752381Y-95964524D01*
X114704762Y-96059762D01*
X114657143Y-96107381D01*
X113752381Y-95155000D02*
X113752381Y-94535952D01*
X114133333Y-94869286D01*
X114133333Y-94726428D01*
X114180952Y-94631190D01*
X114228571Y-94583571D01*
X114323810Y-94535952D01*
X114561905Y-94535952D01*
X114657143Y-94583571D01*
X114704762Y-94631190D01*
X114752381Y-94726428D01*
X114752381Y-95012143D01*
X114704762Y-95107381D01*
X114657143Y-95155000D01*
X113752381Y-88618333D02*
X114466667Y-88618333D01*
X114609524Y-88665953D01*
X114704762Y-88761191D01*
X114752381Y-88904048D01*
X114752381Y-88999286D01*
X113752381Y-87665952D02*
X113752381Y-88142143D01*
X114228571Y-88189762D01*
X114180952Y-88142143D01*
X114133333Y-88046905D01*
X114133333Y-87808809D01*
X114180952Y-87713571D01*
X114228571Y-87665952D01*
X114323810Y-87618333D01*
X114561905Y-87618333D01*
X114657143Y-87665952D01*
X114704762Y-87713571D01*
X114752381Y-87808809D01*
X114752381Y-88046905D01*
X114704762Y-88142143D01*
X114657143Y-88189762D01*
X112212381Y-87518334D02*
X111212381Y-87518334D01*
X111212381Y-87280239D01*
X111260000Y-87137381D01*
X111355238Y-87042143D01*
X111450476Y-86994524D01*
X111640952Y-86946905D01*
X111783810Y-86946905D01*
X111974286Y-86994524D01*
X112069524Y-87042143D01*
X112164762Y-87137381D01*
X112212381Y-87280239D01*
X112212381Y-87518334D01*
X111688571Y-86518334D02*
X111688571Y-86185000D01*
X112212381Y-86042143D02*
X112212381Y-86518334D01*
X111212381Y-86518334D01*
X111212381Y-86042143D01*
X111688571Y-85613572D02*
X111688571Y-85280238D01*
X112212381Y-85137381D02*
X112212381Y-85613572D01*
X111212381Y-85613572D01*
X111212381Y-85137381D01*
X112212381Y-84708810D02*
X111212381Y-84708810D01*
X111212381Y-84327857D01*
X111260000Y-84232619D01*
X111307619Y-84185000D01*
X111402857Y-84137381D01*
X111545714Y-84137381D01*
X111640952Y-84185000D01*
X111688571Y-84232619D01*
X111736190Y-84327857D01*
X111736190Y-84708810D01*
X112307619Y-83946905D02*
X112307619Y-83185000D01*
X112164762Y-82994524D02*
X112212381Y-82851667D01*
X112212381Y-82613571D01*
X112164762Y-82518333D01*
X112117143Y-82470714D01*
X112021905Y-82423095D01*
X111926667Y-82423095D01*
X111831429Y-82470714D01*
X111783810Y-82518333D01*
X111736190Y-82613571D01*
X111688571Y-82804048D01*
X111640952Y-82899286D01*
X111593333Y-82946905D01*
X111498095Y-82994524D01*
X111402857Y-82994524D01*
X111307619Y-82946905D01*
X111260000Y-82899286D01*
X111212381Y-82804048D01*
X111212381Y-82565952D01*
X111260000Y-82423095D01*
X112212381Y-81518333D02*
X112212381Y-81994524D01*
X111212381Y-81994524D01*
X111688571Y-81185000D02*
X111688571Y-80851666D01*
X112212381Y-80708809D02*
X112212381Y-81185000D01*
X111212381Y-81185000D01*
X111212381Y-80708809D01*
X111688571Y-80280238D02*
X111688571Y-79946904D01*
X112212381Y-79804047D02*
X112212381Y-80280238D01*
X111212381Y-80280238D01*
X111212381Y-79804047D01*
X112212381Y-79375476D02*
X111212381Y-79375476D01*
X111212381Y-78994523D01*
X111260000Y-78899285D01*
X111307619Y-78851666D01*
X111402857Y-78804047D01*
X111545714Y-78804047D01*
X111640952Y-78851666D01*
X111688571Y-78899285D01*
X111736190Y-78994523D01*
X111736190Y-79375476D01*
X150842381Y-68536666D02*
X150842381Y-69108095D01*
X150842381Y-68822381D02*
X149842381Y-68822381D01*
X149985238Y-68917619D01*
X150080476Y-69012857D01*
X150128095Y-69108095D01*
X149842381Y-67917619D02*
X149842381Y-67822380D01*
X149890000Y-67727142D01*
X149937619Y-67679523D01*
X150032857Y-67631904D01*
X150223333Y-67584285D01*
X150461429Y-67584285D01*
X150651905Y-67631904D01*
X150747143Y-67679523D01*
X150794762Y-67727142D01*
X150842381Y-67822380D01*
X150842381Y-67917619D01*
X150794762Y-68012857D01*
X150747143Y-68060476D01*
X150651905Y-68108095D01*
X150461429Y-68155714D01*
X150223333Y-68155714D01*
X150032857Y-68108095D01*
X149937619Y-68060476D01*
X149890000Y-68012857D01*
X149842381Y-67917619D01*
X150842381Y-67155714D02*
X149842381Y-67155714D01*
X150842381Y-66584285D02*
X150270952Y-67012857D01*
X149842381Y-66584285D02*
X150413810Y-67155714D01*
X150842381Y-65631904D02*
X150842381Y-66203333D01*
X150842381Y-65917619D02*
X149842381Y-65917619D01*
X149985238Y-66012857D01*
X150080476Y-66108095D01*
X150128095Y-66203333D01*
M02*
