G04 #@! TF.FileFunction,Legend,Bot*
%FSLAX46Y46*%
G04 Gerber Fmt 4.6, Leading zero omitted, Abs format (unit mm)*
G04 Created by KiCad (PCBNEW 4.0.6) date 2017 April 05, Wednesday 14:36:44*
%MOMM*%
%LPD*%
G01*
G04 APERTURE LIST*
%ADD10C,0.100000*%
%ADD11C,0.010000*%
G04 APERTURE END LIST*
D10*
D11*
G36*
X121183135Y-65837643D02*
X121063913Y-65994614D01*
X121073268Y-66259975D01*
X121115262Y-66404780D01*
X121218559Y-66655369D01*
X121365440Y-66915653D01*
X121571903Y-67206199D01*
X121853950Y-67547576D01*
X122227581Y-67960351D01*
X122708796Y-68465093D01*
X122755305Y-68513032D01*
X123135324Y-68907559D01*
X123409855Y-69202687D01*
X123593934Y-69417956D01*
X123702600Y-69572908D01*
X123750889Y-69687086D01*
X123753840Y-69780030D01*
X123748794Y-69804100D01*
X123638363Y-70009879D01*
X123488161Y-70152921D01*
X123362532Y-70222535D01*
X123241973Y-70236453D01*
X123074375Y-70188356D01*
X122807629Y-70071929D01*
X122803174Y-70069890D01*
X122471967Y-69937224D01*
X122267467Y-69902964D01*
X122179322Y-69966071D01*
X122174000Y-70006692D01*
X122247390Y-70089104D01*
X122436395Y-70199731D01*
X122694267Y-70318700D01*
X122974259Y-70426138D01*
X123229624Y-70502173D01*
X123398742Y-70527333D01*
X123685186Y-70453616D01*
X123879902Y-70253651D01*
X123951999Y-69959219D01*
X123952000Y-69958161D01*
X123964647Y-69808084D01*
X123985825Y-69765333D01*
X124068257Y-69808834D01*
X124248624Y-69921967D01*
X124449282Y-70054454D01*
X124834257Y-70275669D01*
X125165793Y-70393164D01*
X125424421Y-70405757D01*
X125590676Y-70312271D01*
X125645333Y-70126907D01*
X125692493Y-70042974D01*
X125793500Y-70064442D01*
X126168664Y-70219967D01*
X126424680Y-70309571D01*
X126595836Y-70338966D01*
X126716419Y-70313867D01*
X126820718Y-70239985D01*
X126824833Y-70236279D01*
X126957262Y-70047489D01*
X127000000Y-69879211D01*
X127030698Y-69713800D01*
X127109135Y-69702230D01*
X127214831Y-69843356D01*
X127238683Y-69892527D01*
X127367621Y-70069861D01*
X127564887Y-70230964D01*
X127791948Y-70358937D01*
X128010272Y-70436882D01*
X128181327Y-70447898D01*
X128266580Y-70375089D01*
X128270000Y-70344825D01*
X128206402Y-70173086D01*
X128045228Y-69957402D01*
X127830905Y-69746070D01*
X127607862Y-69587386D01*
X127545281Y-69557012D01*
X127348472Y-69452031D01*
X127267692Y-69316646D01*
X127254000Y-69134653D01*
X127265992Y-68936972D01*
X127295527Y-68836991D01*
X127302332Y-68834000D01*
X127382292Y-68886978D01*
X127556859Y-69029142D01*
X127795743Y-69235332D01*
X127939404Y-69363166D01*
X128699132Y-69973193D01*
X129436186Y-70416522D01*
X130152596Y-70693977D01*
X130850392Y-70806381D01*
X131418848Y-70774609D01*
X131899994Y-70640731D01*
X132286578Y-70391297D01*
X132590899Y-70044970D01*
X132835246Y-69565619D01*
X132938717Y-69026130D01*
X132906180Y-68452578D01*
X132742501Y-67871035D01*
X132452549Y-67307576D01*
X132041192Y-66788273D01*
X131969364Y-66715842D01*
X131513650Y-66330242D01*
X131049563Y-66046516D01*
X130598141Y-65868450D01*
X130180423Y-65799827D01*
X129817447Y-65844430D01*
X129530249Y-66006045D01*
X129357792Y-66246112D01*
X129267961Y-66443269D01*
X128917147Y-66242654D01*
X128559643Y-66099806D01*
X128171637Y-66041509D01*
X127818925Y-66073604D01*
X127664600Y-66131481D01*
X127488358Y-66305653D01*
X127347003Y-66591115D01*
X127265048Y-66930145D01*
X127254000Y-67098428D01*
X127325489Y-67467241D01*
X127522621Y-67879372D01*
X127819394Y-68302789D01*
X128189806Y-68705459D01*
X128607857Y-69055352D01*
X129047542Y-69320435D01*
X129064087Y-69328293D01*
X129429075Y-69459887D01*
X129785558Y-69520084D01*
X130084545Y-69504665D01*
X130254671Y-69430813D01*
X130370168Y-69373078D01*
X130529149Y-69389878D01*
X130733286Y-69462303D01*
X131103657Y-69544850D01*
X131406607Y-69492360D01*
X131623114Y-69332065D01*
X131734155Y-69091198D01*
X131720707Y-68796990D01*
X131639190Y-68630634D01*
X131257622Y-68630634D01*
X131256513Y-68864749D01*
X131232924Y-68919431D01*
X131073926Y-69060176D01*
X130834043Y-69066917D01*
X130535031Y-68940330D01*
X130464865Y-68895594D01*
X130194500Y-68667976D01*
X130030487Y-68436960D01*
X129977596Y-68229418D01*
X130040603Y-68072224D01*
X130224278Y-67992250D01*
X130303547Y-67987333D01*
X130624706Y-68042868D01*
X130911150Y-68189035D01*
X131132311Y-68395177D01*
X131257622Y-68630634D01*
X131639190Y-68630634D01*
X131563747Y-68476675D01*
X131487950Y-68381970D01*
X131090580Y-68052293D01*
X130593859Y-67836133D01*
X130036192Y-67748538D01*
X129872751Y-67749162D01*
X129594699Y-67769776D01*
X129392389Y-67802791D01*
X129318224Y-67834358D01*
X129344595Y-67929794D01*
X129452147Y-68118139D01*
X129617723Y-68358929D01*
X129620730Y-68363003D01*
X129840202Y-68679483D01*
X129944254Y-68891135D01*
X129932947Y-69016983D01*
X129806339Y-69076048D01*
X129622984Y-69088000D01*
X129254446Y-69018687D01*
X128880074Y-68830836D01*
X128527431Y-68554576D01*
X128224081Y-68220037D01*
X127997589Y-67857348D01*
X127875517Y-67496639D01*
X127881172Y-67184045D01*
X128023548Y-66935153D01*
X128279959Y-66755827D01*
X128604220Y-66660834D01*
X128950145Y-66664941D01*
X129222500Y-66755167D01*
X129383923Y-66829419D01*
X129445878Y-66809828D01*
X129455333Y-66712312D01*
X129531681Y-66487421D01*
X129727601Y-66308045D01*
X129993410Y-66214597D01*
X130073710Y-66209333D01*
X130393891Y-66267378D01*
X130766117Y-66420428D01*
X131130015Y-66636857D01*
X131425210Y-66885038D01*
X131478763Y-66945371D01*
X131867620Y-67506416D01*
X132120429Y-68071415D01*
X132232633Y-68620460D01*
X132199676Y-69133645D01*
X132065011Y-69506376D01*
X131870158Y-69826789D01*
X131658037Y-70039004D01*
X131389022Y-70163391D01*
X131023486Y-70220318D01*
X130655334Y-70231000D01*
X130272214Y-70224146D01*
X129987486Y-70193113D01*
X129730419Y-70122192D01*
X129430286Y-69995674D01*
X129282639Y-69926128D01*
X128925098Y-69731180D01*
X128509792Y-69468134D01*
X128105348Y-69181580D01*
X127946976Y-69058295D01*
X127647099Y-68825426D01*
X127385892Y-68639492D01*
X127196605Y-68523201D01*
X127122721Y-68495333D01*
X127014888Y-68569449D01*
X126948142Y-68733458D01*
X126900517Y-68971583D01*
X126620059Y-68691125D01*
X126397557Y-68505459D01*
X126212906Y-68417885D01*
X126095359Y-68437515D01*
X126068667Y-68519411D01*
X126135282Y-68631928D01*
X126298158Y-68763198D01*
X126323100Y-68778454D01*
X126569569Y-68991834D01*
X126753308Y-69275082D01*
X126830392Y-69559280D01*
X126830667Y-69574862D01*
X126759068Y-69792799D01*
X126559063Y-69914944D01*
X126395912Y-69934666D01*
X126070629Y-69896367D01*
X125825885Y-69762665D01*
X125623022Y-69505356D01*
X125532048Y-69331671D01*
X125254787Y-69331671D01*
X125232175Y-69342000D01*
X125137852Y-69282900D01*
X124973418Y-69129198D01*
X124805862Y-68949079D01*
X124597077Y-68687955D01*
X124482079Y-68492332D01*
X124468067Y-68380610D01*
X124562241Y-68371190D01*
X124582561Y-68378345D01*
X124709321Y-68469829D01*
X124864421Y-68639052D01*
X125022190Y-68847931D01*
X125156956Y-69058382D01*
X125243046Y-69232323D01*
X125254787Y-69331671D01*
X125532048Y-69331671D01*
X125508897Y-69287474D01*
X125319987Y-68949359D01*
X125097665Y-68644617D01*
X124862725Y-68389570D01*
X124635959Y-68200536D01*
X124438159Y-68093835D01*
X124290118Y-68085789D01*
X124212627Y-68192715D01*
X124206000Y-68264827D01*
X124239929Y-68451821D01*
X124353052Y-68668192D01*
X124562377Y-68939407D01*
X124884912Y-69290928D01*
X124905758Y-69312563D01*
X125144877Y-69601864D01*
X125237698Y-69810466D01*
X125192009Y-69927893D01*
X125015597Y-69943671D01*
X124716250Y-69847323D01*
X124562461Y-69774342D01*
X124294767Y-69615663D01*
X124099191Y-69431818D01*
X123941555Y-69178563D01*
X123792513Y-68823179D01*
X123523766Y-68823179D01*
X123501566Y-68834000D01*
X123434669Y-68773965D01*
X123278570Y-68609570D01*
X123055017Y-68364375D01*
X122785758Y-68061941D01*
X122721726Y-67989128D01*
X122302055Y-67502880D01*
X121985586Y-67116149D01*
X121756664Y-66807838D01*
X121599638Y-66556849D01*
X121498857Y-66342085D01*
X121497882Y-66339529D01*
X121463596Y-66168781D01*
X121528817Y-66118546D01*
X121680052Y-66183225D01*
X121903806Y-66357217D01*
X122171745Y-66619180D01*
X122390406Y-66873643D01*
X122626603Y-67186953D01*
X122864474Y-67532692D01*
X123088157Y-67884442D01*
X123281789Y-68215783D01*
X123429510Y-68500299D01*
X123515456Y-68711570D01*
X123523766Y-68823179D01*
X123792513Y-68823179D01*
X123787679Y-68811653D01*
X123759464Y-68734870D01*
X123481172Y-68109030D01*
X123099954Y-67451200D01*
X122654568Y-66822131D01*
X122215779Y-66315166D01*
X121941297Y-66045320D01*
X121739355Y-65882899D01*
X121575130Y-65804378D01*
X121432504Y-65786000D01*
X121183135Y-65837643D01*
X121183135Y-65837643D01*
G37*
X121183135Y-65837643D02*
X121063913Y-65994614D01*
X121073268Y-66259975D01*
X121115262Y-66404780D01*
X121218559Y-66655369D01*
X121365440Y-66915653D01*
X121571903Y-67206199D01*
X121853950Y-67547576D01*
X122227581Y-67960351D01*
X122708796Y-68465093D01*
X122755305Y-68513032D01*
X123135324Y-68907559D01*
X123409855Y-69202687D01*
X123593934Y-69417956D01*
X123702600Y-69572908D01*
X123750889Y-69687086D01*
X123753840Y-69780030D01*
X123748794Y-69804100D01*
X123638363Y-70009879D01*
X123488161Y-70152921D01*
X123362532Y-70222535D01*
X123241973Y-70236453D01*
X123074375Y-70188356D01*
X122807629Y-70071929D01*
X122803174Y-70069890D01*
X122471967Y-69937224D01*
X122267467Y-69902964D01*
X122179322Y-69966071D01*
X122174000Y-70006692D01*
X122247390Y-70089104D01*
X122436395Y-70199731D01*
X122694267Y-70318700D01*
X122974259Y-70426138D01*
X123229624Y-70502173D01*
X123398742Y-70527333D01*
X123685186Y-70453616D01*
X123879902Y-70253651D01*
X123951999Y-69959219D01*
X123952000Y-69958161D01*
X123964647Y-69808084D01*
X123985825Y-69765333D01*
X124068257Y-69808834D01*
X124248624Y-69921967D01*
X124449282Y-70054454D01*
X124834257Y-70275669D01*
X125165793Y-70393164D01*
X125424421Y-70405757D01*
X125590676Y-70312271D01*
X125645333Y-70126907D01*
X125692493Y-70042974D01*
X125793500Y-70064442D01*
X126168664Y-70219967D01*
X126424680Y-70309571D01*
X126595836Y-70338966D01*
X126716419Y-70313867D01*
X126820718Y-70239985D01*
X126824833Y-70236279D01*
X126957262Y-70047489D01*
X127000000Y-69879211D01*
X127030698Y-69713800D01*
X127109135Y-69702230D01*
X127214831Y-69843356D01*
X127238683Y-69892527D01*
X127367621Y-70069861D01*
X127564887Y-70230964D01*
X127791948Y-70358937D01*
X128010272Y-70436882D01*
X128181327Y-70447898D01*
X128266580Y-70375089D01*
X128270000Y-70344825D01*
X128206402Y-70173086D01*
X128045228Y-69957402D01*
X127830905Y-69746070D01*
X127607862Y-69587386D01*
X127545281Y-69557012D01*
X127348472Y-69452031D01*
X127267692Y-69316646D01*
X127254000Y-69134653D01*
X127265992Y-68936972D01*
X127295527Y-68836991D01*
X127302332Y-68834000D01*
X127382292Y-68886978D01*
X127556859Y-69029142D01*
X127795743Y-69235332D01*
X127939404Y-69363166D01*
X128699132Y-69973193D01*
X129436186Y-70416522D01*
X130152596Y-70693977D01*
X130850392Y-70806381D01*
X131418848Y-70774609D01*
X131899994Y-70640731D01*
X132286578Y-70391297D01*
X132590899Y-70044970D01*
X132835246Y-69565619D01*
X132938717Y-69026130D01*
X132906180Y-68452578D01*
X132742501Y-67871035D01*
X132452549Y-67307576D01*
X132041192Y-66788273D01*
X131969364Y-66715842D01*
X131513650Y-66330242D01*
X131049563Y-66046516D01*
X130598141Y-65868450D01*
X130180423Y-65799827D01*
X129817447Y-65844430D01*
X129530249Y-66006045D01*
X129357792Y-66246112D01*
X129267961Y-66443269D01*
X128917147Y-66242654D01*
X128559643Y-66099806D01*
X128171637Y-66041509D01*
X127818925Y-66073604D01*
X127664600Y-66131481D01*
X127488358Y-66305653D01*
X127347003Y-66591115D01*
X127265048Y-66930145D01*
X127254000Y-67098428D01*
X127325489Y-67467241D01*
X127522621Y-67879372D01*
X127819394Y-68302789D01*
X128189806Y-68705459D01*
X128607857Y-69055352D01*
X129047542Y-69320435D01*
X129064087Y-69328293D01*
X129429075Y-69459887D01*
X129785558Y-69520084D01*
X130084545Y-69504665D01*
X130254671Y-69430813D01*
X130370168Y-69373078D01*
X130529149Y-69389878D01*
X130733286Y-69462303D01*
X131103657Y-69544850D01*
X131406607Y-69492360D01*
X131623114Y-69332065D01*
X131734155Y-69091198D01*
X131720707Y-68796990D01*
X131639190Y-68630634D01*
X131257622Y-68630634D01*
X131256513Y-68864749D01*
X131232924Y-68919431D01*
X131073926Y-69060176D01*
X130834043Y-69066917D01*
X130535031Y-68940330D01*
X130464865Y-68895594D01*
X130194500Y-68667976D01*
X130030487Y-68436960D01*
X129977596Y-68229418D01*
X130040603Y-68072224D01*
X130224278Y-67992250D01*
X130303547Y-67987333D01*
X130624706Y-68042868D01*
X130911150Y-68189035D01*
X131132311Y-68395177D01*
X131257622Y-68630634D01*
X131639190Y-68630634D01*
X131563747Y-68476675D01*
X131487950Y-68381970D01*
X131090580Y-68052293D01*
X130593859Y-67836133D01*
X130036192Y-67748538D01*
X129872751Y-67749162D01*
X129594699Y-67769776D01*
X129392389Y-67802791D01*
X129318224Y-67834358D01*
X129344595Y-67929794D01*
X129452147Y-68118139D01*
X129617723Y-68358929D01*
X129620730Y-68363003D01*
X129840202Y-68679483D01*
X129944254Y-68891135D01*
X129932947Y-69016983D01*
X129806339Y-69076048D01*
X129622984Y-69088000D01*
X129254446Y-69018687D01*
X128880074Y-68830836D01*
X128527431Y-68554576D01*
X128224081Y-68220037D01*
X127997589Y-67857348D01*
X127875517Y-67496639D01*
X127881172Y-67184045D01*
X128023548Y-66935153D01*
X128279959Y-66755827D01*
X128604220Y-66660834D01*
X128950145Y-66664941D01*
X129222500Y-66755167D01*
X129383923Y-66829419D01*
X129445878Y-66809828D01*
X129455333Y-66712312D01*
X129531681Y-66487421D01*
X129727601Y-66308045D01*
X129993410Y-66214597D01*
X130073710Y-66209333D01*
X130393891Y-66267378D01*
X130766117Y-66420428D01*
X131130015Y-66636857D01*
X131425210Y-66885038D01*
X131478763Y-66945371D01*
X131867620Y-67506416D01*
X132120429Y-68071415D01*
X132232633Y-68620460D01*
X132199676Y-69133645D01*
X132065011Y-69506376D01*
X131870158Y-69826789D01*
X131658037Y-70039004D01*
X131389022Y-70163391D01*
X131023486Y-70220318D01*
X130655334Y-70231000D01*
X130272214Y-70224146D01*
X129987486Y-70193113D01*
X129730419Y-70122192D01*
X129430286Y-69995674D01*
X129282639Y-69926128D01*
X128925098Y-69731180D01*
X128509792Y-69468134D01*
X128105348Y-69181580D01*
X127946976Y-69058295D01*
X127647099Y-68825426D01*
X127385892Y-68639492D01*
X127196605Y-68523201D01*
X127122721Y-68495333D01*
X127014888Y-68569449D01*
X126948142Y-68733458D01*
X126900517Y-68971583D01*
X126620059Y-68691125D01*
X126397557Y-68505459D01*
X126212906Y-68417885D01*
X126095359Y-68437515D01*
X126068667Y-68519411D01*
X126135282Y-68631928D01*
X126298158Y-68763198D01*
X126323100Y-68778454D01*
X126569569Y-68991834D01*
X126753308Y-69275082D01*
X126830392Y-69559280D01*
X126830667Y-69574862D01*
X126759068Y-69792799D01*
X126559063Y-69914944D01*
X126395912Y-69934666D01*
X126070629Y-69896367D01*
X125825885Y-69762665D01*
X125623022Y-69505356D01*
X125532048Y-69331671D01*
X125254787Y-69331671D01*
X125232175Y-69342000D01*
X125137852Y-69282900D01*
X124973418Y-69129198D01*
X124805862Y-68949079D01*
X124597077Y-68687955D01*
X124482079Y-68492332D01*
X124468067Y-68380610D01*
X124562241Y-68371190D01*
X124582561Y-68378345D01*
X124709321Y-68469829D01*
X124864421Y-68639052D01*
X125022190Y-68847931D01*
X125156956Y-69058382D01*
X125243046Y-69232323D01*
X125254787Y-69331671D01*
X125532048Y-69331671D01*
X125508897Y-69287474D01*
X125319987Y-68949359D01*
X125097665Y-68644617D01*
X124862725Y-68389570D01*
X124635959Y-68200536D01*
X124438159Y-68093835D01*
X124290118Y-68085789D01*
X124212627Y-68192715D01*
X124206000Y-68264827D01*
X124239929Y-68451821D01*
X124353052Y-68668192D01*
X124562377Y-68939407D01*
X124884912Y-69290928D01*
X124905758Y-69312563D01*
X125144877Y-69601864D01*
X125237698Y-69810466D01*
X125192009Y-69927893D01*
X125015597Y-69943671D01*
X124716250Y-69847323D01*
X124562461Y-69774342D01*
X124294767Y-69615663D01*
X124099191Y-69431818D01*
X123941555Y-69178563D01*
X123792513Y-68823179D01*
X123523766Y-68823179D01*
X123501566Y-68834000D01*
X123434669Y-68773965D01*
X123278570Y-68609570D01*
X123055017Y-68364375D01*
X122785758Y-68061941D01*
X122721726Y-67989128D01*
X122302055Y-67502880D01*
X121985586Y-67116149D01*
X121756664Y-66807838D01*
X121599638Y-66556849D01*
X121498857Y-66342085D01*
X121497882Y-66339529D01*
X121463596Y-66168781D01*
X121528817Y-66118546D01*
X121680052Y-66183225D01*
X121903806Y-66357217D01*
X122171745Y-66619180D01*
X122390406Y-66873643D01*
X122626603Y-67186953D01*
X122864474Y-67532692D01*
X123088157Y-67884442D01*
X123281789Y-68215783D01*
X123429510Y-68500299D01*
X123515456Y-68711570D01*
X123523766Y-68823179D01*
X123792513Y-68823179D01*
X123787679Y-68811653D01*
X123759464Y-68734870D01*
X123481172Y-68109030D01*
X123099954Y-67451200D01*
X122654568Y-66822131D01*
X122215779Y-66315166D01*
X121941297Y-66045320D01*
X121739355Y-65882899D01*
X121575130Y-65804378D01*
X121432504Y-65786000D01*
X121183135Y-65837643D01*
G36*
X127329416Y-63831876D02*
X127250094Y-63930632D01*
X127207804Y-64173674D01*
X127284119Y-64462314D01*
X127452311Y-64755250D01*
X127685649Y-65011181D01*
X127957403Y-65188805D01*
X128093702Y-65234136D01*
X128331068Y-65331562D01*
X128559783Y-65491041D01*
X128564006Y-65494924D01*
X128795745Y-65660128D01*
X128980726Y-65698708D01*
X129093741Y-65611056D01*
X129116667Y-65486293D01*
X129052210Y-65198226D01*
X128763304Y-65198226D01*
X128691039Y-65197478D01*
X128502118Y-65085494D01*
X128469852Y-65063781D01*
X128253978Y-64934643D01*
X128081507Y-64861126D01*
X128042670Y-64854666D01*
X127889186Y-64790632D01*
X127710528Y-64637800D01*
X127564331Y-64455078D01*
X127508000Y-64308181D01*
X127563967Y-64198748D01*
X127710853Y-64190470D01*
X127917139Y-64267533D01*
X128151305Y-64414120D01*
X128381832Y-64614415D01*
X128569161Y-64840640D01*
X128721737Y-65081395D01*
X128763304Y-65198226D01*
X129052210Y-65198226D01*
X129049297Y-65185209D01*
X128870257Y-64840745D01*
X128614155Y-64494828D01*
X128315597Y-64189385D01*
X128009189Y-63966342D01*
X127788171Y-63876797D01*
X127576680Y-63827277D01*
X127445792Y-63792414D01*
X127329416Y-63831876D01*
X127329416Y-63831876D01*
G37*
X127329416Y-63831876D02*
X127250094Y-63930632D01*
X127207804Y-64173674D01*
X127284119Y-64462314D01*
X127452311Y-64755250D01*
X127685649Y-65011181D01*
X127957403Y-65188805D01*
X128093702Y-65234136D01*
X128331068Y-65331562D01*
X128559783Y-65491041D01*
X128564006Y-65494924D01*
X128795745Y-65660128D01*
X128980726Y-65698708D01*
X129093741Y-65611056D01*
X129116667Y-65486293D01*
X129052210Y-65198226D01*
X128763304Y-65198226D01*
X128691039Y-65197478D01*
X128502118Y-65085494D01*
X128469852Y-65063781D01*
X128253978Y-64934643D01*
X128081507Y-64861126D01*
X128042670Y-64854666D01*
X127889186Y-64790632D01*
X127710528Y-64637800D01*
X127564331Y-64455078D01*
X127508000Y-64308181D01*
X127563967Y-64198748D01*
X127710853Y-64190470D01*
X127917139Y-64267533D01*
X128151305Y-64414120D01*
X128381832Y-64614415D01*
X128569161Y-64840640D01*
X128721737Y-65081395D01*
X128763304Y-65198226D01*
X129052210Y-65198226D01*
X129049297Y-65185209D01*
X128870257Y-64840745D01*
X128614155Y-64494828D01*
X128315597Y-64189385D01*
X128009189Y-63966342D01*
X127788171Y-63876797D01*
X127576680Y-63827277D01*
X127445792Y-63792414D01*
X127329416Y-63831876D01*
M02*
