G04 #@! TF.FileFunction,Copper,L2,Bot,Signal*
%FSLAX46Y46*%
G04 Gerber Fmt 4.6, Leading zero omitted, Abs format (unit mm)*
G04 Created by KiCad (PCBNEW 4.0.6) date 2017 April 05, Wednesday 14:36:44*
%MOMM*%
%LPD*%
G01*
G04 APERTURE LIST*
%ADD10C,0.100000*%
%ADD11C,2.032000*%
%ADD12R,2.500000X1.100000*%
%ADD13O,2.500000X1.100000*%
%ADD14O,1.100000X2.500000*%
%ADD15C,1.524000*%
%ADD16R,1.727200X2.032000*%
%ADD17O,1.727200X2.032000*%
%ADD18R,2.032000X1.727200*%
%ADD19O,2.032000X1.727200*%
%ADD20C,2.000000*%
%ADD21R,2.032000X2.032000*%
%ADD22O,2.032000X2.032000*%
%ADD23C,1.440000*%
%ADD24C,0.600000*%
%ADD25C,0.250000*%
%ADD26C,0.504000*%
%ADD27C,0.254000*%
G04 APERTURE END LIST*
D10*
D11*
X153670000Y-72390000D03*
X156210000Y-72390000D03*
X158750000Y-72390000D03*
X161290000Y-72390000D03*
D12*
X119315000Y-72390000D03*
D13*
X119315000Y-74390000D03*
X119315000Y-76390000D03*
X119315000Y-78390000D03*
X119315000Y-80390000D03*
X119315000Y-82390000D03*
X119315000Y-84390000D03*
X119315000Y-86390000D03*
X134715000Y-86390000D03*
X134615000Y-84390000D03*
X134715000Y-82390000D03*
X134715000Y-80390000D03*
X134715000Y-78390000D03*
X134715000Y-76390000D03*
X134715000Y-74390000D03*
X134715000Y-72390000D03*
D14*
X122005000Y-88090000D03*
X124005000Y-88090000D03*
X126005000Y-88090000D03*
X128005000Y-88090000D03*
X130005000Y-88090000D03*
X132005000Y-88090000D03*
D15*
X148590000Y-77470000D03*
X151130000Y-77470000D03*
X153670000Y-77470000D03*
X156210000Y-77470000D03*
X158750000Y-77470000D03*
X161290000Y-77470000D03*
X148590000Y-80010000D03*
X151130000Y-80010000D03*
X153670000Y-80010000D03*
X156210000Y-80010000D03*
X158750000Y-80010000D03*
X161290000Y-80010000D03*
X148590000Y-82550000D03*
X151130000Y-82550000D03*
X153670000Y-82550000D03*
X156210000Y-82550000D03*
X158750000Y-82550000D03*
X161290000Y-82550000D03*
X148590000Y-85090000D03*
X151130000Y-85090000D03*
X153670000Y-85090000D03*
X156210000Y-85090000D03*
X158750000Y-85090000D03*
X161290000Y-85090000D03*
X148590000Y-87630000D03*
X151130000Y-87630000D03*
X153670000Y-87630000D03*
X156210000Y-87630000D03*
X158750000Y-87630000D03*
X161290000Y-87630000D03*
X148590000Y-90170000D03*
X151130000Y-90170000D03*
X153670000Y-90170000D03*
X156210000Y-90170000D03*
X158750000Y-90170000D03*
X161290000Y-90170000D03*
X148590000Y-92710000D03*
X151130000Y-92710000D03*
X153670000Y-92710000D03*
X156210000Y-92710000D03*
X158750000Y-92710000D03*
X161290000Y-92710000D03*
X148590000Y-95250000D03*
X151130000Y-95250000D03*
X153670000Y-95250000D03*
X156210000Y-95250000D03*
X158750000Y-95250000D03*
X161290000Y-95250000D03*
X148590000Y-97790000D03*
X151130000Y-97790000D03*
X153670000Y-97790000D03*
X156210000Y-97790000D03*
X158750000Y-97790000D03*
X161290000Y-97790000D03*
X148590000Y-100330000D03*
X151130000Y-100330000D03*
X153670000Y-100330000D03*
X156210000Y-100330000D03*
X158750000Y-100330000D03*
X161290000Y-100330000D03*
D16*
X139065000Y-65405000D03*
D17*
X141605000Y-65405000D03*
X144145000Y-65405000D03*
X146685000Y-65405000D03*
X149225000Y-65405000D03*
D18*
X146050000Y-100330000D03*
D19*
X146050000Y-97790000D03*
X146050000Y-95250000D03*
X146050000Y-92710000D03*
X146050000Y-90170000D03*
X146050000Y-87630000D03*
X146050000Y-85090000D03*
X146050000Y-82550000D03*
X146050000Y-80010000D03*
X146050000Y-77470000D03*
X146050000Y-74930000D03*
X146050000Y-72390000D03*
D18*
X111125000Y-92075000D03*
D19*
X111125000Y-94615000D03*
X111125000Y-97155000D03*
X111125000Y-99695000D03*
D20*
X128270000Y-111180000D03*
X128270000Y-106680000D03*
X134770000Y-111180000D03*
X134770000Y-106680000D03*
X139700000Y-111180000D03*
X139700000Y-106680000D03*
X146200000Y-111180000D03*
X146200000Y-106680000D03*
D11*
X148590000Y-74930000D03*
X151130000Y-74930000D03*
X153670000Y-74930000D03*
X156210000Y-74930000D03*
X158750000Y-74930000D03*
X161290000Y-74930000D03*
D21*
X114300000Y-83185000D03*
D22*
X114300000Y-85725000D03*
D23*
X152400000Y-67310000D03*
X154940000Y-64770000D03*
X157480000Y-67310000D03*
D11*
X161290000Y-102870000D03*
D17*
X158750000Y-102870000D03*
X156210000Y-102870000D03*
X153670000Y-102870000D03*
X151130000Y-102870000D03*
D24*
X127635000Y-93345000D03*
X117475000Y-91440000D03*
X114300000Y-79883000D03*
X135240888Y-94275303D03*
X126365000Y-98425000D03*
X135128000Y-99568000D03*
X128905000Y-84455018D03*
X125161588Y-81005012D03*
X140335000Y-85725000D03*
X122555000Y-84455000D03*
X138430000Y-85090000D03*
X141605000Y-80644992D03*
X123825000Y-79375000D03*
X124460000Y-93980000D03*
X130810000Y-90170000D03*
X154286290Y-105908160D03*
X151769157Y-106696599D03*
X134620000Y-88900000D03*
D25*
X120015000Y-74390000D02*
X123730000Y-74390000D01*
X136779000Y-64135000D02*
X137922000Y-62992000D01*
X123730000Y-74390000D02*
X128089503Y-70030497D01*
X128089503Y-70030497D02*
X136344503Y-70030497D01*
X136344503Y-70030497D02*
X136779000Y-69596000D01*
X136779000Y-69596000D02*
X136779000Y-64135000D01*
X137922000Y-62992000D02*
X153145685Y-62992000D01*
X153145685Y-62992000D02*
X154905962Y-64752277D01*
X134770000Y-106680000D02*
X133500000Y-107950000D01*
X133500000Y-107950000D02*
X129540000Y-107950000D01*
X129540000Y-107950000D02*
X128270000Y-106680000D01*
X127635000Y-93345000D02*
X127635000Y-99545000D01*
X127635000Y-99545000D02*
X132409000Y-104319000D01*
X132409000Y-104319000D02*
X134770000Y-106680000D01*
X125730000Y-91440000D02*
X117475000Y-91440000D01*
X126365000Y-92075000D02*
X125730000Y-91440000D01*
X127635000Y-93345000D02*
X126365000Y-92075000D01*
D26*
X111125000Y-99695000D02*
X114935000Y-99695000D01*
D25*
X134620000Y-100076000D02*
X135128000Y-99568000D01*
X134112000Y-100076000D02*
X134620000Y-100076000D01*
X133604000Y-99568000D02*
X134112000Y-100076000D01*
X133604000Y-93980000D02*
X133604000Y-99568000D01*
X133096000Y-93472000D02*
X133604000Y-93980000D01*
X132617131Y-92993131D02*
X133096000Y-93472000D01*
X128905000Y-89127451D02*
X128905000Y-84455018D01*
X132617131Y-92993131D02*
X132617131Y-92963424D01*
X132617131Y-92963424D02*
X131093707Y-91440000D01*
X129540000Y-90932000D02*
X129540000Y-89762451D01*
X131093707Y-91440000D02*
X130048000Y-91440000D01*
X130048000Y-91440000D02*
X129540000Y-90932000D01*
X129540000Y-89762451D02*
X128905000Y-89127451D01*
X141605000Y-85090000D02*
X141605000Y-94615000D01*
X134015000Y-82390000D02*
X138905000Y-82390000D01*
X138905000Y-82390000D02*
X141605000Y-85090000D01*
X144780000Y-97790000D02*
X144784000Y-97790000D01*
X144784000Y-97790000D02*
X146050000Y-97790000D01*
X141605000Y-94615000D02*
X144780000Y-97790000D01*
X137160000Y-78390000D02*
X137445000Y-78390000D01*
X137445000Y-78390000D02*
X142883617Y-83828617D01*
X142883617Y-93349617D02*
X144784000Y-95250000D01*
X142883617Y-83828617D02*
X142883617Y-93349617D01*
X144784000Y-95250000D02*
X146050000Y-95250000D01*
X136810000Y-78390000D02*
X137160000Y-78390000D01*
X134015000Y-78390000D02*
X137160000Y-78390000D01*
X134015000Y-76390000D02*
X139255000Y-76390000D01*
X139255000Y-76390000D02*
X144002866Y-81137866D01*
X144002866Y-81137866D02*
X144002866Y-92710000D01*
X144002866Y-92710000D02*
X146050000Y-92710000D01*
X131445000Y-81268371D02*
X125849211Y-81268371D01*
X131445000Y-81268371D02*
X131445000Y-81280000D01*
X131445000Y-81280000D02*
X133679990Y-83514990D01*
X140035001Y-85425001D02*
X140335000Y-85725000D01*
X133679990Y-83514990D02*
X138124990Y-83514990D01*
X138124990Y-83514990D02*
X140035001Y-85425001D01*
X125849211Y-81268371D02*
X125585852Y-81005012D01*
X125585852Y-81005012D02*
X125161588Y-81005012D01*
X138430000Y-85090000D02*
X138130001Y-85389999D01*
X138130001Y-85389999D02*
X133167756Y-85389999D01*
X129825669Y-82047912D02*
X125875905Y-82047912D01*
X133167756Y-85389999D02*
X129825669Y-82047912D01*
X125875905Y-82047912D02*
X123468817Y-84455000D01*
X123468817Y-84455000D02*
X122555000Y-84455000D01*
X125730000Y-77470000D02*
X138430000Y-77470000D01*
X125730000Y-77470000D02*
X123825000Y-79375000D01*
X138430000Y-77470000D02*
X140335000Y-79375000D01*
X141305001Y-80344993D02*
X141605000Y-80644992D01*
X140335008Y-79375000D02*
X141305001Y-80344993D01*
X124460000Y-93980000D02*
X124460000Y-100330000D01*
X124460000Y-100330000D02*
X125894366Y-101764366D01*
X125894366Y-101764366D02*
X125894366Y-107947156D01*
X158750000Y-107950000D02*
X158750000Y-102862641D01*
X125894366Y-107947156D02*
X126645040Y-108697830D01*
X126645040Y-108697830D02*
X126941170Y-108697830D01*
X126941170Y-108697830D02*
X127099207Y-108855867D01*
X158115000Y-108598169D02*
X158115000Y-108585000D01*
X127099207Y-108855867D02*
X157857302Y-108855867D01*
X158115000Y-108585000D02*
X158750000Y-107950000D01*
X157857302Y-108855867D02*
X158115000Y-108598169D01*
X158750000Y-102862641D02*
X158772261Y-102840380D01*
X130810000Y-90170000D02*
X134620000Y-90170000D01*
X154417360Y-104650236D02*
X156215433Y-102852163D01*
X140970000Y-96520000D02*
X140970000Y-101600000D01*
X134620000Y-90170000D02*
X140970000Y-96520000D01*
X153140265Y-104843245D02*
X153333274Y-104650236D01*
X143510000Y-104140000D02*
X148590000Y-104140000D01*
X153333274Y-104650236D02*
X154417360Y-104650236D01*
X148590000Y-104140000D02*
X149293245Y-104843245D01*
X140970000Y-101600000D02*
X143510000Y-104140000D01*
X149293245Y-104843245D02*
X153140265Y-104843245D01*
X153670000Y-102870000D02*
X153670000Y-102717600D01*
X153670000Y-102870000D02*
X153670000Y-103576652D01*
X153862026Y-105908160D02*
X154286290Y-105908160D01*
X151769157Y-106696599D02*
X152557596Y-105908160D01*
X152557596Y-105908160D02*
X153862026Y-105908160D01*
X134620000Y-88900000D02*
X139700000Y-88900000D01*
X142240000Y-101600000D02*
X143503945Y-102863945D01*
X139700000Y-88900000D02*
X140335000Y-89535000D01*
X140335000Y-89535000D02*
X140335000Y-94615000D01*
X140335000Y-94615000D02*
X142240000Y-96520000D01*
X142240000Y-96520000D02*
X142240000Y-101600000D01*
X143503945Y-102863945D02*
X151089993Y-102863945D01*
D27*
G36*
X117983000Y-69850000D02*
X117991685Y-69896159D01*
X118018965Y-69938553D01*
X118060590Y-69966994D01*
X118110000Y-69977000D01*
X127068198Y-69977000D01*
X123415198Y-73630000D01*
X120941917Y-73630000D01*
X120889851Y-73552078D01*
X120839129Y-73518187D01*
X121016441Y-73404090D01*
X121161431Y-73191890D01*
X121212440Y-72940000D01*
X121212440Y-71840000D01*
X121168162Y-71604683D01*
X121029090Y-71388559D01*
X120816890Y-71243569D01*
X120565000Y-71192560D01*
X118065000Y-71192560D01*
X117829683Y-71236838D01*
X117613559Y-71375910D01*
X117468569Y-71588110D01*
X117417560Y-71840000D01*
X117417560Y-72940000D01*
X117461838Y-73175317D01*
X117600910Y-73391441D01*
X117788615Y-73519694D01*
X117740149Y-73552078D01*
X117483274Y-73936520D01*
X117393071Y-74390000D01*
X117483274Y-74843480D01*
X117740149Y-75227922D01*
X117982717Y-75390000D01*
X117740149Y-75552078D01*
X117483274Y-75936520D01*
X117393071Y-76390000D01*
X117483274Y-76843480D01*
X117740149Y-77227922D01*
X117982717Y-77390000D01*
X117740149Y-77552078D01*
X117483274Y-77936520D01*
X117393071Y-78390000D01*
X117483274Y-78843480D01*
X117740149Y-79227922D01*
X117982717Y-79390000D01*
X117740149Y-79552078D01*
X117483274Y-79936520D01*
X117393071Y-80390000D01*
X117483274Y-80843480D01*
X117740149Y-81227922D01*
X117982717Y-81390000D01*
X117740149Y-81552078D01*
X117483274Y-81936520D01*
X117393071Y-82390000D01*
X117483274Y-82843480D01*
X117740149Y-83227922D01*
X117982717Y-83390000D01*
X117740149Y-83552078D01*
X117483274Y-83936520D01*
X117393071Y-84390000D01*
X117483274Y-84843480D01*
X117740149Y-85227922D01*
X117986137Y-85392285D01*
X117687276Y-85641882D01*
X117471602Y-86053854D01*
X117471197Y-86080256D01*
X117596639Y-86263000D01*
X119188000Y-86263000D01*
X119188000Y-86243000D01*
X119442000Y-86243000D01*
X119442000Y-86263000D01*
X121033361Y-86263000D01*
X121158803Y-86080256D01*
X121158398Y-86053854D01*
X120942724Y-85641882D01*
X120643863Y-85392285D01*
X120889851Y-85227922D01*
X121146726Y-84843480D01*
X121236929Y-84390000D01*
X121146726Y-83936520D01*
X120889851Y-83552078D01*
X120647283Y-83390000D01*
X120889851Y-83227922D01*
X121146726Y-82843480D01*
X121236929Y-82390000D01*
X121146726Y-81936520D01*
X120889851Y-81552078D01*
X120647283Y-81390000D01*
X120889851Y-81227922D01*
X121146726Y-80843480D01*
X121236929Y-80390000D01*
X121146726Y-79936520D01*
X120889851Y-79552078D01*
X120647283Y-79390000D01*
X120889851Y-79227922D01*
X121146726Y-78843480D01*
X121236929Y-78390000D01*
X121146726Y-77936520D01*
X120889851Y-77552078D01*
X120647283Y-77390000D01*
X120889851Y-77227922D01*
X121146726Y-76843480D01*
X121236929Y-76390000D01*
X121146726Y-75936520D01*
X120889851Y-75552078D01*
X120647283Y-75390000D01*
X120889851Y-75227922D01*
X120941917Y-75150000D01*
X123730000Y-75150000D01*
X124020839Y-75092148D01*
X124267401Y-74927401D01*
X128404305Y-70790497D01*
X136344503Y-70790497D01*
X136635342Y-70732645D01*
X136881904Y-70567898D01*
X137316401Y-70133401D01*
X137481148Y-69886839D01*
X137539000Y-69596000D01*
X137539000Y-67578344D01*
X151044765Y-67578344D01*
X151250617Y-68076543D01*
X151631452Y-68458043D01*
X152129291Y-68664764D01*
X152668344Y-68665235D01*
X153166543Y-68459383D01*
X153548043Y-68078548D01*
X153754764Y-67580709D01*
X153754766Y-67578344D01*
X156124765Y-67578344D01*
X156330617Y-68076543D01*
X156711452Y-68458043D01*
X157209291Y-68664764D01*
X157748344Y-68665235D01*
X158246543Y-68459383D01*
X158628043Y-68078548D01*
X158834764Y-67580709D01*
X158835235Y-67041656D01*
X158629383Y-66543457D01*
X158248548Y-66161957D01*
X157750709Y-65955236D01*
X157211656Y-65954765D01*
X156713457Y-66160617D01*
X156331957Y-66541452D01*
X156125236Y-67039291D01*
X156124765Y-67578344D01*
X153754766Y-67578344D01*
X153755235Y-67041656D01*
X153549383Y-66543457D01*
X153168548Y-66161957D01*
X152670709Y-65955236D01*
X152131656Y-65954765D01*
X151633457Y-66160617D01*
X151251957Y-66541452D01*
X151045236Y-67039291D01*
X151044765Y-67578344D01*
X137539000Y-67578344D01*
X137539000Y-65690750D01*
X137566400Y-65690750D01*
X137566400Y-66547309D01*
X137663073Y-66780698D01*
X137841701Y-66959327D01*
X138075090Y-67056000D01*
X138779250Y-67056000D01*
X138938000Y-66897250D01*
X138938000Y-65532000D01*
X137725150Y-65532000D01*
X137566400Y-65690750D01*
X137539000Y-65690750D01*
X137539000Y-64449802D01*
X137566400Y-64422402D01*
X137566400Y-65119250D01*
X137725150Y-65278000D01*
X138938000Y-65278000D01*
X138938000Y-63912750D01*
X138779250Y-63754000D01*
X138234802Y-63754000D01*
X138236802Y-63752000D01*
X141452445Y-63752000D01*
X141031511Y-63835729D01*
X140545330Y-64160585D01*
X140530500Y-64182780D01*
X140466927Y-64029302D01*
X140288299Y-63850673D01*
X140054910Y-63754000D01*
X139350750Y-63754000D01*
X139192000Y-63912750D01*
X139192000Y-65278000D01*
X139212000Y-65278000D01*
X139212000Y-65532000D01*
X139192000Y-65532000D01*
X139192000Y-66897250D01*
X139350750Y-67056000D01*
X140054910Y-67056000D01*
X140288299Y-66959327D01*
X140466927Y-66780698D01*
X140530500Y-66627220D01*
X140545330Y-66649415D01*
X141031511Y-66974271D01*
X141605000Y-67088345D01*
X142178489Y-66974271D01*
X142664670Y-66649415D01*
X142875000Y-66334634D01*
X143085330Y-66649415D01*
X143571511Y-66974271D01*
X144145000Y-67088345D01*
X144718489Y-66974271D01*
X145204670Y-66649415D01*
X145415000Y-66334634D01*
X145625330Y-66649415D01*
X146111511Y-66974271D01*
X146685000Y-67088345D01*
X147258489Y-66974271D01*
X147744670Y-66649415D01*
X147955000Y-66334634D01*
X148165330Y-66649415D01*
X148651511Y-66974271D01*
X149225000Y-67088345D01*
X149798489Y-66974271D01*
X150284670Y-66649415D01*
X150609526Y-66163234D01*
X150723600Y-65589745D01*
X150723600Y-65220255D01*
X150609526Y-64646766D01*
X150284670Y-64160585D01*
X149798489Y-63835729D01*
X149377555Y-63752000D01*
X152830883Y-63752000D01*
X153585230Y-64506347D01*
X153584765Y-65038344D01*
X153790617Y-65536543D01*
X154171452Y-65918043D01*
X154669291Y-66124764D01*
X155208344Y-66125235D01*
X155706543Y-65919383D01*
X155778432Y-65847619D01*
X159689613Y-65847619D01*
X160029155Y-66669372D01*
X160657321Y-67298636D01*
X161478481Y-67639611D01*
X162367619Y-67640387D01*
X163189372Y-67300845D01*
X163818636Y-66672679D01*
X164159611Y-65851519D01*
X164160387Y-64962381D01*
X163820845Y-64140628D01*
X163192679Y-63511364D01*
X162371519Y-63170389D01*
X161482381Y-63169613D01*
X160660628Y-63509155D01*
X160031364Y-64137321D01*
X159690389Y-64958481D01*
X159689613Y-65847619D01*
X155778432Y-65847619D01*
X156088043Y-65538548D01*
X156294764Y-65040709D01*
X156295235Y-64501656D01*
X156089383Y-64003457D01*
X155708548Y-63621957D01*
X155210709Y-63415236D01*
X154671656Y-63414765D01*
X154651557Y-63423070D01*
X153683086Y-62454599D01*
X153459195Y-62305000D01*
X165025000Y-62305000D01*
X165025000Y-114860000D01*
X108025000Y-114860000D01*
X108025000Y-112202619D01*
X108889613Y-112202619D01*
X109229155Y-113024372D01*
X109857321Y-113653636D01*
X110678481Y-113994611D01*
X111567619Y-113995387D01*
X112389372Y-113655845D01*
X113018636Y-113027679D01*
X113359611Y-112206519D01*
X113360387Y-111317381D01*
X113020845Y-110495628D01*
X112392679Y-109866364D01*
X111571519Y-109525389D01*
X110682381Y-109524613D01*
X109860628Y-109864155D01*
X109231364Y-110492321D01*
X108890389Y-111313481D01*
X108889613Y-112202619D01*
X108025000Y-112202619D01*
X108025000Y-100054026D01*
X109517642Y-100054026D01*
X109520291Y-100069791D01*
X109774268Y-100597036D01*
X110210680Y-100986954D01*
X110763087Y-101180184D01*
X110998000Y-101035924D01*
X110998000Y-99822000D01*
X111252000Y-99822000D01*
X111252000Y-101035924D01*
X111486913Y-101180184D01*
X112039320Y-100986954D01*
X112475732Y-100597036D01*
X112729709Y-100069791D01*
X112732358Y-100054026D01*
X112611217Y-99822000D01*
X111252000Y-99822000D01*
X110998000Y-99822000D01*
X109638783Y-99822000D01*
X109517642Y-100054026D01*
X108025000Y-100054026D01*
X108025000Y-94615000D01*
X109441655Y-94615000D01*
X109555729Y-95188489D01*
X109880585Y-95674670D01*
X110195366Y-95885000D01*
X109880585Y-96095330D01*
X109555729Y-96581511D01*
X109441655Y-97155000D01*
X109555729Y-97728489D01*
X109880585Y-98214670D01*
X110190069Y-98421461D01*
X109774268Y-98792964D01*
X109520291Y-99320209D01*
X109517642Y-99335974D01*
X109638783Y-99568000D01*
X110998000Y-99568000D01*
X110998000Y-99548000D01*
X111252000Y-99548000D01*
X111252000Y-99568000D01*
X112611217Y-99568000D01*
X112732358Y-99335974D01*
X112729709Y-99320209D01*
X112475732Y-98792964D01*
X112059931Y-98421461D01*
X112369415Y-98214670D01*
X112694271Y-97728489D01*
X112808345Y-97155000D01*
X112694271Y-96581511D01*
X112369415Y-96095330D01*
X112054634Y-95885000D01*
X112369415Y-95674670D01*
X112694271Y-95188489D01*
X112808345Y-94615000D01*
X112694271Y-94041511D01*
X112369415Y-93555330D01*
X112355087Y-93545757D01*
X112376317Y-93541762D01*
X112592441Y-93402690D01*
X112737431Y-93190490D01*
X112788440Y-92938600D01*
X112788440Y-91625167D01*
X116539838Y-91625167D01*
X116681883Y-91968943D01*
X116944673Y-92232192D01*
X117288201Y-92374838D01*
X117660167Y-92375162D01*
X118003943Y-92233117D01*
X118037118Y-92200000D01*
X125415198Y-92200000D01*
X126699878Y-93484680D01*
X126699838Y-93530167D01*
X126841883Y-93873943D01*
X126875000Y-93907118D01*
X126875000Y-99545000D01*
X126932852Y-99835839D01*
X127097599Y-100082401D01*
X133203725Y-106188527D01*
X133135284Y-106353352D01*
X133134716Y-107003795D01*
X133203919Y-107171279D01*
X133185198Y-107190000D01*
X129854802Y-107190000D01*
X129836275Y-107171473D01*
X129904716Y-107006648D01*
X129905284Y-106356205D01*
X129656894Y-105755057D01*
X129197363Y-105294722D01*
X128596648Y-105045284D01*
X127946205Y-105044716D01*
X127345057Y-105293106D01*
X126884722Y-105752637D01*
X126654366Y-106307397D01*
X126654366Y-101764366D01*
X126596514Y-101473527D01*
X126431767Y-101226965D01*
X125220000Y-100015198D01*
X125220000Y-94542463D01*
X125252192Y-94510327D01*
X125394838Y-94166799D01*
X125395162Y-93794833D01*
X125253117Y-93451057D01*
X124990327Y-93187808D01*
X124646799Y-93045162D01*
X124274833Y-93044838D01*
X123931057Y-93186883D01*
X123667808Y-93449673D01*
X123525162Y-93793201D01*
X123524838Y-94165167D01*
X123666883Y-94508943D01*
X123700000Y-94542118D01*
X123700000Y-100330000D01*
X123757852Y-100620839D01*
X123922599Y-100867401D01*
X125134366Y-102079168D01*
X125134366Y-107947156D01*
X125192218Y-108237995D01*
X125356965Y-108484557D01*
X126107639Y-109235231D01*
X126354200Y-109399978D01*
X126645040Y-109457830D01*
X126658430Y-109457830D01*
X126808368Y-109558015D01*
X127099207Y-109615867D01*
X127774007Y-109615867D01*
X127345057Y-109793106D01*
X126884722Y-110252637D01*
X126635284Y-110853352D01*
X126634716Y-111503795D01*
X126883106Y-112104943D01*
X127342637Y-112565278D01*
X127943352Y-112814716D01*
X128593795Y-112815284D01*
X129194943Y-112566894D01*
X129655278Y-112107363D01*
X129904716Y-111506648D01*
X129905284Y-110856205D01*
X129656894Y-110255057D01*
X129197363Y-109794722D01*
X128766631Y-109615867D01*
X134274007Y-109615867D01*
X133845057Y-109793106D01*
X133384722Y-110252637D01*
X133135284Y-110853352D01*
X133134716Y-111503795D01*
X133383106Y-112104943D01*
X133842637Y-112565278D01*
X134443352Y-112814716D01*
X135093795Y-112815284D01*
X135694943Y-112566894D01*
X136155278Y-112107363D01*
X136404716Y-111506648D01*
X136405284Y-110856205D01*
X136156894Y-110255057D01*
X135697363Y-109794722D01*
X135266631Y-109615867D01*
X139204007Y-109615867D01*
X138775057Y-109793106D01*
X138314722Y-110252637D01*
X138065284Y-110853352D01*
X138064716Y-111503795D01*
X138313106Y-112104943D01*
X138772637Y-112565278D01*
X139373352Y-112814716D01*
X140023795Y-112815284D01*
X140624943Y-112566894D01*
X141085278Y-112107363D01*
X141334716Y-111506648D01*
X141335284Y-110856205D01*
X141086894Y-110255057D01*
X140627363Y-109794722D01*
X140196631Y-109615867D01*
X145704007Y-109615867D01*
X145275057Y-109793106D01*
X144814722Y-110252637D01*
X144565284Y-110853352D01*
X144564716Y-111503795D01*
X144813106Y-112104943D01*
X145272637Y-112565278D01*
X145873352Y-112814716D01*
X146523795Y-112815284D01*
X147124943Y-112566894D01*
X147489855Y-112202619D01*
X159689613Y-112202619D01*
X160029155Y-113024372D01*
X160657321Y-113653636D01*
X161478481Y-113994611D01*
X162367619Y-113995387D01*
X163189372Y-113655845D01*
X163818636Y-113027679D01*
X164159611Y-112206519D01*
X164160387Y-111317381D01*
X163820845Y-110495628D01*
X163192679Y-109866364D01*
X162371519Y-109525389D01*
X161482381Y-109524613D01*
X160660628Y-109864155D01*
X160031364Y-110492321D01*
X159690389Y-111313481D01*
X159689613Y-112202619D01*
X147489855Y-112202619D01*
X147585278Y-112107363D01*
X147834716Y-111506648D01*
X147835284Y-110856205D01*
X147586894Y-110255057D01*
X147127363Y-109794722D01*
X146696631Y-109615867D01*
X157857302Y-109615867D01*
X158148141Y-109558015D01*
X158394703Y-109393268D01*
X158652401Y-109135570D01*
X158678919Y-109095883D01*
X159287401Y-108487401D01*
X159452148Y-108240839D01*
X159510000Y-107950000D01*
X159510000Y-104314648D01*
X159809670Y-104114415D01*
X159965942Y-103880537D01*
X160353563Y-104268834D01*
X160960155Y-104520713D01*
X161616963Y-104521286D01*
X162223995Y-104270466D01*
X162688834Y-103806437D01*
X162940713Y-103199845D01*
X162941286Y-102543037D01*
X162690466Y-101936005D01*
X162226437Y-101471166D01*
X162154250Y-101441192D01*
X162473629Y-101122370D01*
X162686757Y-100609100D01*
X162687242Y-100053339D01*
X162475010Y-99539697D01*
X162082370Y-99146371D01*
X161874488Y-99060051D01*
X162080303Y-98975010D01*
X162473629Y-98582370D01*
X162686757Y-98069100D01*
X162687242Y-97513339D01*
X162475010Y-96999697D01*
X162082370Y-96606371D01*
X161874488Y-96520051D01*
X162080303Y-96435010D01*
X162473629Y-96042370D01*
X162686757Y-95529100D01*
X162687242Y-94973339D01*
X162475010Y-94459697D01*
X162082370Y-94066371D01*
X161874488Y-93980051D01*
X162080303Y-93895010D01*
X162473629Y-93502370D01*
X162686757Y-92989100D01*
X162687242Y-92433339D01*
X162475010Y-91919697D01*
X162082370Y-91526371D01*
X161874488Y-91440051D01*
X162080303Y-91355010D01*
X162473629Y-90962370D01*
X162686757Y-90449100D01*
X162687242Y-89893339D01*
X162475010Y-89379697D01*
X162082370Y-88986371D01*
X161874488Y-88900051D01*
X162080303Y-88815010D01*
X162473629Y-88422370D01*
X162686757Y-87909100D01*
X162687242Y-87353339D01*
X162475010Y-86839697D01*
X162082370Y-86446371D01*
X161874488Y-86360051D01*
X162080303Y-86275010D01*
X162473629Y-85882370D01*
X162686757Y-85369100D01*
X162687242Y-84813339D01*
X162475010Y-84299697D01*
X162082370Y-83906371D01*
X161874488Y-83820051D01*
X162080303Y-83735010D01*
X162473629Y-83342370D01*
X162686757Y-82829100D01*
X162687242Y-82273339D01*
X162475010Y-81759697D01*
X162082370Y-81366371D01*
X161874488Y-81280051D01*
X162080303Y-81195010D01*
X162473629Y-80802370D01*
X162686757Y-80289100D01*
X162687242Y-79733339D01*
X162475010Y-79219697D01*
X162082370Y-78826371D01*
X161874488Y-78740051D01*
X162080303Y-78655010D01*
X162473629Y-78262370D01*
X162686757Y-77749100D01*
X162687242Y-77193339D01*
X162475010Y-76679697D01*
X162154891Y-76359019D01*
X162223995Y-76330466D01*
X162688834Y-75866437D01*
X162940713Y-75259845D01*
X162941286Y-74603037D01*
X162690466Y-73996005D01*
X162267634Y-73572435D01*
X162274502Y-73554107D01*
X161290000Y-72569605D01*
X160305498Y-73554107D01*
X160312547Y-73572917D01*
X160019821Y-73865132D01*
X159727634Y-73572435D01*
X159734502Y-73554107D01*
X158750000Y-72569605D01*
X157765498Y-73554107D01*
X157772547Y-73572917D01*
X157479821Y-73865132D01*
X157187634Y-73572435D01*
X157194502Y-73554107D01*
X156210000Y-72569605D01*
X155225498Y-73554107D01*
X155232547Y-73572917D01*
X154939821Y-73865132D01*
X154647634Y-73572435D01*
X154654502Y-73554107D01*
X153670000Y-72569605D01*
X152685498Y-73554107D01*
X152692547Y-73572917D01*
X152399821Y-73865132D01*
X152066437Y-73531166D01*
X151459845Y-73279287D01*
X150803037Y-73278714D01*
X150196005Y-73529534D01*
X149859821Y-73865132D01*
X149526437Y-73531166D01*
X148919845Y-73279287D01*
X148263037Y-73278714D01*
X147656005Y-73529534D01*
X147302497Y-73882426D01*
X147294415Y-73870330D01*
X146979634Y-73660000D01*
X147294415Y-73449670D01*
X147619271Y-72963489D01*
X147733345Y-72390000D01*
X147679966Y-72121642D01*
X152008184Y-72121642D01*
X152031986Y-72778019D01*
X152237378Y-73273880D01*
X152505893Y-73374502D01*
X153490395Y-72390000D01*
X153849605Y-72390000D01*
X154834107Y-73374502D01*
X154940000Y-73334820D01*
X155045893Y-73374502D01*
X156030395Y-72390000D01*
X156389605Y-72390000D01*
X157374107Y-73374502D01*
X157480000Y-73334820D01*
X157585893Y-73374502D01*
X158570395Y-72390000D01*
X158929605Y-72390000D01*
X159914107Y-73374502D01*
X160020000Y-73334820D01*
X160125893Y-73374502D01*
X161110395Y-72390000D01*
X161469605Y-72390000D01*
X162454107Y-73374502D01*
X162722622Y-73273880D01*
X162951816Y-72658358D01*
X162928014Y-72001981D01*
X162722622Y-71506120D01*
X162454107Y-71405498D01*
X161469605Y-72390000D01*
X161110395Y-72390000D01*
X160125893Y-71405498D01*
X160020000Y-71445180D01*
X159914107Y-71405498D01*
X158929605Y-72390000D01*
X158570395Y-72390000D01*
X157585893Y-71405498D01*
X157480000Y-71445180D01*
X157374107Y-71405498D01*
X156389605Y-72390000D01*
X156030395Y-72390000D01*
X155045893Y-71405498D01*
X154940000Y-71445180D01*
X154834107Y-71405498D01*
X153849605Y-72390000D01*
X153490395Y-72390000D01*
X152505893Y-71405498D01*
X152237378Y-71506120D01*
X152008184Y-72121642D01*
X147679966Y-72121642D01*
X147619271Y-71816511D01*
X147294415Y-71330330D01*
X147138115Y-71225893D01*
X152685498Y-71225893D01*
X153670000Y-72210395D01*
X154654502Y-71225893D01*
X155225498Y-71225893D01*
X156210000Y-72210395D01*
X157194502Y-71225893D01*
X157765498Y-71225893D01*
X158750000Y-72210395D01*
X159734502Y-71225893D01*
X160305498Y-71225893D01*
X161290000Y-72210395D01*
X162274502Y-71225893D01*
X162173880Y-70957378D01*
X161558358Y-70728184D01*
X160901981Y-70751986D01*
X160406120Y-70957378D01*
X160305498Y-71225893D01*
X159734502Y-71225893D01*
X159633880Y-70957378D01*
X159018358Y-70728184D01*
X158361981Y-70751986D01*
X157866120Y-70957378D01*
X157765498Y-71225893D01*
X157194502Y-71225893D01*
X157093880Y-70957378D01*
X156478358Y-70728184D01*
X155821981Y-70751986D01*
X155326120Y-70957378D01*
X155225498Y-71225893D01*
X154654502Y-71225893D01*
X154553880Y-70957378D01*
X153938358Y-70728184D01*
X153281981Y-70751986D01*
X152786120Y-70957378D01*
X152685498Y-71225893D01*
X147138115Y-71225893D01*
X146808234Y-71005474D01*
X146234745Y-70891400D01*
X145865255Y-70891400D01*
X145291766Y-71005474D01*
X144805585Y-71330330D01*
X144480729Y-71816511D01*
X144366655Y-72390000D01*
X144480729Y-72963489D01*
X144805585Y-73449670D01*
X145120366Y-73660000D01*
X144805585Y-73870330D01*
X144480729Y-74356511D01*
X144366655Y-74930000D01*
X144480729Y-75503489D01*
X144805585Y-75989670D01*
X145120366Y-76200000D01*
X144805585Y-76410330D01*
X144480729Y-76896511D01*
X144366655Y-77470000D01*
X144480729Y-78043489D01*
X144805585Y-78529670D01*
X145120366Y-78740000D01*
X144805585Y-78950330D01*
X144480729Y-79436511D01*
X144366655Y-80010000D01*
X144470161Y-80530359D01*
X139792401Y-75852599D01*
X139545839Y-75687852D01*
X139255000Y-75630000D01*
X136341917Y-75630000D01*
X136289851Y-75552078D01*
X136047283Y-75390000D01*
X136289851Y-75227922D01*
X136546726Y-74843480D01*
X136636929Y-74390000D01*
X136546726Y-73936520D01*
X136289851Y-73552078D01*
X136047283Y-73390000D01*
X136289851Y-73227922D01*
X136546726Y-72843480D01*
X136636929Y-72390000D01*
X136546726Y-71936520D01*
X136289851Y-71552078D01*
X135905409Y-71295203D01*
X135451929Y-71205000D01*
X133978071Y-71205000D01*
X133524591Y-71295203D01*
X133140149Y-71552078D01*
X132883274Y-71936520D01*
X132793071Y-72390000D01*
X132883274Y-72843480D01*
X133140149Y-73227922D01*
X133382717Y-73390000D01*
X133140149Y-73552078D01*
X132883274Y-73936520D01*
X132793071Y-74390000D01*
X132883274Y-74843480D01*
X133140149Y-75227922D01*
X133382717Y-75390000D01*
X133140149Y-75552078D01*
X132883274Y-75936520D01*
X132793071Y-76390000D01*
X132856723Y-76710000D01*
X125730000Y-76710000D01*
X125439161Y-76767852D01*
X125192599Y-76932599D01*
X123685320Y-78439878D01*
X123639833Y-78439838D01*
X123296057Y-78581883D01*
X123032808Y-78844673D01*
X122890162Y-79188201D01*
X122889838Y-79560167D01*
X123031883Y-79903943D01*
X123294673Y-80167192D01*
X123638201Y-80309838D01*
X124010167Y-80310162D01*
X124353943Y-80168117D01*
X124617192Y-79905327D01*
X124759838Y-79561799D01*
X124759879Y-79514923D01*
X126044802Y-78230000D01*
X132824897Y-78230000D01*
X132793071Y-78390000D01*
X132883274Y-78843480D01*
X133140149Y-79227922D01*
X133382717Y-79390000D01*
X133140149Y-79552078D01*
X132883274Y-79936520D01*
X132793071Y-80390000D01*
X132883274Y-80843480D01*
X133140149Y-81227922D01*
X133382717Y-81390000D01*
X133140149Y-81552078D01*
X133000652Y-81760850D01*
X132005818Y-80766016D01*
X131982401Y-80730970D01*
X131735839Y-80566223D01*
X131445000Y-80508371D01*
X126164013Y-80508371D01*
X126123253Y-80467611D01*
X125876691Y-80302864D01*
X125758292Y-80279313D01*
X125691915Y-80212820D01*
X125348387Y-80070174D01*
X124976421Y-80069850D01*
X124632645Y-80211895D01*
X124369396Y-80474685D01*
X124226750Y-80818213D01*
X124226426Y-81190179D01*
X124368471Y-81533955D01*
X124631261Y-81797204D01*
X124928419Y-81920595D01*
X123154015Y-83695000D01*
X123117463Y-83695000D01*
X123085327Y-83662808D01*
X122741799Y-83520162D01*
X122369833Y-83519838D01*
X122026057Y-83661883D01*
X121762808Y-83924673D01*
X121620162Y-84268201D01*
X121619838Y-84640167D01*
X121761883Y-84983943D01*
X122024673Y-85247192D01*
X122368201Y-85389838D01*
X122740167Y-85390162D01*
X123083943Y-85248117D01*
X123117118Y-85215000D01*
X123468817Y-85215000D01*
X123759656Y-85157148D01*
X124006218Y-84992401D01*
X126190708Y-82807912D01*
X129510867Y-82807912D01*
X132630355Y-85927400D01*
X132855204Y-86077639D01*
X132793071Y-86390000D01*
X132814139Y-86495917D01*
X132458480Y-86258274D01*
X132005000Y-86168071D01*
X131551520Y-86258274D01*
X131167078Y-86515149D01*
X131005000Y-86757717D01*
X130842922Y-86515149D01*
X130458480Y-86258274D01*
X130005000Y-86168071D01*
X129665000Y-86235701D01*
X129665000Y-85017481D01*
X129697192Y-84985345D01*
X129839838Y-84641817D01*
X129840162Y-84269851D01*
X129698117Y-83926075D01*
X129435327Y-83662826D01*
X129091799Y-83520180D01*
X128719833Y-83519856D01*
X128376057Y-83661901D01*
X128112808Y-83924691D01*
X127970162Y-84268219D01*
X127969838Y-84640185D01*
X128111883Y-84983961D01*
X128145000Y-85017136D01*
X128145000Y-86195919D01*
X128005000Y-86168071D01*
X127551520Y-86258274D01*
X127167078Y-86515149D01*
X127005000Y-86757717D01*
X126842922Y-86515149D01*
X126458480Y-86258274D01*
X126005000Y-86168071D01*
X125551520Y-86258274D01*
X125167078Y-86515149D01*
X125005000Y-86757717D01*
X124842922Y-86515149D01*
X124458480Y-86258274D01*
X124005000Y-86168071D01*
X123551520Y-86258274D01*
X123167078Y-86515149D01*
X123005000Y-86757717D01*
X122842922Y-86515149D01*
X122458480Y-86258274D01*
X122005000Y-86168071D01*
X121551520Y-86258274D01*
X121167078Y-86515149D01*
X121100494Y-86614799D01*
X121033361Y-86517000D01*
X119442000Y-86517000D01*
X119442000Y-87575000D01*
X120142000Y-87575000D01*
X120585813Y-87436196D01*
X120846826Y-87218208D01*
X120820000Y-87353071D01*
X120820000Y-88826929D01*
X120910203Y-89280409D01*
X121167078Y-89664851D01*
X121551520Y-89921726D01*
X122005000Y-90011929D01*
X122458480Y-89921726D01*
X122842922Y-89664851D01*
X123005000Y-89422283D01*
X123167078Y-89664851D01*
X123551520Y-89921726D01*
X124005000Y-90011929D01*
X124458480Y-89921726D01*
X124842922Y-89664851D01*
X125005000Y-89422283D01*
X125167078Y-89664851D01*
X125551520Y-89921726D01*
X126005000Y-90011929D01*
X126458480Y-89921726D01*
X126842922Y-89664851D01*
X127005000Y-89422283D01*
X127167078Y-89664851D01*
X127551520Y-89921726D01*
X128005000Y-90011929D01*
X128458480Y-89921726D01*
X128557986Y-89855239D01*
X128780000Y-90077253D01*
X128780000Y-90932000D01*
X128837852Y-91222839D01*
X129002599Y-91469401D01*
X129510599Y-91977401D01*
X129757161Y-92142148D01*
X130048000Y-92200000D01*
X130778905Y-92200000D01*
X132019910Y-93441005D01*
X132079730Y-93530532D01*
X132844000Y-94294802D01*
X132844000Y-99568000D01*
X132901852Y-99858839D01*
X133066599Y-100105401D01*
X133574599Y-100613401D01*
X133821161Y-100778148D01*
X134112000Y-100836000D01*
X134620000Y-100836000D01*
X134910839Y-100778148D01*
X135157401Y-100613401D01*
X135267680Y-100503122D01*
X135313167Y-100503162D01*
X135656943Y-100361117D01*
X135920192Y-100098327D01*
X136062838Y-99754799D01*
X136063162Y-99382833D01*
X135921117Y-99039057D01*
X135658327Y-98775808D01*
X135314799Y-98633162D01*
X134942833Y-98632838D01*
X134599057Y-98774883D01*
X134364000Y-99009530D01*
X134364000Y-93980000D01*
X134306148Y-93689161D01*
X134141401Y-93442599D01*
X133214352Y-92515550D01*
X133154532Y-92426023D01*
X131658509Y-90930000D01*
X134305198Y-90930000D01*
X140210000Y-96834802D01*
X140210000Y-101600000D01*
X140267852Y-101890839D01*
X140432599Y-102137401D01*
X142972599Y-104677401D01*
X143219160Y-104842148D01*
X143267414Y-104851746D01*
X143510000Y-104900000D01*
X148275198Y-104900000D01*
X148755844Y-105380646D01*
X149002406Y-105545393D01*
X149293245Y-105603245D01*
X151787709Y-105603245D01*
X151629477Y-105761477D01*
X151583990Y-105761437D01*
X151240214Y-105903482D01*
X150976965Y-106166272D01*
X150834319Y-106509800D01*
X150833995Y-106881766D01*
X150976040Y-107225542D01*
X151238830Y-107488791D01*
X151582358Y-107631437D01*
X151954324Y-107631761D01*
X152298100Y-107489716D01*
X152561349Y-107226926D01*
X152703995Y-106883398D01*
X152704036Y-106836522D01*
X152872398Y-106668160D01*
X153723827Y-106668160D01*
X153755963Y-106700352D01*
X154099491Y-106842998D01*
X154471457Y-106843322D01*
X154815233Y-106701277D01*
X155078482Y-106438487D01*
X155221128Y-106094959D01*
X155221452Y-105722993D01*
X155079407Y-105379217D01*
X154914809Y-105214332D01*
X154954761Y-105187637D01*
X155692075Y-104450323D01*
X156210000Y-104553345D01*
X156783489Y-104439271D01*
X157269670Y-104114415D01*
X157480000Y-103799634D01*
X157690330Y-104114415D01*
X157990000Y-104314648D01*
X157990000Y-107635198D01*
X157577599Y-108047599D01*
X157551081Y-108087286D01*
X157542500Y-108095867D01*
X147054823Y-108095867D01*
X147124943Y-108066894D01*
X147585278Y-107607363D01*
X147834716Y-107006648D01*
X147835284Y-106356205D01*
X147586894Y-105755057D01*
X147127363Y-105294722D01*
X146526648Y-105045284D01*
X145876205Y-105044716D01*
X145275057Y-105293106D01*
X144814722Y-105752637D01*
X144565284Y-106353352D01*
X144564716Y-107003795D01*
X144813106Y-107604943D01*
X145272637Y-108065278D01*
X145346304Y-108095867D01*
X140554823Y-108095867D01*
X140624943Y-108066894D01*
X141085278Y-107607363D01*
X141334716Y-107006648D01*
X141335284Y-106356205D01*
X141086894Y-105755057D01*
X140627363Y-105294722D01*
X140026648Y-105045284D01*
X139376205Y-105044716D01*
X138775057Y-105293106D01*
X138314722Y-105752637D01*
X138065284Y-106353352D01*
X138064716Y-107003795D01*
X138313106Y-107604943D01*
X138772637Y-108065278D01*
X138846304Y-108095867D01*
X135624823Y-108095867D01*
X135694943Y-108066894D01*
X136155278Y-107607363D01*
X136404716Y-107006648D01*
X136405284Y-106356205D01*
X136156894Y-105755057D01*
X135697363Y-105294722D01*
X135096648Y-105045284D01*
X134446205Y-105044716D01*
X134278721Y-105113919D01*
X128395000Y-99230198D01*
X128395000Y-93907463D01*
X128427192Y-93875327D01*
X128569838Y-93531799D01*
X128570162Y-93159833D01*
X128428117Y-92816057D01*
X128165327Y-92552808D01*
X127821799Y-92410162D01*
X127774923Y-92410121D01*
X126267401Y-90902599D01*
X126020839Y-90737852D01*
X125730000Y-90680000D01*
X118037463Y-90680000D01*
X118005327Y-90647808D01*
X117661799Y-90505162D01*
X117289833Y-90504838D01*
X116946057Y-90646883D01*
X116682808Y-90909673D01*
X116540162Y-91253201D01*
X116539838Y-91625167D01*
X112788440Y-91625167D01*
X112788440Y-91211400D01*
X112744162Y-90976083D01*
X112605090Y-90759959D01*
X112392890Y-90614969D01*
X112141000Y-90563960D01*
X110109000Y-90563960D01*
X109873683Y-90608238D01*
X109657559Y-90747310D01*
X109512569Y-90959510D01*
X109461560Y-91211400D01*
X109461560Y-92938600D01*
X109505838Y-93173917D01*
X109644910Y-93390041D01*
X109857110Y-93535031D01*
X109898439Y-93543400D01*
X109880585Y-93555330D01*
X109555729Y-94041511D01*
X109441655Y-94615000D01*
X108025000Y-94615000D01*
X108025000Y-85725000D01*
X112616655Y-85725000D01*
X112742330Y-86356810D01*
X113100222Y-86892433D01*
X113635845Y-87250325D01*
X114267655Y-87376000D01*
X114332345Y-87376000D01*
X114964155Y-87250325D01*
X115499778Y-86892433D01*
X115628528Y-86699744D01*
X117471197Y-86699744D01*
X117471602Y-86726146D01*
X117687276Y-87138118D01*
X118044187Y-87436196D01*
X118488000Y-87575000D01*
X119188000Y-87575000D01*
X119188000Y-86517000D01*
X117596639Y-86517000D01*
X117471197Y-86699744D01*
X115628528Y-86699744D01*
X115857670Y-86356810D01*
X115983345Y-85725000D01*
X115857670Y-85093190D01*
X115630501Y-84753208D01*
X115767441Y-84665090D01*
X115912431Y-84452890D01*
X115963440Y-84201000D01*
X115963440Y-82169000D01*
X115919162Y-81933683D01*
X115780090Y-81717559D01*
X115567890Y-81572569D01*
X115316000Y-81521560D01*
X113284000Y-81521560D01*
X113048683Y-81565838D01*
X112832559Y-81704910D01*
X112687569Y-81917110D01*
X112636560Y-82169000D01*
X112636560Y-84201000D01*
X112680838Y-84436317D01*
X112819910Y-84652441D01*
X112968837Y-84754198D01*
X112742330Y-85093190D01*
X112616655Y-85725000D01*
X108025000Y-85725000D01*
X108025000Y-65847619D01*
X108889613Y-65847619D01*
X109229155Y-66669372D01*
X109857321Y-67298636D01*
X110678481Y-67639611D01*
X111567619Y-67640387D01*
X112389372Y-67300845D01*
X113018636Y-66672679D01*
X113359611Y-65851519D01*
X113360387Y-64962381D01*
X113020845Y-64140628D01*
X112392679Y-63511364D01*
X111571519Y-63170389D01*
X110682381Y-63169613D01*
X109860628Y-63509155D01*
X109231364Y-64137321D01*
X108890389Y-64958481D01*
X108889613Y-65847619D01*
X108025000Y-65847619D01*
X108025000Y-62305000D01*
X117983000Y-62305000D01*
X117983000Y-69850000D01*
X117983000Y-69850000D01*
G37*
X117983000Y-69850000D02*
X117991685Y-69896159D01*
X118018965Y-69938553D01*
X118060590Y-69966994D01*
X118110000Y-69977000D01*
X127068198Y-69977000D01*
X123415198Y-73630000D01*
X120941917Y-73630000D01*
X120889851Y-73552078D01*
X120839129Y-73518187D01*
X121016441Y-73404090D01*
X121161431Y-73191890D01*
X121212440Y-72940000D01*
X121212440Y-71840000D01*
X121168162Y-71604683D01*
X121029090Y-71388559D01*
X120816890Y-71243569D01*
X120565000Y-71192560D01*
X118065000Y-71192560D01*
X117829683Y-71236838D01*
X117613559Y-71375910D01*
X117468569Y-71588110D01*
X117417560Y-71840000D01*
X117417560Y-72940000D01*
X117461838Y-73175317D01*
X117600910Y-73391441D01*
X117788615Y-73519694D01*
X117740149Y-73552078D01*
X117483274Y-73936520D01*
X117393071Y-74390000D01*
X117483274Y-74843480D01*
X117740149Y-75227922D01*
X117982717Y-75390000D01*
X117740149Y-75552078D01*
X117483274Y-75936520D01*
X117393071Y-76390000D01*
X117483274Y-76843480D01*
X117740149Y-77227922D01*
X117982717Y-77390000D01*
X117740149Y-77552078D01*
X117483274Y-77936520D01*
X117393071Y-78390000D01*
X117483274Y-78843480D01*
X117740149Y-79227922D01*
X117982717Y-79390000D01*
X117740149Y-79552078D01*
X117483274Y-79936520D01*
X117393071Y-80390000D01*
X117483274Y-80843480D01*
X117740149Y-81227922D01*
X117982717Y-81390000D01*
X117740149Y-81552078D01*
X117483274Y-81936520D01*
X117393071Y-82390000D01*
X117483274Y-82843480D01*
X117740149Y-83227922D01*
X117982717Y-83390000D01*
X117740149Y-83552078D01*
X117483274Y-83936520D01*
X117393071Y-84390000D01*
X117483274Y-84843480D01*
X117740149Y-85227922D01*
X117986137Y-85392285D01*
X117687276Y-85641882D01*
X117471602Y-86053854D01*
X117471197Y-86080256D01*
X117596639Y-86263000D01*
X119188000Y-86263000D01*
X119188000Y-86243000D01*
X119442000Y-86243000D01*
X119442000Y-86263000D01*
X121033361Y-86263000D01*
X121158803Y-86080256D01*
X121158398Y-86053854D01*
X120942724Y-85641882D01*
X120643863Y-85392285D01*
X120889851Y-85227922D01*
X121146726Y-84843480D01*
X121236929Y-84390000D01*
X121146726Y-83936520D01*
X120889851Y-83552078D01*
X120647283Y-83390000D01*
X120889851Y-83227922D01*
X121146726Y-82843480D01*
X121236929Y-82390000D01*
X121146726Y-81936520D01*
X120889851Y-81552078D01*
X120647283Y-81390000D01*
X120889851Y-81227922D01*
X121146726Y-80843480D01*
X121236929Y-80390000D01*
X121146726Y-79936520D01*
X120889851Y-79552078D01*
X120647283Y-79390000D01*
X120889851Y-79227922D01*
X121146726Y-78843480D01*
X121236929Y-78390000D01*
X121146726Y-77936520D01*
X120889851Y-77552078D01*
X120647283Y-77390000D01*
X120889851Y-77227922D01*
X121146726Y-76843480D01*
X121236929Y-76390000D01*
X121146726Y-75936520D01*
X120889851Y-75552078D01*
X120647283Y-75390000D01*
X120889851Y-75227922D01*
X120941917Y-75150000D01*
X123730000Y-75150000D01*
X124020839Y-75092148D01*
X124267401Y-74927401D01*
X128404305Y-70790497D01*
X136344503Y-70790497D01*
X136635342Y-70732645D01*
X136881904Y-70567898D01*
X137316401Y-70133401D01*
X137481148Y-69886839D01*
X137539000Y-69596000D01*
X137539000Y-67578344D01*
X151044765Y-67578344D01*
X151250617Y-68076543D01*
X151631452Y-68458043D01*
X152129291Y-68664764D01*
X152668344Y-68665235D01*
X153166543Y-68459383D01*
X153548043Y-68078548D01*
X153754764Y-67580709D01*
X153754766Y-67578344D01*
X156124765Y-67578344D01*
X156330617Y-68076543D01*
X156711452Y-68458043D01*
X157209291Y-68664764D01*
X157748344Y-68665235D01*
X158246543Y-68459383D01*
X158628043Y-68078548D01*
X158834764Y-67580709D01*
X158835235Y-67041656D01*
X158629383Y-66543457D01*
X158248548Y-66161957D01*
X157750709Y-65955236D01*
X157211656Y-65954765D01*
X156713457Y-66160617D01*
X156331957Y-66541452D01*
X156125236Y-67039291D01*
X156124765Y-67578344D01*
X153754766Y-67578344D01*
X153755235Y-67041656D01*
X153549383Y-66543457D01*
X153168548Y-66161957D01*
X152670709Y-65955236D01*
X152131656Y-65954765D01*
X151633457Y-66160617D01*
X151251957Y-66541452D01*
X151045236Y-67039291D01*
X151044765Y-67578344D01*
X137539000Y-67578344D01*
X137539000Y-65690750D01*
X137566400Y-65690750D01*
X137566400Y-66547309D01*
X137663073Y-66780698D01*
X137841701Y-66959327D01*
X138075090Y-67056000D01*
X138779250Y-67056000D01*
X138938000Y-66897250D01*
X138938000Y-65532000D01*
X137725150Y-65532000D01*
X137566400Y-65690750D01*
X137539000Y-65690750D01*
X137539000Y-64449802D01*
X137566400Y-64422402D01*
X137566400Y-65119250D01*
X137725150Y-65278000D01*
X138938000Y-65278000D01*
X138938000Y-63912750D01*
X138779250Y-63754000D01*
X138234802Y-63754000D01*
X138236802Y-63752000D01*
X141452445Y-63752000D01*
X141031511Y-63835729D01*
X140545330Y-64160585D01*
X140530500Y-64182780D01*
X140466927Y-64029302D01*
X140288299Y-63850673D01*
X140054910Y-63754000D01*
X139350750Y-63754000D01*
X139192000Y-63912750D01*
X139192000Y-65278000D01*
X139212000Y-65278000D01*
X139212000Y-65532000D01*
X139192000Y-65532000D01*
X139192000Y-66897250D01*
X139350750Y-67056000D01*
X140054910Y-67056000D01*
X140288299Y-66959327D01*
X140466927Y-66780698D01*
X140530500Y-66627220D01*
X140545330Y-66649415D01*
X141031511Y-66974271D01*
X141605000Y-67088345D01*
X142178489Y-66974271D01*
X142664670Y-66649415D01*
X142875000Y-66334634D01*
X143085330Y-66649415D01*
X143571511Y-66974271D01*
X144145000Y-67088345D01*
X144718489Y-66974271D01*
X145204670Y-66649415D01*
X145415000Y-66334634D01*
X145625330Y-66649415D01*
X146111511Y-66974271D01*
X146685000Y-67088345D01*
X147258489Y-66974271D01*
X147744670Y-66649415D01*
X147955000Y-66334634D01*
X148165330Y-66649415D01*
X148651511Y-66974271D01*
X149225000Y-67088345D01*
X149798489Y-66974271D01*
X150284670Y-66649415D01*
X150609526Y-66163234D01*
X150723600Y-65589745D01*
X150723600Y-65220255D01*
X150609526Y-64646766D01*
X150284670Y-64160585D01*
X149798489Y-63835729D01*
X149377555Y-63752000D01*
X152830883Y-63752000D01*
X153585230Y-64506347D01*
X153584765Y-65038344D01*
X153790617Y-65536543D01*
X154171452Y-65918043D01*
X154669291Y-66124764D01*
X155208344Y-66125235D01*
X155706543Y-65919383D01*
X155778432Y-65847619D01*
X159689613Y-65847619D01*
X160029155Y-66669372D01*
X160657321Y-67298636D01*
X161478481Y-67639611D01*
X162367619Y-67640387D01*
X163189372Y-67300845D01*
X163818636Y-66672679D01*
X164159611Y-65851519D01*
X164160387Y-64962381D01*
X163820845Y-64140628D01*
X163192679Y-63511364D01*
X162371519Y-63170389D01*
X161482381Y-63169613D01*
X160660628Y-63509155D01*
X160031364Y-64137321D01*
X159690389Y-64958481D01*
X159689613Y-65847619D01*
X155778432Y-65847619D01*
X156088043Y-65538548D01*
X156294764Y-65040709D01*
X156295235Y-64501656D01*
X156089383Y-64003457D01*
X155708548Y-63621957D01*
X155210709Y-63415236D01*
X154671656Y-63414765D01*
X154651557Y-63423070D01*
X153683086Y-62454599D01*
X153459195Y-62305000D01*
X165025000Y-62305000D01*
X165025000Y-114860000D01*
X108025000Y-114860000D01*
X108025000Y-112202619D01*
X108889613Y-112202619D01*
X109229155Y-113024372D01*
X109857321Y-113653636D01*
X110678481Y-113994611D01*
X111567619Y-113995387D01*
X112389372Y-113655845D01*
X113018636Y-113027679D01*
X113359611Y-112206519D01*
X113360387Y-111317381D01*
X113020845Y-110495628D01*
X112392679Y-109866364D01*
X111571519Y-109525389D01*
X110682381Y-109524613D01*
X109860628Y-109864155D01*
X109231364Y-110492321D01*
X108890389Y-111313481D01*
X108889613Y-112202619D01*
X108025000Y-112202619D01*
X108025000Y-100054026D01*
X109517642Y-100054026D01*
X109520291Y-100069791D01*
X109774268Y-100597036D01*
X110210680Y-100986954D01*
X110763087Y-101180184D01*
X110998000Y-101035924D01*
X110998000Y-99822000D01*
X111252000Y-99822000D01*
X111252000Y-101035924D01*
X111486913Y-101180184D01*
X112039320Y-100986954D01*
X112475732Y-100597036D01*
X112729709Y-100069791D01*
X112732358Y-100054026D01*
X112611217Y-99822000D01*
X111252000Y-99822000D01*
X110998000Y-99822000D01*
X109638783Y-99822000D01*
X109517642Y-100054026D01*
X108025000Y-100054026D01*
X108025000Y-94615000D01*
X109441655Y-94615000D01*
X109555729Y-95188489D01*
X109880585Y-95674670D01*
X110195366Y-95885000D01*
X109880585Y-96095330D01*
X109555729Y-96581511D01*
X109441655Y-97155000D01*
X109555729Y-97728489D01*
X109880585Y-98214670D01*
X110190069Y-98421461D01*
X109774268Y-98792964D01*
X109520291Y-99320209D01*
X109517642Y-99335974D01*
X109638783Y-99568000D01*
X110998000Y-99568000D01*
X110998000Y-99548000D01*
X111252000Y-99548000D01*
X111252000Y-99568000D01*
X112611217Y-99568000D01*
X112732358Y-99335974D01*
X112729709Y-99320209D01*
X112475732Y-98792964D01*
X112059931Y-98421461D01*
X112369415Y-98214670D01*
X112694271Y-97728489D01*
X112808345Y-97155000D01*
X112694271Y-96581511D01*
X112369415Y-96095330D01*
X112054634Y-95885000D01*
X112369415Y-95674670D01*
X112694271Y-95188489D01*
X112808345Y-94615000D01*
X112694271Y-94041511D01*
X112369415Y-93555330D01*
X112355087Y-93545757D01*
X112376317Y-93541762D01*
X112592441Y-93402690D01*
X112737431Y-93190490D01*
X112788440Y-92938600D01*
X112788440Y-91625167D01*
X116539838Y-91625167D01*
X116681883Y-91968943D01*
X116944673Y-92232192D01*
X117288201Y-92374838D01*
X117660167Y-92375162D01*
X118003943Y-92233117D01*
X118037118Y-92200000D01*
X125415198Y-92200000D01*
X126699878Y-93484680D01*
X126699838Y-93530167D01*
X126841883Y-93873943D01*
X126875000Y-93907118D01*
X126875000Y-99545000D01*
X126932852Y-99835839D01*
X127097599Y-100082401D01*
X133203725Y-106188527D01*
X133135284Y-106353352D01*
X133134716Y-107003795D01*
X133203919Y-107171279D01*
X133185198Y-107190000D01*
X129854802Y-107190000D01*
X129836275Y-107171473D01*
X129904716Y-107006648D01*
X129905284Y-106356205D01*
X129656894Y-105755057D01*
X129197363Y-105294722D01*
X128596648Y-105045284D01*
X127946205Y-105044716D01*
X127345057Y-105293106D01*
X126884722Y-105752637D01*
X126654366Y-106307397D01*
X126654366Y-101764366D01*
X126596514Y-101473527D01*
X126431767Y-101226965D01*
X125220000Y-100015198D01*
X125220000Y-94542463D01*
X125252192Y-94510327D01*
X125394838Y-94166799D01*
X125395162Y-93794833D01*
X125253117Y-93451057D01*
X124990327Y-93187808D01*
X124646799Y-93045162D01*
X124274833Y-93044838D01*
X123931057Y-93186883D01*
X123667808Y-93449673D01*
X123525162Y-93793201D01*
X123524838Y-94165167D01*
X123666883Y-94508943D01*
X123700000Y-94542118D01*
X123700000Y-100330000D01*
X123757852Y-100620839D01*
X123922599Y-100867401D01*
X125134366Y-102079168D01*
X125134366Y-107947156D01*
X125192218Y-108237995D01*
X125356965Y-108484557D01*
X126107639Y-109235231D01*
X126354200Y-109399978D01*
X126645040Y-109457830D01*
X126658430Y-109457830D01*
X126808368Y-109558015D01*
X127099207Y-109615867D01*
X127774007Y-109615867D01*
X127345057Y-109793106D01*
X126884722Y-110252637D01*
X126635284Y-110853352D01*
X126634716Y-111503795D01*
X126883106Y-112104943D01*
X127342637Y-112565278D01*
X127943352Y-112814716D01*
X128593795Y-112815284D01*
X129194943Y-112566894D01*
X129655278Y-112107363D01*
X129904716Y-111506648D01*
X129905284Y-110856205D01*
X129656894Y-110255057D01*
X129197363Y-109794722D01*
X128766631Y-109615867D01*
X134274007Y-109615867D01*
X133845057Y-109793106D01*
X133384722Y-110252637D01*
X133135284Y-110853352D01*
X133134716Y-111503795D01*
X133383106Y-112104943D01*
X133842637Y-112565278D01*
X134443352Y-112814716D01*
X135093795Y-112815284D01*
X135694943Y-112566894D01*
X136155278Y-112107363D01*
X136404716Y-111506648D01*
X136405284Y-110856205D01*
X136156894Y-110255057D01*
X135697363Y-109794722D01*
X135266631Y-109615867D01*
X139204007Y-109615867D01*
X138775057Y-109793106D01*
X138314722Y-110252637D01*
X138065284Y-110853352D01*
X138064716Y-111503795D01*
X138313106Y-112104943D01*
X138772637Y-112565278D01*
X139373352Y-112814716D01*
X140023795Y-112815284D01*
X140624943Y-112566894D01*
X141085278Y-112107363D01*
X141334716Y-111506648D01*
X141335284Y-110856205D01*
X141086894Y-110255057D01*
X140627363Y-109794722D01*
X140196631Y-109615867D01*
X145704007Y-109615867D01*
X145275057Y-109793106D01*
X144814722Y-110252637D01*
X144565284Y-110853352D01*
X144564716Y-111503795D01*
X144813106Y-112104943D01*
X145272637Y-112565278D01*
X145873352Y-112814716D01*
X146523795Y-112815284D01*
X147124943Y-112566894D01*
X147489855Y-112202619D01*
X159689613Y-112202619D01*
X160029155Y-113024372D01*
X160657321Y-113653636D01*
X161478481Y-113994611D01*
X162367619Y-113995387D01*
X163189372Y-113655845D01*
X163818636Y-113027679D01*
X164159611Y-112206519D01*
X164160387Y-111317381D01*
X163820845Y-110495628D01*
X163192679Y-109866364D01*
X162371519Y-109525389D01*
X161482381Y-109524613D01*
X160660628Y-109864155D01*
X160031364Y-110492321D01*
X159690389Y-111313481D01*
X159689613Y-112202619D01*
X147489855Y-112202619D01*
X147585278Y-112107363D01*
X147834716Y-111506648D01*
X147835284Y-110856205D01*
X147586894Y-110255057D01*
X147127363Y-109794722D01*
X146696631Y-109615867D01*
X157857302Y-109615867D01*
X158148141Y-109558015D01*
X158394703Y-109393268D01*
X158652401Y-109135570D01*
X158678919Y-109095883D01*
X159287401Y-108487401D01*
X159452148Y-108240839D01*
X159510000Y-107950000D01*
X159510000Y-104314648D01*
X159809670Y-104114415D01*
X159965942Y-103880537D01*
X160353563Y-104268834D01*
X160960155Y-104520713D01*
X161616963Y-104521286D01*
X162223995Y-104270466D01*
X162688834Y-103806437D01*
X162940713Y-103199845D01*
X162941286Y-102543037D01*
X162690466Y-101936005D01*
X162226437Y-101471166D01*
X162154250Y-101441192D01*
X162473629Y-101122370D01*
X162686757Y-100609100D01*
X162687242Y-100053339D01*
X162475010Y-99539697D01*
X162082370Y-99146371D01*
X161874488Y-99060051D01*
X162080303Y-98975010D01*
X162473629Y-98582370D01*
X162686757Y-98069100D01*
X162687242Y-97513339D01*
X162475010Y-96999697D01*
X162082370Y-96606371D01*
X161874488Y-96520051D01*
X162080303Y-96435010D01*
X162473629Y-96042370D01*
X162686757Y-95529100D01*
X162687242Y-94973339D01*
X162475010Y-94459697D01*
X162082370Y-94066371D01*
X161874488Y-93980051D01*
X162080303Y-93895010D01*
X162473629Y-93502370D01*
X162686757Y-92989100D01*
X162687242Y-92433339D01*
X162475010Y-91919697D01*
X162082370Y-91526371D01*
X161874488Y-91440051D01*
X162080303Y-91355010D01*
X162473629Y-90962370D01*
X162686757Y-90449100D01*
X162687242Y-89893339D01*
X162475010Y-89379697D01*
X162082370Y-88986371D01*
X161874488Y-88900051D01*
X162080303Y-88815010D01*
X162473629Y-88422370D01*
X162686757Y-87909100D01*
X162687242Y-87353339D01*
X162475010Y-86839697D01*
X162082370Y-86446371D01*
X161874488Y-86360051D01*
X162080303Y-86275010D01*
X162473629Y-85882370D01*
X162686757Y-85369100D01*
X162687242Y-84813339D01*
X162475010Y-84299697D01*
X162082370Y-83906371D01*
X161874488Y-83820051D01*
X162080303Y-83735010D01*
X162473629Y-83342370D01*
X162686757Y-82829100D01*
X162687242Y-82273339D01*
X162475010Y-81759697D01*
X162082370Y-81366371D01*
X161874488Y-81280051D01*
X162080303Y-81195010D01*
X162473629Y-80802370D01*
X162686757Y-80289100D01*
X162687242Y-79733339D01*
X162475010Y-79219697D01*
X162082370Y-78826371D01*
X161874488Y-78740051D01*
X162080303Y-78655010D01*
X162473629Y-78262370D01*
X162686757Y-77749100D01*
X162687242Y-77193339D01*
X162475010Y-76679697D01*
X162154891Y-76359019D01*
X162223995Y-76330466D01*
X162688834Y-75866437D01*
X162940713Y-75259845D01*
X162941286Y-74603037D01*
X162690466Y-73996005D01*
X162267634Y-73572435D01*
X162274502Y-73554107D01*
X161290000Y-72569605D01*
X160305498Y-73554107D01*
X160312547Y-73572917D01*
X160019821Y-73865132D01*
X159727634Y-73572435D01*
X159734502Y-73554107D01*
X158750000Y-72569605D01*
X157765498Y-73554107D01*
X157772547Y-73572917D01*
X157479821Y-73865132D01*
X157187634Y-73572435D01*
X157194502Y-73554107D01*
X156210000Y-72569605D01*
X155225498Y-73554107D01*
X155232547Y-73572917D01*
X154939821Y-73865132D01*
X154647634Y-73572435D01*
X154654502Y-73554107D01*
X153670000Y-72569605D01*
X152685498Y-73554107D01*
X152692547Y-73572917D01*
X152399821Y-73865132D01*
X152066437Y-73531166D01*
X151459845Y-73279287D01*
X150803037Y-73278714D01*
X150196005Y-73529534D01*
X149859821Y-73865132D01*
X149526437Y-73531166D01*
X148919845Y-73279287D01*
X148263037Y-73278714D01*
X147656005Y-73529534D01*
X147302497Y-73882426D01*
X147294415Y-73870330D01*
X146979634Y-73660000D01*
X147294415Y-73449670D01*
X147619271Y-72963489D01*
X147733345Y-72390000D01*
X147679966Y-72121642D01*
X152008184Y-72121642D01*
X152031986Y-72778019D01*
X152237378Y-73273880D01*
X152505893Y-73374502D01*
X153490395Y-72390000D01*
X153849605Y-72390000D01*
X154834107Y-73374502D01*
X154940000Y-73334820D01*
X155045893Y-73374502D01*
X156030395Y-72390000D01*
X156389605Y-72390000D01*
X157374107Y-73374502D01*
X157480000Y-73334820D01*
X157585893Y-73374502D01*
X158570395Y-72390000D01*
X158929605Y-72390000D01*
X159914107Y-73374502D01*
X160020000Y-73334820D01*
X160125893Y-73374502D01*
X161110395Y-72390000D01*
X161469605Y-72390000D01*
X162454107Y-73374502D01*
X162722622Y-73273880D01*
X162951816Y-72658358D01*
X162928014Y-72001981D01*
X162722622Y-71506120D01*
X162454107Y-71405498D01*
X161469605Y-72390000D01*
X161110395Y-72390000D01*
X160125893Y-71405498D01*
X160020000Y-71445180D01*
X159914107Y-71405498D01*
X158929605Y-72390000D01*
X158570395Y-72390000D01*
X157585893Y-71405498D01*
X157480000Y-71445180D01*
X157374107Y-71405498D01*
X156389605Y-72390000D01*
X156030395Y-72390000D01*
X155045893Y-71405498D01*
X154940000Y-71445180D01*
X154834107Y-71405498D01*
X153849605Y-72390000D01*
X153490395Y-72390000D01*
X152505893Y-71405498D01*
X152237378Y-71506120D01*
X152008184Y-72121642D01*
X147679966Y-72121642D01*
X147619271Y-71816511D01*
X147294415Y-71330330D01*
X147138115Y-71225893D01*
X152685498Y-71225893D01*
X153670000Y-72210395D01*
X154654502Y-71225893D01*
X155225498Y-71225893D01*
X156210000Y-72210395D01*
X157194502Y-71225893D01*
X157765498Y-71225893D01*
X158750000Y-72210395D01*
X159734502Y-71225893D01*
X160305498Y-71225893D01*
X161290000Y-72210395D01*
X162274502Y-71225893D01*
X162173880Y-70957378D01*
X161558358Y-70728184D01*
X160901981Y-70751986D01*
X160406120Y-70957378D01*
X160305498Y-71225893D01*
X159734502Y-71225893D01*
X159633880Y-70957378D01*
X159018358Y-70728184D01*
X158361981Y-70751986D01*
X157866120Y-70957378D01*
X157765498Y-71225893D01*
X157194502Y-71225893D01*
X157093880Y-70957378D01*
X156478358Y-70728184D01*
X155821981Y-70751986D01*
X155326120Y-70957378D01*
X155225498Y-71225893D01*
X154654502Y-71225893D01*
X154553880Y-70957378D01*
X153938358Y-70728184D01*
X153281981Y-70751986D01*
X152786120Y-70957378D01*
X152685498Y-71225893D01*
X147138115Y-71225893D01*
X146808234Y-71005474D01*
X146234745Y-70891400D01*
X145865255Y-70891400D01*
X145291766Y-71005474D01*
X144805585Y-71330330D01*
X144480729Y-71816511D01*
X144366655Y-72390000D01*
X144480729Y-72963489D01*
X144805585Y-73449670D01*
X145120366Y-73660000D01*
X144805585Y-73870330D01*
X144480729Y-74356511D01*
X144366655Y-74930000D01*
X144480729Y-75503489D01*
X144805585Y-75989670D01*
X145120366Y-76200000D01*
X144805585Y-76410330D01*
X144480729Y-76896511D01*
X144366655Y-77470000D01*
X144480729Y-78043489D01*
X144805585Y-78529670D01*
X145120366Y-78740000D01*
X144805585Y-78950330D01*
X144480729Y-79436511D01*
X144366655Y-80010000D01*
X144470161Y-80530359D01*
X139792401Y-75852599D01*
X139545839Y-75687852D01*
X139255000Y-75630000D01*
X136341917Y-75630000D01*
X136289851Y-75552078D01*
X136047283Y-75390000D01*
X136289851Y-75227922D01*
X136546726Y-74843480D01*
X136636929Y-74390000D01*
X136546726Y-73936520D01*
X136289851Y-73552078D01*
X136047283Y-73390000D01*
X136289851Y-73227922D01*
X136546726Y-72843480D01*
X136636929Y-72390000D01*
X136546726Y-71936520D01*
X136289851Y-71552078D01*
X135905409Y-71295203D01*
X135451929Y-71205000D01*
X133978071Y-71205000D01*
X133524591Y-71295203D01*
X133140149Y-71552078D01*
X132883274Y-71936520D01*
X132793071Y-72390000D01*
X132883274Y-72843480D01*
X133140149Y-73227922D01*
X133382717Y-73390000D01*
X133140149Y-73552078D01*
X132883274Y-73936520D01*
X132793071Y-74390000D01*
X132883274Y-74843480D01*
X133140149Y-75227922D01*
X133382717Y-75390000D01*
X133140149Y-75552078D01*
X132883274Y-75936520D01*
X132793071Y-76390000D01*
X132856723Y-76710000D01*
X125730000Y-76710000D01*
X125439161Y-76767852D01*
X125192599Y-76932599D01*
X123685320Y-78439878D01*
X123639833Y-78439838D01*
X123296057Y-78581883D01*
X123032808Y-78844673D01*
X122890162Y-79188201D01*
X122889838Y-79560167D01*
X123031883Y-79903943D01*
X123294673Y-80167192D01*
X123638201Y-80309838D01*
X124010167Y-80310162D01*
X124353943Y-80168117D01*
X124617192Y-79905327D01*
X124759838Y-79561799D01*
X124759879Y-79514923D01*
X126044802Y-78230000D01*
X132824897Y-78230000D01*
X132793071Y-78390000D01*
X132883274Y-78843480D01*
X133140149Y-79227922D01*
X133382717Y-79390000D01*
X133140149Y-79552078D01*
X132883274Y-79936520D01*
X132793071Y-80390000D01*
X132883274Y-80843480D01*
X133140149Y-81227922D01*
X133382717Y-81390000D01*
X133140149Y-81552078D01*
X133000652Y-81760850D01*
X132005818Y-80766016D01*
X131982401Y-80730970D01*
X131735839Y-80566223D01*
X131445000Y-80508371D01*
X126164013Y-80508371D01*
X126123253Y-80467611D01*
X125876691Y-80302864D01*
X125758292Y-80279313D01*
X125691915Y-80212820D01*
X125348387Y-80070174D01*
X124976421Y-80069850D01*
X124632645Y-80211895D01*
X124369396Y-80474685D01*
X124226750Y-80818213D01*
X124226426Y-81190179D01*
X124368471Y-81533955D01*
X124631261Y-81797204D01*
X124928419Y-81920595D01*
X123154015Y-83695000D01*
X123117463Y-83695000D01*
X123085327Y-83662808D01*
X122741799Y-83520162D01*
X122369833Y-83519838D01*
X122026057Y-83661883D01*
X121762808Y-83924673D01*
X121620162Y-84268201D01*
X121619838Y-84640167D01*
X121761883Y-84983943D01*
X122024673Y-85247192D01*
X122368201Y-85389838D01*
X122740167Y-85390162D01*
X123083943Y-85248117D01*
X123117118Y-85215000D01*
X123468817Y-85215000D01*
X123759656Y-85157148D01*
X124006218Y-84992401D01*
X126190708Y-82807912D01*
X129510867Y-82807912D01*
X132630355Y-85927400D01*
X132855204Y-86077639D01*
X132793071Y-86390000D01*
X132814139Y-86495917D01*
X132458480Y-86258274D01*
X132005000Y-86168071D01*
X131551520Y-86258274D01*
X131167078Y-86515149D01*
X131005000Y-86757717D01*
X130842922Y-86515149D01*
X130458480Y-86258274D01*
X130005000Y-86168071D01*
X129665000Y-86235701D01*
X129665000Y-85017481D01*
X129697192Y-84985345D01*
X129839838Y-84641817D01*
X129840162Y-84269851D01*
X129698117Y-83926075D01*
X129435327Y-83662826D01*
X129091799Y-83520180D01*
X128719833Y-83519856D01*
X128376057Y-83661901D01*
X128112808Y-83924691D01*
X127970162Y-84268219D01*
X127969838Y-84640185D01*
X128111883Y-84983961D01*
X128145000Y-85017136D01*
X128145000Y-86195919D01*
X128005000Y-86168071D01*
X127551520Y-86258274D01*
X127167078Y-86515149D01*
X127005000Y-86757717D01*
X126842922Y-86515149D01*
X126458480Y-86258274D01*
X126005000Y-86168071D01*
X125551520Y-86258274D01*
X125167078Y-86515149D01*
X125005000Y-86757717D01*
X124842922Y-86515149D01*
X124458480Y-86258274D01*
X124005000Y-86168071D01*
X123551520Y-86258274D01*
X123167078Y-86515149D01*
X123005000Y-86757717D01*
X122842922Y-86515149D01*
X122458480Y-86258274D01*
X122005000Y-86168071D01*
X121551520Y-86258274D01*
X121167078Y-86515149D01*
X121100494Y-86614799D01*
X121033361Y-86517000D01*
X119442000Y-86517000D01*
X119442000Y-87575000D01*
X120142000Y-87575000D01*
X120585813Y-87436196D01*
X120846826Y-87218208D01*
X120820000Y-87353071D01*
X120820000Y-88826929D01*
X120910203Y-89280409D01*
X121167078Y-89664851D01*
X121551520Y-89921726D01*
X122005000Y-90011929D01*
X122458480Y-89921726D01*
X122842922Y-89664851D01*
X123005000Y-89422283D01*
X123167078Y-89664851D01*
X123551520Y-89921726D01*
X124005000Y-90011929D01*
X124458480Y-89921726D01*
X124842922Y-89664851D01*
X125005000Y-89422283D01*
X125167078Y-89664851D01*
X125551520Y-89921726D01*
X126005000Y-90011929D01*
X126458480Y-89921726D01*
X126842922Y-89664851D01*
X127005000Y-89422283D01*
X127167078Y-89664851D01*
X127551520Y-89921726D01*
X128005000Y-90011929D01*
X128458480Y-89921726D01*
X128557986Y-89855239D01*
X128780000Y-90077253D01*
X128780000Y-90932000D01*
X128837852Y-91222839D01*
X129002599Y-91469401D01*
X129510599Y-91977401D01*
X129757161Y-92142148D01*
X130048000Y-92200000D01*
X130778905Y-92200000D01*
X132019910Y-93441005D01*
X132079730Y-93530532D01*
X132844000Y-94294802D01*
X132844000Y-99568000D01*
X132901852Y-99858839D01*
X133066599Y-100105401D01*
X133574599Y-100613401D01*
X133821161Y-100778148D01*
X134112000Y-100836000D01*
X134620000Y-100836000D01*
X134910839Y-100778148D01*
X135157401Y-100613401D01*
X135267680Y-100503122D01*
X135313167Y-100503162D01*
X135656943Y-100361117D01*
X135920192Y-100098327D01*
X136062838Y-99754799D01*
X136063162Y-99382833D01*
X135921117Y-99039057D01*
X135658327Y-98775808D01*
X135314799Y-98633162D01*
X134942833Y-98632838D01*
X134599057Y-98774883D01*
X134364000Y-99009530D01*
X134364000Y-93980000D01*
X134306148Y-93689161D01*
X134141401Y-93442599D01*
X133214352Y-92515550D01*
X133154532Y-92426023D01*
X131658509Y-90930000D01*
X134305198Y-90930000D01*
X140210000Y-96834802D01*
X140210000Y-101600000D01*
X140267852Y-101890839D01*
X140432599Y-102137401D01*
X142972599Y-104677401D01*
X143219160Y-104842148D01*
X143267414Y-104851746D01*
X143510000Y-104900000D01*
X148275198Y-104900000D01*
X148755844Y-105380646D01*
X149002406Y-105545393D01*
X149293245Y-105603245D01*
X151787709Y-105603245D01*
X151629477Y-105761477D01*
X151583990Y-105761437D01*
X151240214Y-105903482D01*
X150976965Y-106166272D01*
X150834319Y-106509800D01*
X150833995Y-106881766D01*
X150976040Y-107225542D01*
X151238830Y-107488791D01*
X151582358Y-107631437D01*
X151954324Y-107631761D01*
X152298100Y-107489716D01*
X152561349Y-107226926D01*
X152703995Y-106883398D01*
X152704036Y-106836522D01*
X152872398Y-106668160D01*
X153723827Y-106668160D01*
X153755963Y-106700352D01*
X154099491Y-106842998D01*
X154471457Y-106843322D01*
X154815233Y-106701277D01*
X155078482Y-106438487D01*
X155221128Y-106094959D01*
X155221452Y-105722993D01*
X155079407Y-105379217D01*
X154914809Y-105214332D01*
X154954761Y-105187637D01*
X155692075Y-104450323D01*
X156210000Y-104553345D01*
X156783489Y-104439271D01*
X157269670Y-104114415D01*
X157480000Y-103799634D01*
X157690330Y-104114415D01*
X157990000Y-104314648D01*
X157990000Y-107635198D01*
X157577599Y-108047599D01*
X157551081Y-108087286D01*
X157542500Y-108095867D01*
X147054823Y-108095867D01*
X147124943Y-108066894D01*
X147585278Y-107607363D01*
X147834716Y-107006648D01*
X147835284Y-106356205D01*
X147586894Y-105755057D01*
X147127363Y-105294722D01*
X146526648Y-105045284D01*
X145876205Y-105044716D01*
X145275057Y-105293106D01*
X144814722Y-105752637D01*
X144565284Y-106353352D01*
X144564716Y-107003795D01*
X144813106Y-107604943D01*
X145272637Y-108065278D01*
X145346304Y-108095867D01*
X140554823Y-108095867D01*
X140624943Y-108066894D01*
X141085278Y-107607363D01*
X141334716Y-107006648D01*
X141335284Y-106356205D01*
X141086894Y-105755057D01*
X140627363Y-105294722D01*
X140026648Y-105045284D01*
X139376205Y-105044716D01*
X138775057Y-105293106D01*
X138314722Y-105752637D01*
X138065284Y-106353352D01*
X138064716Y-107003795D01*
X138313106Y-107604943D01*
X138772637Y-108065278D01*
X138846304Y-108095867D01*
X135624823Y-108095867D01*
X135694943Y-108066894D01*
X136155278Y-107607363D01*
X136404716Y-107006648D01*
X136405284Y-106356205D01*
X136156894Y-105755057D01*
X135697363Y-105294722D01*
X135096648Y-105045284D01*
X134446205Y-105044716D01*
X134278721Y-105113919D01*
X128395000Y-99230198D01*
X128395000Y-93907463D01*
X128427192Y-93875327D01*
X128569838Y-93531799D01*
X128570162Y-93159833D01*
X128428117Y-92816057D01*
X128165327Y-92552808D01*
X127821799Y-92410162D01*
X127774923Y-92410121D01*
X126267401Y-90902599D01*
X126020839Y-90737852D01*
X125730000Y-90680000D01*
X118037463Y-90680000D01*
X118005327Y-90647808D01*
X117661799Y-90505162D01*
X117289833Y-90504838D01*
X116946057Y-90646883D01*
X116682808Y-90909673D01*
X116540162Y-91253201D01*
X116539838Y-91625167D01*
X112788440Y-91625167D01*
X112788440Y-91211400D01*
X112744162Y-90976083D01*
X112605090Y-90759959D01*
X112392890Y-90614969D01*
X112141000Y-90563960D01*
X110109000Y-90563960D01*
X109873683Y-90608238D01*
X109657559Y-90747310D01*
X109512569Y-90959510D01*
X109461560Y-91211400D01*
X109461560Y-92938600D01*
X109505838Y-93173917D01*
X109644910Y-93390041D01*
X109857110Y-93535031D01*
X109898439Y-93543400D01*
X109880585Y-93555330D01*
X109555729Y-94041511D01*
X109441655Y-94615000D01*
X108025000Y-94615000D01*
X108025000Y-85725000D01*
X112616655Y-85725000D01*
X112742330Y-86356810D01*
X113100222Y-86892433D01*
X113635845Y-87250325D01*
X114267655Y-87376000D01*
X114332345Y-87376000D01*
X114964155Y-87250325D01*
X115499778Y-86892433D01*
X115628528Y-86699744D01*
X117471197Y-86699744D01*
X117471602Y-86726146D01*
X117687276Y-87138118D01*
X118044187Y-87436196D01*
X118488000Y-87575000D01*
X119188000Y-87575000D01*
X119188000Y-86517000D01*
X117596639Y-86517000D01*
X117471197Y-86699744D01*
X115628528Y-86699744D01*
X115857670Y-86356810D01*
X115983345Y-85725000D01*
X115857670Y-85093190D01*
X115630501Y-84753208D01*
X115767441Y-84665090D01*
X115912431Y-84452890D01*
X115963440Y-84201000D01*
X115963440Y-82169000D01*
X115919162Y-81933683D01*
X115780090Y-81717559D01*
X115567890Y-81572569D01*
X115316000Y-81521560D01*
X113284000Y-81521560D01*
X113048683Y-81565838D01*
X112832559Y-81704910D01*
X112687569Y-81917110D01*
X112636560Y-82169000D01*
X112636560Y-84201000D01*
X112680838Y-84436317D01*
X112819910Y-84652441D01*
X112968837Y-84754198D01*
X112742330Y-85093190D01*
X112616655Y-85725000D01*
X108025000Y-85725000D01*
X108025000Y-65847619D01*
X108889613Y-65847619D01*
X109229155Y-66669372D01*
X109857321Y-67298636D01*
X110678481Y-67639611D01*
X111567619Y-67640387D01*
X112389372Y-67300845D01*
X113018636Y-66672679D01*
X113359611Y-65851519D01*
X113360387Y-64962381D01*
X113020845Y-64140628D01*
X112392679Y-63511364D01*
X111571519Y-63170389D01*
X110682381Y-63169613D01*
X109860628Y-63509155D01*
X109231364Y-64137321D01*
X108890389Y-64958481D01*
X108889613Y-65847619D01*
X108025000Y-65847619D01*
X108025000Y-62305000D01*
X117983000Y-62305000D01*
X117983000Y-69850000D01*
M02*
