M48
;DRILL file {KiCad 4.0.6} date 2017 April 03, Monday 15:03:26
;FORMAT={2:4/ absolute / inch / suppress trailing zeros}
FMAT,2
INCH,LZ
T1C0.016
T2C0.026
T3C0.030
T4C0.040
T5C0.043
T6C0.047
T7C0.126
%
G90
G05
M72
T1
X045Y-0322
X04625Y-036
X04825Y-03325
X04875Y-02925
X04875Y-03125
X049Y-03225
X049Y-037
X04975Y-03875
X05025Y-03675
X05075Y-03325
X0515Y-0355
X053Y-035
X0532Y-0392
X053244Y-037116
X053862Y-030862
X0545Y-02975
X0545Y-03175
X0545Y-0335
X05525Y-03375
X05575Y-03175
X06125Y-02625
T2
X04725Y-0285
X04725Y-029287
X04725Y-030075
X04725Y-030862
X04725Y-03165
X04725Y-032437
X04725Y-033224
X04725Y-034012
X048033Y-034406
X048821Y-034406
X049608Y-034406
X050396Y-034406
X051183Y-034406
X05197Y-034406
X052762Y-0285
X052762Y-029287
X052762Y-030075
X052762Y-030862
X052762Y-03165
X052762Y-032437
X052762Y-033224
X052762Y-034012
T3
X05855Y-0305
X05855Y-0315
X05855Y-0325
X05855Y-0335
X05855Y-0345
X05855Y-0355
X05855Y-0365
X05855Y-0375
X05855Y-0385
X05855Y-0395
X05955Y-0305
X05955Y-0315
X05955Y-0325
X05955Y-0335
X05955Y-0345
X05955Y-0355
X05955Y-0365
X05955Y-0375
X05955Y-0385
X05955Y-0395
X06055Y-0305
X06055Y-0315
X06055Y-0325
X06055Y-0335
X06055Y-0345
X06055Y-0355
X06055Y-0365
X06055Y-0375
X06055Y-0385
X06055Y-0395
X06155Y-0305
X06155Y-0315
X06155Y-0325
X06155Y-0335
X06155Y-0345
X06155Y-0355
X06155Y-0365
X06155Y-0375
X06155Y-0385
X06155Y-0395
X06255Y-0305
X06255Y-0315
X06255Y-0325
X06255Y-0335
X06255Y-0345
X06255Y-0355
X06255Y-0365
X06255Y-0375
X06255Y-0385
X06255Y-0395
X06355Y-0305
X06355Y-0315
X06355Y-0325
X06355Y-0335
X06355Y-0345
X06355Y-0355
X06355Y-0365
X06355Y-0375
X06355Y-0385
X06355Y-0395
T4
X04375Y-03625
X04375Y-03725
X04375Y-03825
X04375Y-03925
X055Y-02575
X056Y-02575
X057Y-02575
X0575Y-0285
X0575Y-0295
X0575Y-0305
X0575Y-0315
X0575Y-0325
X0575Y-0335
X0575Y-0345
X0575Y-0355
X0575Y-0365
X0575Y-0375
X0575Y-0385
X0575Y-0395
X058Y-02575
X05855Y-0295
X059Y-02575
X05955Y-0295
X05955Y-04075
X06055Y-0295
X06055Y-04075
X06155Y-0295
X06155Y-04075
X06255Y-0295
X06255Y-04075
X06355Y-0295
X06355Y-04075
T5
X0505Y-042
X0505Y-043772
X053059Y-042
X053059Y-043772
X055Y-042
X055Y-043772
X057559Y-042
X057559Y-043772
T6
X0615Y-02825
X0625Y-02825
X0635Y-02825
T7
X04375Y-02575
X04375Y-044
X06375Y-02575
X06375Y-044
T0
M30
