M48
;DRILL file {KiCad 4.0.6} date 2017 April 05, Wednesday 14:37:46
;FORMAT={3:3/ absolute / metric / suppress trailing zeros}
FMAT,2
METRIC,LZ
T1C0.400
T2C0.650
T3C0.762
T4C0.800
T5C1.016
T6C1.100
%
G90
G05
M71
T1
X1143Y-079883
X117475Y-09144
X122555Y-084455
X123825Y-079375
X12446Y-09398
X125162Y-081005
X126365Y-098425
X127635Y-093345
X128905Y-084455
X13081Y-09017
X13462Y-0889
X135128Y-099568
X135241Y-094275
X13843Y-08509
X140335Y-085725
X141605Y-080645
X151769Y-106697
X154286Y-105908
T2
X120015Y-07239
X120015Y-07439
X120015Y-07639
X120015Y-07839
X120015Y-08039
X120015Y-08239
X120015Y-08439
X120015Y-08639
X122005Y-08739
X124005Y-08739
X126005Y-08739
X128005Y-08739
X130005Y-08739
X132005Y-08739
X134015Y-07239
X134015Y-07439
X134015Y-07639
X134015Y-07839
X134015Y-08039
X134015Y-08239
X134015Y-08439
X134015Y-08639
T3
X14859Y-07747
X14859Y-08001
X14859Y-08255
X14859Y-08509
X14859Y-08763
X14859Y-09017
X14859Y-09271
X14859Y-09525
X14859Y-09779
X14859Y-10033
X15113Y-07747
X15113Y-08001
X15113Y-08255
X15113Y-08509
X15113Y-08763
X15113Y-09017
X15113Y-09271
X15113Y-09525
X15113Y-09779
X15113Y-10033
X15367Y-07747
X15367Y-08001
X15367Y-08255
X15367Y-08509
X15367Y-08763
X15367Y-09017
X15367Y-09271
X15367Y-09525
X15367Y-09779
X15367Y-10033
X15621Y-07747
X15621Y-08001
X15621Y-08255
X15621Y-08509
X15621Y-08763
X15621Y-09017
X15621Y-09271
X15621Y-09525
X15621Y-09779
X15621Y-10033
X15875Y-07747
X15875Y-08001
X15875Y-08255
X15875Y-08509
X15875Y-08763
X15875Y-09017
X15875Y-09271
X15875Y-09525
X15875Y-09779
X15875Y-10033
X16129Y-07747
X16129Y-08001
X16129Y-08255
X16129Y-08509
X16129Y-08763
X16129Y-09017
X16129Y-09271
X16129Y-09525
X16129Y-09779
X16129Y-10033
T4
X1524Y-06731
X15494Y-06477
X15748Y-06731
T5
X111125Y-092075
X111125Y-094615
X111125Y-097155
X111125Y-099695
X1143Y-083185
X1143Y-085725
X139065Y-065405
X141605Y-065405
X144145Y-065405
X14605Y-07239
X14605Y-07493
X14605Y-07747
X14605Y-08001
X14605Y-08255
X14605Y-08509
X14605Y-08763
X14605Y-09017
X14605Y-09271
X14605Y-09525
X14605Y-09779
X14605Y-10033
X146685Y-065405
X14859Y-07493
X149225Y-065405
X15113Y-07493
X15113Y-10287
X15367Y-07239
X15367Y-07493
X15367Y-10287
X15621Y-07239
X15621Y-07493
X15621Y-10287
X15875Y-07239
X15875Y-07493
X15875Y-10287
X16129Y-07239
X16129Y-07493
X16129Y-10287
T6
X12827Y-10668
X12827Y-11118
X13477Y-10668
X13477Y-11118
X1397Y-10668
X1397Y-11118
X1462Y-10668
X1462Y-11118
T0
M30
