G04 #@! TF.FileFunction,Legend,Top*
%FSLAX46Y46*%
G04 Gerber Fmt 4.6, Leading zero omitted, Abs format (unit mm)*
G04 Created by KiCad (PCBNEW 4.0.6) date 2017 April 05, Wednesday 14:36:44*
%MOMM*%
%LPD*%
G01*
G04 APERTURE LIST*
%ADD10C,0.100000*%
%ADD11C,0.254000*%
%ADD12C,0.203200*%
%ADD13C,0.200000*%
%ADD14C,0.152400*%
%ADD15C,0.150000*%
%ADD16C,0.120000*%
G04 APERTURE END LIST*
D10*
D11*
X158961667Y-69154524D02*
X159385001Y-70424524D01*
X159808334Y-69154524D01*
X160957381Y-70303571D02*
X160896905Y-70364048D01*
X160715476Y-70424524D01*
X160594524Y-70424524D01*
X160413096Y-70364048D01*
X160292143Y-70243095D01*
X160231667Y-70122143D01*
X160171191Y-69880238D01*
X160171191Y-69698810D01*
X160231667Y-69456905D01*
X160292143Y-69335952D01*
X160413096Y-69215000D01*
X160594524Y-69154524D01*
X160715476Y-69154524D01*
X160896905Y-69215000D01*
X160957381Y-69275476D01*
X162227381Y-70303571D02*
X162166905Y-70364048D01*
X161985476Y-70424524D01*
X161864524Y-70424524D01*
X161683096Y-70364048D01*
X161562143Y-70243095D01*
X161501667Y-70122143D01*
X161441191Y-69880238D01*
X161441191Y-69698810D01*
X161501667Y-69456905D01*
X161562143Y-69335952D01*
X161683096Y-69215000D01*
X161864524Y-69154524D01*
X161985476Y-69154524D01*
X162166905Y-69215000D01*
X162227381Y-69275476D01*
X151746857Y-109310714D02*
X151819429Y-109129286D01*
X151819429Y-108826905D01*
X151746857Y-108705952D01*
X151674286Y-108645476D01*
X151529143Y-108585000D01*
X151384000Y-108585000D01*
X151238857Y-108645476D01*
X151166286Y-108705952D01*
X151093714Y-108826905D01*
X151021143Y-109068809D01*
X150948571Y-109189762D01*
X150876000Y-109250238D01*
X150730857Y-109310714D01*
X150585714Y-109310714D01*
X150440571Y-109250238D01*
X150368000Y-109189762D01*
X150295429Y-109068809D01*
X150295429Y-108766429D01*
X150368000Y-108585000D01*
X151674286Y-107315000D02*
X151746857Y-107375476D01*
X151819429Y-107556905D01*
X151819429Y-107677857D01*
X151746857Y-107859285D01*
X151601714Y-107980238D01*
X151456571Y-108040714D01*
X151166286Y-108101190D01*
X150948571Y-108101190D01*
X150658286Y-108040714D01*
X150513143Y-107980238D01*
X150368000Y-107859285D01*
X150295429Y-107677857D01*
X150295429Y-107556905D01*
X150368000Y-107375476D01*
X150440571Y-107315000D01*
X151819429Y-106165952D02*
X151819429Y-106770714D01*
X150295429Y-106770714D01*
X151819429Y-105742619D02*
X150295429Y-105742619D01*
X151819429Y-105016905D02*
X150948571Y-105561190D01*
X150295429Y-105016905D02*
X151166286Y-105742619D01*
X154359429Y-109068810D02*
X152835429Y-109068810D01*
X153924000Y-108645477D01*
X152835429Y-108222143D01*
X154359429Y-108222143D01*
X154359429Y-107617381D02*
X152835429Y-107617381D01*
X154286857Y-107073095D02*
X154359429Y-106891667D01*
X154359429Y-106589286D01*
X154286857Y-106468333D01*
X154214286Y-106407857D01*
X154069143Y-106347381D01*
X153924000Y-106347381D01*
X153778857Y-106407857D01*
X153706286Y-106468333D01*
X153633714Y-106589286D01*
X153561143Y-106831190D01*
X153488571Y-106952143D01*
X153416000Y-107012619D01*
X153270857Y-107073095D01*
X153125714Y-107073095D01*
X152980571Y-107012619D01*
X152908000Y-106952143D01*
X152835429Y-106831190D01*
X152835429Y-106528810D01*
X152908000Y-106347381D01*
X152835429Y-105561190D02*
X152835429Y-105319286D01*
X152908000Y-105198333D01*
X153053143Y-105077381D01*
X153343429Y-105016905D01*
X153851429Y-105016905D01*
X154141714Y-105077381D01*
X154286857Y-105198333D01*
X154359429Y-105319286D01*
X154359429Y-105561190D01*
X154286857Y-105682143D01*
X154141714Y-105803095D01*
X153851429Y-105863571D01*
X153343429Y-105863571D01*
X153053143Y-105803095D01*
X152908000Y-105682143D01*
X152835429Y-105561190D01*
X156899429Y-109068810D02*
X155375429Y-109068810D01*
X156464000Y-108645477D01*
X155375429Y-108222143D01*
X156899429Y-108222143D01*
X155375429Y-107375476D02*
X155375429Y-107133572D01*
X155448000Y-107012619D01*
X155593143Y-106891667D01*
X155883429Y-106831191D01*
X156391429Y-106831191D01*
X156681714Y-106891667D01*
X156826857Y-107012619D01*
X156899429Y-107133572D01*
X156899429Y-107375476D01*
X156826857Y-107496429D01*
X156681714Y-107617381D01*
X156391429Y-107677857D01*
X155883429Y-107677857D01*
X155593143Y-107617381D01*
X155448000Y-107496429D01*
X155375429Y-107375476D01*
X156826857Y-106347381D02*
X156899429Y-106165953D01*
X156899429Y-105863572D01*
X156826857Y-105742619D01*
X156754286Y-105682143D01*
X156609143Y-105621667D01*
X156464000Y-105621667D01*
X156318857Y-105682143D01*
X156246286Y-105742619D01*
X156173714Y-105863572D01*
X156101143Y-106105476D01*
X156028571Y-106226429D01*
X155956000Y-106286905D01*
X155810857Y-106347381D01*
X155665714Y-106347381D01*
X155520571Y-106286905D01*
X155448000Y-106226429D01*
X155375429Y-106105476D01*
X155375429Y-105803096D01*
X155448000Y-105621667D01*
X156899429Y-105077381D02*
X155375429Y-105077381D01*
X159294286Y-107435953D02*
X159366857Y-107496429D01*
X159439429Y-107677858D01*
X159439429Y-107798810D01*
X159366857Y-107980238D01*
X159221714Y-108101191D01*
X159076571Y-108161667D01*
X158786286Y-108222143D01*
X158568571Y-108222143D01*
X158278286Y-108161667D01*
X158133143Y-108101191D01*
X157988000Y-107980238D01*
X157915429Y-107798810D01*
X157915429Y-107677858D01*
X157988000Y-107496429D01*
X158060571Y-107435953D01*
X159366857Y-106952143D02*
X159439429Y-106770715D01*
X159439429Y-106468334D01*
X159366857Y-106347381D01*
X159294286Y-106286905D01*
X159149143Y-106226429D01*
X159004000Y-106226429D01*
X158858857Y-106286905D01*
X158786286Y-106347381D01*
X158713714Y-106468334D01*
X158641143Y-106710238D01*
X158568571Y-106831191D01*
X158496000Y-106891667D01*
X158350857Y-106952143D01*
X158205714Y-106952143D01*
X158060571Y-106891667D01*
X157988000Y-106831191D01*
X157915429Y-106710238D01*
X157915429Y-106407858D01*
X157988000Y-106226429D01*
X157915429Y-105440238D02*
X157915429Y-105319286D01*
X157988000Y-105198334D01*
X158060571Y-105137857D01*
X158205714Y-105077381D01*
X158496000Y-105016905D01*
X158858857Y-105016905D01*
X159149143Y-105077381D01*
X159294286Y-105137857D01*
X159366857Y-105198334D01*
X159439429Y-105319286D01*
X159439429Y-105440238D01*
X159366857Y-105561191D01*
X159294286Y-105621667D01*
X159149143Y-105682143D01*
X158858857Y-105742619D01*
X158496000Y-105742619D01*
X158205714Y-105682143D01*
X158060571Y-105621667D01*
X157988000Y-105561191D01*
X157915429Y-105440238D01*
X160528000Y-107677857D02*
X160455429Y-107798809D01*
X160455429Y-107980238D01*
X160528000Y-108161666D01*
X160673143Y-108282619D01*
X160818286Y-108343095D01*
X161108571Y-108403571D01*
X161326286Y-108403571D01*
X161616571Y-108343095D01*
X161761714Y-108282619D01*
X161906857Y-108161666D01*
X161979429Y-107980238D01*
X161979429Y-107859286D01*
X161906857Y-107677857D01*
X161834286Y-107617381D01*
X161326286Y-107617381D01*
X161326286Y-107859286D01*
X161979429Y-107073095D02*
X160455429Y-107073095D01*
X161979429Y-106347381D01*
X160455429Y-106347381D01*
X161979429Y-105742619D02*
X160455429Y-105742619D01*
X160455429Y-105440238D01*
X160528000Y-105258810D01*
X160673143Y-105137857D01*
X160818286Y-105077381D01*
X161108571Y-105016905D01*
X161326286Y-105016905D01*
X161616571Y-105077381D01*
X161761714Y-105137857D01*
X161906857Y-105258810D01*
X161979429Y-105440238D01*
X161979429Y-105742619D01*
X142693571Y-78159429D02*
X141967857Y-78159429D01*
X142330714Y-78159429D02*
X142330714Y-76635429D01*
X142209762Y-76853143D01*
X142088809Y-76998286D01*
X141967857Y-77070857D01*
X143842619Y-76635429D02*
X143237857Y-76635429D01*
X143177381Y-77361143D01*
X143237857Y-77288571D01*
X143358809Y-77216000D01*
X143661190Y-77216000D01*
X143782143Y-77288571D01*
X143842619Y-77361143D01*
X143903095Y-77506286D01*
X143903095Y-77869143D01*
X143842619Y-78014286D01*
X143782143Y-78086857D01*
X143661190Y-78159429D01*
X143358809Y-78159429D01*
X143237857Y-78086857D01*
X143177381Y-78014286D01*
X142693571Y-80699429D02*
X141967857Y-80699429D01*
X142330714Y-80699429D02*
X142330714Y-79175429D01*
X142209762Y-79393143D01*
X142088809Y-79538286D01*
X141967857Y-79610857D01*
X143782143Y-79683429D02*
X143782143Y-80699429D01*
X143479762Y-79102857D02*
X143177381Y-80191429D01*
X143963571Y-80191429D01*
X142693571Y-83239429D02*
X141967857Y-83239429D01*
X142330714Y-83239429D02*
X142330714Y-81715429D01*
X142209762Y-81933143D01*
X142088809Y-82078286D01*
X141967857Y-82150857D01*
X143116905Y-81715429D02*
X143903095Y-81715429D01*
X143479762Y-82296000D01*
X143661190Y-82296000D01*
X143782143Y-82368571D01*
X143842619Y-82441143D01*
X143903095Y-82586286D01*
X143903095Y-82949143D01*
X143842619Y-83094286D01*
X143782143Y-83166857D01*
X143661190Y-83239429D01*
X143298333Y-83239429D01*
X143177381Y-83166857D01*
X143116905Y-83094286D01*
X142693571Y-85779429D02*
X141967857Y-85779429D01*
X142330714Y-85779429D02*
X142330714Y-84255429D01*
X142209762Y-84473143D01*
X142088809Y-84618286D01*
X141967857Y-84690857D01*
X143177381Y-84400571D02*
X143237857Y-84328000D01*
X143358809Y-84255429D01*
X143661190Y-84255429D01*
X143782143Y-84328000D01*
X143842619Y-84400571D01*
X143903095Y-84545714D01*
X143903095Y-84690857D01*
X143842619Y-84908571D01*
X143116905Y-85779429D01*
X143903095Y-85779429D01*
X142693571Y-88319429D02*
X141967857Y-88319429D01*
X142330714Y-88319429D02*
X142330714Y-86795429D01*
X142209762Y-87013143D01*
X142088809Y-87158286D01*
X141967857Y-87230857D01*
X143479762Y-86795429D02*
X143600714Y-86795429D01*
X143721666Y-86868000D01*
X143782143Y-86940571D01*
X143842619Y-87085714D01*
X143903095Y-87376000D01*
X143903095Y-87738857D01*
X143842619Y-88029143D01*
X143782143Y-88174286D01*
X143721666Y-88246857D01*
X143600714Y-88319429D01*
X143479762Y-88319429D01*
X143358809Y-88246857D01*
X143298333Y-88174286D01*
X143237857Y-88029143D01*
X143177381Y-87738857D01*
X143177381Y-87376000D01*
X143237857Y-87085714D01*
X143298333Y-86940571D01*
X143358809Y-86868000D01*
X143479762Y-86795429D01*
X143298333Y-90859429D02*
X143540238Y-90859429D01*
X143661190Y-90786857D01*
X143721666Y-90714286D01*
X143842619Y-90496571D01*
X143903095Y-90206286D01*
X143903095Y-89625714D01*
X143842619Y-89480571D01*
X143782143Y-89408000D01*
X143661190Y-89335429D01*
X143419286Y-89335429D01*
X143298333Y-89408000D01*
X143237857Y-89480571D01*
X143177381Y-89625714D01*
X143177381Y-89988571D01*
X143237857Y-90133714D01*
X143298333Y-90206286D01*
X143419286Y-90278857D01*
X143661190Y-90278857D01*
X143782143Y-90206286D01*
X143842619Y-90133714D01*
X143903095Y-89988571D01*
X143842619Y-91875429D02*
X143237857Y-91875429D01*
X143177381Y-92601143D01*
X143237857Y-92528571D01*
X143358809Y-92456000D01*
X143661190Y-92456000D01*
X143782143Y-92528571D01*
X143842619Y-92601143D01*
X143903095Y-92746286D01*
X143903095Y-93109143D01*
X143842619Y-93254286D01*
X143782143Y-93326857D01*
X143661190Y-93399429D01*
X143358809Y-93399429D01*
X143237857Y-93326857D01*
X143177381Y-93254286D01*
X143782143Y-94923429D02*
X143782143Y-95939429D01*
X143479762Y-94342857D02*
X143177381Y-95431429D01*
X143963571Y-95431429D01*
X143177381Y-97100571D02*
X143237857Y-97028000D01*
X143358809Y-96955429D01*
X143661190Y-96955429D01*
X143782143Y-97028000D01*
X143842619Y-97100571D01*
X143903095Y-97245714D01*
X143903095Y-97390857D01*
X143842619Y-97608571D01*
X143116905Y-98479429D01*
X143903095Y-98479429D01*
X143479762Y-99495429D02*
X143600714Y-99495429D01*
X143721666Y-99568000D01*
X143782143Y-99640571D01*
X143842619Y-99785714D01*
X143903095Y-100076000D01*
X143903095Y-100438857D01*
X143842619Y-100729143D01*
X143782143Y-100874286D01*
X143721666Y-100946857D01*
X143600714Y-101019429D01*
X143479762Y-101019429D01*
X143358809Y-100946857D01*
X143298333Y-100874286D01*
X143237857Y-100729143D01*
X143177381Y-100438857D01*
X143177381Y-100076000D01*
X143237857Y-99785714D01*
X143298333Y-99640571D01*
X143358809Y-99568000D01*
X143479762Y-99495429D01*
X141272381Y-74295000D02*
X141151429Y-74234524D01*
X140970000Y-74234524D01*
X140788572Y-74295000D01*
X140667619Y-74415952D01*
X140607143Y-74536905D01*
X140546667Y-74778810D01*
X140546667Y-74960238D01*
X140607143Y-75202143D01*
X140667619Y-75323095D01*
X140788572Y-75444048D01*
X140970000Y-75504524D01*
X141090952Y-75504524D01*
X141272381Y-75444048D01*
X141332857Y-75383571D01*
X141332857Y-74960238D01*
X141090952Y-74960238D01*
X141877143Y-75504524D02*
X141877143Y-74234524D01*
X142602857Y-75504524D01*
X142602857Y-74234524D01*
X143207619Y-75504524D02*
X143207619Y-74234524D01*
X143510000Y-74234524D01*
X143691428Y-74295000D01*
X143812381Y-74415952D01*
X143872857Y-74536905D01*
X143933333Y-74778810D01*
X143933333Y-74960238D01*
X143872857Y-75202143D01*
X143812381Y-75323095D01*
X143691428Y-75444048D01*
X143510000Y-75504524D01*
X143207619Y-75504524D01*
D12*
X109129286Y-87569523D02*
X109129286Y-87146190D01*
X109794524Y-86964761D02*
X109794524Y-87569523D01*
X108524524Y-87569523D01*
X108524524Y-86964761D01*
X109734048Y-86480951D02*
X109794524Y-86299523D01*
X109794524Y-85997142D01*
X109734048Y-85876189D01*
X109673571Y-85815713D01*
X109552619Y-85755237D01*
X109431667Y-85755237D01*
X109310714Y-85815713D01*
X109250238Y-85876189D01*
X109189762Y-85997142D01*
X109129286Y-86239046D01*
X109068810Y-86359999D01*
X109008333Y-86420475D01*
X108887381Y-86480951D01*
X108766429Y-86480951D01*
X108645476Y-86420475D01*
X108585000Y-86359999D01*
X108524524Y-86239046D01*
X108524524Y-85936666D01*
X108585000Y-85755237D01*
X109794524Y-85210951D02*
X108524524Y-85210951D01*
X108524524Y-84727142D01*
X108585000Y-84606189D01*
X108645476Y-84545713D01*
X108766429Y-84485237D01*
X108947857Y-84485237D01*
X109068810Y-84545713D01*
X109129286Y-84606189D01*
X109189762Y-84727142D01*
X109189762Y-85210951D01*
X109310714Y-83940951D02*
X109310714Y-82973332D01*
X109734048Y-82429046D02*
X109794524Y-82247618D01*
X109794524Y-81945237D01*
X109734048Y-81824284D01*
X109673571Y-81763808D01*
X109552619Y-81703332D01*
X109431667Y-81703332D01*
X109310714Y-81763808D01*
X109250238Y-81824284D01*
X109189762Y-81945237D01*
X109129286Y-82187141D01*
X109068810Y-82308094D01*
X109008333Y-82368570D01*
X108887381Y-82429046D01*
X108766429Y-82429046D01*
X108645476Y-82368570D01*
X108585000Y-82308094D01*
X108524524Y-82187141D01*
X108524524Y-81884761D01*
X108585000Y-81703332D01*
X109734048Y-80675237D02*
X109794524Y-80796189D01*
X109794524Y-81038094D01*
X109734048Y-81159046D01*
X109613095Y-81219522D01*
X109129286Y-81219522D01*
X109008333Y-81159046D01*
X108947857Y-81038094D01*
X108947857Y-80796189D01*
X109008333Y-80675237D01*
X109129286Y-80614760D01*
X109250238Y-80614760D01*
X109371190Y-81219522D01*
X108947857Y-80070475D02*
X109794524Y-80070475D01*
X109068810Y-80070475D02*
X109008333Y-80009999D01*
X108947857Y-79889046D01*
X108947857Y-79707618D01*
X109008333Y-79586666D01*
X109129286Y-79526189D01*
X109794524Y-79526189D01*
X109734048Y-78981903D02*
X109794524Y-78860951D01*
X109794524Y-78619046D01*
X109734048Y-78498094D01*
X109613095Y-78437618D01*
X109552619Y-78437618D01*
X109431667Y-78498094D01*
X109371190Y-78619046D01*
X109371190Y-78800475D01*
X109310714Y-78921427D01*
X109189762Y-78981903D01*
X109129286Y-78981903D01*
X109008333Y-78921427D01*
X108947857Y-78800475D01*
X108947857Y-78619046D01*
X109008333Y-78498094D01*
X109794524Y-77711903D02*
X109734048Y-77832856D01*
X109673571Y-77893332D01*
X109552619Y-77953808D01*
X109189762Y-77953808D01*
X109068810Y-77893332D01*
X109008333Y-77832856D01*
X108947857Y-77711903D01*
X108947857Y-77530475D01*
X109008333Y-77409523D01*
X109068810Y-77349046D01*
X109189762Y-77288570D01*
X109552619Y-77288570D01*
X109673571Y-77349046D01*
X109734048Y-77409523D01*
X109794524Y-77530475D01*
X109794524Y-77711903D01*
X109794524Y-76744284D02*
X108947857Y-76744284D01*
X109189762Y-76744284D02*
X109068810Y-76683808D01*
X109008333Y-76623332D01*
X108947857Y-76502379D01*
X108947857Y-76381427D01*
X109734048Y-76018570D02*
X109794524Y-75897618D01*
X109794524Y-75655713D01*
X109734048Y-75534761D01*
X109613095Y-75474285D01*
X109552619Y-75474285D01*
X109431667Y-75534761D01*
X109371190Y-75655713D01*
X109371190Y-75837142D01*
X109310714Y-75958094D01*
X109189762Y-76018570D01*
X109129286Y-76018570D01*
X109008333Y-75958094D01*
X108947857Y-75837142D01*
X108947857Y-75655713D01*
X109008333Y-75534761D01*
X109794524Y-73962380D02*
X108947857Y-73962380D01*
X109189762Y-73962380D02*
X109068810Y-73901904D01*
X109008333Y-73841428D01*
X108947857Y-73720475D01*
X108947857Y-73599523D01*
X109734048Y-72692381D02*
X109794524Y-72813333D01*
X109794524Y-73055238D01*
X109734048Y-73176190D01*
X109613095Y-73236666D01*
X109129286Y-73236666D01*
X109008333Y-73176190D01*
X108947857Y-73055238D01*
X108947857Y-72813333D01*
X109008333Y-72692381D01*
X109129286Y-72631904D01*
X109250238Y-72631904D01*
X109371190Y-73236666D01*
X108947857Y-72208571D02*
X109794524Y-71906190D01*
X108947857Y-71603810D01*
X109673571Y-71120000D02*
X109734048Y-71059524D01*
X109794524Y-71120000D01*
X109734048Y-71180476D01*
X109673571Y-71120000D01*
X109794524Y-71120000D01*
X109794524Y-69850000D02*
X109794524Y-70575714D01*
X109794524Y-70212857D02*
X108524524Y-70212857D01*
X108705952Y-70333809D01*
X108826905Y-70454762D01*
X108887381Y-70575714D01*
D13*
X165735000Y-115570000D02*
X165735000Y-109855000D01*
X107315000Y-115570000D02*
X165735000Y-115570000D01*
X107315000Y-61595000D02*
X107315000Y-115570000D01*
X165735000Y-61595000D02*
X165735000Y-109855000D01*
X107315000Y-61595000D02*
X165735000Y-61595000D01*
D14*
X118999000Y-87249000D02*
X118999000Y-88011000D01*
X118999000Y-88011000D02*
X135001000Y-88011000D01*
X135001000Y-88011000D02*
X135001000Y-87249000D01*
D15*
X132295000Y-97635000D02*
X132295000Y-96635000D01*
X130595000Y-96635000D02*
X130595000Y-97635000D01*
X138088000Y-96528000D02*
X138088000Y-97528000D01*
X139788000Y-97528000D02*
X139788000Y-96528000D01*
X118899738Y-102576978D02*
G75*
G03X118897400Y-108242100I1115262J-2833022D01*
G01*
X121130262Y-108243022D02*
G75*
G03X121132600Y-102577900I-1115262J2833022D01*
G01*
X117475000Y-102108000D02*
X118897400Y-102108000D01*
X116713000Y-108712000D02*
X118897400Y-108712000D01*
X123317000Y-108712000D02*
X121132600Y-108712000D01*
X122555000Y-102108000D02*
X121132600Y-102108000D01*
X116713000Y-108712000D02*
X116713000Y-102870000D01*
X116713000Y-102870000D02*
X117475000Y-102108000D01*
X122555000Y-102108000D02*
X123317000Y-102870000D01*
X123317000Y-102870000D02*
X123317000Y-108712000D01*
X139065000Y-66955000D02*
X137515000Y-66955000D01*
X137515000Y-66955000D02*
X137515000Y-63855000D01*
X137515000Y-63855000D02*
X139065000Y-63855000D01*
X140335000Y-64135000D02*
X150495000Y-64135000D01*
X150495000Y-64135000D02*
X150495000Y-66675000D01*
X150495000Y-66675000D02*
X140335000Y-66675000D01*
X140335000Y-64135000D02*
X140335000Y-66675000D01*
X144780000Y-99060000D02*
X144780000Y-71120000D01*
X144780000Y-71120000D02*
X147320000Y-71120000D01*
X147320000Y-71120000D02*
X147320000Y-99060000D01*
X144500000Y-101880000D02*
X144500000Y-100330000D01*
X144780000Y-99060000D02*
X147320000Y-99060000D01*
X147600000Y-100330000D02*
X147600000Y-101880000D01*
X147600000Y-101880000D02*
X144500000Y-101880000D01*
X109855000Y-93345000D02*
X109855000Y-100965000D01*
X112395000Y-93345000D02*
X112395000Y-100965000D01*
X112675000Y-90525000D02*
X112675000Y-92075000D01*
X109855000Y-100965000D02*
X112395000Y-100965000D01*
X112395000Y-93345000D02*
X109855000Y-93345000D01*
X109575000Y-92075000D02*
X109575000Y-90525000D01*
X109575000Y-90525000D02*
X112675000Y-90525000D01*
X113425000Y-76880000D02*
X113425000Y-75680000D01*
X115175000Y-75680000D02*
X115175000Y-76880000D01*
X126760000Y-97675000D02*
X126760000Y-96475000D01*
X128510000Y-96475000D02*
X128510000Y-97675000D01*
X136130000Y-96475000D02*
X136130000Y-97675000D01*
X134380000Y-97675000D02*
X134380000Y-96475000D01*
X129270000Y-112180000D02*
X133770000Y-112180000D01*
X128020000Y-108180000D02*
X128020000Y-109680000D01*
X133770000Y-105680000D02*
X129270000Y-105680000D01*
X135020000Y-109680000D02*
X135020000Y-108180000D01*
X140700000Y-112180000D02*
X145200000Y-112180000D01*
X139450000Y-108180000D02*
X139450000Y-109680000D01*
X145200000Y-105680000D02*
X140700000Y-105680000D01*
X146450000Y-109680000D02*
X146450000Y-108180000D01*
X119626380Y-93985080D02*
X119926100Y-94234000D01*
X119926100Y-94234000D02*
X120075960Y-94335600D01*
X120075960Y-94335600D02*
X119227600Y-94335600D01*
X121127520Y-93634560D02*
X119326660Y-93634560D01*
X121127520Y-93634560D02*
X121127520Y-94284800D01*
X121127520Y-98135440D02*
X119326660Y-98135440D01*
X121127520Y-98135440D02*
X121127520Y-97485200D01*
X149860000Y-73660000D02*
X162560000Y-73660000D01*
X162560000Y-73660000D02*
X162560000Y-76200000D01*
X162560000Y-76200000D02*
X149860000Y-76200000D01*
X147040000Y-73380000D02*
X148590000Y-73380000D01*
X149860000Y-73660000D02*
X149860000Y-76200000D01*
X148590000Y-76480000D02*
X147040000Y-76480000D01*
X147040000Y-76480000D02*
X147040000Y-73380000D01*
X115570000Y-84455000D02*
X115570000Y-86995000D01*
X115850000Y-81635000D02*
X115850000Y-83185000D01*
X115570000Y-84455000D02*
X113030000Y-84455000D01*
X112750000Y-83185000D02*
X112750000Y-81635000D01*
X112750000Y-81635000D02*
X115850000Y-81635000D01*
X113030000Y-84455000D02*
X113030000Y-86995000D01*
X113030000Y-86995000D02*
X115570000Y-86995000D01*
D16*
X151580000Y-70930000D02*
X151580000Y-67921000D01*
X151580000Y-66699000D02*
X151580000Y-63810000D01*
X158300000Y-70930000D02*
X158300000Y-67921000D01*
X158300000Y-66699000D02*
X158300000Y-63810000D01*
X151580000Y-70930000D02*
X158300000Y-70930000D01*
X151580000Y-63810000D02*
X158300000Y-63810000D01*
D15*
X125603095Y-74382381D02*
X125603095Y-75191905D01*
X125650714Y-75287143D01*
X125698333Y-75334762D01*
X125793571Y-75382381D01*
X125984048Y-75382381D01*
X126079286Y-75334762D01*
X126126905Y-75287143D01*
X126174524Y-75191905D01*
X126174524Y-74382381D01*
X127174524Y-75382381D02*
X126603095Y-75382381D01*
X126888809Y-75382381D02*
X126888809Y-74382381D01*
X126793571Y-74525238D01*
X126698333Y-74620476D01*
X126603095Y-74668095D01*
X131802143Y-93130666D02*
X131849762Y-93178285D01*
X131897381Y-93321142D01*
X131897381Y-93416380D01*
X131849762Y-93559238D01*
X131754524Y-93654476D01*
X131659286Y-93702095D01*
X131468810Y-93749714D01*
X131325952Y-93749714D01*
X131135476Y-93702095D01*
X131040238Y-93654476D01*
X130945000Y-93559238D01*
X130897381Y-93416380D01*
X130897381Y-93321142D01*
X130945000Y-93178285D01*
X130992619Y-93130666D01*
X131897381Y-92178285D02*
X131897381Y-92749714D01*
X131897381Y-92464000D02*
X130897381Y-92464000D01*
X131040238Y-92559238D01*
X131135476Y-92654476D01*
X131183095Y-92749714D01*
X133675381Y-98575619D02*
X133675381Y-99147048D01*
X133675381Y-98861334D02*
X132675381Y-98861334D01*
X132818238Y-98956572D01*
X132913476Y-99051810D01*
X132961095Y-99147048D01*
X132675381Y-97956572D02*
X132675381Y-97861333D01*
X132723000Y-97766095D01*
X132770619Y-97718476D01*
X132865857Y-97670857D01*
X133056333Y-97623238D01*
X133294429Y-97623238D01*
X133484905Y-97670857D01*
X133580143Y-97718476D01*
X133627762Y-97766095D01*
X133675381Y-97861333D01*
X133675381Y-97956572D01*
X133627762Y-98051810D01*
X133580143Y-98099429D01*
X133484905Y-98147048D01*
X133294429Y-98194667D01*
X133056333Y-98194667D01*
X132865857Y-98147048D01*
X132770619Y-98099429D01*
X132723000Y-98051810D01*
X132675381Y-97956572D01*
X132675381Y-97004191D02*
X132675381Y-96908952D01*
X132723000Y-96813714D01*
X132770619Y-96766095D01*
X132865857Y-96718476D01*
X133056333Y-96670857D01*
X133294429Y-96670857D01*
X133484905Y-96718476D01*
X133580143Y-96766095D01*
X133627762Y-96813714D01*
X133675381Y-96908952D01*
X133675381Y-97004191D01*
X133627762Y-97099429D01*
X133580143Y-97147048D01*
X133484905Y-97194667D01*
X133294429Y-97242286D01*
X133056333Y-97242286D01*
X132865857Y-97194667D01*
X132770619Y-97147048D01*
X132723000Y-97099429D01*
X132675381Y-97004191D01*
X133008714Y-96242286D02*
X133675381Y-96242286D01*
X133103952Y-96242286D02*
X133056333Y-96194667D01*
X133008714Y-96099429D01*
X133008714Y-95956571D01*
X133056333Y-95861333D01*
X133151571Y-95813714D01*
X133675381Y-95813714D01*
X133151571Y-95004190D02*
X133151571Y-95337524D01*
X133675381Y-95337524D02*
X132675381Y-95337524D01*
X132675381Y-94861333D01*
X139295143Y-93130666D02*
X139342762Y-93178285D01*
X139390381Y-93321142D01*
X139390381Y-93416380D01*
X139342762Y-93559238D01*
X139247524Y-93654476D01*
X139152286Y-93702095D01*
X138961810Y-93749714D01*
X138818952Y-93749714D01*
X138628476Y-93702095D01*
X138533238Y-93654476D01*
X138438000Y-93559238D01*
X138390381Y-93416380D01*
X138390381Y-93321142D01*
X138438000Y-93178285D01*
X138485619Y-93130666D01*
X138485619Y-92749714D02*
X138438000Y-92702095D01*
X138390381Y-92606857D01*
X138390381Y-92368761D01*
X138438000Y-92273523D01*
X138485619Y-92225904D01*
X138580857Y-92178285D01*
X138676095Y-92178285D01*
X138818952Y-92225904D01*
X139390381Y-92797333D01*
X139390381Y-92178285D01*
X141490381Y-98575619D02*
X141490381Y-99147048D01*
X141490381Y-98861334D02*
X140490381Y-98861334D01*
X140633238Y-98956572D01*
X140728476Y-99051810D01*
X140776095Y-99147048D01*
X140490381Y-97956572D02*
X140490381Y-97861333D01*
X140538000Y-97766095D01*
X140585619Y-97718476D01*
X140680857Y-97670857D01*
X140871333Y-97623238D01*
X141109429Y-97623238D01*
X141299905Y-97670857D01*
X141395143Y-97718476D01*
X141442762Y-97766095D01*
X141490381Y-97861333D01*
X141490381Y-97956572D01*
X141442762Y-98051810D01*
X141395143Y-98099429D01*
X141299905Y-98147048D01*
X141109429Y-98194667D01*
X140871333Y-98194667D01*
X140680857Y-98147048D01*
X140585619Y-98099429D01*
X140538000Y-98051810D01*
X140490381Y-97956572D01*
X140490381Y-97004191D02*
X140490381Y-96908952D01*
X140538000Y-96813714D01*
X140585619Y-96766095D01*
X140680857Y-96718476D01*
X140871333Y-96670857D01*
X141109429Y-96670857D01*
X141299905Y-96718476D01*
X141395143Y-96766095D01*
X141442762Y-96813714D01*
X141490381Y-96908952D01*
X141490381Y-97004191D01*
X141442762Y-97099429D01*
X141395143Y-97147048D01*
X141299905Y-97194667D01*
X141109429Y-97242286D01*
X140871333Y-97242286D01*
X140680857Y-97194667D01*
X140585619Y-97147048D01*
X140538000Y-97099429D01*
X140490381Y-97004191D01*
X140823714Y-96242286D02*
X141490381Y-96242286D01*
X140918952Y-96242286D02*
X140871333Y-96194667D01*
X140823714Y-96099429D01*
X140823714Y-95956571D01*
X140871333Y-95861333D01*
X140966571Y-95813714D01*
X141490381Y-95813714D01*
X140966571Y-95004190D02*
X140966571Y-95337524D01*
X141490381Y-95337524D02*
X140490381Y-95337524D01*
X140490381Y-94861333D01*
X115939843Y-105576666D02*
X115987462Y-105624285D01*
X116035081Y-105767142D01*
X116035081Y-105862380D01*
X115987462Y-106005238D01*
X115892224Y-106100476D01*
X115796986Y-106148095D01*
X115606510Y-106195714D01*
X115463652Y-106195714D01*
X115273176Y-106148095D01*
X115177938Y-106100476D01*
X115082700Y-106005238D01*
X115035081Y-105862380D01*
X115035081Y-105767142D01*
X115082700Y-105624285D01*
X115130319Y-105576666D01*
X115035081Y-105243333D02*
X115035081Y-104624285D01*
X115416033Y-104957619D01*
X115416033Y-104814761D01*
X115463652Y-104719523D01*
X115511271Y-104671904D01*
X115606510Y-104624285D01*
X115844605Y-104624285D01*
X115939843Y-104671904D01*
X115987462Y-104719523D01*
X116035081Y-104814761D01*
X116035081Y-105100476D01*
X115987462Y-105195714D01*
X115939843Y-105243333D01*
X124899681Y-107029047D02*
X124899681Y-107600476D01*
X124899681Y-107314762D02*
X123899681Y-107314762D01*
X124042538Y-107410000D01*
X124137776Y-107505238D01*
X124185395Y-107600476D01*
X123899681Y-106410000D02*
X123899681Y-106314761D01*
X123947300Y-106219523D01*
X123994919Y-106171904D01*
X124090157Y-106124285D01*
X124280633Y-106076666D01*
X124518729Y-106076666D01*
X124709205Y-106124285D01*
X124804443Y-106171904D01*
X124852062Y-106219523D01*
X124899681Y-106314761D01*
X124899681Y-106410000D01*
X124852062Y-106505238D01*
X124804443Y-106552857D01*
X124709205Y-106600476D01*
X124518729Y-106648095D01*
X124280633Y-106648095D01*
X124090157Y-106600476D01*
X123994919Y-106552857D01*
X123947300Y-106505238D01*
X123899681Y-106410000D01*
X123899681Y-105457619D02*
X123899681Y-105362380D01*
X123947300Y-105267142D01*
X123994919Y-105219523D01*
X124090157Y-105171904D01*
X124280633Y-105124285D01*
X124518729Y-105124285D01*
X124709205Y-105171904D01*
X124804443Y-105219523D01*
X124852062Y-105267142D01*
X124899681Y-105362380D01*
X124899681Y-105457619D01*
X124852062Y-105552857D01*
X124804443Y-105600476D01*
X124709205Y-105648095D01*
X124518729Y-105695714D01*
X124280633Y-105695714D01*
X124090157Y-105648095D01*
X123994919Y-105600476D01*
X123947300Y-105552857D01*
X123899681Y-105457619D01*
X124233014Y-104695714D02*
X125233014Y-104695714D01*
X124756824Y-104219523D02*
X124852062Y-104171904D01*
X124899681Y-104076666D01*
X124756824Y-104695714D02*
X124852062Y-104648095D01*
X124899681Y-104552857D01*
X124899681Y-104362380D01*
X124852062Y-104267142D01*
X124756824Y-104219523D01*
X124233014Y-104219523D01*
X124375871Y-103314761D02*
X124375871Y-103648095D01*
X124899681Y-103648095D02*
X123899681Y-103648095D01*
X123899681Y-103171904D01*
X117178129Y-101511052D02*
X117178129Y-100749147D01*
X117559081Y-101130099D02*
X116797176Y-101130099D01*
X138096667Y-67397381D02*
X138096667Y-68111667D01*
X138049047Y-68254524D01*
X137953809Y-68349762D01*
X137810952Y-68397381D01*
X137715714Y-68397381D01*
X139096667Y-68397381D02*
X138525238Y-68397381D01*
X138810952Y-68397381D02*
X138810952Y-67397381D01*
X138715714Y-67540238D01*
X138620476Y-67635476D01*
X138525238Y-67683095D01*
X140541905Y-68397381D02*
X140541905Y-67397381D01*
X140922858Y-67397381D01*
X141018096Y-67445000D01*
X141065715Y-67492619D01*
X141113334Y-67587857D01*
X141113334Y-67730714D01*
X141065715Y-67825952D01*
X141018096Y-67873571D01*
X140922858Y-67921190D01*
X140541905Y-67921190D01*
X142113334Y-68397381D02*
X141780000Y-67921190D01*
X141541905Y-68397381D02*
X141541905Y-67397381D01*
X141922858Y-67397381D01*
X142018096Y-67445000D01*
X142065715Y-67492619D01*
X142113334Y-67587857D01*
X142113334Y-67730714D01*
X142065715Y-67825952D01*
X142018096Y-67873571D01*
X141922858Y-67921190D01*
X141541905Y-67921190D01*
X142732381Y-67397381D02*
X142922858Y-67397381D01*
X143018096Y-67445000D01*
X143113334Y-67540238D01*
X143160953Y-67730714D01*
X143160953Y-68064048D01*
X143113334Y-68254524D01*
X143018096Y-68349762D01*
X142922858Y-68397381D01*
X142732381Y-68397381D01*
X142637143Y-68349762D01*
X142541905Y-68254524D01*
X142494286Y-68064048D01*
X142494286Y-67730714D01*
X142541905Y-67540238D01*
X142637143Y-67445000D01*
X142732381Y-67397381D01*
X144113334Y-67445000D02*
X144018096Y-67397381D01*
X143875239Y-67397381D01*
X143732381Y-67445000D01*
X143637143Y-67540238D01*
X143589524Y-67635476D01*
X143541905Y-67825952D01*
X143541905Y-67968810D01*
X143589524Y-68159286D01*
X143637143Y-68254524D01*
X143732381Y-68349762D01*
X143875239Y-68397381D01*
X143970477Y-68397381D01*
X144113334Y-68349762D01*
X144160953Y-68302143D01*
X144160953Y-67968810D01*
X143970477Y-67968810D01*
X144351429Y-68492619D02*
X145113334Y-68492619D01*
X145922858Y-68302143D02*
X145875239Y-68349762D01*
X145732382Y-68397381D01*
X145637144Y-68397381D01*
X145494286Y-68349762D01*
X145399048Y-68254524D01*
X145351429Y-68159286D01*
X145303810Y-67968810D01*
X145303810Y-67825952D01*
X145351429Y-67635476D01*
X145399048Y-67540238D01*
X145494286Y-67445000D01*
X145637144Y-67397381D01*
X145732382Y-67397381D01*
X145875239Y-67445000D01*
X145922858Y-67492619D01*
X146541905Y-67397381D02*
X146732382Y-67397381D01*
X146827620Y-67445000D01*
X146922858Y-67540238D01*
X146970477Y-67730714D01*
X146970477Y-68064048D01*
X146922858Y-68254524D01*
X146827620Y-68349762D01*
X146732382Y-68397381D01*
X146541905Y-68397381D01*
X146446667Y-68349762D01*
X146351429Y-68254524D01*
X146303810Y-68064048D01*
X146303810Y-67730714D01*
X146351429Y-67540238D01*
X146446667Y-67445000D01*
X146541905Y-67397381D01*
X147399048Y-68397381D02*
X147399048Y-67397381D01*
X147970477Y-68397381D01*
X147970477Y-67397381D01*
X148446667Y-68397381D02*
X148446667Y-67397381D01*
X149018096Y-68397381D01*
X149018096Y-67397381D01*
X143176667Y-71842381D02*
X143176667Y-72556667D01*
X143129047Y-72699524D01*
X143033809Y-72794762D01*
X142890952Y-72842381D01*
X142795714Y-72842381D01*
X143605238Y-71937619D02*
X143652857Y-71890000D01*
X143748095Y-71842381D01*
X143986191Y-71842381D01*
X144081429Y-71890000D01*
X144129048Y-71937619D01*
X144176667Y-72032857D01*
X144176667Y-72128095D01*
X144129048Y-72270952D01*
X143557619Y-72842381D01*
X144176667Y-72842381D01*
X145050001Y-102930000D02*
X144954763Y-102882381D01*
X144811906Y-102882381D01*
X144669048Y-102930000D01*
X144573810Y-103025238D01*
X144526191Y-103120476D01*
X144478572Y-103310952D01*
X144478572Y-103453810D01*
X144526191Y-103644286D01*
X144573810Y-103739524D01*
X144669048Y-103834762D01*
X144811906Y-103882381D01*
X144907144Y-103882381D01*
X145050001Y-103834762D01*
X145097620Y-103787143D01*
X145097620Y-103453810D01*
X144907144Y-103453810D01*
X145526191Y-103882381D02*
X145526191Y-102882381D01*
X145907144Y-102882381D01*
X146002382Y-102930000D01*
X146050001Y-102977619D01*
X146097620Y-103072857D01*
X146097620Y-103215714D01*
X146050001Y-103310952D01*
X146002382Y-103358571D01*
X145907144Y-103406190D01*
X145526191Y-103406190D01*
X146526191Y-103882381D02*
X146526191Y-102882381D01*
X147192857Y-102882381D02*
X147383334Y-102882381D01*
X147478572Y-102930000D01*
X147573810Y-103025238D01*
X147621429Y-103215714D01*
X147621429Y-103549048D01*
X147573810Y-103739524D01*
X147478572Y-103834762D01*
X147383334Y-103882381D01*
X147192857Y-103882381D01*
X147097619Y-103834762D01*
X147002381Y-103739524D01*
X146954762Y-103549048D01*
X146954762Y-103215714D01*
X147002381Y-103025238D01*
X147097619Y-102930000D01*
X147192857Y-102882381D01*
X113752381Y-91773333D02*
X114466667Y-91773333D01*
X114609524Y-91820953D01*
X114704762Y-91916191D01*
X114752381Y-92059048D01*
X114752381Y-92154286D01*
X114085714Y-90868571D02*
X114752381Y-90868571D01*
X113704762Y-91106667D02*
X114419048Y-91344762D01*
X114419048Y-90725714D01*
X108656429Y-102329524D02*
X108656429Y-101567619D01*
X109037381Y-101948571D02*
X108275476Y-101948571D01*
X108037381Y-101186667D02*
X108037381Y-100567619D01*
X108418333Y-100900953D01*
X108418333Y-100758095D01*
X108465952Y-100662857D01*
X108513571Y-100615238D01*
X108608810Y-100567619D01*
X108846905Y-100567619D01*
X108942143Y-100615238D01*
X108989762Y-100662857D01*
X109037381Y-100758095D01*
X109037381Y-101043810D01*
X108989762Y-101139048D01*
X108942143Y-101186667D01*
X108942143Y-100139048D02*
X108989762Y-100091429D01*
X109037381Y-100139048D01*
X108989762Y-100186667D01*
X108942143Y-100139048D01*
X109037381Y-100139048D01*
X108037381Y-99758096D02*
X108037381Y-99139048D01*
X108418333Y-99472382D01*
X108418333Y-99329524D01*
X108465952Y-99234286D01*
X108513571Y-99186667D01*
X108608810Y-99139048D01*
X108846905Y-99139048D01*
X108942143Y-99186667D01*
X108989762Y-99234286D01*
X109037381Y-99329524D01*
X109037381Y-99615239D01*
X108989762Y-99710477D01*
X108942143Y-99758096D01*
X108037381Y-98853334D02*
X109037381Y-98520001D01*
X108037381Y-98186667D01*
X108085000Y-96567619D02*
X108037381Y-96662857D01*
X108037381Y-96805714D01*
X108085000Y-96948572D01*
X108180238Y-97043810D01*
X108275476Y-97091429D01*
X108465952Y-97139048D01*
X108608810Y-97139048D01*
X108799286Y-97091429D01*
X108894524Y-97043810D01*
X108989762Y-96948572D01*
X109037381Y-96805714D01*
X109037381Y-96710476D01*
X108989762Y-96567619D01*
X108942143Y-96520000D01*
X108608810Y-96520000D01*
X108608810Y-96710476D01*
X109037381Y-96091429D02*
X108037381Y-96091429D01*
X109037381Y-95520000D01*
X108037381Y-95520000D01*
X109037381Y-95043810D02*
X108037381Y-95043810D01*
X108037381Y-94805715D01*
X108085000Y-94662857D01*
X108180238Y-94567619D01*
X108275476Y-94520000D01*
X108465952Y-94472381D01*
X108608810Y-94472381D01*
X108799286Y-94520000D01*
X108894524Y-94567619D01*
X108989762Y-94662857D01*
X109037381Y-94805715D01*
X109037381Y-95043810D01*
X108656429Y-93281905D02*
X108656429Y-92520000D01*
X109037381Y-92900952D02*
X108275476Y-92900952D01*
X108037381Y-91567619D02*
X108037381Y-92043810D01*
X108513571Y-92091429D01*
X108465952Y-92043810D01*
X108418333Y-91948572D01*
X108418333Y-91710476D01*
X108465952Y-91615238D01*
X108513571Y-91567619D01*
X108608810Y-91520000D01*
X108846905Y-91520000D01*
X108942143Y-91567619D01*
X108989762Y-91615238D01*
X109037381Y-91710476D01*
X109037381Y-91948572D01*
X108989762Y-92043810D01*
X108942143Y-92091429D01*
X108037381Y-91234286D02*
X109037381Y-90900953D01*
X108037381Y-90567619D01*
X116852381Y-76446666D02*
X116376190Y-76780000D01*
X116852381Y-77018095D02*
X115852381Y-77018095D01*
X115852381Y-76637142D01*
X115900000Y-76541904D01*
X115947619Y-76494285D01*
X116042857Y-76446666D01*
X116185714Y-76446666D01*
X116280952Y-76494285D01*
X116328571Y-76541904D01*
X116376190Y-76637142D01*
X116376190Y-77018095D01*
X116852381Y-75494285D02*
X116852381Y-76065714D01*
X116852381Y-75780000D02*
X115852381Y-75780000D01*
X115995238Y-75875238D01*
X116090476Y-75970476D01*
X116138095Y-76065714D01*
X112652381Y-76970476D02*
X112652381Y-77541905D01*
X112652381Y-77256191D02*
X111652381Y-77256191D01*
X111795238Y-77351429D01*
X111890476Y-77446667D01*
X111938095Y-77541905D01*
X111652381Y-76351429D02*
X111652381Y-76256190D01*
X111700000Y-76160952D01*
X111747619Y-76113333D01*
X111842857Y-76065714D01*
X112033333Y-76018095D01*
X112271429Y-76018095D01*
X112461905Y-76065714D01*
X112557143Y-76113333D01*
X112604762Y-76160952D01*
X112652381Y-76256190D01*
X112652381Y-76351429D01*
X112604762Y-76446667D01*
X112557143Y-76494286D01*
X112461905Y-76541905D01*
X112271429Y-76589524D01*
X112033333Y-76589524D01*
X111842857Y-76541905D01*
X111747619Y-76494286D01*
X111700000Y-76446667D01*
X111652381Y-76351429D01*
X112652381Y-75589524D02*
X111652381Y-75589524D01*
X112652381Y-75018095D02*
X112080952Y-75446667D01*
X111652381Y-75018095D02*
X112223810Y-75589524D01*
X128087381Y-93384666D02*
X127611190Y-93718000D01*
X128087381Y-93956095D02*
X127087381Y-93956095D01*
X127087381Y-93575142D01*
X127135000Y-93479904D01*
X127182619Y-93432285D01*
X127277857Y-93384666D01*
X127420714Y-93384666D01*
X127515952Y-93432285D01*
X127563571Y-93479904D01*
X127611190Y-93575142D01*
X127611190Y-93956095D01*
X127182619Y-93003714D02*
X127135000Y-92956095D01*
X127087381Y-92860857D01*
X127087381Y-92622761D01*
X127135000Y-92527523D01*
X127182619Y-92479904D01*
X127277857Y-92432285D01*
X127373095Y-92432285D01*
X127515952Y-92479904D01*
X128087381Y-93051333D01*
X128087381Y-92432285D01*
X129865381Y-97845476D02*
X129865381Y-98416905D01*
X129865381Y-98131191D02*
X128865381Y-98131191D01*
X129008238Y-98226429D01*
X129103476Y-98321667D01*
X129151095Y-98416905D01*
X128865381Y-97226429D02*
X128865381Y-97131190D01*
X128913000Y-97035952D01*
X128960619Y-96988333D01*
X129055857Y-96940714D01*
X129246333Y-96893095D01*
X129484429Y-96893095D01*
X129674905Y-96940714D01*
X129770143Y-96988333D01*
X129817762Y-97035952D01*
X129865381Y-97131190D01*
X129865381Y-97226429D01*
X129817762Y-97321667D01*
X129770143Y-97369286D01*
X129674905Y-97416905D01*
X129484429Y-97464524D01*
X129246333Y-97464524D01*
X129055857Y-97416905D01*
X128960619Y-97369286D01*
X128913000Y-97321667D01*
X128865381Y-97226429D01*
X129865381Y-96464524D02*
X128865381Y-96464524D01*
X129865381Y-95893095D02*
X129293952Y-96321667D01*
X128865381Y-95893095D02*
X129436810Y-96464524D01*
X135834381Y-93257666D02*
X135358190Y-93591000D01*
X135834381Y-93829095D02*
X134834381Y-93829095D01*
X134834381Y-93448142D01*
X134882000Y-93352904D01*
X134929619Y-93305285D01*
X135024857Y-93257666D01*
X135167714Y-93257666D01*
X135262952Y-93305285D01*
X135310571Y-93352904D01*
X135358190Y-93448142D01*
X135358190Y-93829095D01*
X134834381Y-92924333D02*
X134834381Y-92305285D01*
X135215333Y-92638619D01*
X135215333Y-92495761D01*
X135262952Y-92400523D01*
X135310571Y-92352904D01*
X135405810Y-92305285D01*
X135643905Y-92305285D01*
X135739143Y-92352904D01*
X135786762Y-92400523D01*
X135834381Y-92495761D01*
X135834381Y-92781476D01*
X135786762Y-92876714D01*
X135739143Y-92924333D01*
X137807381Y-97765476D02*
X137807381Y-98336905D01*
X137807381Y-98051191D02*
X136807381Y-98051191D01*
X136950238Y-98146429D01*
X137045476Y-98241667D01*
X137093095Y-98336905D01*
X136807381Y-97146429D02*
X136807381Y-97051190D01*
X136855000Y-96955952D01*
X136902619Y-96908333D01*
X136997857Y-96860714D01*
X137188333Y-96813095D01*
X137426429Y-96813095D01*
X137616905Y-96860714D01*
X137712143Y-96908333D01*
X137759762Y-96955952D01*
X137807381Y-97051190D01*
X137807381Y-97146429D01*
X137759762Y-97241667D01*
X137712143Y-97289286D01*
X137616905Y-97336905D01*
X137426429Y-97384524D01*
X137188333Y-97384524D01*
X136997857Y-97336905D01*
X136902619Y-97289286D01*
X136855000Y-97241667D01*
X136807381Y-97146429D01*
X137807381Y-96384524D02*
X136807381Y-96384524D01*
X137807381Y-95813095D02*
X137235952Y-96241667D01*
X136807381Y-95813095D02*
X137378810Y-96384524D01*
X130186667Y-105084762D02*
X130329524Y-105132381D01*
X130567620Y-105132381D01*
X130662858Y-105084762D01*
X130710477Y-105037143D01*
X130758096Y-104941905D01*
X130758096Y-104846667D01*
X130710477Y-104751429D01*
X130662858Y-104703810D01*
X130567620Y-104656190D01*
X130377143Y-104608571D01*
X130281905Y-104560952D01*
X130234286Y-104513333D01*
X130186667Y-104418095D01*
X130186667Y-104322857D01*
X130234286Y-104227619D01*
X130281905Y-104180000D01*
X130377143Y-104132381D01*
X130615239Y-104132381D01*
X130758096Y-104180000D01*
X131091429Y-104132381D02*
X131329524Y-105132381D01*
X131520001Y-104418095D01*
X131710477Y-105132381D01*
X131948572Y-104132381D01*
X132853334Y-105132381D02*
X132281905Y-105132381D01*
X132567619Y-105132381D02*
X132567619Y-104132381D01*
X132472381Y-104275238D01*
X132377143Y-104370476D01*
X132281905Y-104418095D01*
X129865619Y-113990381D02*
X129532285Y-113514190D01*
X129294190Y-113990381D02*
X129294190Y-112990381D01*
X129675143Y-112990381D01*
X129770381Y-113038000D01*
X129818000Y-113085619D01*
X129865619Y-113180857D01*
X129865619Y-113323714D01*
X129818000Y-113418952D01*
X129770381Y-113466571D01*
X129675143Y-113514190D01*
X129294190Y-113514190D01*
X130294190Y-113466571D02*
X130627524Y-113466571D01*
X130770381Y-113990381D02*
X130294190Y-113990381D01*
X130294190Y-112990381D01*
X130770381Y-112990381D01*
X131151333Y-113942762D02*
X131294190Y-113990381D01*
X131532286Y-113990381D01*
X131627524Y-113942762D01*
X131675143Y-113895143D01*
X131722762Y-113799905D01*
X131722762Y-113704667D01*
X131675143Y-113609429D01*
X131627524Y-113561810D01*
X131532286Y-113514190D01*
X131341809Y-113466571D01*
X131246571Y-113418952D01*
X131198952Y-113371333D01*
X131151333Y-113276095D01*
X131151333Y-113180857D01*
X131198952Y-113085619D01*
X131246571Y-113038000D01*
X131341809Y-112990381D01*
X131579905Y-112990381D01*
X131722762Y-113038000D01*
X132151333Y-113466571D02*
X132484667Y-113466571D01*
X132627524Y-113990381D02*
X132151333Y-113990381D01*
X132151333Y-112990381D01*
X132627524Y-112990381D01*
X132913238Y-112990381D02*
X133484667Y-112990381D01*
X133198952Y-113990381D02*
X133198952Y-112990381D01*
X141616667Y-105084762D02*
X141759524Y-105132381D01*
X141997620Y-105132381D01*
X142092858Y-105084762D01*
X142140477Y-105037143D01*
X142188096Y-104941905D01*
X142188096Y-104846667D01*
X142140477Y-104751429D01*
X142092858Y-104703810D01*
X141997620Y-104656190D01*
X141807143Y-104608571D01*
X141711905Y-104560952D01*
X141664286Y-104513333D01*
X141616667Y-104418095D01*
X141616667Y-104322857D01*
X141664286Y-104227619D01*
X141711905Y-104180000D01*
X141807143Y-104132381D01*
X142045239Y-104132381D01*
X142188096Y-104180000D01*
X142521429Y-104132381D02*
X142759524Y-105132381D01*
X142950001Y-104418095D01*
X143140477Y-105132381D01*
X143378572Y-104132381D01*
X143711905Y-104227619D02*
X143759524Y-104180000D01*
X143854762Y-104132381D01*
X144092858Y-104132381D01*
X144188096Y-104180000D01*
X144235715Y-104227619D01*
X144283334Y-104322857D01*
X144283334Y-104418095D01*
X144235715Y-104560952D01*
X143664286Y-105132381D01*
X144283334Y-105132381D01*
X140962286Y-114117381D02*
X140962286Y-113117381D01*
X141343239Y-113117381D01*
X141438477Y-113165000D01*
X141486096Y-113212619D01*
X141533715Y-113307857D01*
X141533715Y-113450714D01*
X141486096Y-113545952D01*
X141438477Y-113593571D01*
X141343239Y-113641190D01*
X140962286Y-113641190D01*
X142533715Y-114117381D02*
X142200381Y-113641190D01*
X141962286Y-114117381D02*
X141962286Y-113117381D01*
X142343239Y-113117381D01*
X142438477Y-113165000D01*
X142486096Y-113212619D01*
X142533715Y-113307857D01*
X142533715Y-113450714D01*
X142486096Y-113545952D01*
X142438477Y-113593571D01*
X142343239Y-113641190D01*
X141962286Y-113641190D01*
X143152762Y-113117381D02*
X143343239Y-113117381D01*
X143438477Y-113165000D01*
X143533715Y-113260238D01*
X143581334Y-113450714D01*
X143581334Y-113784048D01*
X143533715Y-113974524D01*
X143438477Y-114069762D01*
X143343239Y-114117381D01*
X143152762Y-114117381D01*
X143057524Y-114069762D01*
X142962286Y-113974524D01*
X142914667Y-113784048D01*
X142914667Y-113450714D01*
X142962286Y-113260238D01*
X143057524Y-113165000D01*
X143152762Y-113117381D01*
X144533715Y-113165000D02*
X144438477Y-113117381D01*
X144295620Y-113117381D01*
X144152762Y-113165000D01*
X144057524Y-113260238D01*
X144009905Y-113355476D01*
X143962286Y-113545952D01*
X143962286Y-113688810D01*
X144009905Y-113879286D01*
X144057524Y-113974524D01*
X144152762Y-114069762D01*
X144295620Y-114117381D01*
X144390858Y-114117381D01*
X144533715Y-114069762D01*
X144581334Y-114022143D01*
X144581334Y-113688810D01*
X144390858Y-113688810D01*
X122642381Y-92836905D02*
X123451905Y-92836905D01*
X123547143Y-92789286D01*
X123594762Y-92741667D01*
X123642381Y-92646429D01*
X123642381Y-92455952D01*
X123594762Y-92360714D01*
X123547143Y-92313095D01*
X123451905Y-92265476D01*
X122642381Y-92265476D01*
X122737619Y-91836905D02*
X122690000Y-91789286D01*
X122642381Y-91694048D01*
X122642381Y-91455952D01*
X122690000Y-91360714D01*
X122737619Y-91313095D01*
X122832857Y-91265476D01*
X122928095Y-91265476D01*
X123070952Y-91313095D01*
X123642381Y-91884524D01*
X123642381Y-91265476D01*
X114752381Y-99726429D02*
X113752381Y-99726429D01*
X114228571Y-99726429D02*
X114228571Y-99155000D01*
X114752381Y-99155000D02*
X113752381Y-99155000D01*
X113752381Y-98821667D02*
X113752381Y-98250238D01*
X114752381Y-98535953D02*
X113752381Y-98535953D01*
X113752381Y-98012143D02*
X113752381Y-97345476D01*
X114752381Y-97774048D01*
X113752381Y-97059762D02*
X113752381Y-96440714D01*
X114133333Y-96774048D01*
X114133333Y-96631190D01*
X114180952Y-96535952D01*
X114228571Y-96488333D01*
X114323810Y-96440714D01*
X114561905Y-96440714D01*
X114657143Y-96488333D01*
X114704762Y-96535952D01*
X114752381Y-96631190D01*
X114752381Y-96916905D01*
X114704762Y-97012143D01*
X114657143Y-97059762D01*
X113752381Y-96107381D02*
X113752381Y-95488333D01*
X114133333Y-95821667D01*
X114133333Y-95678809D01*
X114180952Y-95583571D01*
X114228571Y-95535952D01*
X114323810Y-95488333D01*
X114561905Y-95488333D01*
X114657143Y-95535952D01*
X114704762Y-95583571D01*
X114752381Y-95678809D01*
X114752381Y-95964524D01*
X114704762Y-96059762D01*
X114657143Y-96107381D01*
X113752381Y-95155000D02*
X113752381Y-94535952D01*
X114133333Y-94869286D01*
X114133333Y-94726428D01*
X114180952Y-94631190D01*
X114228571Y-94583571D01*
X114323810Y-94535952D01*
X114561905Y-94535952D01*
X114657143Y-94583571D01*
X114704762Y-94631190D01*
X114752381Y-94726428D01*
X114752381Y-95012143D01*
X114704762Y-95107381D01*
X114657143Y-95155000D01*
X113752381Y-88618333D02*
X114466667Y-88618333D01*
X114609524Y-88665953D01*
X114704762Y-88761191D01*
X114752381Y-88904048D01*
X114752381Y-88999286D01*
X113752381Y-87665952D02*
X113752381Y-88142143D01*
X114228571Y-88189762D01*
X114180952Y-88142143D01*
X114133333Y-88046905D01*
X114133333Y-87808809D01*
X114180952Y-87713571D01*
X114228571Y-87665952D01*
X114323810Y-87618333D01*
X114561905Y-87618333D01*
X114657143Y-87665952D01*
X114704762Y-87713571D01*
X114752381Y-87808809D01*
X114752381Y-88046905D01*
X114704762Y-88142143D01*
X114657143Y-88189762D01*
X112212381Y-87518334D02*
X111212381Y-87518334D01*
X111212381Y-87280239D01*
X111260000Y-87137381D01*
X111355238Y-87042143D01*
X111450476Y-86994524D01*
X111640952Y-86946905D01*
X111783810Y-86946905D01*
X111974286Y-86994524D01*
X112069524Y-87042143D01*
X112164762Y-87137381D01*
X112212381Y-87280239D01*
X112212381Y-87518334D01*
X111688571Y-86518334D02*
X111688571Y-86185000D01*
X112212381Y-86042143D02*
X112212381Y-86518334D01*
X111212381Y-86518334D01*
X111212381Y-86042143D01*
X111688571Y-85613572D02*
X111688571Y-85280238D01*
X112212381Y-85137381D02*
X112212381Y-85613572D01*
X111212381Y-85613572D01*
X111212381Y-85137381D01*
X112212381Y-84708810D02*
X111212381Y-84708810D01*
X111212381Y-84327857D01*
X111260000Y-84232619D01*
X111307619Y-84185000D01*
X111402857Y-84137381D01*
X111545714Y-84137381D01*
X111640952Y-84185000D01*
X111688571Y-84232619D01*
X111736190Y-84327857D01*
X111736190Y-84708810D01*
X112307619Y-83946905D02*
X112307619Y-83185000D01*
X112164762Y-82994524D02*
X112212381Y-82851667D01*
X112212381Y-82613571D01*
X112164762Y-82518333D01*
X112117143Y-82470714D01*
X112021905Y-82423095D01*
X111926667Y-82423095D01*
X111831429Y-82470714D01*
X111783810Y-82518333D01*
X111736190Y-82613571D01*
X111688571Y-82804048D01*
X111640952Y-82899286D01*
X111593333Y-82946905D01*
X111498095Y-82994524D01*
X111402857Y-82994524D01*
X111307619Y-82946905D01*
X111260000Y-82899286D01*
X111212381Y-82804048D01*
X111212381Y-82565952D01*
X111260000Y-82423095D01*
X112212381Y-81518333D02*
X112212381Y-81994524D01*
X111212381Y-81994524D01*
X111688571Y-81185000D02*
X111688571Y-80851666D01*
X112212381Y-80708809D02*
X112212381Y-81185000D01*
X111212381Y-81185000D01*
X111212381Y-80708809D01*
X111688571Y-80280238D02*
X111688571Y-79946904D01*
X112212381Y-79804047D02*
X112212381Y-80280238D01*
X111212381Y-80280238D01*
X111212381Y-79804047D01*
X112212381Y-79375476D02*
X111212381Y-79375476D01*
X111212381Y-78994523D01*
X111260000Y-78899285D01*
X111307619Y-78851666D01*
X111402857Y-78804047D01*
X111545714Y-78804047D01*
X111640952Y-78851666D01*
X111688571Y-78899285D01*
X111736190Y-78994523D01*
X111736190Y-79375476D01*
X148058334Y-70302381D02*
X147486905Y-70302381D01*
X147772619Y-70302381D02*
X147772619Y-69302381D01*
X147677381Y-69445238D01*
X147582143Y-69540476D01*
X147486905Y-69588095D01*
X148677381Y-69302381D02*
X148772620Y-69302381D01*
X148867858Y-69350000D01*
X148915477Y-69397619D01*
X148963096Y-69492857D01*
X149010715Y-69683333D01*
X149010715Y-69921429D01*
X148963096Y-70111905D01*
X148915477Y-70207143D01*
X148867858Y-70254762D01*
X148772620Y-70302381D01*
X148677381Y-70302381D01*
X148582143Y-70254762D01*
X148534524Y-70207143D01*
X148486905Y-70111905D01*
X148439286Y-69921429D01*
X148439286Y-69683333D01*
X148486905Y-69492857D01*
X148534524Y-69397619D01*
X148582143Y-69350000D01*
X148677381Y-69302381D01*
X149439286Y-70302381D02*
X149439286Y-69302381D01*
X150010715Y-70302381D02*
X149582143Y-69730952D01*
X150010715Y-69302381D02*
X149439286Y-69873810D01*
X150963096Y-70302381D02*
X150391667Y-70302381D01*
X150677381Y-70302381D02*
X150677381Y-69302381D01*
X150582143Y-69445238D01*
X150486905Y-69540476D01*
X150391667Y-69588095D01*
X163496667Y-102322381D02*
X163496667Y-103036667D01*
X163449047Y-103179524D01*
X163353809Y-103274762D01*
X163210952Y-103322381D01*
X163115714Y-103322381D01*
X163877619Y-102322381D02*
X164496667Y-102322381D01*
X164163333Y-102703333D01*
X164306191Y-102703333D01*
X164401429Y-102750952D01*
X164449048Y-102798571D01*
X164496667Y-102893810D01*
X164496667Y-103131905D01*
X164449048Y-103227143D01*
X164401429Y-103274762D01*
X164306191Y-103322381D01*
X164020476Y-103322381D01*
X163925238Y-103274762D01*
X163877619Y-103227143D01*
X162806191Y-105179762D02*
X162949048Y-105227381D01*
X163187144Y-105227381D01*
X163282382Y-105179762D01*
X163330001Y-105132143D01*
X163377620Y-105036905D01*
X163377620Y-104941667D01*
X163330001Y-104846429D01*
X163282382Y-104798810D01*
X163187144Y-104751190D01*
X162996667Y-104703571D01*
X162901429Y-104655952D01*
X162853810Y-104608333D01*
X162806191Y-104513095D01*
X162806191Y-104417857D01*
X162853810Y-104322619D01*
X162901429Y-104275000D01*
X162996667Y-104227381D01*
X163234763Y-104227381D01*
X163377620Y-104275000D01*
X163806191Y-105227381D02*
X163806191Y-104227381D01*
X164187144Y-104227381D01*
X164282382Y-104275000D01*
X164330001Y-104322619D01*
X164377620Y-104417857D01*
X164377620Y-104560714D01*
X164330001Y-104655952D01*
X164282382Y-104703571D01*
X164187144Y-104751190D01*
X163806191Y-104751190D01*
X164806191Y-105227381D02*
X164806191Y-104227381D01*
M02*
