%TF.GenerationSoftware,KiCad,Pcbnew,4.0.6*%
%TF.CreationDate,2017-04-04T12:59:26+02:00*%
%TF.ProjectId,ESP-Sensors,4553502D53656E736F72732E6B696361,rev?*%
%TF.FileFunction,Soldermask,Bot*%
%FSLAX46Y46*%
G04 Gerber Fmt 4.6, Leading zero omitted, Abs format (unit mm)*
G04 Created by KiCad (PCBNEW 4.0.6) date 2017 April 04, Tuesday 12:59:26*
%MOMM*%
%LPD*%
G01*
G04 APERTURE LIST*
%ADD10C,0.100000*%
%ADD11R,2.900000X1.500000*%
%ADD12O,2.900000X1.500000*%
%ADD13O,1.500000X2.900000*%
%ADD14C,1.924000*%
%ADD15C,3.600000*%
%ADD16R,2.127200X2.432000*%
%ADD17O,2.127200X2.432000*%
%ADD18R,2.432000X2.127200*%
%ADD19O,2.432000X2.127200*%
%ADD20C,2.400000*%
%ADD21C,2.432000*%
%ADD22R,2.432000X2.432000*%
%ADD23O,2.432000X2.432000*%
%ADD24C,1.840000*%
G04 APERTURE END LIST*
D10*
D11*
X119315000Y-72390000D03*
D12*
X119315000Y-74390000D03*
X119315000Y-76390000D03*
X119315000Y-78390000D03*
X119315000Y-80390000D03*
X119315000Y-82390000D03*
X119315000Y-84390000D03*
X119315000Y-86390000D03*
X134715000Y-86390000D03*
X134615000Y-84390000D03*
X134715000Y-82390000D03*
X134715000Y-80390000D03*
X134715000Y-78390000D03*
X134715000Y-76390000D03*
X134715000Y-74390000D03*
X134715000Y-72390000D03*
D13*
X122005000Y-88090000D03*
X124005000Y-88090000D03*
X126005000Y-88090000D03*
X128005000Y-88090000D03*
X130005000Y-88090000D03*
X132005000Y-88090000D03*
D14*
X148590000Y-77470000D03*
X151130000Y-77470000D03*
X153670000Y-77470000D03*
X156210000Y-77470000D03*
X158750000Y-77470000D03*
X161290000Y-77470000D03*
X148590000Y-80010000D03*
X151130000Y-80010000D03*
X153670000Y-80010000D03*
X156210000Y-80010000D03*
X158750000Y-80010000D03*
X161290000Y-80010000D03*
X148590000Y-82550000D03*
X151130000Y-82550000D03*
X153670000Y-82550000D03*
X156210000Y-82550000D03*
X158750000Y-82550000D03*
X161290000Y-82550000D03*
X148590000Y-85090000D03*
X151130000Y-85090000D03*
X153670000Y-85090000D03*
X156210000Y-85090000D03*
X158750000Y-85090000D03*
X161290000Y-85090000D03*
X148590000Y-87630000D03*
X151130000Y-87630000D03*
X153670000Y-87630000D03*
X156210000Y-87630000D03*
X158750000Y-87630000D03*
X161290000Y-87630000D03*
X148590000Y-90170000D03*
X151130000Y-90170000D03*
X153670000Y-90170000D03*
X156210000Y-90170000D03*
X158750000Y-90170000D03*
X161290000Y-90170000D03*
X148590000Y-92710000D03*
X151130000Y-92710000D03*
X153670000Y-92710000D03*
X156210000Y-92710000D03*
X158750000Y-92710000D03*
X161290000Y-92710000D03*
X148590000Y-95250000D03*
X151130000Y-95250000D03*
X153670000Y-95250000D03*
X156210000Y-95250000D03*
X158750000Y-95250000D03*
X161290000Y-95250000D03*
X148590000Y-97790000D03*
X151130000Y-97790000D03*
X153670000Y-97790000D03*
X156210000Y-97790000D03*
X158750000Y-97790000D03*
X161290000Y-97790000D03*
X148590000Y-100330000D03*
X151130000Y-100330000D03*
X153670000Y-100330000D03*
X156210000Y-100330000D03*
X158750000Y-100330000D03*
X161290000Y-100330000D03*
D15*
X161925000Y-65405000D03*
D16*
X139065000Y-65405000D03*
D17*
X141605000Y-65405000D03*
X144145000Y-65405000D03*
X146685000Y-65405000D03*
X149225000Y-65405000D03*
D18*
X146050000Y-100330000D03*
D19*
X146050000Y-97790000D03*
X146050000Y-95250000D03*
X146050000Y-92710000D03*
X146050000Y-90170000D03*
X146050000Y-87630000D03*
X146050000Y-85090000D03*
X146050000Y-82550000D03*
X146050000Y-80010000D03*
X146050000Y-77470000D03*
X146050000Y-74930000D03*
X146050000Y-72390000D03*
D16*
X161290000Y-102870000D03*
D17*
X158750000Y-102870000D03*
X156210000Y-102870000D03*
X153670000Y-102870000D03*
X151130000Y-102870000D03*
D18*
X111125000Y-92075000D03*
D19*
X111125000Y-94615000D03*
X111125000Y-97155000D03*
X111125000Y-99695000D03*
D20*
X128270000Y-111180000D03*
X128270000Y-106680000D03*
X134770000Y-111180000D03*
X134770000Y-106680000D03*
X139700000Y-111180000D03*
X139700000Y-106680000D03*
X146200000Y-111180000D03*
X146200000Y-106680000D03*
D15*
X111125000Y-65405000D03*
X111125000Y-111760000D03*
X161925000Y-111760000D03*
D21*
X148717000Y-74930000D03*
X151257000Y-74930000D03*
X153797000Y-74930000D03*
X156337000Y-74930000D03*
X158877000Y-74930000D03*
X161417000Y-74930000D03*
D22*
X114300000Y-83185000D03*
D23*
X114300000Y-85725000D03*
D24*
X152400000Y-67310000D03*
X154940000Y-64770000D03*
X157480000Y-67310000D03*
M02*
