G04 #@! TF.FileFunction,Legend,Top*
%FSLAX46Y46*%
G04 Gerber Fmt 4.6, Leading zero omitted, Abs format (unit mm)*
G04 Created by KiCad (PCBNEW 4.0.6) date 2017 March 28, Tuesday 16:58:51*
%MOMM*%
%LPD*%
G01*
G04 APERTURE LIST*
%ADD10C,0.100000*%
%ADD11C,0.300000*%
%ADD12C,0.150000*%
%ADD13R,2.000000X2.400000*%
%ADD14R,2.400000X2.400000*%
%ADD15C,2.400000*%
%ADD16R,1.700000X1.900000*%
%ADD17R,1.950000X1.000000*%
G04 APERTURE END LIST*
D10*
D11*
X199262857Y-113545000D02*
X199120000Y-113473571D01*
X198905714Y-113473571D01*
X198691429Y-113545000D01*
X198548571Y-113687857D01*
X198477143Y-113830714D01*
X198405714Y-114116429D01*
X198405714Y-114330714D01*
X198477143Y-114616429D01*
X198548571Y-114759286D01*
X198691429Y-114902143D01*
X198905714Y-114973571D01*
X199048571Y-114973571D01*
X199262857Y-114902143D01*
X199334286Y-114830714D01*
X199334286Y-114330714D01*
X199048571Y-114330714D01*
X200548571Y-114902143D02*
X200405714Y-114973571D01*
X200120000Y-114973571D01*
X199977143Y-114902143D01*
X199905714Y-114759286D01*
X199905714Y-114187857D01*
X199977143Y-114045000D01*
X200120000Y-113973571D01*
X200405714Y-113973571D01*
X200548571Y-114045000D01*
X200620000Y-114187857D01*
X200620000Y-114330714D01*
X199905714Y-114473571D01*
X201048571Y-113973571D02*
X201620000Y-113973571D01*
X201262857Y-113473571D02*
X201262857Y-114759286D01*
X201334285Y-114902143D01*
X201477143Y-114973571D01*
X201620000Y-114973571D01*
X201905714Y-113973571D02*
X202477143Y-113973571D01*
X202120000Y-113473571D02*
X202120000Y-114759286D01*
X202191428Y-114902143D01*
X202334286Y-114973571D01*
X202477143Y-114973571D01*
X202977143Y-114973571D02*
X202977143Y-113973571D01*
X202977143Y-113473571D02*
X202905714Y-113545000D01*
X202977143Y-113616429D01*
X203048571Y-113545000D01*
X202977143Y-113473571D01*
X202977143Y-113616429D01*
X203691429Y-113973571D02*
X203691429Y-114973571D01*
X203691429Y-114116429D02*
X203762857Y-114045000D01*
X203905715Y-113973571D01*
X204120000Y-113973571D01*
X204262857Y-114045000D01*
X204334286Y-114187857D01*
X204334286Y-114973571D01*
X205691429Y-113973571D02*
X205691429Y-115187857D01*
X205620000Y-115330714D01*
X205548572Y-115402143D01*
X205405715Y-115473571D01*
X205191429Y-115473571D01*
X205048572Y-115402143D01*
X205691429Y-114902143D02*
X205548572Y-114973571D01*
X205262858Y-114973571D01*
X205120000Y-114902143D01*
X205048572Y-114830714D01*
X204977143Y-114687857D01*
X204977143Y-114259286D01*
X205048572Y-114116429D01*
X205120000Y-114045000D01*
X205262858Y-113973571D01*
X205548572Y-113973571D01*
X205691429Y-114045000D01*
X207334286Y-113973571D02*
X207905715Y-113973571D01*
X207548572Y-113473571D02*
X207548572Y-114759286D01*
X207620000Y-114902143D01*
X207762858Y-114973571D01*
X207905715Y-114973571D01*
X208620001Y-114973571D02*
X208477143Y-114902143D01*
X208405715Y-114830714D01*
X208334286Y-114687857D01*
X208334286Y-114259286D01*
X208405715Y-114116429D01*
X208477143Y-114045000D01*
X208620001Y-113973571D01*
X208834286Y-113973571D01*
X208977143Y-114045000D01*
X209048572Y-114116429D01*
X209120001Y-114259286D01*
X209120001Y-114687857D01*
X209048572Y-114830714D01*
X208977143Y-114902143D01*
X208834286Y-114973571D01*
X208620001Y-114973571D01*
X211405715Y-114187857D02*
X211620001Y-114259286D01*
X211691429Y-114330714D01*
X211762858Y-114473571D01*
X211762858Y-114687857D01*
X211691429Y-114830714D01*
X211620001Y-114902143D01*
X211477143Y-114973571D01*
X210905715Y-114973571D01*
X210905715Y-113473571D01*
X211405715Y-113473571D01*
X211548572Y-113545000D01*
X211620001Y-113616429D01*
X211691429Y-113759286D01*
X211691429Y-113902143D01*
X211620001Y-114045000D01*
X211548572Y-114116429D01*
X211405715Y-114187857D01*
X210905715Y-114187857D01*
X212620001Y-114973571D02*
X212477143Y-114902143D01*
X212405715Y-114759286D01*
X212405715Y-113473571D01*
X213191429Y-114973571D02*
X213191429Y-113973571D01*
X213191429Y-113473571D02*
X213120000Y-113545000D01*
X213191429Y-113616429D01*
X213262857Y-113545000D01*
X213191429Y-113473571D01*
X213191429Y-113616429D01*
X213905715Y-113973571D02*
X213905715Y-114973571D01*
X213905715Y-114116429D02*
X213977143Y-114045000D01*
X214120001Y-113973571D01*
X214334286Y-113973571D01*
X214477143Y-114045000D01*
X214548572Y-114187857D01*
X214548572Y-114973571D01*
X215262858Y-114973571D02*
X215262858Y-113473571D01*
X215405715Y-114402143D02*
X215834286Y-114973571D01*
X215834286Y-113973571D02*
X215262858Y-114545000D01*
X216334287Y-113973571D02*
X216691430Y-114973571D01*
X217048572Y-113973571D02*
X216691430Y-114973571D01*
X216548572Y-115330714D01*
X216477144Y-115402143D01*
X216334287Y-115473571D01*
X199691429Y-116380714D02*
X199548571Y-116309286D01*
X199262857Y-116309286D01*
X199120000Y-116380714D01*
X198977143Y-116523571D01*
X198905714Y-116666429D01*
X198905714Y-116952143D01*
X198977143Y-117095000D01*
X199120000Y-117237857D01*
X199262857Y-117309286D01*
X199548571Y-117309286D01*
X199691429Y-117237857D01*
X199405714Y-115809286D02*
X199048571Y-115880714D01*
X198691429Y-116095000D01*
X198477143Y-116452143D01*
X198405714Y-116809286D01*
X198477143Y-117166429D01*
X198691429Y-117523571D01*
X199048571Y-117737857D01*
X199405714Y-117809286D01*
X199762857Y-117737857D01*
X200120000Y-117523571D01*
X200334286Y-117166429D01*
X200405714Y-116809286D01*
X200334286Y-116452143D01*
X200120000Y-116095000D01*
X199762857Y-115880714D01*
X199405714Y-115809286D01*
X202120000Y-117095000D02*
X202834286Y-117095000D01*
X201977143Y-117523571D02*
X202477143Y-116023571D01*
X202977143Y-117523571D01*
X203334286Y-117523571D02*
X204120000Y-116523571D01*
X203334286Y-116523571D02*
X204120000Y-117523571D01*
X205262857Y-117452143D02*
X205120000Y-117523571D01*
X204834286Y-117523571D01*
X204691429Y-117452143D01*
X204620000Y-117309286D01*
X204620000Y-116737857D01*
X204691429Y-116595000D01*
X204834286Y-116523571D01*
X205120000Y-116523571D01*
X205262857Y-116595000D01*
X205334286Y-116737857D01*
X205334286Y-116880714D01*
X204620000Y-117023571D01*
X206191429Y-117523571D02*
X206048571Y-117452143D01*
X205977143Y-117309286D01*
X205977143Y-116023571D01*
X206977143Y-117523571D02*
X206834285Y-117452143D01*
X206762857Y-117309286D01*
X206762857Y-116023571D01*
X207762857Y-117523571D02*
X207619999Y-117452143D01*
X207548571Y-117380714D01*
X207477142Y-117237857D01*
X207477142Y-116809286D01*
X207548571Y-116666429D01*
X207619999Y-116595000D01*
X207762857Y-116523571D01*
X207977142Y-116523571D01*
X208119999Y-116595000D01*
X208191428Y-116666429D01*
X208262857Y-116809286D01*
X208262857Y-117237857D01*
X208191428Y-117380714D01*
X208119999Y-117452143D01*
X207977142Y-117523571D01*
X207762857Y-117523571D01*
D12*
X223275000Y-136890000D02*
X223275000Y-134890000D01*
X221225000Y-134890000D02*
X221225000Y-136890000D01*
X214829000Y-135846000D02*
X214829000Y-136046000D01*
X214829000Y-138440000D02*
X214829000Y-138260000D01*
X211601256Y-138129643D02*
G75*
G03X214829000Y-138446000I1727744J1003643D01*
G01*
X212276994Y-138259068D02*
G75*
G03X214380000Y-138260000I1052006J1133068D01*
G01*
X214816220Y-135819274D02*
G75*
G03X211579000Y-136166000I-1497220J-1306726D01*
G01*
X214342889Y-136046747D02*
G75*
G03X212295000Y-136066000I-1013889J-1079253D01*
G01*
X221375000Y-118075000D02*
X221375000Y-116875000D01*
X223125000Y-116875000D02*
X223125000Y-118075000D01*
X221375000Y-127600000D02*
X221375000Y-126400000D01*
X223125000Y-126400000D02*
X223125000Y-127600000D01*
X206135000Y-137125000D02*
X206135000Y-135925000D01*
X207885000Y-135925000D02*
X207885000Y-137125000D01*
X211285000Y-124425000D02*
X211285000Y-124475000D01*
X215435000Y-124425000D02*
X215435000Y-124570000D01*
X215435000Y-129575000D02*
X215435000Y-129430000D01*
X211285000Y-129575000D02*
X211285000Y-129430000D01*
X211285000Y-124425000D02*
X215435000Y-124425000D01*
X211285000Y-129575000D02*
X215435000Y-129575000D01*
X211285000Y-124475000D02*
X209885000Y-124475000D01*
X224383334Y-136247143D02*
X224335715Y-136294762D01*
X224192858Y-136342381D01*
X224097620Y-136342381D01*
X223954762Y-136294762D01*
X223859524Y-136199524D01*
X223811905Y-136104286D01*
X223764286Y-135913810D01*
X223764286Y-135770952D01*
X223811905Y-135580476D01*
X223859524Y-135485238D01*
X223954762Y-135390000D01*
X224097620Y-135342381D01*
X224192858Y-135342381D01*
X224335715Y-135390000D01*
X224383334Y-135437619D01*
X225335715Y-136342381D02*
X224764286Y-136342381D01*
X225050000Y-136342381D02*
X225050000Y-135342381D01*
X224954762Y-135485238D01*
X224859524Y-135580476D01*
X224764286Y-135628095D01*
X211981905Y-134552381D02*
X211981905Y-133552381D01*
X212220000Y-133552381D01*
X212362858Y-133600000D01*
X212458096Y-133695238D01*
X212505715Y-133790476D01*
X212553334Y-133980952D01*
X212553334Y-134123810D01*
X212505715Y-134314286D01*
X212458096Y-134409524D01*
X212362858Y-134504762D01*
X212220000Y-134552381D01*
X211981905Y-134552381D01*
X213505715Y-134552381D02*
X212934286Y-134552381D01*
X213220000Y-134552381D02*
X213220000Y-133552381D01*
X213124762Y-133695238D01*
X213029524Y-133790476D01*
X212934286Y-133838095D01*
X224183334Y-117927381D02*
X223850000Y-117451190D01*
X223611905Y-117927381D02*
X223611905Y-116927381D01*
X223992858Y-116927381D01*
X224088096Y-116975000D01*
X224135715Y-117022619D01*
X224183334Y-117117857D01*
X224183334Y-117260714D01*
X224135715Y-117355952D01*
X224088096Y-117403571D01*
X223992858Y-117451190D01*
X223611905Y-117451190D01*
X225135715Y-117927381D02*
X224564286Y-117927381D01*
X224850000Y-117927381D02*
X224850000Y-116927381D01*
X224754762Y-117070238D01*
X224659524Y-117165476D01*
X224564286Y-117213095D01*
X224183334Y-127452381D02*
X223850000Y-126976190D01*
X223611905Y-127452381D02*
X223611905Y-126452381D01*
X223992858Y-126452381D01*
X224088096Y-126500000D01*
X224135715Y-126547619D01*
X224183334Y-126642857D01*
X224183334Y-126785714D01*
X224135715Y-126880952D01*
X224088096Y-126928571D01*
X223992858Y-126976190D01*
X223611905Y-126976190D01*
X224564286Y-126547619D02*
X224611905Y-126500000D01*
X224707143Y-126452381D01*
X224945239Y-126452381D01*
X225040477Y-126500000D01*
X225088096Y-126547619D01*
X225135715Y-126642857D01*
X225135715Y-126738095D01*
X225088096Y-126880952D01*
X224516667Y-127452381D01*
X225135715Y-127452381D01*
X208943334Y-136977381D02*
X208610000Y-136501190D01*
X208371905Y-136977381D02*
X208371905Y-135977381D01*
X208752858Y-135977381D01*
X208848096Y-136025000D01*
X208895715Y-136072619D01*
X208943334Y-136167857D01*
X208943334Y-136310714D01*
X208895715Y-136405952D01*
X208848096Y-136453571D01*
X208752858Y-136501190D01*
X208371905Y-136501190D01*
X209276667Y-135977381D02*
X209895715Y-135977381D01*
X209562381Y-136358333D01*
X209705239Y-136358333D01*
X209800477Y-136405952D01*
X209848096Y-136453571D01*
X209895715Y-136548810D01*
X209895715Y-136786905D01*
X209848096Y-136882143D01*
X209800477Y-136929762D01*
X209705239Y-136977381D01*
X209419524Y-136977381D01*
X209324286Y-136929762D01*
X209276667Y-136882143D01*
X212598095Y-122952381D02*
X212598095Y-123761905D01*
X212645714Y-123857143D01*
X212693333Y-123904762D01*
X212788571Y-123952381D01*
X212979048Y-123952381D01*
X213074286Y-123904762D01*
X213121905Y-123857143D01*
X213169524Y-123761905D01*
X213169524Y-122952381D01*
X214169524Y-123952381D02*
X213598095Y-123952381D01*
X213883809Y-123952381D02*
X213883809Y-122952381D01*
X213788571Y-123095238D01*
X213693333Y-123190476D01*
X213598095Y-123238095D01*
%LPC*%
D13*
X222250000Y-133890000D03*
X222250000Y-137890000D03*
D14*
X214630000Y-137160000D03*
D15*
X212090000Y-137160000D03*
D16*
X222250000Y-116125000D03*
X222250000Y-118825000D03*
X222250000Y-125650000D03*
X222250000Y-128350000D03*
X207010000Y-135175000D03*
X207010000Y-137875000D03*
D17*
X210660000Y-125095000D03*
X210660000Y-126365000D03*
X210660000Y-127635000D03*
X210660000Y-128905000D03*
X216060000Y-128905000D03*
X216060000Y-127635000D03*
X216060000Y-126365000D03*
X216060000Y-125095000D03*
M02*
