%TF.GenerationSoftware,KiCad,Pcbnew,(6.0.4-0)*%
%TF.CreationDate,2023-05-22T14:10:51+02:00*%
%TF.ProjectId,NodeMCU-Metriful,4e6f6465-4d43-4552-9d4d-657472696675,rev?*%
%TF.SameCoordinates,Original*%
%TF.FileFunction,Legend,Top*%
%TF.FilePolarity,Positive*%
%FSLAX46Y46*%
G04 Gerber Fmt 4.6, Leading zero omitted, Abs format (unit mm)*
G04 Created by KiCad (PCBNEW (6.0.4-0)) date 2023-05-22 14:10:51*
%MOMM*%
%LPD*%
G01*
G04 APERTURE LIST*
%ADD10C,0.300000*%
%ADD11C,0.150000*%
%ADD12C,0.015000*%
%ADD13C,0.120000*%
%ADD14C,0.203200*%
%ADD15C,0.100000*%
%ADD16C,1.524000*%
G04 APERTURE END LIST*
D10*
X93388571Y-97197857D02*
X91888571Y-97197857D01*
X93388571Y-96555000D02*
X92602857Y-96555000D01*
X92460000Y-96626428D01*
X92388571Y-96769285D01*
X92388571Y-96983571D01*
X92460000Y-97126428D01*
X92531428Y-97197857D01*
X93317142Y-95269285D02*
X93388571Y-95412142D01*
X93388571Y-95697857D01*
X93317142Y-95840714D01*
X93174285Y-95912142D01*
X92602857Y-95912142D01*
X92460000Y-95840714D01*
X92388571Y-95697857D01*
X92388571Y-95412142D01*
X92460000Y-95269285D01*
X92602857Y-95197857D01*
X92745714Y-95197857D01*
X92888571Y-95912142D01*
X93388571Y-93912142D02*
X92602857Y-93912142D01*
X92460000Y-93983571D01*
X92388571Y-94126428D01*
X92388571Y-94412142D01*
X92460000Y-94555000D01*
X93317142Y-93912142D02*
X93388571Y-94055000D01*
X93388571Y-94412142D01*
X93317142Y-94555000D01*
X93174285Y-94626428D01*
X93031428Y-94626428D01*
X92888571Y-94555000D01*
X92817142Y-94412142D01*
X92817142Y-94055000D01*
X92745714Y-93912142D01*
X92388571Y-93412142D02*
X92388571Y-92840714D01*
X91888571Y-93197857D02*
X93174285Y-93197857D01*
X93317142Y-93126428D01*
X93388571Y-92983571D01*
X93388571Y-92840714D01*
X93388571Y-91197857D02*
X91888571Y-91197857D01*
X92460000Y-91197857D02*
X92388571Y-91055000D01*
X92388571Y-90769285D01*
X92460000Y-90626428D01*
X92531428Y-90555000D01*
X92674285Y-90483571D01*
X93102857Y-90483571D01*
X93245714Y-90555000D01*
X93317142Y-90626428D01*
X93388571Y-90769285D01*
X93388571Y-91055000D01*
X93317142Y-91197857D01*
X93388571Y-89197857D02*
X92602857Y-89197857D01*
X92460000Y-89269285D01*
X92388571Y-89412142D01*
X92388571Y-89697857D01*
X92460000Y-89840714D01*
X93317142Y-89197857D02*
X93388571Y-89340714D01*
X93388571Y-89697857D01*
X93317142Y-89840714D01*
X93174285Y-89912142D01*
X93031428Y-89912142D01*
X92888571Y-89840714D01*
X92817142Y-89697857D01*
X92817142Y-89340714D01*
X92745714Y-89197857D01*
X93388571Y-88483571D02*
X92388571Y-88483571D01*
X92674285Y-88483571D02*
X92531428Y-88412142D01*
X92460000Y-88340714D01*
X92388571Y-88197857D01*
X92388571Y-88055000D01*
X93388571Y-87555000D02*
X92388571Y-87555000D01*
X92674285Y-87555000D02*
X92531428Y-87483571D01*
X92460000Y-87412142D01*
X92388571Y-87269285D01*
X92388571Y-87126428D01*
X93388571Y-86626428D02*
X92388571Y-86626428D01*
X91888571Y-86626428D02*
X91960000Y-86697857D01*
X92031428Y-86626428D01*
X91960000Y-86555000D01*
X91888571Y-86626428D01*
X92031428Y-86626428D01*
X93317142Y-85340714D02*
X93388571Y-85483571D01*
X93388571Y-85769285D01*
X93317142Y-85912142D01*
X93174285Y-85983571D01*
X92602857Y-85983571D01*
X92460000Y-85912142D01*
X92388571Y-85769285D01*
X92388571Y-85483571D01*
X92460000Y-85340714D01*
X92602857Y-85269285D01*
X92745714Y-85269285D01*
X92888571Y-85983571D01*
X93388571Y-84626428D02*
X92388571Y-84626428D01*
X92674285Y-84626428D02*
X92531428Y-84555000D01*
X92460000Y-84483571D01*
X92388571Y-84340714D01*
X92388571Y-84197857D01*
D11*
%TO.C,R6*%
X115673333Y-88972380D02*
X115340000Y-88496190D01*
X115101904Y-88972380D02*
X115101904Y-87972380D01*
X115482857Y-87972380D01*
X115578095Y-88020000D01*
X115625714Y-88067619D01*
X115673333Y-88162857D01*
X115673333Y-88305714D01*
X115625714Y-88400952D01*
X115578095Y-88448571D01*
X115482857Y-88496190D01*
X115101904Y-88496190D01*
X116530476Y-87972380D02*
X116340000Y-87972380D01*
X116244761Y-88020000D01*
X116197142Y-88067619D01*
X116101904Y-88210476D01*
X116054285Y-88400952D01*
X116054285Y-88781904D01*
X116101904Y-88877142D01*
X116149523Y-88924761D01*
X116244761Y-88972380D01*
X116435238Y-88972380D01*
X116530476Y-88924761D01*
X116578095Y-88877142D01*
X116625714Y-88781904D01*
X116625714Y-88543809D01*
X116578095Y-88448571D01*
X116530476Y-88400952D01*
X116435238Y-88353333D01*
X116244761Y-88353333D01*
X116149523Y-88400952D01*
X116101904Y-88448571D01*
X116054285Y-88543809D01*
%TO.C,R3*%
X122118333Y-88972380D02*
X121785000Y-88496190D01*
X121546904Y-88972380D02*
X121546904Y-87972380D01*
X121927857Y-87972380D01*
X122023095Y-88020000D01*
X122070714Y-88067619D01*
X122118333Y-88162857D01*
X122118333Y-88305714D01*
X122070714Y-88400952D01*
X122023095Y-88448571D01*
X121927857Y-88496190D01*
X121546904Y-88496190D01*
X122451666Y-87972380D02*
X123070714Y-87972380D01*
X122737380Y-88353333D01*
X122880238Y-88353333D01*
X122975476Y-88400952D01*
X123023095Y-88448571D01*
X123070714Y-88543809D01*
X123070714Y-88781904D01*
X123023095Y-88877142D01*
X122975476Y-88924761D01*
X122880238Y-88972380D01*
X122594523Y-88972380D01*
X122499285Y-88924761D01*
X122451666Y-88877142D01*
D12*
%TO.C,CN3*%
X124501085Y-112642980D02*
X124434361Y-112709705D01*
X124234186Y-112776430D01*
X124100737Y-112776430D01*
X123900563Y-112709705D01*
X123767113Y-112576255D01*
X123700388Y-112442806D01*
X123633664Y-112175907D01*
X123633664Y-111975733D01*
X123700388Y-111708834D01*
X123767113Y-111575384D01*
X123900563Y-111441935D01*
X124100737Y-111375210D01*
X124234186Y-111375210D01*
X124434361Y-111441935D01*
X124501085Y-111508659D01*
X125101608Y-112776430D02*
X125101608Y-111375210D01*
X125902305Y-112776430D01*
X125902305Y-111375210D01*
X126436104Y-111375210D02*
X127303525Y-111375210D01*
X126836452Y-111909008D01*
X127036626Y-111909008D01*
X127170076Y-111975733D01*
X127236801Y-112042457D01*
X127303525Y-112175907D01*
X127303525Y-112509531D01*
X127236801Y-112642980D01*
X127170076Y-112709705D01*
X127036626Y-112776430D01*
X126636278Y-112776430D01*
X126502828Y-112709705D01*
X126436104Y-112642980D01*
D11*
%TO.C,Q1*%
X130654761Y-78557619D02*
X130559523Y-78510000D01*
X130464285Y-78414761D01*
X130321428Y-78271904D01*
X130226190Y-78224285D01*
X130130952Y-78224285D01*
X130178571Y-78462380D02*
X130083333Y-78414761D01*
X129988095Y-78319523D01*
X129940476Y-78129047D01*
X129940476Y-77795714D01*
X129988095Y-77605238D01*
X130083333Y-77510000D01*
X130178571Y-77462380D01*
X130369047Y-77462380D01*
X130464285Y-77510000D01*
X130559523Y-77605238D01*
X130607142Y-77795714D01*
X130607142Y-78129047D01*
X130559523Y-78319523D01*
X130464285Y-78414761D01*
X130369047Y-78462380D01*
X130178571Y-78462380D01*
X131559523Y-78462380D02*
X130988095Y-78462380D01*
X131273809Y-78462380D02*
X131273809Y-77462380D01*
X131178571Y-77605238D01*
X131083333Y-77700476D01*
X130988095Y-77748095D01*
%TO.C,Q2*%
X129124761Y-89193619D02*
X129029523Y-89146000D01*
X128934285Y-89050761D01*
X128791428Y-88907904D01*
X128696190Y-88860285D01*
X128600952Y-88860285D01*
X128648571Y-89098380D02*
X128553333Y-89050761D01*
X128458095Y-88955523D01*
X128410476Y-88765047D01*
X128410476Y-88431714D01*
X128458095Y-88241238D01*
X128553333Y-88146000D01*
X128648571Y-88098380D01*
X128839047Y-88098380D01*
X128934285Y-88146000D01*
X129029523Y-88241238D01*
X129077142Y-88431714D01*
X129077142Y-88765047D01*
X129029523Y-88955523D01*
X128934285Y-89050761D01*
X128839047Y-89098380D01*
X128648571Y-89098380D01*
X129458095Y-88193619D02*
X129505714Y-88146000D01*
X129600952Y-88098380D01*
X129839047Y-88098380D01*
X129934285Y-88146000D01*
X129981904Y-88193619D01*
X130029523Y-88288857D01*
X130029523Y-88384095D01*
X129981904Y-88526952D01*
X129410476Y-89098380D01*
X130029523Y-89098380D01*
%TO.C,R1*%
X122118333Y-78177380D02*
X121785000Y-77701190D01*
X121546904Y-78177380D02*
X121546904Y-77177380D01*
X121927857Y-77177380D01*
X122023095Y-77225000D01*
X122070714Y-77272619D01*
X122118333Y-77367857D01*
X122118333Y-77510714D01*
X122070714Y-77605952D01*
X122023095Y-77653571D01*
X121927857Y-77701190D01*
X121546904Y-77701190D01*
X123070714Y-78177380D02*
X122499285Y-78177380D01*
X122785000Y-78177380D02*
X122785000Y-77177380D01*
X122689761Y-77320238D01*
X122594523Y-77415476D01*
X122499285Y-77463095D01*
%TO.C,J4*%
X92916666Y-108312380D02*
X92916666Y-109026666D01*
X92869047Y-109169523D01*
X92773809Y-109264761D01*
X92630952Y-109312380D01*
X92535714Y-109312380D01*
X93821428Y-108645714D02*
X93821428Y-109312380D01*
X93583333Y-108264761D02*
X93345238Y-108979047D01*
X93964285Y-108979047D01*
%TO.C,F1*%
X129093571Y-96435833D02*
X129093571Y-96769166D01*
X129617380Y-96769166D02*
X128617380Y-96769166D01*
X128617380Y-96292976D01*
X129617380Y-95388214D02*
X129617380Y-95959642D01*
X129617380Y-95673928D02*
X128617380Y-95673928D01*
X128760238Y-95769166D01*
X128855476Y-95864404D01*
X128903095Y-95959642D01*
%TO.C,C1*%
X121985833Y-94562142D02*
X121938214Y-94609761D01*
X121795357Y-94657380D01*
X121700119Y-94657380D01*
X121557261Y-94609761D01*
X121462023Y-94514523D01*
X121414404Y-94419285D01*
X121366785Y-94228809D01*
X121366785Y-94085952D01*
X121414404Y-93895476D01*
X121462023Y-93800238D01*
X121557261Y-93705000D01*
X121700119Y-93657380D01*
X121795357Y-93657380D01*
X121938214Y-93705000D01*
X121985833Y-93752619D01*
X122938214Y-94657380D02*
X122366785Y-94657380D01*
X122652500Y-94657380D02*
X122652500Y-93657380D01*
X122557261Y-93800238D01*
X122462023Y-93895476D01*
X122366785Y-93943095D01*
D12*
%TO.C,CN1*%
X99001085Y-112642980D02*
X98934361Y-112709705D01*
X98734186Y-112776430D01*
X98600737Y-112776430D01*
X98400563Y-112709705D01*
X98267113Y-112576255D01*
X98200388Y-112442806D01*
X98133664Y-112175907D01*
X98133664Y-111975733D01*
X98200388Y-111708834D01*
X98267113Y-111575384D01*
X98400563Y-111441935D01*
X98600737Y-111375210D01*
X98734186Y-111375210D01*
X98934361Y-111441935D01*
X99001085Y-111508659D01*
X99601608Y-112776430D02*
X99601608Y-111375210D01*
X100402305Y-112776430D01*
X100402305Y-111375210D01*
X101803525Y-112776430D02*
X101002828Y-112776430D01*
X101403177Y-112776430D02*
X101403177Y-111375210D01*
X101269727Y-111575384D01*
X101136278Y-111708834D01*
X101002828Y-111775558D01*
D11*
%TO.C,U1*%
X149098095Y-104227380D02*
X149098095Y-105036904D01*
X149145714Y-105132142D01*
X149193333Y-105179761D01*
X149288571Y-105227380D01*
X149479047Y-105227380D01*
X149574285Y-105179761D01*
X149621904Y-105132142D01*
X149669523Y-105036904D01*
X149669523Y-104227380D01*
X150669523Y-105227380D02*
X150098095Y-105227380D01*
X150383809Y-105227380D02*
X150383809Y-104227380D01*
X150288571Y-104370238D01*
X150193333Y-104465476D01*
X150098095Y-104513095D01*
X161821904Y-93797380D02*
X161821904Y-92797380D01*
X162060000Y-92797380D01*
X162202857Y-92845000D01*
X162298095Y-92940238D01*
X162345714Y-93035476D01*
X162393333Y-93225952D01*
X162393333Y-93368809D01*
X162345714Y-93559285D01*
X162298095Y-93654523D01*
X162202857Y-93749761D01*
X162060000Y-93797380D01*
X161821904Y-93797380D01*
X163250476Y-92797380D02*
X163060000Y-92797380D01*
X162964761Y-92845000D01*
X162917142Y-92892619D01*
X162821904Y-93035476D01*
X162774285Y-93225952D01*
X162774285Y-93606904D01*
X162821904Y-93702142D01*
X162869523Y-93749761D01*
X162964761Y-93797380D01*
X163155238Y-93797380D01*
X163250476Y-93749761D01*
X163298095Y-93702142D01*
X163345714Y-93606904D01*
X163345714Y-93368809D01*
X163298095Y-93273571D01*
X163250476Y-93225952D01*
X163155238Y-93178333D01*
X162964761Y-93178333D01*
X162869523Y-93225952D01*
X162821904Y-93273571D01*
X162774285Y-93368809D01*
X143684761Y-108037380D02*
X144018095Y-109037380D01*
X144351428Y-108037380D01*
X144684761Y-109037380D02*
X144684761Y-108037380D01*
X145160952Y-109037380D02*
X145160952Y-108037380D01*
X145732380Y-109037380D01*
X145732380Y-108037380D01*
X161321904Y-85177380D02*
X161940952Y-85177380D01*
X161607619Y-85558333D01*
X161750476Y-85558333D01*
X161845714Y-85605952D01*
X161893333Y-85653571D01*
X161940952Y-85748809D01*
X161940952Y-85986904D01*
X161893333Y-86082142D01*
X161845714Y-86129761D01*
X161750476Y-86177380D01*
X161464761Y-86177380D01*
X161369523Y-86129761D01*
X161321904Y-86082142D01*
X162226666Y-85177380D02*
X162560000Y-86177380D01*
X162893333Y-85177380D01*
X163131428Y-85177380D02*
X163750476Y-85177380D01*
X163417142Y-85558333D01*
X163560000Y-85558333D01*
X163655238Y-85605952D01*
X163702857Y-85653571D01*
X163750476Y-85748809D01*
X163750476Y-85986904D01*
X163702857Y-86082142D01*
X163655238Y-86129761D01*
X163560000Y-86177380D01*
X163274285Y-86177380D01*
X163179047Y-86129761D01*
X163131428Y-86082142D01*
X161821904Y-78557380D02*
X161821904Y-77557380D01*
X162060000Y-77557380D01*
X162202857Y-77605000D01*
X162298095Y-77700238D01*
X162345714Y-77795476D01*
X162393333Y-77985952D01*
X162393333Y-78128809D01*
X162345714Y-78319285D01*
X162298095Y-78414523D01*
X162202857Y-78509761D01*
X162060000Y-78557380D01*
X161821904Y-78557380D01*
X162774285Y-77652619D02*
X162821904Y-77605000D01*
X162917142Y-77557380D01*
X163155238Y-77557380D01*
X163250476Y-77605000D01*
X163298095Y-77652619D01*
X163345714Y-77747857D01*
X163345714Y-77843095D01*
X163298095Y-77985952D01*
X162726666Y-78557380D01*
X163345714Y-78557380D01*
X162393333Y-101417380D02*
X162060000Y-100941190D01*
X161821904Y-101417380D02*
X161821904Y-100417380D01*
X162202857Y-100417380D01*
X162298095Y-100465000D01*
X162345714Y-100512619D01*
X162393333Y-100607857D01*
X162393333Y-100750714D01*
X162345714Y-100845952D01*
X162298095Y-100893571D01*
X162202857Y-100941190D01*
X161821904Y-100941190D01*
X162726666Y-100417380D02*
X163393333Y-101417380D01*
X163393333Y-100417380D02*
X162726666Y-101417380D01*
X144018095Y-86129761D02*
X144160952Y-86177380D01*
X144399047Y-86177380D01*
X144494285Y-86129761D01*
X144541904Y-86082142D01*
X144589523Y-85986904D01*
X144589523Y-85891666D01*
X144541904Y-85796428D01*
X144494285Y-85748809D01*
X144399047Y-85701190D01*
X144208571Y-85653571D01*
X144113333Y-85605952D01*
X144065714Y-85558333D01*
X144018095Y-85463095D01*
X144018095Y-85367857D01*
X144065714Y-85272619D01*
X144113333Y-85225000D01*
X144208571Y-85177380D01*
X144446666Y-85177380D01*
X144589523Y-85225000D01*
X145541904Y-86177380D02*
X144970476Y-86177380D01*
X145256190Y-86177380D02*
X145256190Y-85177380D01*
X145160952Y-85320238D01*
X145065714Y-85415476D01*
X144970476Y-85463095D01*
X144041904Y-100893571D02*
X144375238Y-100893571D01*
X144518095Y-101417380D02*
X144041904Y-101417380D01*
X144041904Y-100417380D01*
X144518095Y-100417380D01*
X144946666Y-101417380D02*
X144946666Y-100417380D01*
X145518095Y-101417380D01*
X145518095Y-100417380D01*
X143541904Y-97877380D02*
X144160952Y-97877380D01*
X143827619Y-98258333D01*
X143970476Y-98258333D01*
X144065714Y-98305952D01*
X144113333Y-98353571D01*
X144160952Y-98448809D01*
X144160952Y-98686904D01*
X144113333Y-98782142D01*
X144065714Y-98829761D01*
X143970476Y-98877380D01*
X143684761Y-98877380D01*
X143589523Y-98829761D01*
X143541904Y-98782142D01*
X144446666Y-97877380D02*
X144780000Y-98877380D01*
X145113333Y-97877380D01*
X145351428Y-97877380D02*
X145970476Y-97877380D01*
X145637142Y-98258333D01*
X145780000Y-98258333D01*
X145875238Y-98305952D01*
X145922857Y-98353571D01*
X145970476Y-98448809D01*
X145970476Y-98686904D01*
X145922857Y-98782142D01*
X145875238Y-98829761D01*
X145780000Y-98877380D01*
X145494285Y-98877380D01*
X145399047Y-98829761D01*
X145351428Y-98782142D01*
X143470476Y-91209761D02*
X143613333Y-91257380D01*
X143851428Y-91257380D01*
X143946666Y-91209761D01*
X143994285Y-91162142D01*
X144041904Y-91066904D01*
X144041904Y-90971666D01*
X143994285Y-90876428D01*
X143946666Y-90828809D01*
X143851428Y-90781190D01*
X143660952Y-90733571D01*
X143565714Y-90685952D01*
X143518095Y-90638333D01*
X143470476Y-90543095D01*
X143470476Y-90447857D01*
X143518095Y-90352619D01*
X143565714Y-90305000D01*
X143660952Y-90257380D01*
X143899047Y-90257380D01*
X144041904Y-90305000D01*
X144470476Y-91257380D02*
X144470476Y-90257380D01*
X144708571Y-90257380D01*
X144851428Y-90305000D01*
X144946666Y-90400238D01*
X144994285Y-90495476D01*
X145041904Y-90685952D01*
X145041904Y-90828809D01*
X144994285Y-91019285D01*
X144946666Y-91114523D01*
X144851428Y-91209761D01*
X144708571Y-91257380D01*
X144470476Y-91257380D01*
X145660952Y-90257380D02*
X145851428Y-90257380D01*
X145946666Y-90305000D01*
X146041904Y-90400238D01*
X146089523Y-90590714D01*
X146089523Y-90924047D01*
X146041904Y-91114523D01*
X145946666Y-91209761D01*
X145851428Y-91257380D01*
X145660952Y-91257380D01*
X145565714Y-91209761D01*
X145470476Y-91114523D01*
X145422857Y-90924047D01*
X145422857Y-90590714D01*
X145470476Y-90400238D01*
X145565714Y-90305000D01*
X145660952Y-90257380D01*
X161821904Y-76017380D02*
X161821904Y-75017380D01*
X162060000Y-75017380D01*
X162202857Y-75065000D01*
X162298095Y-75160238D01*
X162345714Y-75255476D01*
X162393333Y-75445952D01*
X162393333Y-75588809D01*
X162345714Y-75779285D01*
X162298095Y-75874523D01*
X162202857Y-75969761D01*
X162060000Y-76017380D01*
X161821904Y-76017380D01*
X163345714Y-76017380D02*
X162774285Y-76017380D01*
X163060000Y-76017380D02*
X163060000Y-75017380D01*
X162964761Y-75160238D01*
X162869523Y-75255476D01*
X162774285Y-75303095D01*
X161821904Y-73477380D02*
X161821904Y-72477380D01*
X162060000Y-72477380D01*
X162202857Y-72525000D01*
X162298095Y-72620238D01*
X162345714Y-72715476D01*
X162393333Y-72905952D01*
X162393333Y-73048809D01*
X162345714Y-73239285D01*
X162298095Y-73334523D01*
X162202857Y-73429761D01*
X162060000Y-73477380D01*
X161821904Y-73477380D01*
X163012380Y-72477380D02*
X163107619Y-72477380D01*
X163202857Y-72525000D01*
X163250476Y-72572619D01*
X163298095Y-72667857D01*
X163345714Y-72858333D01*
X163345714Y-73096428D01*
X163298095Y-73286904D01*
X163250476Y-73382142D01*
X163202857Y-73429761D01*
X163107619Y-73477380D01*
X163012380Y-73477380D01*
X162917142Y-73429761D01*
X162869523Y-73382142D01*
X162821904Y-73286904D01*
X162774285Y-73096428D01*
X162774285Y-72858333D01*
X162821904Y-72667857D01*
X162869523Y-72572619D01*
X162917142Y-72525000D01*
X163012380Y-72477380D01*
X161821904Y-96337380D02*
X161821904Y-95337380D01*
X162060000Y-95337380D01*
X162202857Y-95385000D01*
X162298095Y-95480238D01*
X162345714Y-95575476D01*
X162393333Y-95765952D01*
X162393333Y-95908809D01*
X162345714Y-96099285D01*
X162298095Y-96194523D01*
X162202857Y-96289761D01*
X162060000Y-96337380D01*
X161821904Y-96337380D01*
X162726666Y-95337380D02*
X163393333Y-95337380D01*
X162964761Y-96337380D01*
X152408095Y-113117380D02*
X152408095Y-113926904D01*
X152455714Y-114022142D01*
X152503333Y-114069761D01*
X152598571Y-114117380D01*
X152789047Y-114117380D01*
X152884285Y-114069761D01*
X152931904Y-114022142D01*
X152979523Y-113926904D01*
X152979523Y-113117380D01*
X153408095Y-114069761D02*
X153550952Y-114117380D01*
X153789047Y-114117380D01*
X153884285Y-114069761D01*
X153931904Y-114022142D01*
X153979523Y-113926904D01*
X153979523Y-113831666D01*
X153931904Y-113736428D01*
X153884285Y-113688809D01*
X153789047Y-113641190D01*
X153598571Y-113593571D01*
X153503333Y-113545952D01*
X153455714Y-113498333D01*
X153408095Y-113403095D01*
X153408095Y-113307857D01*
X153455714Y-113212619D01*
X153503333Y-113165000D01*
X153598571Y-113117380D01*
X153836666Y-113117380D01*
X153979523Y-113165000D01*
X154741428Y-113593571D02*
X154884285Y-113641190D01*
X154931904Y-113688809D01*
X154979523Y-113784047D01*
X154979523Y-113926904D01*
X154931904Y-114022142D01*
X154884285Y-114069761D01*
X154789047Y-114117380D01*
X154408095Y-114117380D01*
X154408095Y-113117380D01*
X154741428Y-113117380D01*
X154836666Y-113165000D01*
X154884285Y-113212619D01*
X154931904Y-113307857D01*
X154931904Y-113403095D01*
X154884285Y-113498333D01*
X154836666Y-113545952D01*
X154741428Y-113593571D01*
X154408095Y-113593571D01*
X161821904Y-91257380D02*
X161821904Y-90257380D01*
X162060000Y-90257380D01*
X162202857Y-90305000D01*
X162298095Y-90400238D01*
X162345714Y-90495476D01*
X162393333Y-90685952D01*
X162393333Y-90828809D01*
X162345714Y-91019285D01*
X162298095Y-91114523D01*
X162202857Y-91209761D01*
X162060000Y-91257380D01*
X161821904Y-91257380D01*
X163298095Y-90257380D02*
X162821904Y-90257380D01*
X162774285Y-90733571D01*
X162821904Y-90685952D01*
X162917142Y-90638333D01*
X163155238Y-90638333D01*
X163250476Y-90685952D01*
X163298095Y-90733571D01*
X163345714Y-90828809D01*
X163345714Y-91066904D01*
X163298095Y-91162142D01*
X163250476Y-91209761D01*
X163155238Y-91257380D01*
X162917142Y-91257380D01*
X162821904Y-91209761D01*
X162774285Y-91162142D01*
X144018095Y-81049761D02*
X144160952Y-81097380D01*
X144399047Y-81097380D01*
X144494285Y-81049761D01*
X144541904Y-81002142D01*
X144589523Y-80906904D01*
X144589523Y-80811666D01*
X144541904Y-80716428D01*
X144494285Y-80668809D01*
X144399047Y-80621190D01*
X144208571Y-80573571D01*
X144113333Y-80525952D01*
X144065714Y-80478333D01*
X144018095Y-80383095D01*
X144018095Y-80287857D01*
X144065714Y-80192619D01*
X144113333Y-80145000D01*
X144208571Y-80097380D01*
X144446666Y-80097380D01*
X144589523Y-80145000D01*
X144922857Y-80097380D02*
X145541904Y-80097380D01*
X145208571Y-80478333D01*
X145351428Y-80478333D01*
X145446666Y-80525952D01*
X145494285Y-80573571D01*
X145541904Y-80668809D01*
X145541904Y-80906904D01*
X145494285Y-81002142D01*
X145446666Y-81049761D01*
X145351428Y-81097380D01*
X145065714Y-81097380D01*
X144970476Y-81049761D01*
X144922857Y-81002142D01*
X144232380Y-103957380D02*
X143899047Y-103481190D01*
X143660952Y-103957380D02*
X143660952Y-102957380D01*
X144041904Y-102957380D01*
X144137142Y-103005000D01*
X144184761Y-103052619D01*
X144232380Y-103147857D01*
X144232380Y-103290714D01*
X144184761Y-103385952D01*
X144137142Y-103433571D01*
X144041904Y-103481190D01*
X143660952Y-103481190D01*
X144613333Y-103909761D02*
X144756190Y-103957380D01*
X144994285Y-103957380D01*
X145089523Y-103909761D01*
X145137142Y-103862142D01*
X145184761Y-103766904D01*
X145184761Y-103671666D01*
X145137142Y-103576428D01*
X145089523Y-103528809D01*
X144994285Y-103481190D01*
X144803809Y-103433571D01*
X144708571Y-103385952D01*
X144660952Y-103338333D01*
X144613333Y-103243095D01*
X144613333Y-103147857D01*
X144660952Y-103052619D01*
X144708571Y-103005000D01*
X144803809Y-102957380D01*
X145041904Y-102957380D01*
X145184761Y-103005000D01*
X145470476Y-102957380D02*
X146041904Y-102957380D01*
X145756190Y-103957380D02*
X145756190Y-102957380D01*
X144065714Y-73191666D02*
X144541904Y-73191666D01*
X143970476Y-73477380D02*
X144303809Y-72477380D01*
X144637142Y-73477380D01*
X145160952Y-72477380D02*
X145256190Y-72477380D01*
X145351428Y-72525000D01*
X145399047Y-72572619D01*
X145446666Y-72667857D01*
X145494285Y-72858333D01*
X145494285Y-73096428D01*
X145446666Y-73286904D01*
X145399047Y-73382142D01*
X145351428Y-73429761D01*
X145256190Y-73477380D01*
X145160952Y-73477380D01*
X145065714Y-73429761D01*
X145018095Y-73382142D01*
X144970476Y-73286904D01*
X144922857Y-73096428D01*
X144922857Y-72858333D01*
X144970476Y-72667857D01*
X145018095Y-72572619D01*
X145065714Y-72525000D01*
X145160952Y-72477380D01*
X161821904Y-83637380D02*
X161821904Y-82637380D01*
X162060000Y-82637380D01*
X162202857Y-82685000D01*
X162298095Y-82780238D01*
X162345714Y-82875476D01*
X162393333Y-83065952D01*
X162393333Y-83208809D01*
X162345714Y-83399285D01*
X162298095Y-83494523D01*
X162202857Y-83589761D01*
X162060000Y-83637380D01*
X161821904Y-83637380D01*
X163250476Y-82970714D02*
X163250476Y-83637380D01*
X163012380Y-82589761D02*
X162774285Y-83304047D01*
X163393333Y-83304047D01*
X161798095Y-105545000D02*
X161702857Y-105497380D01*
X161560000Y-105497380D01*
X161417142Y-105545000D01*
X161321904Y-105640238D01*
X161274285Y-105735476D01*
X161226666Y-105925952D01*
X161226666Y-106068809D01*
X161274285Y-106259285D01*
X161321904Y-106354523D01*
X161417142Y-106449761D01*
X161560000Y-106497380D01*
X161655238Y-106497380D01*
X161798095Y-106449761D01*
X161845714Y-106402142D01*
X161845714Y-106068809D01*
X161655238Y-106068809D01*
X162274285Y-106497380D02*
X162274285Y-105497380D01*
X162845714Y-106497380D01*
X162845714Y-105497380D01*
X163321904Y-106497380D02*
X163321904Y-105497380D01*
X163560000Y-105497380D01*
X163702857Y-105545000D01*
X163798095Y-105640238D01*
X163845714Y-105735476D01*
X163893333Y-105925952D01*
X163893333Y-106068809D01*
X163845714Y-106259285D01*
X163798095Y-106354523D01*
X163702857Y-106449761D01*
X163560000Y-106497380D01*
X163321904Y-106497380D01*
X144018095Y-95385000D02*
X143922857Y-95337380D01*
X143780000Y-95337380D01*
X143637142Y-95385000D01*
X143541904Y-95480238D01*
X143494285Y-95575476D01*
X143446666Y-95765952D01*
X143446666Y-95908809D01*
X143494285Y-96099285D01*
X143541904Y-96194523D01*
X143637142Y-96289761D01*
X143780000Y-96337380D01*
X143875238Y-96337380D01*
X144018095Y-96289761D01*
X144065714Y-96242142D01*
X144065714Y-95908809D01*
X143875238Y-95908809D01*
X144494285Y-96337380D02*
X144494285Y-95337380D01*
X145065714Y-96337380D01*
X145065714Y-95337380D01*
X145541904Y-96337380D02*
X145541904Y-95337380D01*
X145780000Y-95337380D01*
X145922857Y-95385000D01*
X146018095Y-95480238D01*
X146065714Y-95575476D01*
X146113333Y-95765952D01*
X146113333Y-95908809D01*
X146065714Y-96099285D01*
X146018095Y-96194523D01*
X145922857Y-96289761D01*
X145780000Y-96337380D01*
X145541904Y-96337380D01*
X143494285Y-93749761D02*
X143637142Y-93797380D01*
X143875238Y-93797380D01*
X143970476Y-93749761D01*
X144018095Y-93702142D01*
X144065714Y-93606904D01*
X144065714Y-93511666D01*
X144018095Y-93416428D01*
X143970476Y-93368809D01*
X143875238Y-93321190D01*
X143684761Y-93273571D01*
X143589523Y-93225952D01*
X143541904Y-93178333D01*
X143494285Y-93083095D01*
X143494285Y-92987857D01*
X143541904Y-92892619D01*
X143589523Y-92845000D01*
X143684761Y-92797380D01*
X143922857Y-92797380D01*
X144065714Y-92845000D01*
X145065714Y-93702142D02*
X145018095Y-93749761D01*
X144875238Y-93797380D01*
X144780000Y-93797380D01*
X144637142Y-93749761D01*
X144541904Y-93654523D01*
X144494285Y-93559285D01*
X144446666Y-93368809D01*
X144446666Y-93225952D01*
X144494285Y-93035476D01*
X144541904Y-92940238D01*
X144637142Y-92845000D01*
X144780000Y-92797380D01*
X144875238Y-92797380D01*
X145018095Y-92845000D01*
X145065714Y-92892619D01*
X145494285Y-93797380D02*
X145494285Y-92797380D01*
X146065714Y-93797380D02*
X145637142Y-93225952D01*
X146065714Y-92797380D02*
X145494285Y-93368809D01*
X161321904Y-108037380D02*
X161940952Y-108037380D01*
X161607619Y-108418333D01*
X161750476Y-108418333D01*
X161845714Y-108465952D01*
X161893333Y-108513571D01*
X161940952Y-108608809D01*
X161940952Y-108846904D01*
X161893333Y-108942142D01*
X161845714Y-108989761D01*
X161750476Y-109037380D01*
X161464761Y-109037380D01*
X161369523Y-108989761D01*
X161321904Y-108942142D01*
X162226666Y-108037380D02*
X162560000Y-109037380D01*
X162893333Y-108037380D01*
X163131428Y-108037380D02*
X163750476Y-108037380D01*
X163417142Y-108418333D01*
X163560000Y-108418333D01*
X163655238Y-108465952D01*
X163702857Y-108513571D01*
X163750476Y-108608809D01*
X163750476Y-108846904D01*
X163702857Y-108942142D01*
X163655238Y-108989761D01*
X163560000Y-109037380D01*
X163274285Y-109037380D01*
X163179047Y-108989761D01*
X163131428Y-108942142D01*
X150217619Y-70937380D02*
X149884285Y-70461190D01*
X149646190Y-70937380D02*
X149646190Y-69937380D01*
X150027142Y-69937380D01*
X150122380Y-69985000D01*
X150170000Y-70032619D01*
X150217619Y-70127857D01*
X150217619Y-70270714D01*
X150170000Y-70365952D01*
X150122380Y-70413571D01*
X150027142Y-70461190D01*
X149646190Y-70461190D01*
X150979523Y-70413571D02*
X150646190Y-70413571D01*
X150646190Y-70937380D02*
X150646190Y-69937380D01*
X151122380Y-69937380D01*
X152217619Y-70651666D02*
X152693809Y-70651666D01*
X152122380Y-70937380D02*
X152455714Y-69937380D01*
X152789047Y-70937380D01*
X153122380Y-70270714D02*
X153122380Y-70937380D01*
X153122380Y-70365952D02*
X153170000Y-70318333D01*
X153265238Y-70270714D01*
X153408095Y-70270714D01*
X153503333Y-70318333D01*
X153550952Y-70413571D01*
X153550952Y-70937380D01*
X153884285Y-70270714D02*
X154265238Y-70270714D01*
X154027142Y-69937380D02*
X154027142Y-70794523D01*
X154074761Y-70889761D01*
X154170000Y-70937380D01*
X154265238Y-70937380D01*
X154979523Y-70889761D02*
X154884285Y-70937380D01*
X154693809Y-70937380D01*
X154598571Y-70889761D01*
X154550952Y-70794523D01*
X154550952Y-70413571D01*
X154598571Y-70318333D01*
X154693809Y-70270714D01*
X154884285Y-70270714D01*
X154979523Y-70318333D01*
X155027142Y-70413571D01*
X155027142Y-70508809D01*
X154550952Y-70604047D01*
X155455714Y-70270714D02*
X155455714Y-70937380D01*
X155455714Y-70365952D02*
X155503333Y-70318333D01*
X155598571Y-70270714D01*
X155741428Y-70270714D01*
X155836666Y-70318333D01*
X155884285Y-70413571D01*
X155884285Y-70937380D01*
X156360476Y-70270714D02*
X156360476Y-70937380D01*
X156360476Y-70365952D02*
X156408095Y-70318333D01*
X156503333Y-70270714D01*
X156646190Y-70270714D01*
X156741428Y-70318333D01*
X156789047Y-70413571D01*
X156789047Y-70937380D01*
X157693809Y-70937380D02*
X157693809Y-70413571D01*
X157646190Y-70318333D01*
X157550952Y-70270714D01*
X157360476Y-70270714D01*
X157265238Y-70318333D01*
X157693809Y-70889761D02*
X157598571Y-70937380D01*
X157360476Y-70937380D01*
X157265238Y-70889761D01*
X157217619Y-70794523D01*
X157217619Y-70699285D01*
X157265238Y-70604047D01*
X157360476Y-70556428D01*
X157598571Y-70556428D01*
X157693809Y-70508809D01*
X144018095Y-105545000D02*
X143922857Y-105497380D01*
X143780000Y-105497380D01*
X143637142Y-105545000D01*
X143541904Y-105640238D01*
X143494285Y-105735476D01*
X143446666Y-105925952D01*
X143446666Y-106068809D01*
X143494285Y-106259285D01*
X143541904Y-106354523D01*
X143637142Y-106449761D01*
X143780000Y-106497380D01*
X143875238Y-106497380D01*
X144018095Y-106449761D01*
X144065714Y-106402142D01*
X144065714Y-106068809D01*
X143875238Y-106068809D01*
X144494285Y-106497380D02*
X144494285Y-105497380D01*
X145065714Y-106497380D01*
X145065714Y-105497380D01*
X145541904Y-106497380D02*
X145541904Y-105497380D01*
X145780000Y-105497380D01*
X145922857Y-105545000D01*
X146018095Y-105640238D01*
X146065714Y-105735476D01*
X146113333Y-105925952D01*
X146113333Y-106068809D01*
X146065714Y-106259285D01*
X146018095Y-106354523D01*
X145922857Y-106449761D01*
X145780000Y-106497380D01*
X145541904Y-106497380D01*
X161821904Y-98877380D02*
X161821904Y-97877380D01*
X162060000Y-97877380D01*
X162202857Y-97925000D01*
X162298095Y-98020238D01*
X162345714Y-98115476D01*
X162393333Y-98305952D01*
X162393333Y-98448809D01*
X162345714Y-98639285D01*
X162298095Y-98734523D01*
X162202857Y-98829761D01*
X162060000Y-98877380D01*
X161821904Y-98877380D01*
X162964761Y-98305952D02*
X162869523Y-98258333D01*
X162821904Y-98210714D01*
X162774285Y-98115476D01*
X162774285Y-98067857D01*
X162821904Y-97972619D01*
X162869523Y-97925000D01*
X162964761Y-97877380D01*
X163155238Y-97877380D01*
X163250476Y-97925000D01*
X163298095Y-97972619D01*
X163345714Y-98067857D01*
X163345714Y-98115476D01*
X163298095Y-98210714D01*
X163250476Y-98258333D01*
X163155238Y-98305952D01*
X162964761Y-98305952D01*
X162869523Y-98353571D01*
X162821904Y-98401190D01*
X162774285Y-98496428D01*
X162774285Y-98686904D01*
X162821904Y-98782142D01*
X162869523Y-98829761D01*
X162964761Y-98877380D01*
X163155238Y-98877380D01*
X163250476Y-98829761D01*
X163298095Y-98782142D01*
X163345714Y-98686904D01*
X163345714Y-98496428D01*
X163298095Y-98401190D01*
X163250476Y-98353571D01*
X163155238Y-98305952D01*
X161798095Y-102957380D02*
X162369523Y-102957380D01*
X162083809Y-103957380D02*
X162083809Y-102957380D01*
X162607619Y-102957380D02*
X163274285Y-103957380D01*
X163274285Y-102957380D02*
X162607619Y-103957380D01*
X143875238Y-78557380D02*
X143875238Y-77890714D01*
X143875238Y-78081190D02*
X143922857Y-77985952D01*
X143970476Y-77938333D01*
X144065714Y-77890714D01*
X144160952Y-77890714D01*
X144875238Y-78509761D02*
X144780000Y-78557380D01*
X144589523Y-78557380D01*
X144494285Y-78509761D01*
X144446666Y-78414523D01*
X144446666Y-78033571D01*
X144494285Y-77938333D01*
X144589523Y-77890714D01*
X144780000Y-77890714D01*
X144875238Y-77938333D01*
X144922857Y-78033571D01*
X144922857Y-78128809D01*
X144446666Y-78224047D01*
X145303809Y-78509761D02*
X145399047Y-78557380D01*
X145589523Y-78557380D01*
X145684761Y-78509761D01*
X145732380Y-78414523D01*
X145732380Y-78366904D01*
X145684761Y-78271666D01*
X145589523Y-78224047D01*
X145446666Y-78224047D01*
X145351428Y-78176428D01*
X145303809Y-78081190D01*
X145303809Y-78033571D01*
X145351428Y-77938333D01*
X145446666Y-77890714D01*
X145589523Y-77890714D01*
X145684761Y-77938333D01*
X144018095Y-75065000D02*
X143922857Y-75017380D01*
X143780000Y-75017380D01*
X143637142Y-75065000D01*
X143541904Y-75160238D01*
X143494285Y-75255476D01*
X143446666Y-75445952D01*
X143446666Y-75588809D01*
X143494285Y-75779285D01*
X143541904Y-75874523D01*
X143637142Y-75969761D01*
X143780000Y-76017380D01*
X143875238Y-76017380D01*
X144018095Y-75969761D01*
X144065714Y-75922142D01*
X144065714Y-75588809D01*
X143875238Y-75588809D01*
X144494285Y-76017380D02*
X144494285Y-75017380D01*
X145065714Y-76017380D01*
X145065714Y-75017380D01*
X145541904Y-76017380D02*
X145541904Y-75017380D01*
X145780000Y-75017380D01*
X145922857Y-75065000D01*
X146018095Y-75160238D01*
X146065714Y-75255476D01*
X146113333Y-75445952D01*
X146113333Y-75588809D01*
X146065714Y-75779285D01*
X146018095Y-75874523D01*
X145922857Y-75969761D01*
X145780000Y-76017380D01*
X145541904Y-76017380D01*
X144018095Y-83589761D02*
X144160952Y-83637380D01*
X144399047Y-83637380D01*
X144494285Y-83589761D01*
X144541904Y-83542142D01*
X144589523Y-83446904D01*
X144589523Y-83351666D01*
X144541904Y-83256428D01*
X144494285Y-83208809D01*
X144399047Y-83161190D01*
X144208571Y-83113571D01*
X144113333Y-83065952D01*
X144065714Y-83018333D01*
X144018095Y-82923095D01*
X144018095Y-82827857D01*
X144065714Y-82732619D01*
X144113333Y-82685000D01*
X144208571Y-82637380D01*
X144446666Y-82637380D01*
X144589523Y-82685000D01*
X144970476Y-82732619D02*
X145018095Y-82685000D01*
X145113333Y-82637380D01*
X145351428Y-82637380D01*
X145446666Y-82685000D01*
X145494285Y-82732619D01*
X145541904Y-82827857D01*
X145541904Y-82923095D01*
X145494285Y-83065952D01*
X144922857Y-83637380D01*
X145541904Y-83637380D01*
X161821904Y-81097380D02*
X161821904Y-80097380D01*
X162060000Y-80097380D01*
X162202857Y-80145000D01*
X162298095Y-80240238D01*
X162345714Y-80335476D01*
X162393333Y-80525952D01*
X162393333Y-80668809D01*
X162345714Y-80859285D01*
X162298095Y-80954523D01*
X162202857Y-81049761D01*
X162060000Y-81097380D01*
X161821904Y-81097380D01*
X162726666Y-80097380D02*
X163345714Y-80097380D01*
X163012380Y-80478333D01*
X163155238Y-80478333D01*
X163250476Y-80525952D01*
X163298095Y-80573571D01*
X163345714Y-80668809D01*
X163345714Y-80906904D01*
X163298095Y-81002142D01*
X163250476Y-81049761D01*
X163155238Y-81097380D01*
X162869523Y-81097380D01*
X162774285Y-81049761D01*
X162726666Y-81002142D01*
X143994285Y-88669761D02*
X144137142Y-88717380D01*
X144375238Y-88717380D01*
X144470476Y-88669761D01*
X144518095Y-88622142D01*
X144565714Y-88526904D01*
X144565714Y-88431666D01*
X144518095Y-88336428D01*
X144470476Y-88288809D01*
X144375238Y-88241190D01*
X144184761Y-88193571D01*
X144089523Y-88145952D01*
X144041904Y-88098333D01*
X143994285Y-88003095D01*
X143994285Y-87907857D01*
X144041904Y-87812619D01*
X144089523Y-87765000D01*
X144184761Y-87717380D01*
X144422857Y-87717380D01*
X144565714Y-87765000D01*
X145565714Y-88622142D02*
X145518095Y-88669761D01*
X145375238Y-88717380D01*
X145280000Y-88717380D01*
X145137142Y-88669761D01*
X145041904Y-88574523D01*
X144994285Y-88479285D01*
X144946666Y-88288809D01*
X144946666Y-88145952D01*
X144994285Y-87955476D01*
X145041904Y-87860238D01*
X145137142Y-87765000D01*
X145280000Y-87717380D01*
X145375238Y-87717380D01*
X145518095Y-87765000D01*
X145565714Y-87812619D01*
X161798095Y-87765000D02*
X161702857Y-87717380D01*
X161560000Y-87717380D01*
X161417142Y-87765000D01*
X161321904Y-87860238D01*
X161274285Y-87955476D01*
X161226666Y-88145952D01*
X161226666Y-88288809D01*
X161274285Y-88479285D01*
X161321904Y-88574523D01*
X161417142Y-88669761D01*
X161560000Y-88717380D01*
X161655238Y-88717380D01*
X161798095Y-88669761D01*
X161845714Y-88622142D01*
X161845714Y-88288809D01*
X161655238Y-88288809D01*
X162274285Y-88717380D02*
X162274285Y-87717380D01*
X162845714Y-88717380D01*
X162845714Y-87717380D01*
X163321904Y-88717380D02*
X163321904Y-87717380D01*
X163560000Y-87717380D01*
X163702857Y-87765000D01*
X163798095Y-87860238D01*
X163845714Y-87955476D01*
X163893333Y-88145952D01*
X163893333Y-88288809D01*
X163845714Y-88479285D01*
X163798095Y-88574523D01*
X163702857Y-88669761D01*
X163560000Y-88717380D01*
X163321904Y-88717380D01*
%TO.C,J1*%
X133862380Y-70183333D02*
X134576666Y-70183333D01*
X134719523Y-70230952D01*
X134814761Y-70326190D01*
X134862380Y-70469047D01*
X134862380Y-70564285D01*
X134862380Y-69183333D02*
X134862380Y-69754761D01*
X134862380Y-69469047D02*
X133862380Y-69469047D01*
X134005238Y-69564285D01*
X134100476Y-69659523D01*
X134148095Y-69754761D01*
%TO.C,R5*%
X115673333Y-86557380D02*
X115340000Y-86081190D01*
X115101904Y-86557380D02*
X115101904Y-85557380D01*
X115482857Y-85557380D01*
X115578095Y-85605000D01*
X115625714Y-85652619D01*
X115673333Y-85747857D01*
X115673333Y-85890714D01*
X115625714Y-85985952D01*
X115578095Y-86033571D01*
X115482857Y-86081190D01*
X115101904Y-86081190D01*
X116578095Y-85557380D02*
X116101904Y-85557380D01*
X116054285Y-86033571D01*
X116101904Y-85985952D01*
X116197142Y-85938333D01*
X116435238Y-85938333D01*
X116530476Y-85985952D01*
X116578095Y-86033571D01*
X116625714Y-86128809D01*
X116625714Y-86366904D01*
X116578095Y-86462142D01*
X116530476Y-86509761D01*
X116435238Y-86557380D01*
X116197142Y-86557380D01*
X116101904Y-86509761D01*
X116054285Y-86462142D01*
%TO.C,U3*%
X105283095Y-91142380D02*
X105283095Y-91951904D01*
X105330714Y-92047142D01*
X105378333Y-92094761D01*
X105473571Y-92142380D01*
X105664047Y-92142380D01*
X105759285Y-92094761D01*
X105806904Y-92047142D01*
X105854523Y-91951904D01*
X105854523Y-91142380D01*
X106235476Y-91142380D02*
X106854523Y-91142380D01*
X106521190Y-91523333D01*
X106664047Y-91523333D01*
X106759285Y-91570952D01*
X106806904Y-91618571D01*
X106854523Y-91713809D01*
X106854523Y-91951904D01*
X106806904Y-92047142D01*
X106759285Y-92094761D01*
X106664047Y-92142380D01*
X106378333Y-92142380D01*
X106283095Y-92094761D01*
X106235476Y-92047142D01*
D12*
%TO.C,CN2*%
X111801085Y-112641980D02*
X111734361Y-112708705D01*
X111534186Y-112775430D01*
X111400737Y-112775430D01*
X111200563Y-112708705D01*
X111067113Y-112575255D01*
X111000388Y-112441806D01*
X110933664Y-112174907D01*
X110933664Y-111974733D01*
X111000388Y-111707834D01*
X111067113Y-111574384D01*
X111200563Y-111440935D01*
X111400737Y-111374210D01*
X111534186Y-111374210D01*
X111734361Y-111440935D01*
X111801085Y-111507659D01*
X112401608Y-112775430D02*
X112401608Y-111374210D01*
X113202305Y-112775430D01*
X113202305Y-111374210D01*
X113802828Y-111507659D02*
X113869553Y-111440935D01*
X114003003Y-111374210D01*
X114336626Y-111374210D01*
X114470076Y-111440935D01*
X114536801Y-111507659D01*
X114603525Y-111641109D01*
X114603525Y-111774558D01*
X114536801Y-111974733D01*
X113736104Y-112775430D01*
X114603525Y-112775430D01*
D11*
%TO.C,R4*%
X115673333Y-81732380D02*
X115340000Y-81256190D01*
X115101904Y-81732380D02*
X115101904Y-80732380D01*
X115482857Y-80732380D01*
X115578095Y-80780000D01*
X115625714Y-80827619D01*
X115673333Y-80922857D01*
X115673333Y-81065714D01*
X115625714Y-81160952D01*
X115578095Y-81208571D01*
X115482857Y-81256190D01*
X115101904Y-81256190D01*
X116530476Y-81065714D02*
X116530476Y-81732380D01*
X116292380Y-80684761D02*
X116054285Y-81399047D01*
X116673333Y-81399047D01*
%TO.C,C2*%
X122169583Y-101732142D02*
X122121964Y-101779761D01*
X121979107Y-101827380D01*
X121883869Y-101827380D01*
X121741011Y-101779761D01*
X121645773Y-101684523D01*
X121598154Y-101589285D01*
X121550535Y-101398809D01*
X121550535Y-101255952D01*
X121598154Y-101065476D01*
X121645773Y-100970238D01*
X121741011Y-100875000D01*
X121883869Y-100827380D01*
X121979107Y-100827380D01*
X122121964Y-100875000D01*
X122169583Y-100922619D01*
X122550535Y-100922619D02*
X122598154Y-100875000D01*
X122693392Y-100827380D01*
X122931488Y-100827380D01*
X123026726Y-100875000D01*
X123074345Y-100922619D01*
X123121964Y-101017857D01*
X123121964Y-101113095D01*
X123074345Y-101255952D01*
X122502916Y-101827380D01*
X123121964Y-101827380D01*
%TO.C,R2*%
X122118333Y-86557380D02*
X121785000Y-86081190D01*
X121546904Y-86557380D02*
X121546904Y-85557380D01*
X121927857Y-85557380D01*
X122023095Y-85605000D01*
X122070714Y-85652619D01*
X122118333Y-85747857D01*
X122118333Y-85890714D01*
X122070714Y-85985952D01*
X122023095Y-86033571D01*
X121927857Y-86081190D01*
X121546904Y-86081190D01*
X122499285Y-85652619D02*
X122546904Y-85605000D01*
X122642142Y-85557380D01*
X122880238Y-85557380D01*
X122975476Y-85605000D01*
X123023095Y-85652619D01*
X123070714Y-85747857D01*
X123070714Y-85843095D01*
X123023095Y-85985952D01*
X122451666Y-86557380D01*
X123070714Y-86557380D01*
%TO.C,R7*%
X115673333Y-94687380D02*
X115340000Y-94211190D01*
X115101904Y-94687380D02*
X115101904Y-93687380D01*
X115482857Y-93687380D01*
X115578095Y-93735000D01*
X115625714Y-93782619D01*
X115673333Y-93877857D01*
X115673333Y-94020714D01*
X115625714Y-94115952D01*
X115578095Y-94163571D01*
X115482857Y-94211190D01*
X115101904Y-94211190D01*
X116006666Y-93687380D02*
X116673333Y-93687380D01*
X116244761Y-94687380D01*
%TO.C,U2*%
X68140358Y-97899793D02*
X68226072Y-97728364D01*
X68226072Y-97385507D01*
X68140358Y-97214079D01*
X67968929Y-97128364D01*
X67883215Y-97128364D01*
X67711787Y-97214079D01*
X67626072Y-97385507D01*
X67626072Y-97642650D01*
X67540358Y-97814079D01*
X67368929Y-97899793D01*
X67283215Y-97899793D01*
X67111787Y-97814079D01*
X67026072Y-97642650D01*
X67026072Y-97385507D01*
X67111787Y-97214079D01*
X68140358Y-95671221D02*
X68226072Y-95842650D01*
X68226072Y-96185507D01*
X68140358Y-96356936D01*
X67968929Y-96442650D01*
X67283215Y-96442650D01*
X67111787Y-96356936D01*
X67026072Y-96185507D01*
X67026072Y-95842650D01*
X67111787Y-95671221D01*
X67283215Y-95585507D01*
X67454644Y-95585507D01*
X67626072Y-96442650D01*
X67026072Y-94814079D02*
X68226072Y-94814079D01*
X67197501Y-94814079D02*
X67111787Y-94728364D01*
X67026072Y-94556936D01*
X67026072Y-94299793D01*
X67111787Y-94128364D01*
X67283215Y-94042650D01*
X68226072Y-94042650D01*
X68140358Y-93271221D02*
X68226072Y-93099793D01*
X68226072Y-92756936D01*
X68140358Y-92585507D01*
X67968929Y-92499793D01*
X67883215Y-92499793D01*
X67711787Y-92585507D01*
X67626072Y-92756936D01*
X67626072Y-93014079D01*
X67540358Y-93185507D01*
X67368929Y-93271221D01*
X67283215Y-93271221D01*
X67111787Y-93185507D01*
X67026072Y-93014079D01*
X67026072Y-92756936D01*
X67111787Y-92585507D01*
X68140358Y-91042650D02*
X68226072Y-91214079D01*
X68226072Y-91556936D01*
X68140358Y-91728364D01*
X67968929Y-91814079D01*
X67283215Y-91814079D01*
X67111787Y-91728364D01*
X67026072Y-91556936D01*
X67026072Y-91214079D01*
X67111787Y-91042650D01*
X67283215Y-90956936D01*
X67454644Y-90956936D01*
X67626072Y-91814079D01*
X68054644Y-90185507D02*
X68140358Y-90099793D01*
X68226072Y-90185507D01*
X68140358Y-90271221D01*
X68054644Y-90185507D01*
X68226072Y-90185507D01*
X68226072Y-89328364D02*
X67026072Y-89328364D01*
X67197501Y-89328364D02*
X67111787Y-89242650D01*
X67026072Y-89071221D01*
X67026072Y-88814079D01*
X67111787Y-88642650D01*
X67283215Y-88556936D01*
X68226072Y-88556936D01*
X67283215Y-88556936D02*
X67111787Y-88471221D01*
X67026072Y-88299793D01*
X67026072Y-88042650D01*
X67111787Y-87871221D01*
X67283215Y-87785507D01*
X68226072Y-87785507D01*
X68140358Y-86242650D02*
X68226072Y-86414079D01*
X68226072Y-86756936D01*
X68140358Y-86928364D01*
X67968929Y-87014079D01*
X67283215Y-87014079D01*
X67111787Y-86928364D01*
X67026072Y-86756936D01*
X67026072Y-86414079D01*
X67111787Y-86242650D01*
X67283215Y-86156936D01*
X67454644Y-86156936D01*
X67626072Y-87014079D01*
X67026072Y-85642650D02*
X67026072Y-84956936D01*
X66426072Y-85385507D02*
X67968929Y-85385507D01*
X68140358Y-85299793D01*
X68226072Y-85128364D01*
X68226072Y-84956936D01*
X68226072Y-84356936D02*
X67026072Y-84356936D01*
X67368929Y-84356936D02*
X67197501Y-84271221D01*
X67111787Y-84185507D01*
X67026072Y-84014079D01*
X67026072Y-83842650D01*
X68226072Y-83242650D02*
X67026072Y-83242650D01*
X66426072Y-83242650D02*
X66511787Y-83328364D01*
X66597501Y-83242650D01*
X66511787Y-83156936D01*
X66426072Y-83242650D01*
X66597501Y-83242650D01*
X67026072Y-82642650D02*
X67026072Y-81956936D01*
X68226072Y-82385507D02*
X66683215Y-82385507D01*
X66511787Y-82299793D01*
X66426072Y-82128364D01*
X66426072Y-81956936D01*
X67026072Y-80585507D02*
X68226072Y-80585507D01*
X67026072Y-81356936D02*
X67968929Y-81356936D01*
X68140358Y-81271221D01*
X68226072Y-81099793D01*
X68226072Y-80842650D01*
X68140358Y-80671221D01*
X68054644Y-80585507D01*
X68226072Y-79471221D02*
X68140358Y-79642650D01*
X67968929Y-79728364D01*
X66426072Y-79728364D01*
X68054644Y-78785507D02*
X68140358Y-78699793D01*
X68226072Y-78785507D01*
X68140358Y-78871221D01*
X68054644Y-78785507D01*
X68226072Y-78785507D01*
X68140358Y-77156936D02*
X68226072Y-77328364D01*
X68226072Y-77671221D01*
X68140358Y-77842650D01*
X68054644Y-77928364D01*
X67883215Y-78014079D01*
X67368929Y-78014079D01*
X67197501Y-77928364D01*
X67111787Y-77842650D01*
X67026072Y-77671221D01*
X67026072Y-77328364D01*
X67111787Y-77156936D01*
X68226072Y-76128364D02*
X68140358Y-76299793D01*
X68054644Y-76385507D01*
X67883215Y-76471221D01*
X67368929Y-76471221D01*
X67197501Y-76385507D01*
X67111787Y-76299793D01*
X67026072Y-76128364D01*
X67026072Y-75871221D01*
X67111787Y-75699793D01*
X67197501Y-75614079D01*
X67368929Y-75528364D01*
X67883215Y-75528364D01*
X68054644Y-75614079D01*
X68140358Y-75699793D01*
X68226072Y-75871221D01*
X68226072Y-76128364D01*
X68226072Y-74756936D02*
X67026072Y-74756936D01*
X67197501Y-74756936D02*
X67111787Y-74671221D01*
X67026072Y-74499793D01*
X67026072Y-74242650D01*
X67111787Y-74071221D01*
X67283215Y-73985507D01*
X68226072Y-73985507D01*
X67283215Y-73985507D02*
X67111787Y-73899793D01*
X67026072Y-73728364D01*
X67026072Y-73471221D01*
X67111787Y-73299793D01*
X67283215Y-73214079D01*
X68226072Y-73214079D01*
D13*
%TO.C,R6*%
X115612936Y-89435000D02*
X116067064Y-89435000D01*
X115612936Y-90905000D02*
X116067064Y-90905000D01*
%TO.C,R3*%
X122057936Y-89435000D02*
X122512064Y-89435000D01*
X122057936Y-90905000D02*
X122512064Y-90905000D01*
D14*
%TO.C,CN3*%
X136271000Y-108332000D02*
X136271000Y-108967000D01*
X132461000Y-117603000D02*
X135509000Y-117603000D01*
X135509000Y-108332000D02*
X136271000Y-108332000D01*
X134239000Y-108332000D02*
X134239000Y-108967000D01*
X139785000Y-117407000D02*
X139785000Y-102107000D01*
X133731000Y-108332000D02*
X133731000Y-108967000D01*
X132461000Y-116587000D02*
X132461000Y-117603000D01*
X139065000Y-114555000D02*
X139065000Y-108967000D01*
X137541000Y-114555000D02*
X137541000Y-115444000D01*
X132461000Y-108332000D02*
X132461000Y-108967000D01*
X131699000Y-108332000D02*
X131699000Y-108967000D01*
X128185000Y-102107000D02*
X128185000Y-117407000D01*
X128185000Y-117407000D02*
X139785000Y-117407000D01*
X139785000Y-102107000D02*
X128185000Y-102107000D01*
X135509000Y-117603000D02*
X135509000Y-116587000D01*
X128905000Y-115444000D02*
X130429000Y-115444000D01*
X132969000Y-108332000D02*
X133731000Y-108332000D01*
X132461000Y-116587000D02*
X135509000Y-116587000D01*
X139065000Y-108967000D02*
X136271000Y-108967000D01*
X134239000Y-108332000D02*
X135001000Y-108332000D01*
X139065000Y-114555000D02*
X137541000Y-114555000D01*
X139065000Y-115444000D02*
X139065000Y-114555000D01*
X134239000Y-108967000D02*
X133731000Y-108967000D01*
X137541000Y-115444000D02*
X137541000Y-116587000D01*
X135509000Y-108967000D02*
X135001000Y-108967000D01*
X132969000Y-108332000D02*
X132969000Y-108967000D01*
X131699000Y-108967000D02*
X128905000Y-108967000D01*
X131699000Y-108332000D02*
X132461000Y-108332000D01*
X135001000Y-108332000D02*
X135001000Y-108967000D01*
X130429000Y-114555000D02*
X130429000Y-115444000D01*
X130429000Y-116587000D02*
X132461000Y-116587000D01*
X132969000Y-108967000D02*
X132461000Y-108967000D01*
X139065000Y-115444000D02*
X137541000Y-115444000D01*
X135509000Y-116587000D02*
X137541000Y-116587000D01*
X128905000Y-114555000D02*
X130429000Y-114555000D01*
X130429000Y-115444000D02*
X130429000Y-116587000D01*
X128905000Y-108967000D02*
X128905000Y-114555000D01*
X128905000Y-114555000D02*
X128905000Y-115444000D01*
X135509000Y-108332000D02*
X135509000Y-108967000D01*
D13*
%TO.C,Q1*%
X131485000Y-80510000D02*
X131485000Y-81170000D01*
X130075000Y-81170000D02*
X131485000Y-81170000D01*
X131485000Y-78840000D02*
X131485000Y-79510000D01*
X131485000Y-78850000D02*
X128750000Y-78850000D01*
D15*
%TO.C,Q2*%
X131060000Y-88345000D02*
X131060000Y-88645000D01*
X130685000Y-85345000D02*
X131060000Y-85345000D01*
X130060000Y-85345000D02*
X129785000Y-85345000D01*
X129410000Y-88645000D02*
X129410000Y-88295000D01*
X129885000Y-88645000D02*
X129410000Y-88645000D01*
X129410000Y-85620000D02*
X129410000Y-85670000D01*
X131060000Y-88420000D02*
X131060000Y-88295000D01*
X129410000Y-85670000D02*
X128635000Y-85670000D01*
X131060000Y-88645000D02*
X130610000Y-88645000D01*
X131060000Y-85345000D02*
X131060000Y-85645000D01*
X129785000Y-85345000D02*
X129410000Y-85620000D01*
D13*
%TO.C,R1*%
X122057936Y-78640000D02*
X122512064Y-78640000D01*
X122057936Y-80110000D02*
X122512064Y-80110000D01*
%TO.C,J4*%
X97310000Y-112560000D02*
X96700000Y-112560000D01*
X91750000Y-109950000D02*
X91750000Y-110560000D01*
X88890000Y-109650000D02*
X88890000Y-110900000D01*
X97310000Y-111260000D02*
X96700000Y-111260000D01*
X91750000Y-110560000D02*
X89800000Y-110560000D01*
X94250000Y-114060000D02*
X94250000Y-113560000D01*
X92350000Y-113560000D02*
X92350000Y-114060000D01*
X94750000Y-110560000D02*
X94750000Y-109950000D01*
X94150000Y-113560000D02*
X94350000Y-113560000D01*
X94350000Y-113560000D02*
X94350000Y-114060000D01*
X89190000Y-112560000D02*
X89800000Y-112560000D01*
X89800000Y-114060000D02*
X96700000Y-114060000D01*
X90950000Y-109750000D02*
X90650000Y-109750000D01*
X96700000Y-110560000D02*
X94750000Y-110560000D01*
X94150000Y-114060000D02*
X94150000Y-113560000D01*
X97310000Y-114670000D02*
X97310000Y-109950000D01*
X92150000Y-114060000D02*
X92150000Y-113560000D01*
X92150000Y-113560000D02*
X92350000Y-113560000D01*
X90950000Y-109950000D02*
X90950000Y-109750000D01*
X90950000Y-109850000D02*
X90650000Y-109850000D01*
X89800000Y-110560000D02*
X89800000Y-114060000D01*
X96700000Y-114060000D02*
X96700000Y-110560000D01*
X97310000Y-109950000D02*
X89190000Y-109950000D01*
X89190000Y-114670000D02*
X97310000Y-114670000D01*
X92250000Y-114060000D02*
X92250000Y-113560000D01*
X89190000Y-109950000D02*
X89190000Y-114670000D01*
X90140000Y-109650000D02*
X88890000Y-109650000D01*
X90650000Y-109750000D02*
X90650000Y-109950000D01*
X89190000Y-111260000D02*
X89800000Y-111260000D01*
%TO.C,F1*%
X132805000Y-96704564D02*
X132805000Y-95500436D01*
X130085000Y-96704564D02*
X130085000Y-95500436D01*
%TO.C,C1*%
X121891248Y-96620000D02*
X122413752Y-96620000D01*
X121891248Y-95150000D02*
X122413752Y-95150000D01*
D14*
%TO.C,CN1*%
X112041000Y-114555000D02*
X112041000Y-115444000D01*
X113565000Y-115444000D02*
X113565000Y-114555000D01*
X107469000Y-108332000D02*
X108231000Y-108332000D01*
X113565000Y-114555000D02*
X112041000Y-114555000D01*
X104929000Y-114555000D02*
X104929000Y-115444000D01*
X103405000Y-114555000D02*
X104929000Y-114555000D01*
X106961000Y-116587000D02*
X110009000Y-116587000D01*
X110009000Y-116587000D02*
X112041000Y-116587000D01*
X106961000Y-116587000D02*
X106961000Y-117603000D01*
X106961000Y-117603000D02*
X110009000Y-117603000D01*
X103405000Y-114555000D02*
X103405000Y-115444000D01*
X110009000Y-108967000D02*
X109501000Y-108967000D01*
X112041000Y-115444000D02*
X112041000Y-116587000D01*
X110009000Y-108332000D02*
X110009000Y-108967000D01*
X107469000Y-108967000D02*
X106961000Y-108967000D01*
X108739000Y-108332000D02*
X108739000Y-108967000D01*
X103405000Y-108967000D02*
X103405000Y-114555000D01*
X114285000Y-117407000D02*
X114285000Y-102107000D01*
X106199000Y-108332000D02*
X106961000Y-108332000D01*
X106961000Y-108332000D02*
X106961000Y-108967000D01*
X104929000Y-116587000D02*
X106961000Y-116587000D01*
X110009000Y-108332000D02*
X110771000Y-108332000D01*
X104929000Y-115444000D02*
X104929000Y-116587000D01*
X102685000Y-117407000D02*
X114285000Y-117407000D01*
X108739000Y-108332000D02*
X109501000Y-108332000D01*
X113565000Y-115444000D02*
X112041000Y-115444000D01*
X110009000Y-117603000D02*
X110009000Y-116587000D01*
X107469000Y-108332000D02*
X107469000Y-108967000D01*
X113565000Y-114555000D02*
X113565000Y-108967000D01*
X106199000Y-108967000D02*
X103405000Y-108967000D01*
X108739000Y-108967000D02*
X108231000Y-108967000D01*
X109501000Y-108332000D02*
X109501000Y-108967000D01*
X114285000Y-102107000D02*
X102685000Y-102107000D01*
X108231000Y-108332000D02*
X108231000Y-108967000D01*
X106199000Y-108332000D02*
X106199000Y-108967000D01*
X110771000Y-108332000D02*
X110771000Y-108967000D01*
X103405000Y-115444000D02*
X104929000Y-115444000D01*
X102685000Y-102107000D02*
X102685000Y-117407000D01*
X113565000Y-108967000D02*
X110771000Y-108967000D01*
D11*
%TO.C,U1*%
X166370000Y-67945000D02*
X166370000Y-113665000D01*
X157470000Y-110205000D02*
X157470000Y-115935000D01*
X149860000Y-114935000D02*
X142240000Y-114935000D01*
X157470000Y-115935000D02*
X149870000Y-115935000D01*
X140970000Y-67945000D02*
X140970000Y-113665000D01*
X159170000Y-66675000D02*
X159170000Y-73805000D01*
X149870000Y-110205000D02*
X157470000Y-110205000D01*
X149870000Y-115935000D02*
X149870000Y-110205000D01*
X148170000Y-73805000D02*
X148170000Y-66675000D01*
X165100000Y-66675000D02*
X142240000Y-66675000D01*
X165100000Y-114935000D02*
X157480000Y-114935000D01*
X159170000Y-73805000D02*
X148170000Y-73805000D01*
X166370000Y-67945000D02*
G75*
G03*
X165100000Y-66675000I-1270000J0D01*
G01*
X142240000Y-66675000D02*
G75*
G03*
X140970000Y-67945000I-1J-1269999D01*
G01*
X140970000Y-113665000D02*
G75*
G03*
X142240000Y-114935000I1269999J-1D01*
G01*
X165100000Y-114935000D02*
G75*
G03*
X166370000Y-113665000I0J1270000D01*
G01*
X145010000Y-112395000D02*
G75*
G03*
X145010000Y-112395000I-1500000J0D01*
G01*
X144540000Y-68725000D02*
G75*
G03*
X144540000Y-68725000I-1500000J0D01*
G01*
X165330000Y-112395000D02*
G75*
G03*
X165330000Y-112395000I-1500000J0D01*
G01*
X165740000Y-68725000D02*
G75*
G03*
X165740000Y-68725000I-1500000J0D01*
G01*
D13*
%TO.C,J1*%
X133410000Y-67250000D02*
X133410000Y-68580000D01*
X123130000Y-67250000D02*
X123130000Y-72450000D01*
X132080000Y-67250000D02*
X133410000Y-67250000D01*
X133410000Y-69850000D02*
X133410000Y-72450000D01*
X133410000Y-72450000D02*
X123130000Y-72450000D01*
X130810000Y-69850000D02*
X133410000Y-69850000D01*
X130810000Y-67250000D02*
X123130000Y-67250000D01*
X130810000Y-67250000D02*
X130810000Y-69850000D01*
%TO.C,R5*%
X116067064Y-85190000D02*
X115612936Y-85190000D01*
X116067064Y-83720000D02*
X115612936Y-83720000D01*
%TO.C,U3*%
X104245000Y-97100000D02*
X107845000Y-97100000D01*
X106045000Y-92649999D02*
G75*
G03*
X104206522Y-97088478I0J-2600001D01*
G01*
X107883478Y-97088478D02*
G75*
G03*
X106045000Y-92650000I-1838478J1838478D01*
G01*
D14*
%TO.C,CN2*%
X119761000Y-108331000D02*
X119761000Y-108966000D01*
X121539000Y-108331000D02*
X122301000Y-108331000D01*
X126365000Y-115443000D02*
X126365000Y-114554000D01*
X115485000Y-102106000D02*
X115485000Y-117406000D01*
X116205000Y-114554000D02*
X117729000Y-114554000D01*
X127085000Y-102106000D02*
X115485000Y-102106000D01*
X126365000Y-114554000D02*
X126365000Y-108966000D01*
X121539000Y-108966000D02*
X121031000Y-108966000D01*
X115485000Y-117406000D02*
X127085000Y-117406000D01*
X116205000Y-108966000D02*
X116205000Y-114554000D01*
X123571000Y-108331000D02*
X123571000Y-108966000D01*
X126365000Y-114554000D02*
X124841000Y-114554000D01*
X119761000Y-116586000D02*
X119761000Y-117602000D01*
X127085000Y-117406000D02*
X127085000Y-102106000D01*
X119761000Y-117602000D02*
X122809000Y-117602000D01*
X119761000Y-116586000D02*
X122809000Y-116586000D01*
X124841000Y-114554000D02*
X124841000Y-115443000D01*
X116205000Y-115443000D02*
X117729000Y-115443000D01*
X122809000Y-108966000D02*
X122301000Y-108966000D01*
X120269000Y-108331000D02*
X120269000Y-108966000D01*
X117729000Y-116586000D02*
X119761000Y-116586000D01*
X122809000Y-116586000D02*
X124841000Y-116586000D01*
X122809000Y-108331000D02*
X122809000Y-108966000D01*
X121539000Y-108331000D02*
X121539000Y-108966000D01*
X116205000Y-114554000D02*
X116205000Y-115443000D01*
X117729000Y-114554000D02*
X117729000Y-115443000D01*
X121031000Y-108331000D02*
X121031000Y-108966000D01*
X117729000Y-115443000D02*
X117729000Y-116586000D01*
X126365000Y-115443000D02*
X124841000Y-115443000D01*
X118999000Y-108331000D02*
X118999000Y-108966000D01*
X118999000Y-108331000D02*
X119761000Y-108331000D01*
X122809000Y-108331000D02*
X123571000Y-108331000D01*
X120269000Y-108331000D02*
X121031000Y-108331000D01*
X118999000Y-108966000D02*
X116205000Y-108966000D01*
X122301000Y-108331000D02*
X122301000Y-108966000D01*
X124841000Y-115443000D02*
X124841000Y-116586000D01*
X122809000Y-117602000D02*
X122809000Y-116586000D01*
X120269000Y-108966000D02*
X119761000Y-108966000D01*
X126365000Y-108966000D02*
X123571000Y-108966000D01*
D13*
%TO.C,R4*%
X116067064Y-78640000D02*
X115612936Y-78640000D01*
X116067064Y-80110000D02*
X115612936Y-80110000D01*
%TO.C,C2*%
X122597502Y-98960000D02*
X122074998Y-98960000D01*
X122597502Y-100430000D02*
X122074998Y-100430000D01*
%TO.C,R2*%
X122512064Y-85190000D02*
X122057936Y-85190000D01*
X122512064Y-83720000D02*
X122057936Y-83720000D01*
%TO.C,R7*%
X115612936Y-95150000D02*
X116067064Y-95150000D01*
X115612936Y-96620000D02*
X116067064Y-96620000D01*
%TO.C,U2*%
X67790460Y-66819564D02*
X86083114Y-66823528D01*
X65113213Y-101883248D02*
X65145947Y-69610057D01*
X86251787Y-104440437D02*
X67947302Y-104434623D01*
X88515776Y-69468040D02*
X88513232Y-101755595D01*
X67790460Y-66819564D02*
G75*
G03*
X65145947Y-69610057I105018J-2747856D01*
G01*
X65113213Y-101883248D02*
G75*
G03*
X67947302Y-104434623I2710669J161282D01*
G01*
X88515776Y-69468040D02*
G75*
G03*
X86083114Y-66823528I-2449345J188018D01*
G01*
X86251787Y-104440436D02*
G75*
G03*
X88513232Y-101755595I-283895J2533954D01*
G01*
X68951787Y-69254079D02*
G75*
G03*
X68951787Y-69254079I-1000000J0D01*
G01*
X87251787Y-101754079D02*
G75*
G03*
X87251787Y-101754079I-1000000J0D01*
G01*
X87251787Y-69254079D02*
G75*
G03*
X87251787Y-69254079I-1000000J0D01*
G01*
X68951787Y-101754079D02*
G75*
G03*
X68951787Y-101754079I-1000000J0D01*
G01*
X86083114Y-66823528D02*
X86238161Y-66826947D01*
X86545555Y-66868072D01*
X86845328Y-66947560D01*
X87132713Y-67064148D01*
X87403137Y-67215980D01*
X87652301Y-67400641D01*
X87876240Y-67615196D01*
X88071393Y-67856231D01*
X88234656Y-68119911D01*
X88363432Y-68402045D01*
X88455673Y-68698143D01*
X88509912Y-69003496D01*
X88525286Y-69313247D01*
X88515776Y-69468040D01*
X88513232Y-101755595D01*
X88520361Y-101916852D01*
X88498744Y-102238919D01*
X88436636Y-102555679D01*
X88335031Y-102862062D01*
X88195555Y-103153164D01*
X88020441Y-103424327D01*
X87812492Y-103671210D01*
X87575035Y-103889861D01*
X87311871Y-104076781D01*
X87027213Y-104228979D01*
X86725617Y-104344017D01*
X86411910Y-104420056D01*
X86251787Y-104440437D01*
X67947302Y-104434623D01*
X67784716Y-104439617D01*
X67460324Y-104415453D01*
X67141142Y-104352710D01*
X66831741Y-104252288D01*
X66536552Y-104115624D01*
X66259802Y-103944675D01*
X66005455Y-103741890D01*
X65777154Y-103510174D01*
X65578169Y-103252844D01*
X65411349Y-102973586D01*
X65279083Y-102676400D01*
X65183266Y-102365542D01*
X65125270Y-102045463D01*
X65113213Y-101883248D01*
X65145947Y-69610057D01*
X65145741Y-69446245D01*
X65179556Y-69120405D01*
X65251853Y-68800892D01*
X65361607Y-68492235D01*
X65507262Y-68198807D01*
X65686754Y-67924768D01*
X65897539Y-67674000D01*
X66136631Y-67450057D01*
X66400640Y-67256113D01*
X66685826Y-67094917D01*
X66988147Y-66968754D01*
X67303318Y-66879410D01*
X67626873Y-66828152D01*
X67790460Y-66819564D01*
X86083114Y-66823528D01*
%TD*%
D16*
%TO.C,U1*%
X142240000Y-73025000D03*
X142240000Y-75565000D03*
X142240000Y-78105000D03*
X142240000Y-80645000D03*
X142240000Y-83185000D03*
X142240000Y-85725000D03*
X142240000Y-88265000D03*
X142240000Y-90805000D03*
X142240000Y-93345000D03*
X142240000Y-95885000D03*
X142240000Y-98425000D03*
X142240000Y-100965000D03*
X142240000Y-103505000D03*
X142240000Y-106045000D03*
X142240000Y-108585000D03*
X165100000Y-108585000D03*
X165100000Y-106045000D03*
X165100000Y-103505000D03*
X165100000Y-100965000D03*
X165100000Y-98425000D03*
X165100000Y-95885000D03*
X165100000Y-93345000D03*
X165100000Y-90805000D03*
X165100000Y-88265000D03*
X165100000Y-85725000D03*
X165100000Y-83185000D03*
X165100000Y-80645000D03*
X165100000Y-78105000D03*
X165100000Y-75565000D03*
X165100000Y-73025000D03*
%TD*%
M02*
