%TF.GenerationSoftware,KiCad,Pcbnew,(6.0.4-0)*%
%TF.CreationDate,2023-05-22T14:10:50+02:00*%
%TF.ProjectId,NodeMCU-Metriful,4e6f6465-4d43-4552-9d4d-657472696675,rev?*%
%TF.SameCoordinates,Original*%
%TF.FileFunction,Copper,L1,Top*%
%TF.FilePolarity,Positive*%
%FSLAX46Y46*%
G04 Gerber Fmt 4.6, Leading zero omitted, Abs format (unit mm)*
G04 Created by KiCad (PCBNEW (6.0.4-0)) date 2023-05-22 14:10:50*
%MOMM*%
%LPD*%
G01*
G04 APERTURE LIST*
G04 Aperture macros list*
%AMRoundRect*
0 Rectangle with rounded corners*
0 $1 Rounding radius*
0 $2 $3 $4 $5 $6 $7 $8 $9 X,Y pos of 4 corners*
0 Add a 4 corners polygon primitive as box body*
4,1,4,$2,$3,$4,$5,$6,$7,$8,$9,$2,$3,0*
0 Add four circle primitives for the rounded corners*
1,1,$1+$1,$2,$3*
1,1,$1+$1,$4,$5*
1,1,$1+$1,$6,$7*
1,1,$1+$1,$8,$9*
0 Add four rect primitives between the rounded corners*
20,1,$1+$1,$2,$3,$4,$5,0*
20,1,$1+$1,$4,$5,$6,$7,0*
20,1,$1+$1,$6,$7,$8,$9,0*
20,1,$1+$1,$8,$9,$2,$3,0*%
G04 Aperture macros list end*
%TA.AperFunction,NonConductor*%
%ADD10C,0.200000*%
%TD*%
%TA.AperFunction,SMDPad,CuDef*%
%ADD11RoundRect,0.250000X-0.350000X-0.450000X0.350000X-0.450000X0.350000X0.450000X-0.350000X0.450000X0*%
%TD*%
%TA.AperFunction,ComponentPad*%
%ADD12C,1.397000*%
%TD*%
%TA.AperFunction,SMDPad,CuDef*%
%ADD13R,1.500000X0.450000*%
%TD*%
%TA.AperFunction,SMDPad,CuDef*%
%ADD14R,1.300000X0.600000*%
%TD*%
%TA.AperFunction,ComponentPad*%
%ADD15RoundRect,0.250000X-0.350000X-0.625000X0.350000X-0.625000X0.350000X0.625000X-0.350000X0.625000X0*%
%TD*%
%TA.AperFunction,ComponentPad*%
%ADD16O,1.200000X1.750000*%
%TD*%
%TA.AperFunction,SMDPad,CuDef*%
%ADD17RoundRect,0.250001X1.074999X-0.462499X1.074999X0.462499X-1.074999X0.462499X-1.074999X-0.462499X0*%
%TD*%
%TA.AperFunction,SMDPad,CuDef*%
%ADD18RoundRect,0.250000X-0.337500X-0.475000X0.337500X-0.475000X0.337500X0.475000X-0.337500X0.475000X0*%
%TD*%
%TA.AperFunction,ComponentPad*%
%ADD19C,1.524000*%
%TD*%
%TA.AperFunction,ComponentPad*%
%ADD20R,1.700000X1.700000*%
%TD*%
%TA.AperFunction,ComponentPad*%
%ADD21O,1.700000X1.700000*%
%TD*%
%TA.AperFunction,SMDPad,CuDef*%
%ADD22RoundRect,0.250000X0.350000X0.450000X-0.350000X0.450000X-0.350000X-0.450000X0.350000X-0.450000X0*%
%TD*%
%TA.AperFunction,ComponentPad*%
%ADD23R,1.050000X1.500000*%
%TD*%
%TA.AperFunction,ComponentPad*%
%ADD24O,1.050000X1.500000*%
%TD*%
%TA.AperFunction,SMDPad,CuDef*%
%ADD25RoundRect,0.250000X0.250000X0.475000X-0.250000X0.475000X-0.250000X-0.475000X0.250000X-0.475000X0*%
%TD*%
%TA.AperFunction,SMDPad,CuDef*%
%ADD26RoundRect,0.500000X-1.000000X0.500000X-1.000000X-0.500000X1.000000X-0.500000X1.000000X0.500000X0*%
%TD*%
%TA.AperFunction,ViaPad*%
%ADD27C,0.800000*%
%TD*%
%TA.AperFunction,Conductor*%
%ADD28C,0.250000*%
%TD*%
%TA.AperFunction,Conductor*%
%ADD29C,0.350000*%
%TD*%
G04 APERTURE END LIST*
D10*
G36*
X110490000Y-98425000D02*
G01*
X115570000Y-98425000D01*
X116840000Y-97155000D01*
X116840000Y-100330000D01*
X118110000Y-101600000D01*
X109855000Y-101600000D01*
X107950000Y-103505000D01*
X107315000Y-95250000D01*
X110490000Y-98425000D01*
G37*
X110490000Y-98425000D02*
X115570000Y-98425000D01*
X116840000Y-97155000D01*
X116840000Y-100330000D01*
X118110000Y-101600000D01*
X109855000Y-101600000D01*
X107950000Y-103505000D01*
X107315000Y-95250000D01*
X110490000Y-98425000D01*
G36*
X113665000Y-98425000D02*
G01*
X110490000Y-98425000D01*
X107315000Y-95250000D01*
X110490000Y-95250000D01*
X113665000Y-98425000D01*
G37*
X113665000Y-98425000D02*
X110490000Y-98425000D01*
X107315000Y-95250000D01*
X110490000Y-95250000D01*
X113665000Y-98425000D01*
D11*
%TO.P,R6,1*%
%TO.N,GND*%
X114840000Y-90170000D03*
%TO.P,R6,2*%
%TO.N,Net-(C2-Pad1)*%
X116840000Y-90170000D03*
%TD*%
%TO.P,R3,1*%
%TO.N,Net-(R3-Pad1)*%
X121285000Y-90170000D03*
%TO.P,R3,2*%
%TO.N,Net-(F1-Pad2)*%
X123285000Y-90170000D03*
%TD*%
D12*
%TO.P,CN3,1,1*%
%TO.N,GND*%
X132080000Y-106046000D03*
%TO.P,CN3,2,2*%
%TO.N,Net-(CN1-Pad2)*%
X133350000Y-103506000D03*
%TO.P,CN3,3,3*%
%TO.N,Net-(CN1-Pad3)*%
X134620000Y-106046000D03*
%TO.P,CN3,4,4*%
%TO.N,unconnected-(CN3-Pad4)*%
X135890000Y-103506000D03*
%TD*%
D13*
%TO.P,Q1,1,G*%
%TO.N,T_enable*%
X129420000Y-79360000D03*
%TO.P,Q1,2,S*%
%TO.N,GND*%
X129420000Y-80660000D03*
%TO.P,Q1,3,D*%
%TO.N,Net-(Q1-Pad3)*%
X132080000Y-80010000D03*
%TD*%
D14*
%TO.P,Q2,1,G*%
%TO.N,Net-(Q1-Pad3)*%
X129185000Y-86045000D03*
%TO.P,Q2,2,S*%
%TO.N,+3V3*%
X129185000Y-87945000D03*
%TO.P,Q2,3,D*%
%TO.N,Net-(F1-Pad2)*%
X131285000Y-86995000D03*
%TD*%
D11*
%TO.P,R1,1*%
%TO.N,GND*%
X121285000Y-79375000D03*
%TO.P,R1,2*%
%TO.N,T_enable*%
X123285000Y-79375000D03*
%TD*%
D15*
%TO.P,J4,1,Pin_1*%
%TO.N,VDD*%
X91250000Y-111760000D03*
D16*
%TO.P,J4,2,Pin_2*%
%TO.N,Net-(J4-Pad2)*%
X93250000Y-111760000D03*
%TO.P,J4,3,Pin_3*%
%TO.N,GND*%
X95250000Y-111760000D03*
%TD*%
D17*
%TO.P,F1,1*%
%TO.N,Net-(C2-Pad1)*%
X131445000Y-97590000D03*
%TO.P,F1,2*%
%TO.N,Net-(F1-Pad2)*%
X131445000Y-94615000D03*
%TD*%
D18*
%TO.P,C1,1*%
%TO.N,Net-(C1-Pad1)*%
X121115000Y-95885000D03*
%TO.P,C1,2*%
%TO.N,GND*%
X123190000Y-95885000D03*
%TD*%
D12*
%TO.P,CN1,1,1*%
%TO.N,GND*%
X106580000Y-106046000D03*
%TO.P,CN1,2,2*%
%TO.N,Net-(CN1-Pad2)*%
X107850000Y-103506000D03*
%TO.P,CN1,3,3*%
%TO.N,Net-(CN1-Pad3)*%
X109120000Y-106046000D03*
%TO.P,CN1,4,4*%
%TO.N,unconnected-(CN1-Pad4)*%
X110390000Y-103506000D03*
%TD*%
D19*
%TO.P,U1,1,A0(ADC0)*%
%TO.N,unconnected-(U1-Pad1)*%
X142240000Y-73025000D03*
%TO.P,U1,2,RSV*%
%TO.N,unconnected-(U1-Pad2)*%
X142240000Y-75565000D03*
%TO.P,U1,3,RSV*%
%TO.N,unconnected-(U1-Pad3)*%
X142240000Y-78105000D03*
%TO.P,U1,4,SD3(GPIO10)*%
%TO.N,unconnected-(U1-Pad4)*%
X142240000Y-80645000D03*
%TO.P,U1,5,SD2(GPIO9)*%
%TO.N,unconnected-(U1-Pad5)*%
X142240000Y-83185000D03*
%TO.P,U1,6,SD1(MOSI)*%
%TO.N,unconnected-(U1-Pad6)*%
X142240000Y-85725000D03*
%TO.P,U1,7,CMD(CS)*%
%TO.N,unconnected-(U1-Pad7)*%
X142240000Y-88265000D03*
%TO.P,U1,8,SDO(MISO)*%
%TO.N,unconnected-(U1-Pad8)*%
X142240000Y-90805000D03*
%TO.P,U1,9,CLK(SCLK)*%
%TO.N,unconnected-(U1-Pad9)*%
X142240000Y-93345000D03*
%TO.P,U1,10,GND*%
%TO.N,GND*%
X142240000Y-95885000D03*
%TO.P,U1,11,3.3V*%
%TO.N,+3V3*%
X142240000Y-98425000D03*
%TO.P,U1,12,EN*%
%TO.N,unconnected-(U1-Pad12)*%
X142240000Y-100965000D03*
%TO.P,U1,13,RST*%
%TO.N,unconnected-(U1-Pad13)*%
X142240000Y-103505000D03*
%TO.P,U1,14,GND*%
%TO.N,GND*%
X142240000Y-106045000D03*
%TO.P,U1,15,VIN*%
%TO.N,VDD*%
X142240000Y-108585000D03*
%TO.P,U1,16,3.3V*%
%TO.N,+3V3*%
X165100000Y-108585000D03*
%TO.P,U1,17,GND*%
%TO.N,GND*%
X165100000Y-106045000D03*
%TO.P,U1,18,TX(GPIO1)*%
%TO.N,unconnected-(U1-Pad18)*%
X165100000Y-103505000D03*
%TO.P,U1,19,RX(DPIO3)*%
%TO.N,unconnected-(U1-Pad19)*%
X165100000Y-100965000D03*
%TO.P,U1,20,D8(GPIO15)*%
%TO.N,Net-(J1-Pad7)*%
X165100000Y-98425000D03*
%TO.P,U1,21,D7(GPIO13)*%
%TO.N,Net-(R3-Pad1)*%
X165100000Y-95885000D03*
%TO.P,U1,22,D6(GPIO12)*%
%TO.N,Net-(U1-Pad22)*%
X165100000Y-93345000D03*
%TO.P,U1,23,D5(GPIO14)*%
%TO.N,T_enable*%
X165100000Y-90805000D03*
%TO.P,U1,24,GND*%
%TO.N,GND*%
X165100000Y-88265000D03*
%TO.P,U1,25,3.3V*%
%TO.N,+3V3*%
X165100000Y-85725000D03*
%TO.P,U1,26,D4(GPIO2)*%
%TO.N,Net-(J1-Pad5)*%
X165100000Y-83185000D03*
%TO.P,U1,27,D3(GPIO0)*%
%TO.N,Net-(J1-Pad3)*%
X165100000Y-80645000D03*
%TO.P,U1,28,D2(GPIO4)*%
%TO.N,Net-(U1-Pad28)*%
X165100000Y-78105000D03*
%TO.P,U1,29,D1(GPIO5)*%
%TO.N,Net-(U1-Pad29)*%
X165100000Y-75565000D03*
%TO.P,U1,30,D0(GPIO16)*%
%TO.N,Net-(J1-Pad1)*%
X165100000Y-73025000D03*
%TD*%
D20*
%TO.P,J1,1,Pin_1*%
%TO.N,Net-(J1-Pad1)*%
X132080000Y-68580000D03*
D21*
%TO.P,J1,2,Pin_2*%
%TO.N,GND*%
X132080000Y-71120000D03*
%TO.P,J1,3,Pin_3*%
%TO.N,Net-(J1-Pad3)*%
X129540000Y-68580000D03*
%TO.P,J1,4,Pin_4*%
%TO.N,GND*%
X129540000Y-71120000D03*
%TO.P,J1,5,Pin_5*%
%TO.N,Net-(J1-Pad5)*%
X127000000Y-68580000D03*
%TO.P,J1,6,Pin_6*%
%TO.N,GND*%
X127000000Y-71120000D03*
%TO.P,J1,7,Pin_7*%
%TO.N,Net-(J1-Pad7)*%
X124460000Y-68580000D03*
%TO.P,J1,8,Pin_8*%
%TO.N,GND*%
X124460000Y-71120000D03*
%TD*%
D22*
%TO.P,R5,1*%
%TO.N,Net-(C1-Pad1)*%
X116840000Y-84455000D03*
%TO.P,R5,2*%
%TO.N,Net-(CN1-Pad3)*%
X114840000Y-84455000D03*
%TD*%
D23*
%TO.P,U3,1,GND*%
%TO.N,GND*%
X104775000Y-95250000D03*
D24*
%TO.P,U3,2,DQ*%
%TO.N,Net-(CN1-Pad3)*%
X106045000Y-95250000D03*
%TO.P,U3,3,VDD*%
%TO.N,Net-(CN1-Pad2)*%
X107315000Y-95250000D03*
%TD*%
D12*
%TO.P,CN2,1,1*%
%TO.N,GND*%
X119380000Y-106045000D03*
%TO.P,CN2,2,2*%
%TO.N,Net-(CN1-Pad2)*%
X120650000Y-103505000D03*
%TO.P,CN2,3,3*%
%TO.N,Net-(CN1-Pad3)*%
X121920000Y-106045000D03*
%TO.P,CN2,4,4*%
%TO.N,unconnected-(CN2-Pad4)*%
X123190000Y-103505000D03*
%TD*%
D22*
%TO.P,R4,1*%
%TO.N,Net-(R3-Pad1)*%
X116840000Y-79375000D03*
%TO.P,R4,2*%
%TO.N,Net-(C1-Pad1)*%
X114840000Y-79375000D03*
%TD*%
D25*
%TO.P,C2,1*%
%TO.N,Net-(C2-Pad1)*%
X123286250Y-99695000D03*
%TO.P,C2,2*%
%TO.N,GND*%
X121386250Y-99695000D03*
%TD*%
D22*
%TO.P,R2,1*%
%TO.N,Net-(Q1-Pad3)*%
X123285000Y-84455000D03*
%TO.P,R2,2*%
%TO.N,+3V3*%
X121285000Y-84455000D03*
%TD*%
D11*
%TO.P,R7,1*%
%TO.N,Net-(C2-Pad1)*%
X114840000Y-95885000D03*
%TO.P,R7,2*%
%TO.N,Net-(CN1-Pad2)*%
X116840000Y-95885000D03*
%TD*%
D26*
%TO.P,U2,1,PRT*%
%TO.N,Net-(J4-Pad2)*%
X87096787Y-97455437D03*
%TO.P,U2,2,RDY*%
%TO.N,Net-(U1-Pad22)*%
X87096787Y-94915437D03*
%TO.P,U2,3,SIT*%
%TO.N,unconnected-(U2-Pad3)*%
X87096787Y-92375437D03*
%TO.P,U2,4,LIT*%
%TO.N,unconnected-(U2-Pad4)*%
X87096787Y-89835437D03*
%TO.P,U2,5,SDA*%
%TO.N,Net-(U1-Pad29)*%
X87096787Y-87295437D03*
%TO.P,U2,6,SCL*%
%TO.N,Net-(U1-Pad28)*%
X87096787Y-84755437D03*
%TO.P,U2,7,VPU*%
%TO.N,+3V3*%
X87096787Y-82215437D03*
%TO.P,U2,8,GND*%
%TO.N,GND*%
X87096787Y-79675437D03*
%TO.P,U2,9,VDD*%
%TO.N,+3V3*%
X87096787Y-77135437D03*
%TO.P,U2,10,VIN*%
%TO.N,unconnected-(U2-Pad10)*%
X87096787Y-74595437D03*
%TD*%
D27*
%TO.N,GND*%
X90170000Y-80010000D03*
X120015000Y-77470000D03*
X113030000Y-90170000D03*
X123190000Y-97790000D03*
%TO.N,Net-(F1-Pad2)*%
X124460000Y-92075000D03*
X131285000Y-90330000D03*
%TO.N,Net-(U1-Pad22)*%
X107950000Y-90805000D03*
X135890000Y-88265000D03*
%TO.N,Net-(R3-Pad1)*%
X125730000Y-93345000D03*
X152400000Y-97155000D03*
%TO.N,Net-(U1-Pad28)*%
X104775000Y-78740000D03*
X104775000Y-74930000D03*
%TO.N,Net-(U1-Pad29)*%
X107950000Y-73660000D03*
X107950000Y-78740000D03*
%TD*%
D28*
%TO.N,Net-(C1-Pad1)*%
X116840000Y-84455000D02*
X116840000Y-85725000D01*
X119380000Y-88265000D02*
X119380000Y-95250000D01*
X120015000Y-95885000D02*
X119380000Y-95250000D01*
X116840000Y-82550000D02*
X116840000Y-84455000D01*
X121115000Y-95885000D02*
X120015000Y-95885000D01*
X114840000Y-79375000D02*
X114935000Y-79375000D01*
X121122500Y-95877500D02*
X121115000Y-95885000D01*
X114935000Y-79375000D02*
X114935000Y-80645000D01*
X115030000Y-80740000D02*
X116840000Y-82550000D01*
X116840000Y-85725000D02*
X119380000Y-88265000D01*
%TO.N,GND*%
X120015000Y-78105000D02*
X121285000Y-79375000D01*
X121285000Y-79375000D02*
X121285000Y-80645000D01*
X124445000Y-80660000D02*
X129420000Y-80660000D01*
X120015000Y-77470000D02*
X120015000Y-78105000D01*
X113030000Y-90170000D02*
X114840000Y-90170000D01*
X122555000Y-98425000D02*
X121285000Y-98425000D01*
X123825000Y-81280000D02*
X124445000Y-80660000D01*
X121386250Y-99695000D02*
X121285000Y-99695000D01*
X121285000Y-98425000D02*
X121285000Y-99593750D01*
X121386250Y-99695000D02*
X121281250Y-99695000D01*
X90170000Y-80010000D02*
X89835437Y-79675437D01*
X121285000Y-80645000D02*
X121920000Y-81280000D01*
X121920000Y-81280000D02*
X123825000Y-81280000D01*
X89835437Y-79675437D02*
X87096787Y-79675437D01*
X121285000Y-99593750D02*
X121386250Y-99695000D01*
X123190000Y-97790000D02*
X122555000Y-98425000D01*
X123190000Y-95885000D02*
X123190000Y-97790000D01*
%TO.N,Net-(C2-Pad1)*%
X116840000Y-90170000D02*
X117110000Y-90170000D01*
X127435000Y-97590000D02*
X131445000Y-97590000D01*
X123186250Y-100965000D02*
X120011250Y-100965000D01*
X114840000Y-94075000D02*
X114840000Y-95885000D01*
X123286250Y-99695000D02*
X123286250Y-100865000D01*
X116840000Y-92075000D02*
X114840000Y-94075000D01*
X116840000Y-90170000D02*
X116840000Y-92075000D01*
X118110000Y-93345000D02*
X118110000Y-99060000D01*
X116840000Y-92075000D02*
X118110000Y-93345000D01*
X118110000Y-99060000D02*
X120015000Y-100965000D01*
X123286250Y-99695000D02*
X125330000Y-99695000D01*
X125330000Y-99695000D02*
X127435000Y-97590000D01*
X123286250Y-100865000D02*
X123186250Y-100965000D01*
%TO.N,Net-(CN1-Pad2)*%
X115570000Y-98425000D02*
X116840000Y-97155000D01*
X107850000Y-103506000D02*
X109756000Y-101600000D01*
X120650000Y-103506000D02*
X122556000Y-101600000D01*
X118744000Y-101599000D02*
X120650000Y-103505000D01*
X107315000Y-95250000D02*
X110490000Y-98425000D01*
X110490000Y-98425000D02*
X115570000Y-98425000D01*
X109756000Y-99159000D02*
X109756000Y-101600000D01*
X110490000Y-98425000D02*
X109756000Y-99159000D01*
X116840000Y-97155000D02*
X116840000Y-95885000D01*
X131444000Y-101600000D02*
X133350000Y-103506000D01*
X122556000Y-101600000D02*
X131444000Y-101600000D01*
X118744000Y-101600000D02*
X120650000Y-103506000D01*
X109756000Y-101600000D02*
X118744000Y-101600000D01*
%TO.N,Net-(F1-Pad2)*%
X123285000Y-90170000D02*
X123285000Y-90900000D01*
X131285000Y-90330000D02*
X131285000Y-86995000D01*
X131285000Y-94455000D02*
X131285000Y-90330000D01*
X123285000Y-90900000D02*
X124460000Y-92075000D01*
X131445000Y-94615000D02*
X131285000Y-94455000D01*
%TO.N,Net-(J1-Pad1)*%
X132080000Y-68580000D02*
X132715000Y-67945000D01*
X132715000Y-67945000D02*
X160020000Y-67945000D01*
X160020000Y-67945000D02*
X165100000Y-73025000D01*
%TO.N,Net-(J1-Pad3)*%
X130175000Y-66675000D02*
X161290000Y-66675000D01*
X129540000Y-67310000D02*
X130175000Y-66675000D01*
X167005000Y-72390000D02*
X167005000Y-79375000D01*
X161290000Y-66675000D02*
X167005000Y-72390000D01*
X166370000Y-79375000D02*
X165100000Y-80645000D01*
X167005000Y-79375000D02*
X166370000Y-79375000D01*
X129540000Y-68580000D02*
X129540000Y-67310000D01*
%TO.N,Net-(J1-Pad5)*%
X128905000Y-65405000D02*
X162560000Y-65405000D01*
X127000000Y-67310000D02*
X128905000Y-65405000D01*
X162560000Y-65405000D02*
X168275000Y-71120000D01*
X168275000Y-71120000D02*
X168275000Y-80645000D01*
X167640000Y-80645000D02*
X165100000Y-83185000D01*
X168275000Y-80645000D02*
X167640000Y-80645000D01*
X127000000Y-68580000D02*
X127000000Y-67310000D01*
%TO.N,Net-(J1-Pad7)*%
X166370000Y-98425000D02*
X165100000Y-98425000D01*
X124460000Y-68580000D02*
X124460000Y-67310000D01*
X169545000Y-70485000D02*
X169545000Y-95250000D01*
X127635000Y-64135000D02*
X163195000Y-64135000D01*
X163195000Y-64135000D02*
X169545000Y-70485000D01*
X124460000Y-67310000D02*
X127635000Y-64135000D01*
X169545000Y-95250000D02*
X166370000Y-98425000D01*
D29*
%TO.N,VDD*%
X139065000Y-114935000D02*
X140335000Y-113665000D01*
X140335000Y-111125000D02*
X142240000Y-109220000D01*
X92710000Y-114935000D02*
X139065000Y-114935000D01*
X142240000Y-109220000D02*
X142240000Y-108585000D01*
X91250000Y-113475000D02*
X92710000Y-114935000D01*
X140335000Y-113665000D02*
X140335000Y-111125000D01*
X91250000Y-111760000D02*
X91250000Y-113475000D01*
D28*
%TO.N,Net-(J4-Pad2)*%
X87096787Y-97455437D02*
X86779563Y-97455437D01*
X93345000Y-108585000D02*
X93250000Y-108680000D01*
X93250000Y-108680000D02*
X93250000Y-111760000D01*
X87096787Y-97455437D02*
X87096787Y-102336787D01*
X87096787Y-102336787D02*
X93345000Y-108585000D01*
%TO.N,T_enable*%
X123285000Y-79375000D02*
X124460000Y-79375000D01*
X123300000Y-79360000D02*
X129420000Y-79360000D01*
X141030041Y-78740000D02*
X141748530Y-79458489D01*
X129420000Y-79360000D02*
X129420000Y-78860000D01*
X129540000Y-78740000D02*
X141030041Y-78740000D01*
X123285000Y-79375000D02*
X123300000Y-79360000D01*
X152483489Y-79458489D02*
X163830000Y-90805000D01*
X141748530Y-79458489D02*
X152483489Y-79458489D01*
X129420000Y-78860000D02*
X129540000Y-78740000D01*
X163830000Y-90805000D02*
X165100000Y-90805000D01*
%TO.N,Net-(Q1-Pad3)*%
X132080000Y-83150000D02*
X129185000Y-86045000D01*
X127635000Y-85725000D02*
X127955000Y-86045000D01*
X132080000Y-80010000D02*
X132080000Y-83150000D01*
X129185000Y-86005000D02*
X129185000Y-86045000D01*
X123285000Y-84455000D02*
X123285000Y-85185000D01*
X127955000Y-86045000D02*
X129185000Y-86045000D01*
X123825000Y-85725000D02*
X127635000Y-85725000D01*
X123285000Y-85185000D02*
X123825000Y-85725000D01*
%TO.N,Net-(CN1-Pad3)*%
X106045000Y-95250000D02*
X106045000Y-100330000D01*
X120650000Y-108585000D02*
X121920000Y-107315000D01*
X111125000Y-92075000D02*
X110490000Y-92710000D01*
X110490000Y-92710000D02*
X106680000Y-92710000D01*
X121920000Y-107315000D02*
X123190000Y-108585000D01*
X113030000Y-84455000D02*
X111125000Y-86360000D01*
X132081000Y-108585000D02*
X134620000Y-106046000D01*
X121920000Y-107315000D02*
X121920000Y-106046000D01*
X106045000Y-93345000D02*
X106045000Y-95250000D01*
X106680000Y-92710000D02*
X106045000Y-93345000D01*
X106045000Y-101600000D02*
X103505000Y-104140000D01*
X103505000Y-107315000D02*
X104775000Y-108585000D01*
X106045000Y-100330000D02*
X106045000Y-101600000D01*
X111125000Y-86360000D02*
X111125000Y-92075000D01*
X104775000Y-108585000D02*
X106680000Y-108585000D01*
X123190000Y-108585000D02*
X132081000Y-108585000D01*
X111659000Y-108585000D02*
X120650000Y-108585000D01*
X109120000Y-106046000D02*
X111659000Y-108585000D01*
X106680000Y-108486000D02*
X109120000Y-106046000D01*
X114840000Y-84455000D02*
X113030000Y-84455000D01*
X106680000Y-108585000D02*
X106680000Y-108486000D01*
X103505000Y-104140000D02*
X103505000Y-107315000D01*
D29*
%TO.N,+3V3*%
X87096787Y-77135437D02*
X100650487Y-77135437D01*
D28*
X128905000Y-95885000D02*
X139700000Y-95885000D01*
X87096787Y-77135437D02*
X86694563Y-77135437D01*
D29*
X101160942Y-76624982D02*
X132715000Y-76624982D01*
D28*
X129185000Y-87985000D02*
X127000000Y-90170000D01*
X166921511Y-94698489D02*
X150411511Y-94698489D01*
X124460000Y-87630000D02*
X127000000Y-90170000D01*
D29*
X101160942Y-76624982D02*
X100950924Y-76835000D01*
D28*
X121285000Y-84455000D02*
X121285000Y-85725000D01*
X127000000Y-93980000D02*
X128905000Y-95885000D01*
X148590000Y-96520000D02*
X148590000Y-98425000D01*
D29*
X150609520Y-71234520D02*
X165100000Y-85725000D01*
D28*
X167640000Y-88265000D02*
X167640000Y-93980000D01*
X100650487Y-77135437D02*
X100957962Y-76827962D01*
X165100000Y-85725000D02*
X167640000Y-88265000D01*
X127000000Y-90170000D02*
X127000000Y-93980000D01*
X123190000Y-87630000D02*
X124460000Y-87630000D01*
X129185000Y-87945000D02*
X129185000Y-87985000D01*
X150411511Y-94698489D02*
X148590000Y-96520000D01*
D29*
X138105462Y-71234520D02*
X150609520Y-71234520D01*
D28*
X100957962Y-76827962D02*
X101160942Y-76624982D01*
D29*
X87096787Y-82215437D02*
X95570487Y-82215437D01*
D28*
X158750000Y-108585000D02*
X165100000Y-108585000D01*
X139700000Y-95885000D02*
X142240000Y-98425000D01*
D29*
X132715000Y-76624982D02*
X138105462Y-71234520D01*
D28*
X121285000Y-85725000D02*
X123190000Y-87630000D01*
X148590000Y-98425000D02*
X158750000Y-108585000D01*
X142240000Y-98425000D02*
X148590000Y-98425000D01*
D29*
X95570487Y-82215437D02*
X100957962Y-76827962D01*
D28*
X167640000Y-93980000D02*
X166921511Y-94698489D01*
%TO.N,Net-(U1-Pad22)*%
X139700000Y-92075000D02*
X135890000Y-88265000D01*
X96219563Y-94915437D02*
X100330000Y-90805000D01*
X100330000Y-90805000D02*
X107950000Y-90805000D01*
X87096787Y-94915437D02*
X96219563Y-94915437D01*
X146685000Y-92075000D02*
X139700000Y-92075000D01*
X165100000Y-93345000D02*
X147955000Y-93345000D01*
X147955000Y-93345000D02*
X146685000Y-92075000D01*
%TO.N,Net-(R3-Pad1)*%
X153670000Y-95885000D02*
X165100000Y-95885000D01*
X121285000Y-90170000D02*
X121285000Y-91440000D01*
X119380000Y-86360000D02*
X121285000Y-88265000D01*
X119380000Y-81915000D02*
X119380000Y-86360000D01*
X152400000Y-97155000D02*
X153670000Y-95885000D01*
X121285000Y-88265000D02*
X121285000Y-90170000D01*
X121285000Y-91440000D02*
X123190000Y-93345000D01*
X116840000Y-79375000D02*
X119380000Y-81915000D01*
X123190000Y-93345000D02*
X125730000Y-93345000D01*
%TO.N,Net-(U1-Pad28)*%
X107315000Y-74930000D02*
X104775000Y-74930000D01*
X156210000Y-70485000D02*
X137795000Y-70485000D01*
X104775000Y-80010000D02*
X104775000Y-78740000D01*
X107950000Y-75565000D02*
X107315000Y-74930000D01*
X115570000Y-75565000D02*
X107950000Y-75565000D01*
X132715000Y-75565000D02*
X115570000Y-75565000D01*
X165100000Y-78105000D02*
X163830000Y-78105000D01*
X87096787Y-84755437D02*
X100029563Y-84755437D01*
X100029563Y-84755437D02*
X104775000Y-80010000D01*
X163830000Y-78105000D02*
X156210000Y-70485000D01*
X86546476Y-84755437D02*
X87096787Y-84755437D01*
X137795000Y-70485000D02*
X132715000Y-75565000D01*
%TO.N,Net-(U1-Pad29)*%
X157480000Y-69215000D02*
X137795000Y-69215000D01*
X107950000Y-80645000D02*
X107950000Y-78740000D01*
X163830000Y-75565000D02*
X157480000Y-69215000D01*
X108585000Y-74295000D02*
X107950000Y-73660000D01*
X137795000Y-69215000D02*
X132715000Y-74295000D01*
X87096787Y-87295437D02*
X101299563Y-87295437D01*
X101299563Y-87295437D02*
X107950000Y-80645000D01*
X132715000Y-74295000D02*
X108585000Y-74295000D01*
X165100000Y-75565000D02*
X163830000Y-75565000D01*
X84755437Y-87295437D02*
X87096787Y-87295437D01*
%TD*%
M02*
