%TF.GenerationSoftware,KiCad,Pcbnew,(6.0.4-0)*%
%TF.CreationDate,2023-05-22T14:10:51+02:00*%
%TF.ProjectId,NodeMCU-Metriful,4e6f6465-4d43-4552-9d4d-657472696675,rev?*%
%TF.SameCoordinates,Original*%
%TF.FileFunction,Soldermask,Bot*%
%TF.FilePolarity,Negative*%
%FSLAX46Y46*%
G04 Gerber Fmt 4.6, Leading zero omitted, Abs format (unit mm)*
G04 Created by KiCad (PCBNEW (6.0.4-0)) date 2023-05-22 14:10:51*
%MOMM*%
%LPD*%
G01*
G04 APERTURE LIST*
G04 Aperture macros list*
%AMRoundRect*
0 Rectangle with rounded corners*
0 $1 Rounding radius*
0 $2 $3 $4 $5 $6 $7 $8 $9 X,Y pos of 4 corners*
0 Add a 4 corners polygon primitive as box body*
4,1,4,$2,$3,$4,$5,$6,$7,$8,$9,$2,$3,0*
0 Add four circle primitives for the rounded corners*
1,1,$1+$1,$2,$3*
1,1,$1+$1,$4,$5*
1,1,$1+$1,$6,$7*
1,1,$1+$1,$8,$9*
0 Add four rect primitives between the rounded corners*
20,1,$1+$1,$2,$3,$4,$5,0*
20,1,$1+$1,$4,$5,$6,$7,0*
20,1,$1+$1,$6,$7,$8,$9,0*
20,1,$1+$1,$8,$9,$2,$3,0*%
G04 Aperture macros list end*
%ADD10C,3.251200*%
%ADD11C,1.397000*%
%ADD12RoundRect,0.250000X-0.350000X-0.625000X0.350000X-0.625000X0.350000X0.625000X-0.350000X0.625000X0*%
%ADD13O,1.200000X1.750000*%
%ADD14C,1.524000*%
%ADD15R,1.700000X1.700000*%
%ADD16O,1.700000X1.700000*%
%ADD17R,1.050000X1.500000*%
%ADD18O,1.050000X1.500000*%
G04 APERTURE END LIST*
D10*
%TO.C,CN3*%
X130175000Y-112396000D03*
X137795000Y-112396000D03*
D11*
X132080000Y-106046000D03*
X133350000Y-103506000D03*
X134620000Y-106046000D03*
X135890000Y-103506000D03*
%TD*%
D12*
%TO.C,J4*%
X91250000Y-111760000D03*
D13*
X93250000Y-111760000D03*
X95250000Y-111760000D03*
%TD*%
D10*
%TO.C,CN1*%
X104675000Y-112396000D03*
X112295000Y-112396000D03*
D11*
X106580000Y-106046000D03*
X107850000Y-103506000D03*
X109120000Y-106046000D03*
X110390000Y-103506000D03*
%TD*%
D14*
%TO.C,U1*%
X142240000Y-73025000D03*
X142240000Y-75565000D03*
X142240000Y-78105000D03*
X142240000Y-80645000D03*
X142240000Y-83185000D03*
X142240000Y-85725000D03*
X142240000Y-88265000D03*
X142240000Y-90805000D03*
X142240000Y-93345000D03*
X142240000Y-95885000D03*
X142240000Y-98425000D03*
X142240000Y-100965000D03*
X142240000Y-103505000D03*
X142240000Y-106045000D03*
X142240000Y-108585000D03*
X165100000Y-108585000D03*
X165100000Y-106045000D03*
X165100000Y-103505000D03*
X165100000Y-100965000D03*
X165100000Y-98425000D03*
X165100000Y-95885000D03*
X165100000Y-93345000D03*
X165100000Y-90805000D03*
X165100000Y-88265000D03*
X165100000Y-85725000D03*
X165100000Y-83185000D03*
X165100000Y-80645000D03*
X165100000Y-78105000D03*
X165100000Y-75565000D03*
X165100000Y-73025000D03*
%TD*%
D15*
%TO.C,J1*%
X132080000Y-68580000D03*
D16*
X132080000Y-71120000D03*
X129540000Y-68580000D03*
X129540000Y-71120000D03*
X127000000Y-68580000D03*
X127000000Y-71120000D03*
X124460000Y-68580000D03*
X124460000Y-71120000D03*
%TD*%
D17*
%TO.C,U3*%
X104775000Y-95250000D03*
D18*
X106045000Y-95250000D03*
X107315000Y-95250000D03*
%TD*%
D10*
%TO.C,CN2*%
X125095000Y-112395000D03*
X117475000Y-112395000D03*
D11*
X119380000Y-106045000D03*
X120650000Y-103505000D03*
X121920000Y-106045000D03*
X123190000Y-103505000D03*
%TD*%
M02*
