G04 #@! TF.GenerationSoftware,KiCad,Pcbnew,6.0.5-a6ca702e91~116~ubuntu20.04.1*
G04 #@! TF.CreationDate,2022-05-16T19:37:38+02:00*
G04 #@! TF.ProjectId,1w-grove-v0.1,31772d67-726f-4766-952d-76302e312e6b,rev?*
G04 #@! TF.SameCoordinates,Original*
G04 #@! TF.FileFunction,Legend,Top*
G04 #@! TF.FilePolarity,Positive*
%FSLAX46Y46*%
G04 Gerber Fmt 4.6, Leading zero omitted, Abs format (unit mm)*
G04 Created by KiCad (PCBNEW 6.0.5-a6ca702e91~116~ubuntu20.04.1) date 2022-05-16 19:37:38*
%MOMM*%
%LPD*%
G01*
G04 APERTURE LIST*
%ADD10C,0.300000*%
%ADD11C,0.150000*%
%ADD12C,0.120000*%
%ADD13C,0.100000*%
%ADD14C,0.203200*%
%ADD15C,0.127000*%
%ADD16C,1.524000*%
G04 APERTURE END LIST*
D10*
X53432357Y-60547999D02*
X53360928Y-60405142D01*
X53360928Y-60119428D01*
X53432357Y-59976571D01*
X53575214Y-59905142D01*
X54146642Y-59905142D01*
X54289500Y-59976571D01*
X54360928Y-60119428D01*
X54360928Y-60405142D01*
X54289500Y-60547999D01*
X54146642Y-60619428D01*
X54003785Y-60619428D01*
X53860928Y-59905142D01*
X53432357Y-61190857D02*
X53360928Y-61333714D01*
X53360928Y-61619428D01*
X53432357Y-61762285D01*
X53575214Y-61833714D01*
X53646642Y-61833714D01*
X53789500Y-61762285D01*
X53860928Y-61619428D01*
X53860928Y-61405142D01*
X53932357Y-61262285D01*
X54075214Y-61190857D01*
X54146642Y-61190857D01*
X54289500Y-61262285D01*
X54360928Y-61405142D01*
X54360928Y-61619428D01*
X54289500Y-61762285D01*
X54360928Y-62476571D02*
X52860928Y-62476571D01*
X54289500Y-62476571D02*
X54360928Y-62619428D01*
X54360928Y-62905142D01*
X54289500Y-63047999D01*
X54218071Y-63119428D01*
X54075214Y-63190857D01*
X53646642Y-63190857D01*
X53503785Y-63119428D01*
X53432357Y-63047999D01*
X53360928Y-62905142D01*
X53360928Y-62619428D01*
X53432357Y-62476571D01*
X53932357Y-63833714D02*
X53932357Y-64976571D01*
X53432357Y-65619428D02*
X53360928Y-65762285D01*
X53360928Y-66048000D01*
X53432357Y-66190857D01*
X53575214Y-66262285D01*
X53646642Y-66262285D01*
X53789500Y-66190857D01*
X53860928Y-66048000D01*
X53860928Y-65833714D01*
X53932357Y-65690857D01*
X54075214Y-65619428D01*
X54146642Y-65619428D01*
X54289500Y-65690857D01*
X54360928Y-65833714D01*
X54360928Y-66048000D01*
X54289500Y-66190857D01*
X53360928Y-66905142D02*
X54860928Y-66905142D01*
X53360928Y-67548000D02*
X54146642Y-67548000D01*
X54289500Y-67476571D01*
X54360928Y-67333714D01*
X54360928Y-67119428D01*
X54289500Y-66976571D01*
X54218071Y-66905142D01*
X53360928Y-68476571D02*
X53432357Y-68333714D01*
X53503785Y-68262285D01*
X53646642Y-68190857D01*
X54075214Y-68190857D01*
X54218071Y-68262285D01*
X54289500Y-68333714D01*
X54360928Y-68476571D01*
X54360928Y-68690857D01*
X54289500Y-68833714D01*
X54218071Y-68905142D01*
X54075214Y-68976571D01*
X53646642Y-68976571D01*
X53503785Y-68905142D01*
X53432357Y-68833714D01*
X53360928Y-68690857D01*
X53360928Y-68476571D01*
X54360928Y-69619428D02*
X52860928Y-69619428D01*
X54289500Y-69619428D02*
X54360928Y-69762285D01*
X54360928Y-70048000D01*
X54289500Y-70190857D01*
X54218071Y-70262285D01*
X54075214Y-70333714D01*
X53646642Y-70333714D01*
X53503785Y-70262285D01*
X53432357Y-70190857D01*
X53360928Y-70048000D01*
X53360928Y-69762285D01*
X53432357Y-69619428D01*
X53503785Y-70976571D02*
X53432357Y-71048000D01*
X53360928Y-70976571D01*
X53432357Y-70905142D01*
X53503785Y-70976571D01*
X53360928Y-70976571D01*
X54360928Y-71690857D02*
X53360928Y-71690857D01*
X54218071Y-71690857D02*
X54289500Y-71762285D01*
X54360928Y-71905142D01*
X54360928Y-72119428D01*
X54289500Y-72262285D01*
X54146642Y-72333714D01*
X53360928Y-72333714D01*
X53360928Y-73262285D02*
X53432357Y-73119428D01*
X53575214Y-73048000D01*
X54860928Y-73048000D01*
X50945928Y-58798000D02*
X50945928Y-57940857D01*
X50945928Y-58369428D02*
X52445928Y-58369428D01*
X52231642Y-58226571D01*
X52088785Y-58083714D01*
X52017357Y-57940857D01*
X52445928Y-59298000D02*
X50945928Y-59655142D01*
X52017357Y-59940857D01*
X50945928Y-60226571D01*
X52445928Y-60583714D01*
X51517357Y-61155142D02*
X51517357Y-62298000D01*
X51945928Y-63655142D02*
X50731642Y-63655142D01*
X50588785Y-63583714D01*
X50517357Y-63512285D01*
X50445928Y-63369428D01*
X50445928Y-63155142D01*
X50517357Y-63012285D01*
X51017357Y-63655142D02*
X50945928Y-63512285D01*
X50945928Y-63226571D01*
X51017357Y-63083714D01*
X51088785Y-63012285D01*
X51231642Y-62940857D01*
X51660214Y-62940857D01*
X51803071Y-63012285D01*
X51874500Y-63083714D01*
X51945928Y-63226571D01*
X51945928Y-63512285D01*
X51874500Y-63655142D01*
X50945928Y-64369428D02*
X51945928Y-64369428D01*
X51660214Y-64369428D02*
X51803071Y-64440857D01*
X51874500Y-64512285D01*
X51945928Y-64655142D01*
X51945928Y-64798000D01*
X50945928Y-65512285D02*
X51017357Y-65369428D01*
X51088785Y-65298000D01*
X51231642Y-65226571D01*
X51660214Y-65226571D01*
X51803071Y-65298000D01*
X51874500Y-65369428D01*
X51945928Y-65512285D01*
X51945928Y-65726571D01*
X51874500Y-65869428D01*
X51803071Y-65940857D01*
X51660214Y-66012285D01*
X51231642Y-66012285D01*
X51088785Y-65940857D01*
X51017357Y-65869428D01*
X50945928Y-65726571D01*
X50945928Y-65512285D01*
X51945928Y-66512285D02*
X50945928Y-66869428D01*
X51945928Y-67226571D01*
X51017357Y-68369428D02*
X50945928Y-68226571D01*
X50945928Y-67940857D01*
X51017357Y-67798000D01*
X51160214Y-67726571D01*
X51731642Y-67726571D01*
X51874500Y-67798000D01*
X51945928Y-67940857D01*
X51945928Y-68226571D01*
X51874500Y-68369428D01*
X51731642Y-68440857D01*
X51588785Y-68440857D01*
X51445928Y-67726571D01*
X51517357Y-69083714D02*
X51517357Y-70226571D01*
X52445928Y-70726571D02*
X50945928Y-71226571D01*
X52445928Y-71726571D01*
X52445928Y-72512285D02*
X52445928Y-72655142D01*
X52374500Y-72798000D01*
X52303071Y-72869428D01*
X52160214Y-72940857D01*
X51874500Y-73012285D01*
X51517357Y-73012285D01*
X51231642Y-72940857D01*
X51088785Y-72869428D01*
X51017357Y-72798000D01*
X50945928Y-72655142D01*
X50945928Y-72512285D01*
X51017357Y-72369428D01*
X51088785Y-72298000D01*
X51231642Y-72226571D01*
X51517357Y-72155142D01*
X51874500Y-72155142D01*
X52160214Y-72226571D01*
X52303071Y-72298000D01*
X52374500Y-72369428D01*
X52445928Y-72512285D01*
X51088785Y-73655142D02*
X51017357Y-73726571D01*
X50945928Y-73655142D01*
X51017357Y-73583714D01*
X51088785Y-73655142D01*
X50945928Y-73655142D01*
X50945928Y-75155142D02*
X50945928Y-74298000D01*
X50945928Y-74726571D02*
X52445928Y-74726571D01*
X52231642Y-74583714D01*
X52088785Y-74440857D01*
X52017357Y-74298000D01*
D11*
X43006380Y-69659095D02*
X43006380Y-69040047D01*
X43387333Y-69373380D01*
X43387333Y-69230523D01*
X43434952Y-69135285D01*
X43482571Y-69087666D01*
X43577809Y-69040047D01*
X43815904Y-69040047D01*
X43911142Y-69087666D01*
X43958761Y-69135285D01*
X44006380Y-69230523D01*
X44006380Y-69516238D01*
X43958761Y-69611476D01*
X43911142Y-69659095D01*
X43101619Y-68659095D02*
X43054000Y-68611476D01*
X43006380Y-68516238D01*
X43006380Y-68278142D01*
X43054000Y-68182904D01*
X43101619Y-68135285D01*
X43196857Y-68087666D01*
X43292095Y-68087666D01*
X43434952Y-68135285D01*
X44006380Y-68706714D01*
X44006380Y-68087666D01*
X43911142Y-67659095D02*
X43958761Y-67611476D01*
X44006380Y-67659095D01*
X43958761Y-67706714D01*
X43911142Y-67659095D01*
X44006380Y-67659095D01*
X43434952Y-67040047D02*
X43387333Y-67135285D01*
X43339714Y-67182904D01*
X43244476Y-67230523D01*
X43196857Y-67230523D01*
X43101619Y-67182904D01*
X43054000Y-67135285D01*
X43006380Y-67040047D01*
X43006380Y-66849571D01*
X43054000Y-66754333D01*
X43101619Y-66706714D01*
X43196857Y-66659095D01*
X43244476Y-66659095D01*
X43339714Y-66706714D01*
X43387333Y-66754333D01*
X43434952Y-66849571D01*
X43434952Y-67040047D01*
X43482571Y-67135285D01*
X43530190Y-67182904D01*
X43625428Y-67230523D01*
X43815904Y-67230523D01*
X43911142Y-67182904D01*
X43958761Y-67135285D01*
X44006380Y-67040047D01*
X44006380Y-66849571D01*
X43958761Y-66754333D01*
X43911142Y-66706714D01*
X43815904Y-66659095D01*
X43625428Y-66659095D01*
X43530190Y-66706714D01*
X43482571Y-66754333D01*
X43434952Y-66849571D01*
X44006380Y-65468619D02*
X43339714Y-65468619D01*
X43434952Y-65468619D02*
X43387333Y-65421000D01*
X43339714Y-65325761D01*
X43339714Y-65182904D01*
X43387333Y-65087666D01*
X43482571Y-65040047D01*
X44006380Y-65040047D01*
X43482571Y-65040047D02*
X43387333Y-64992428D01*
X43339714Y-64897190D01*
X43339714Y-64754333D01*
X43387333Y-64659095D01*
X43482571Y-64611476D01*
X44006380Y-64611476D01*
X44006380Y-64135285D02*
X43339714Y-64135285D01*
X43434952Y-64135285D02*
X43387333Y-64087666D01*
X43339714Y-63992428D01*
X43339714Y-63849571D01*
X43387333Y-63754333D01*
X43482571Y-63706714D01*
X44006380Y-63706714D01*
X43482571Y-63706714D02*
X43387333Y-63659095D01*
X43339714Y-63563857D01*
X43339714Y-63421000D01*
X43387333Y-63325761D01*
X43482571Y-63278142D01*
X44006380Y-63278142D01*
D12*
X48514000Y-82804000D02*
X44117580Y-82804000D01*
X48514000Y-50038000D02*
X44117580Y-50038000D01*
X44704000Y-82804000D02*
X44704000Y-50038000D01*
X44704000Y-82804000D02*
X44704000Y-50038000D01*
X44704000Y-82804000D02*
X45290421Y-81677496D01*
X44704000Y-82804000D02*
X44117579Y-81677496D01*
X44704000Y-50038000D02*
X44117579Y-51164504D01*
X44704000Y-50038000D02*
X45290421Y-51164504D01*
D11*
X72397637Y-88034643D02*
X71921449Y-88035851D01*
X71875038Y-88512161D01*
X71922536Y-88464422D01*
X72017653Y-88416561D01*
X72255748Y-88415957D01*
X72351106Y-88463334D01*
X72398846Y-88510832D01*
X72446707Y-88605949D01*
X72447311Y-88844043D01*
X72399934Y-88939402D01*
X72352436Y-88987142D01*
X72257319Y-89035002D01*
X72019225Y-89035607D01*
X71923866Y-88988229D01*
X71876126Y-88940731D01*
X73064302Y-88032951D02*
X73159540Y-88032709D01*
X73254898Y-88080086D01*
X73302638Y-88127584D01*
X73350499Y-88222701D01*
X73398601Y-88413056D01*
X73399206Y-88651150D01*
X73352070Y-88841747D01*
X73304693Y-88937105D01*
X73257195Y-88984845D01*
X73162078Y-89032706D01*
X73066840Y-89032947D01*
X72971482Y-88985570D01*
X72923742Y-88938072D01*
X72875881Y-88842955D01*
X72827779Y-88652601D01*
X72827174Y-88414506D01*
X72874310Y-88223910D01*
X72921687Y-88128551D01*
X72969185Y-88080811D01*
X73064302Y-88032951D01*
X73828501Y-88935776D02*
X73876241Y-88983274D01*
X73828742Y-89031014D01*
X73781003Y-88983516D01*
X73828501Y-88935776D01*
X73828742Y-89031014D01*
X74492869Y-88029325D02*
X74588107Y-88029083D01*
X74683465Y-88076460D01*
X74731205Y-88123958D01*
X74779066Y-88219075D01*
X74827168Y-88409430D01*
X74827772Y-88647524D01*
X74780637Y-88838121D01*
X74733260Y-88933479D01*
X74685762Y-88981219D01*
X74590645Y-89029080D01*
X74495407Y-89029321D01*
X74400048Y-88981944D01*
X74352309Y-88934446D01*
X74304448Y-88839329D01*
X74256346Y-88648975D01*
X74255741Y-88410880D01*
X74302877Y-88220284D01*
X74350254Y-88124925D01*
X74397752Y-88077185D01*
X74492869Y-88029325D01*
X76019212Y-89025454D02*
X76017519Y-88358789D01*
X76017761Y-88454027D02*
X76065259Y-88406287D01*
X76160376Y-88358427D01*
X76303233Y-88358064D01*
X76398592Y-88405441D01*
X76446452Y-88500558D01*
X76447782Y-89024366D01*
X76446452Y-88500558D02*
X76493829Y-88405199D01*
X76588946Y-88357339D01*
X76731803Y-88356976D01*
X76827162Y-88404353D01*
X76875022Y-88499470D01*
X76876352Y-89023278D01*
X77352541Y-89022069D02*
X77350849Y-88355405D01*
X77351090Y-88450643D02*
X77398588Y-88402903D01*
X77493705Y-88355042D01*
X77636562Y-88354680D01*
X77731921Y-88402057D01*
X77779781Y-88497174D01*
X77781111Y-89020982D01*
X77779781Y-88497174D02*
X77827158Y-88401815D01*
X77922275Y-88353954D01*
X78065132Y-88353592D01*
X78160491Y-88400969D01*
X78208351Y-88496086D01*
X78209681Y-89019894D01*
D12*
X100076000Y-85090000D02*
X100089093Y-90248402D01*
X50038000Y-85217008D02*
X50051093Y-90375410D01*
X100087605Y-89661984D02*
X50049605Y-89788992D01*
X100087605Y-89661984D02*
X50049605Y-89788992D01*
X100087605Y-89661984D02*
X98959616Y-89078424D01*
X100087605Y-89661984D02*
X98962593Y-90251262D01*
X50049605Y-89788992D02*
X51177594Y-90372552D01*
X50049605Y-89788992D02*
X51174617Y-89199714D01*
D11*
X97115333Y-62841142D02*
X97067714Y-62888761D01*
X96924857Y-62936380D01*
X96829619Y-62936380D01*
X96686761Y-62888761D01*
X96591523Y-62793523D01*
X96543904Y-62698285D01*
X96496285Y-62507809D01*
X96496285Y-62364952D01*
X96543904Y-62174476D01*
X96591523Y-62079238D01*
X96686761Y-61984000D01*
X96829619Y-61936380D01*
X96924857Y-61936380D01*
X97067714Y-61984000D01*
X97115333Y-62031619D01*
X98067714Y-62936380D02*
X97496285Y-62936380D01*
X97782000Y-62936380D02*
X97782000Y-61936380D01*
X97686761Y-62079238D01*
X97591523Y-62174476D01*
X97496285Y-62222095D01*
X97115333Y-69064142D02*
X97067714Y-69111761D01*
X96924857Y-69159380D01*
X96829619Y-69159380D01*
X96686761Y-69111761D01*
X96591523Y-69016523D01*
X96543904Y-68921285D01*
X96496285Y-68730809D01*
X96496285Y-68587952D01*
X96543904Y-68397476D01*
X96591523Y-68302238D01*
X96686761Y-68207000D01*
X96829619Y-68159380D01*
X96924857Y-68159380D01*
X97067714Y-68207000D01*
X97115333Y-68254619D01*
X97496285Y-68254619D02*
X97543904Y-68207000D01*
X97639142Y-68159380D01*
X97877238Y-68159380D01*
X97972476Y-68207000D01*
X98020095Y-68254619D01*
X98067714Y-68349857D01*
X98067714Y-68445095D01*
X98020095Y-68587952D01*
X97448666Y-69159380D01*
X98067714Y-69159380D01*
X85502761Y-73511619D02*
X85407523Y-73464000D01*
X85312285Y-73368761D01*
X85169428Y-73225904D01*
X85074190Y-73178285D01*
X84978952Y-73178285D01*
X85026571Y-73416380D02*
X84931333Y-73368761D01*
X84836095Y-73273523D01*
X84788476Y-73083047D01*
X84788476Y-72749714D01*
X84836095Y-72559238D01*
X84931333Y-72464000D01*
X85026571Y-72416380D01*
X85217047Y-72416380D01*
X85312285Y-72464000D01*
X85407523Y-72559238D01*
X85455142Y-72749714D01*
X85455142Y-73083047D01*
X85407523Y-73273523D01*
X85312285Y-73368761D01*
X85217047Y-73416380D01*
X85026571Y-73416380D01*
X86407523Y-73416380D02*
X85836095Y-73416380D01*
X86121809Y-73416380D02*
X86121809Y-72416380D01*
X86026571Y-72559238D01*
X85931333Y-72654476D01*
X85836095Y-72702095D01*
X91344761Y-69889619D02*
X91249523Y-69842000D01*
X91154285Y-69746761D01*
X91011428Y-69603904D01*
X90916190Y-69556285D01*
X90820952Y-69556285D01*
X90868571Y-69794380D02*
X90773333Y-69746761D01*
X90678095Y-69651523D01*
X90630476Y-69461047D01*
X90630476Y-69127714D01*
X90678095Y-68937238D01*
X90773333Y-68842000D01*
X90868571Y-68794380D01*
X91059047Y-68794380D01*
X91154285Y-68842000D01*
X91249523Y-68937238D01*
X91297142Y-69127714D01*
X91297142Y-69461047D01*
X91249523Y-69651523D01*
X91154285Y-69746761D01*
X91059047Y-69794380D01*
X90868571Y-69794380D01*
X91678095Y-68889619D02*
X91725714Y-68842000D01*
X91820952Y-68794380D01*
X92059047Y-68794380D01*
X92154285Y-68842000D01*
X92201904Y-68889619D01*
X92249523Y-68984857D01*
X92249523Y-69080095D01*
X92201904Y-69222952D01*
X91630476Y-69794380D01*
X92249523Y-69794380D01*
X85304333Y-70810380D02*
X84971000Y-70334190D01*
X84732904Y-70810380D02*
X84732904Y-69810380D01*
X85113857Y-69810380D01*
X85209095Y-69858000D01*
X85256714Y-69905619D01*
X85304333Y-70000857D01*
X85304333Y-70143714D01*
X85256714Y-70238952D01*
X85209095Y-70286571D01*
X85113857Y-70334190D01*
X84732904Y-70334190D01*
X86256714Y-70810380D02*
X85685285Y-70810380D01*
X85971000Y-70810380D02*
X85971000Y-69810380D01*
X85875761Y-69953238D01*
X85780523Y-70048476D01*
X85685285Y-70096095D01*
X90892333Y-73350380D02*
X90559000Y-72874190D01*
X90320904Y-73350380D02*
X90320904Y-72350380D01*
X90701857Y-72350380D01*
X90797095Y-72398000D01*
X90844714Y-72445619D01*
X90892333Y-72540857D01*
X90892333Y-72683714D01*
X90844714Y-72778952D01*
X90797095Y-72826571D01*
X90701857Y-72874190D01*
X90320904Y-72874190D01*
X91273285Y-72445619D02*
X91320904Y-72398000D01*
X91416142Y-72350380D01*
X91654238Y-72350380D01*
X91749476Y-72398000D01*
X91797095Y-72445619D01*
X91844714Y-72540857D01*
X91844714Y-72636095D01*
X91797095Y-72778952D01*
X91225666Y-73350380D01*
X91844714Y-73350380D01*
X97115333Y-67000380D02*
X96782000Y-66524190D01*
X96543904Y-67000380D02*
X96543904Y-66000380D01*
X96924857Y-66000380D01*
X97020095Y-66048000D01*
X97067714Y-66095619D01*
X97115333Y-66190857D01*
X97115333Y-66333714D01*
X97067714Y-66428952D01*
X97020095Y-66476571D01*
X96924857Y-66524190D01*
X96543904Y-66524190D01*
X97972476Y-66333714D02*
X97972476Y-67000380D01*
X97734380Y-65952761D02*
X97496285Y-66667047D01*
X98115333Y-66667047D01*
X97115333Y-64968380D02*
X96782000Y-64492190D01*
X96543904Y-64968380D02*
X96543904Y-63968380D01*
X96924857Y-63968380D01*
X97020095Y-64016000D01*
X97067714Y-64063619D01*
X97115333Y-64158857D01*
X97115333Y-64301714D01*
X97067714Y-64396952D01*
X97020095Y-64444571D01*
X96924857Y-64492190D01*
X96543904Y-64492190D01*
X98020095Y-63968380D02*
X97543904Y-63968380D01*
X97496285Y-64444571D01*
X97543904Y-64396952D01*
X97639142Y-64349333D01*
X97877238Y-64349333D01*
X97972476Y-64396952D01*
X98020095Y-64444571D01*
X98067714Y-64539809D01*
X98067714Y-64777904D01*
X98020095Y-64873142D01*
X97972476Y-64920761D01*
X97877238Y-64968380D01*
X97639142Y-64968380D01*
X97543904Y-64920761D01*
X97496285Y-64873142D01*
X97115333Y-60904380D02*
X96782000Y-60428190D01*
X96543904Y-60904380D02*
X96543904Y-59904380D01*
X96924857Y-59904380D01*
X97020095Y-59952000D01*
X97067714Y-59999619D01*
X97115333Y-60094857D01*
X97115333Y-60237714D01*
X97067714Y-60332952D01*
X97020095Y-60380571D01*
X96924857Y-60428190D01*
X96543904Y-60428190D01*
X97972476Y-59904380D02*
X97782000Y-59904380D01*
X97686761Y-59952000D01*
X97639142Y-59999619D01*
X97543904Y-60142476D01*
X97496285Y-60332952D01*
X97496285Y-60713904D01*
X97543904Y-60809142D01*
X97591523Y-60856761D01*
X97686761Y-60904380D01*
X97877238Y-60904380D01*
X97972476Y-60856761D01*
X98020095Y-60809142D01*
X98067714Y-60713904D01*
X98067714Y-60475809D01*
X98020095Y-60380571D01*
X97972476Y-60332952D01*
X97877238Y-60285333D01*
X97686761Y-60285333D01*
X97591523Y-60332952D01*
X97543904Y-60380571D01*
X97496285Y-60475809D01*
X85304333Y-68397380D02*
X84971000Y-67921190D01*
X84732904Y-68397380D02*
X84732904Y-67397380D01*
X85113857Y-67397380D01*
X85209095Y-67445000D01*
X85256714Y-67492619D01*
X85304333Y-67587857D01*
X85304333Y-67730714D01*
X85256714Y-67825952D01*
X85209095Y-67873571D01*
X85113857Y-67921190D01*
X84732904Y-67921190D01*
X85875761Y-67825952D02*
X85780523Y-67778333D01*
X85732904Y-67730714D01*
X85685285Y-67635476D01*
X85685285Y-67587857D01*
X85732904Y-67492619D01*
X85780523Y-67445000D01*
X85875761Y-67397380D01*
X86066238Y-67397380D01*
X86161476Y-67445000D01*
X86209095Y-67492619D01*
X86256714Y-67587857D01*
X86256714Y-67635476D01*
X86209095Y-67730714D01*
X86161476Y-67778333D01*
X86066238Y-67825952D01*
X85875761Y-67825952D01*
X85780523Y-67873571D01*
X85732904Y-67921190D01*
X85685285Y-68016428D01*
X85685285Y-68206904D01*
X85732904Y-68302142D01*
X85780523Y-68349761D01*
X85875761Y-68397380D01*
X86066238Y-68397380D01*
X86161476Y-68349761D01*
X86209095Y-68302142D01*
X86256714Y-68206904D01*
X86256714Y-68016428D01*
X86209095Y-67921190D01*
X86161476Y-67873571D01*
X86066238Y-67825952D01*
X94229490Y-58666435D02*
X94162766Y-58733160D01*
X93962591Y-58799885D01*
X93829142Y-58799885D01*
X93628968Y-58733160D01*
X93495518Y-58599710D01*
X93428793Y-58466261D01*
X93362069Y-58199362D01*
X93362069Y-57999188D01*
X93428793Y-57732289D01*
X93495518Y-57598839D01*
X93628968Y-57465390D01*
X93829142Y-57398665D01*
X93962591Y-57398665D01*
X94162766Y-57465390D01*
X94229490Y-57532114D01*
X94830013Y-58799885D02*
X94830013Y-57398665D01*
X95630710Y-58799885D01*
X95630710Y-57398665D01*
X96164509Y-57398665D02*
X97031930Y-57398665D01*
X96564857Y-57932463D01*
X96765031Y-57932463D01*
X96898481Y-57999188D01*
X96965206Y-58065912D01*
X97031930Y-58199362D01*
X97031930Y-58532986D01*
X96965206Y-58666435D01*
X96898481Y-58733160D01*
X96765031Y-58799885D01*
X96364683Y-58799885D01*
X96231233Y-58733160D01*
X96164509Y-58666435D01*
X54050490Y-75430435D02*
X53983766Y-75497160D01*
X53783591Y-75563885D01*
X53650142Y-75563885D01*
X53449968Y-75497160D01*
X53316518Y-75363710D01*
X53249793Y-75230261D01*
X53183069Y-74963362D01*
X53183069Y-74763188D01*
X53249793Y-74496289D01*
X53316518Y-74362839D01*
X53449968Y-74229390D01*
X53650142Y-74162665D01*
X53783591Y-74162665D01*
X53983766Y-74229390D01*
X54050490Y-74296114D01*
X54651013Y-75563885D02*
X54651013Y-74162665D01*
X55451710Y-75563885D01*
X55451710Y-74162665D01*
X56719481Y-74629738D02*
X56719481Y-75563885D01*
X56385857Y-74095940D02*
X56052233Y-75096811D01*
X56919655Y-75096811D01*
X98325000Y-73745666D02*
X98325000Y-74212333D01*
X99058333Y-74212333D02*
X97658333Y-74212333D01*
X97658333Y-73545666D01*
X99058333Y-72279000D02*
X99058333Y-73079000D01*
X99058333Y-72679000D02*
X97658333Y-72679000D01*
X97858333Y-72812333D01*
X97991666Y-72945666D01*
X98058333Y-73079000D01*
X54150490Y-58412435D02*
X54083766Y-58479160D01*
X53883591Y-58545885D01*
X53750142Y-58545885D01*
X53549968Y-58479160D01*
X53416518Y-58345710D01*
X53349793Y-58212261D01*
X53283069Y-57945362D01*
X53283069Y-57745188D01*
X53349793Y-57478289D01*
X53416518Y-57344839D01*
X53549968Y-57211390D01*
X53750142Y-57144665D01*
X53883591Y-57144665D01*
X54083766Y-57211390D01*
X54150490Y-57278114D01*
X54751013Y-58545885D02*
X54751013Y-57144665D01*
X55551710Y-58545885D01*
X55551710Y-57144665D01*
X56952930Y-58545885D02*
X56152233Y-58545885D01*
X56552582Y-58545885D02*
X56552582Y-57144665D01*
X56419132Y-57344839D01*
X56285683Y-57478289D01*
X56152233Y-57545013D01*
X89711333Y-75557000D02*
X89644666Y-75623666D01*
X89444666Y-75690333D01*
X89311333Y-75690333D01*
X89111333Y-75623666D01*
X88978000Y-75490333D01*
X88911333Y-75357000D01*
X88844666Y-75090333D01*
X88844666Y-74890333D01*
X88911333Y-74623666D01*
X88978000Y-74490333D01*
X89111333Y-74357000D01*
X89311333Y-74290333D01*
X89444666Y-74290333D01*
X89644666Y-74357000D01*
X89711333Y-74423666D01*
X90311333Y-75690333D02*
X90311333Y-74290333D01*
X91111333Y-75690333D01*
X91111333Y-74290333D01*
X92378000Y-74290333D02*
X92111333Y-74290333D01*
X91978000Y-74357000D01*
X91911333Y-74423666D01*
X91778000Y-74623666D01*
X91711333Y-74890333D01*
X91711333Y-75423666D01*
X91778000Y-75557000D01*
X91844666Y-75623666D01*
X91978000Y-75690333D01*
X92244666Y-75690333D01*
X92378000Y-75623666D01*
X92444666Y-75557000D01*
X92511333Y-75423666D01*
X92511333Y-75090333D01*
X92444666Y-74957000D01*
X92378000Y-74890333D01*
X92244666Y-74823666D01*
X91978000Y-74823666D01*
X91844666Y-74890333D01*
X91778000Y-74957000D01*
X91711333Y-75090333D01*
D12*
X84850571Y-79965428D02*
X84850571Y-80822571D01*
X84850571Y-80394000D02*
X83350571Y-80394000D01*
X83564857Y-80536857D01*
X83707714Y-80679714D01*
X83779142Y-80822571D01*
D11*
X97115333Y-71191380D02*
X96782000Y-70715190D01*
X96543904Y-71191380D02*
X96543904Y-70191380D01*
X96924857Y-70191380D01*
X97020095Y-70239000D01*
X97067714Y-70286619D01*
X97115333Y-70381857D01*
X97115333Y-70524714D01*
X97067714Y-70619952D01*
X97020095Y-70667571D01*
X96924857Y-70715190D01*
X96543904Y-70715190D01*
X97448666Y-70191380D02*
X98115333Y-70191380D01*
X97686761Y-71191380D01*
X82471490Y-75557435D02*
X82404766Y-75624160D01*
X82204591Y-75690885D01*
X82071142Y-75690885D01*
X81870968Y-75624160D01*
X81737518Y-75490710D01*
X81670793Y-75357261D01*
X81604069Y-75090362D01*
X81604069Y-74890188D01*
X81670793Y-74623289D01*
X81737518Y-74489839D01*
X81870968Y-74356390D01*
X82071142Y-74289665D01*
X82204591Y-74289665D01*
X82404766Y-74356390D01*
X82471490Y-74423114D01*
X83072013Y-75690885D02*
X83072013Y-74289665D01*
X83872710Y-75690885D01*
X83872710Y-74289665D01*
X85207206Y-74289665D02*
X84539958Y-74289665D01*
X84473233Y-74956912D01*
X84539958Y-74890188D01*
X84673408Y-74823463D01*
X85007031Y-74823463D01*
X85140481Y-74890188D01*
X85207206Y-74956912D01*
X85273930Y-75090362D01*
X85273930Y-75423986D01*
X85207206Y-75557435D01*
X85140481Y-75624160D01*
X85007031Y-75690885D01*
X84673408Y-75690885D01*
X84539958Y-75624160D01*
X84473233Y-75557435D01*
D12*
X94746578Y-61774000D02*
X94229422Y-61774000D01*
X94746578Y-63194000D02*
X94229422Y-63194000D01*
X94229422Y-69290000D02*
X94746578Y-69290000D01*
X94229422Y-67870000D02*
X94746578Y-67870000D01*
D13*
X82131000Y-71698000D02*
X82131000Y-71898000D01*
X83731000Y-71698000D02*
X83731000Y-71998000D01*
X83731000Y-74098000D02*
X83731000Y-73798000D01*
X82131000Y-71898000D02*
X81931000Y-71898000D01*
X82131000Y-74098000D02*
X82431000Y-74098000D01*
X82131000Y-73898000D02*
X82131000Y-74098000D01*
X83431000Y-74098000D02*
X83731000Y-74098000D01*
X83431000Y-71698000D02*
X83731000Y-71698000D01*
X82531000Y-71698000D02*
X82131000Y-71698000D01*
X88344000Y-67565000D02*
X88069000Y-67565000D01*
X88969000Y-67565000D02*
X89344000Y-67565000D01*
X87694000Y-70865000D02*
X87694000Y-70515000D01*
X87694000Y-67890000D02*
X86919000Y-67890000D01*
X88069000Y-67565000D02*
X87694000Y-67840000D01*
X89344000Y-70865000D02*
X88894000Y-70865000D01*
X89344000Y-70640000D02*
X89344000Y-70515000D01*
X89344000Y-67565000D02*
X89344000Y-67865000D01*
X89344000Y-70565000D02*
X89344000Y-70865000D01*
X87694000Y-67840000D02*
X87694000Y-67890000D01*
X88169000Y-70865000D02*
X87694000Y-70865000D01*
D12*
X82545422Y-69521000D02*
X83062578Y-69521000D01*
X82545422Y-70941000D02*
X83062578Y-70941000D01*
X88133422Y-72188000D02*
X88650578Y-72188000D01*
X88133422Y-73608000D02*
X88650578Y-73608000D01*
X94229422Y-67258000D02*
X94746578Y-67258000D01*
X94229422Y-65838000D02*
X94746578Y-65838000D01*
X94229422Y-65226000D02*
X94746578Y-65226000D01*
X94229422Y-63806000D02*
X94746578Y-63806000D01*
X94746578Y-59742000D02*
X94229422Y-59742000D01*
X94746578Y-61162000D02*
X94229422Y-61162000D01*
X83062578Y-67108000D02*
X82545422Y-67108000D01*
X83062578Y-68528000D02*
X82545422Y-68528000D01*
D14*
X69920000Y-52959000D02*
X69920000Y-53848000D01*
X80080000Y-53848000D02*
X80080000Y-52959000D01*
X69200000Y-50996000D02*
X69200000Y-66296000D01*
X80800000Y-50996000D02*
X69200000Y-50996000D01*
X80080000Y-54446000D02*
X80080000Y-53848000D01*
X69920000Y-57546000D02*
X69920000Y-59436000D01*
X71444000Y-52959000D02*
X71444000Y-51816000D01*
X76016000Y-60071000D02*
X76016000Y-59436000D01*
X69920000Y-59436000D02*
X72714000Y-59436000D01*
X69920000Y-53848000D02*
X71444000Y-53848000D01*
X77286000Y-60071000D02*
X77286000Y-59436000D01*
X77286000Y-60071000D02*
X76524000Y-60071000D01*
X69920000Y-52959000D02*
X71444000Y-52959000D01*
X77286000Y-59436000D02*
X80080000Y-59436000D01*
X75254000Y-60071000D02*
X75254000Y-59436000D01*
X78556000Y-52959000D02*
X78556000Y-51816000D01*
X73476000Y-50800000D02*
X73476000Y-51816000D01*
X72714000Y-60071000D02*
X72714000Y-59436000D01*
X73476000Y-60071000D02*
X73476000Y-59436000D01*
X76524000Y-51816000D02*
X76524000Y-50800000D01*
X80080000Y-52959000D02*
X78556000Y-52959000D01*
X80800000Y-66296000D02*
X80800000Y-50996000D01*
X76016000Y-59436000D02*
X76524000Y-59436000D01*
X76524000Y-60071000D02*
X76524000Y-59436000D01*
X80080000Y-53848000D02*
X78556000Y-53848000D01*
X69200000Y-66296000D02*
X80800000Y-66296000D01*
X74746000Y-60071000D02*
X74746000Y-59436000D01*
X78556000Y-53848000D02*
X78556000Y-52959000D01*
X71444000Y-53848000D02*
X71444000Y-52959000D01*
X80080000Y-59436000D02*
X80080000Y-57546000D01*
X73476000Y-51816000D02*
X71444000Y-51816000D01*
X74746000Y-59436000D02*
X75254000Y-59436000D01*
X76524000Y-50800000D02*
X73476000Y-50800000D01*
X74746000Y-60071000D02*
X73984000Y-60071000D01*
X69920000Y-53848000D02*
X69920000Y-54446000D01*
X73984000Y-60071000D02*
X73984000Y-59436000D01*
X73476000Y-59436000D02*
X73984000Y-59436000D01*
X73476000Y-60071000D02*
X72714000Y-60071000D01*
X76524000Y-51816000D02*
X73476000Y-51816000D01*
X76016000Y-60071000D02*
X75254000Y-60071000D01*
X78556000Y-51816000D02*
X76524000Y-51816000D01*
X91680000Y-53848000D02*
X90156000Y-53848000D01*
X92400000Y-50996000D02*
X80800000Y-50996000D01*
X81520000Y-59436000D02*
X84314000Y-59436000D01*
X87616000Y-60071000D02*
X86854000Y-60071000D01*
X80800000Y-50996000D02*
X80800000Y-66296000D01*
X86854000Y-60071000D02*
X86854000Y-59436000D01*
X87616000Y-60071000D02*
X87616000Y-59436000D01*
X88124000Y-51816000D02*
X85076000Y-51816000D01*
X88886000Y-60071000D02*
X88124000Y-60071000D01*
X83044000Y-53848000D02*
X83044000Y-52959000D01*
X92400000Y-66296000D02*
X92400000Y-50996000D01*
X85584000Y-60071000D02*
X85584000Y-59436000D01*
X88124000Y-60071000D02*
X88124000Y-59436000D01*
X91680000Y-59436000D02*
X91680000Y-57546000D01*
X85076000Y-60071000D02*
X85076000Y-59436000D01*
X86346000Y-60071000D02*
X85584000Y-60071000D01*
X88124000Y-50800000D02*
X85076000Y-50800000D01*
X85076000Y-60071000D02*
X84314000Y-60071000D01*
X81520000Y-52959000D02*
X81520000Y-53848000D01*
X84314000Y-60071000D02*
X84314000Y-59436000D01*
X85076000Y-59436000D02*
X85584000Y-59436000D01*
X85076000Y-50800000D02*
X85076000Y-51816000D01*
X81520000Y-53848000D02*
X81520000Y-54446000D01*
X91680000Y-54446000D02*
X91680000Y-53848000D01*
X80800000Y-66296000D02*
X92400000Y-66296000D01*
X81520000Y-53848000D02*
X83044000Y-53848000D01*
X85076000Y-51816000D02*
X83044000Y-51816000D01*
X91680000Y-52959000D02*
X90156000Y-52959000D01*
X88886000Y-59436000D02*
X91680000Y-59436000D01*
X83044000Y-52959000D02*
X83044000Y-51816000D01*
X81520000Y-57546000D02*
X81520000Y-59436000D01*
X86346000Y-60071000D02*
X86346000Y-59436000D01*
X88124000Y-51816000D02*
X88124000Y-50800000D01*
X90156000Y-52959000D02*
X90156000Y-51816000D01*
X88886000Y-60071000D02*
X88886000Y-59436000D01*
X91680000Y-53848000D02*
X91680000Y-52959000D01*
X90156000Y-51816000D02*
X88124000Y-51816000D01*
X81520000Y-52959000D02*
X83044000Y-52959000D01*
X86346000Y-59436000D02*
X86854000Y-59436000D01*
X87616000Y-59436000D02*
X88124000Y-59436000D01*
X90156000Y-53848000D02*
X90156000Y-52959000D01*
X62384000Y-72899000D02*
X62384000Y-73534000D01*
X58320000Y-80011000D02*
X59844000Y-80011000D01*
X65686000Y-72899000D02*
X65686000Y-73534000D01*
X68480000Y-73534000D02*
X65686000Y-73534000D01*
X68480000Y-79122000D02*
X68480000Y-78524000D01*
X58320000Y-79122000D02*
X59844000Y-79122000D01*
X68480000Y-79122000D02*
X66956000Y-79122000D01*
X63654000Y-72899000D02*
X63654000Y-73534000D01*
X64924000Y-82170000D02*
X64924000Y-81154000D01*
X58320000Y-78524000D02*
X58320000Y-79122000D01*
X58320000Y-73534000D02*
X58320000Y-75424000D01*
X59844000Y-80011000D02*
X59844000Y-81154000D01*
X64924000Y-73534000D02*
X64416000Y-73534000D01*
X62384000Y-73534000D02*
X61876000Y-73534000D01*
X66956000Y-80011000D02*
X66956000Y-81154000D01*
X61114000Y-73534000D02*
X58320000Y-73534000D01*
X61114000Y-72899000D02*
X61114000Y-73534000D01*
X61876000Y-82170000D02*
X64924000Y-82170000D01*
X57600000Y-81974000D02*
X69200000Y-81974000D01*
X69200000Y-81974000D02*
X69200000Y-66674000D01*
X64924000Y-72899000D02*
X65686000Y-72899000D01*
X61876000Y-72899000D02*
X61876000Y-73534000D01*
X68480000Y-80011000D02*
X68480000Y-79122000D01*
X61114000Y-72899000D02*
X61876000Y-72899000D01*
X63146000Y-72899000D02*
X63146000Y-73534000D01*
X61876000Y-81154000D02*
X64924000Y-81154000D01*
X66956000Y-79122000D02*
X66956000Y-80011000D01*
X57600000Y-66674000D02*
X57600000Y-81974000D01*
X58320000Y-79122000D02*
X58320000Y-80011000D01*
X69200000Y-66674000D02*
X57600000Y-66674000D01*
X61876000Y-81154000D02*
X61876000Y-82170000D01*
X68480000Y-80011000D02*
X66956000Y-80011000D01*
X63654000Y-72899000D02*
X64416000Y-72899000D01*
X62384000Y-72899000D02*
X63146000Y-72899000D01*
X64924000Y-81154000D02*
X66956000Y-81154000D01*
X59844000Y-81154000D02*
X61876000Y-81154000D01*
X59844000Y-79122000D02*
X59844000Y-80011000D01*
X63654000Y-73534000D02*
X63146000Y-73534000D01*
X64924000Y-72899000D02*
X64924000Y-73534000D01*
X68480000Y-75424000D02*
X68480000Y-73534000D01*
X64416000Y-72899000D02*
X64416000Y-73534000D01*
D15*
X94830000Y-74629000D02*
X95670000Y-74629000D01*
X94830000Y-71929000D02*
X95670000Y-71929000D01*
D14*
X63146000Y-59436000D02*
X63654000Y-59436000D01*
X64416000Y-60071000D02*
X64416000Y-59436000D01*
X68480000Y-59436000D02*
X68480000Y-57546000D01*
X64416000Y-60071000D02*
X63654000Y-60071000D01*
X61876000Y-51816000D02*
X59844000Y-51816000D01*
X61876000Y-60071000D02*
X61114000Y-60071000D01*
X68480000Y-53848000D02*
X68480000Y-52959000D01*
X65686000Y-59436000D02*
X68480000Y-59436000D01*
X68480000Y-52959000D02*
X66956000Y-52959000D01*
X64924000Y-50800000D02*
X61876000Y-50800000D01*
X58320000Y-52959000D02*
X58320000Y-53848000D01*
X59844000Y-53848000D02*
X59844000Y-52959000D01*
X63654000Y-60071000D02*
X63654000Y-59436000D01*
X66956000Y-52959000D02*
X66956000Y-51816000D01*
X64416000Y-59436000D02*
X64924000Y-59436000D01*
X65686000Y-60071000D02*
X65686000Y-59436000D01*
X63146000Y-60071000D02*
X62384000Y-60071000D01*
X64924000Y-60071000D02*
X64924000Y-59436000D01*
X58320000Y-59436000D02*
X61114000Y-59436000D01*
X57600000Y-50996000D02*
X57600000Y-66296000D01*
X63146000Y-60071000D02*
X63146000Y-59436000D01*
X66956000Y-51816000D02*
X64924000Y-51816000D01*
X64924000Y-51816000D02*
X64924000Y-50800000D01*
X58320000Y-52959000D02*
X59844000Y-52959000D01*
X68480000Y-53848000D02*
X66956000Y-53848000D01*
X58320000Y-57546000D02*
X58320000Y-59436000D01*
X57600000Y-66296000D02*
X69200000Y-66296000D01*
X68480000Y-54446000D02*
X68480000Y-53848000D01*
X61876000Y-50800000D02*
X61876000Y-51816000D01*
X58320000Y-53848000D02*
X58320000Y-54446000D01*
X69200000Y-50996000D02*
X57600000Y-50996000D01*
X64924000Y-51816000D02*
X61876000Y-51816000D01*
X59844000Y-52959000D02*
X59844000Y-51816000D01*
X65686000Y-60071000D02*
X64924000Y-60071000D01*
X66956000Y-53848000D02*
X66956000Y-52959000D01*
X62384000Y-60071000D02*
X62384000Y-59436000D01*
X61876000Y-60071000D02*
X61876000Y-59436000D01*
X58320000Y-53848000D02*
X59844000Y-53848000D01*
X69200000Y-66296000D02*
X69200000Y-50996000D01*
X61876000Y-59436000D02*
X62384000Y-59436000D01*
X61114000Y-60071000D02*
X61114000Y-59436000D01*
D12*
X89097000Y-81919000D02*
X89697000Y-81919000D01*
X89997000Y-81919000D02*
X92647000Y-81919000D01*
X81597000Y-81919000D02*
X81597000Y-76069000D01*
X81597000Y-81919000D02*
X84247000Y-81919000D01*
X84497000Y-81919000D02*
X85097000Y-81919000D01*
X81597000Y-76069000D02*
X92647000Y-76069000D01*
X92647000Y-81919000D02*
X92647000Y-76069000D01*
X89997000Y-81469000D02*
X89997000Y-81919000D01*
X84247000Y-81469000D02*
X84247000Y-81919000D01*
X84247000Y-81469000D02*
X89997000Y-81469000D01*
X85347000Y-81919000D02*
X88847000Y-81919000D01*
X94746578Y-69902000D02*
X94229422Y-69902000D01*
X94746578Y-71322000D02*
X94229422Y-71322000D01*
D14*
X73476000Y-81154000D02*
X76524000Y-81154000D01*
X76524000Y-82170000D02*
X76524000Y-81154000D01*
X72714000Y-73534000D02*
X69920000Y-73534000D01*
X75254000Y-72899000D02*
X75254000Y-73534000D01*
X71444000Y-80011000D02*
X71444000Y-81154000D01*
X80080000Y-73534000D02*
X77286000Y-73534000D01*
X77286000Y-72899000D02*
X77286000Y-73534000D01*
X80080000Y-80011000D02*
X78556000Y-80011000D01*
X76524000Y-72899000D02*
X76524000Y-73534000D01*
X69920000Y-79122000D02*
X71444000Y-79122000D01*
X72714000Y-72899000D02*
X72714000Y-73534000D01*
X69920000Y-73534000D02*
X69920000Y-75424000D01*
X78556000Y-79122000D02*
X78556000Y-80011000D01*
X69920000Y-78524000D02*
X69920000Y-79122000D01*
X73476000Y-82170000D02*
X76524000Y-82170000D01*
X69920000Y-80011000D02*
X71444000Y-80011000D01*
X69920000Y-79122000D02*
X69920000Y-80011000D01*
X74746000Y-72899000D02*
X74746000Y-73534000D01*
X78556000Y-80011000D02*
X78556000Y-81154000D01*
X80080000Y-79122000D02*
X78556000Y-79122000D01*
X76016000Y-72899000D02*
X76016000Y-73534000D01*
X73476000Y-72899000D02*
X73476000Y-73534000D01*
X80800000Y-66674000D02*
X69200000Y-66674000D01*
X80080000Y-80011000D02*
X80080000Y-79122000D01*
X76524000Y-72899000D02*
X77286000Y-72899000D01*
X80800000Y-81974000D02*
X80800000Y-66674000D01*
X75254000Y-73534000D02*
X74746000Y-73534000D01*
X75254000Y-72899000D02*
X76016000Y-72899000D01*
X73984000Y-72899000D02*
X73984000Y-73534000D01*
X71444000Y-81154000D02*
X73476000Y-81154000D01*
X76524000Y-73534000D02*
X76016000Y-73534000D01*
X73984000Y-73534000D02*
X73476000Y-73534000D01*
X69200000Y-66674000D02*
X69200000Y-81974000D01*
X71444000Y-79122000D02*
X71444000Y-80011000D01*
X76524000Y-81154000D02*
X78556000Y-81154000D01*
X80080000Y-79122000D02*
X80080000Y-78524000D01*
X69200000Y-81974000D02*
X80800000Y-81974000D01*
X72714000Y-72899000D02*
X73476000Y-72899000D01*
X80080000Y-75424000D02*
X80080000Y-73534000D01*
X73984000Y-72899000D02*
X74746000Y-72899000D01*
X73476000Y-81154000D02*
X73476000Y-82170000D01*
D16*
X84097000Y-78619000D03*
X86097000Y-78619000D03*
X88097000Y-78619000D03*
X90097000Y-78619000D03*
M02*
