G04 #@! TF.GenerationSoftware,KiCad,Pcbnew,6.0.5-a6ca702e91~116~ubuntu20.04.1*
G04 #@! TF.CreationDate,2022-05-16T19:37:38+02:00*
G04 #@! TF.ProjectId,1w-grove-v0.1,31772d67-726f-4766-952d-76302e312e6b,rev?*
G04 #@! TF.SameCoordinates,Original*
G04 #@! TF.FileFunction,Copper,L1,Top*
G04 #@! TF.FilePolarity,Positive*
%FSLAX46Y46*%
G04 Gerber Fmt 4.6, Leading zero omitted, Abs format (unit mm)*
G04 Created by KiCad (PCBNEW 6.0.5-a6ca702e91~116~ubuntu20.04.1) date 2022-05-16 19:37:38*
%MOMM*%
%LPD*%
G01*
G04 APERTURE LIST*
G04 Aperture macros list*
%AMRoundRect*
0 Rectangle with rounded corners*
0 $1 Rounding radius*
0 $2 $3 $4 $5 $6 $7 $8 $9 X,Y pos of 4 corners*
0 Add a 4 corners polygon primitive as box body*
4,1,4,$2,$3,$4,$5,$6,$7,$8,$9,$2,$3,0*
0 Add four circle primitives for the rounded corners*
1,1,$1+$1,$2,$3*
1,1,$1+$1,$4,$5*
1,1,$1+$1,$6,$7*
1,1,$1+$1,$8,$9*
0 Add four rect primitives between the rounded corners*
20,1,$1+$1,$2,$3,$4,$5,0*
20,1,$1+$1,$4,$5,$6,$7,0*
20,1,$1+$1,$6,$7,$8,$9,0*
20,1,$1+$1,$8,$9,$2,$3,0*%
G04 Aperture macros list end*
G04 #@! TA.AperFunction,ComponentPad*
%ADD10C,6.000000*%
G04 #@! TD*
G04 #@! TA.AperFunction,SMDPad,CuDef*
%ADD11RoundRect,0.243750X0.243750X0.456250X-0.243750X0.456250X-0.243750X-0.456250X0.243750X-0.456250X0*%
G04 #@! TD*
G04 #@! TA.AperFunction,SMDPad,CuDef*
%ADD12RoundRect,0.243750X-0.243750X-0.456250X0.243750X-0.456250X0.243750X0.456250X-0.243750X0.456250X0*%
G04 #@! TD*
G04 #@! TA.AperFunction,SMDPad,CuDef*
%ADD13R,0.550000X0.600000*%
G04 #@! TD*
G04 #@! TA.AperFunction,SMDPad,CuDef*
%ADD14R,1.300000X0.600000*%
G04 #@! TD*
G04 #@! TA.AperFunction,ComponentPad*
%ADD15C,1.397000*%
G04 #@! TD*
G04 #@! TA.AperFunction,SMDPad,CuDef*
%ADD16R,1.370000X2.720000*%
G04 #@! TD*
G04 #@! TA.AperFunction,ComponentPad*
%ADD17C,1.524000*%
G04 #@! TD*
G04 #@! TA.AperFunction,ViaPad*
%ADD18C,0.800000*%
G04 #@! TD*
G04 #@! TA.AperFunction,Conductor*
%ADD19C,0.250000*%
G04 #@! TD*
G04 APERTURE END LIST*
D10*
X53300000Y-53300000D03*
X53300000Y-79502000D03*
X96700000Y-53300000D03*
X96700000Y-79500000D03*
D11*
X95425500Y-62484000D03*
X93550500Y-62484000D03*
D12*
X93550500Y-68580000D03*
X95425500Y-68580000D03*
D13*
X82006000Y-72248000D03*
X82006000Y-73548000D03*
X83856000Y-72898000D03*
D14*
X87469000Y-68265000D03*
X87469000Y-70165000D03*
X89569000Y-69215000D03*
D12*
X81866500Y-70231000D03*
X83741500Y-70231000D03*
X87454500Y-72898000D03*
X89329500Y-72898000D03*
X93550500Y-66548000D03*
X95425500Y-66548000D03*
X93550500Y-64516000D03*
X95425500Y-64516000D03*
D11*
X95425500Y-60452000D03*
X93550500Y-60452000D03*
X83741500Y-67818000D03*
X81866500Y-67818000D03*
D15*
X76905000Y-62357000D03*
X75635000Y-64897000D03*
X74365000Y-62357000D03*
X73095000Y-64897000D03*
X88505000Y-62357000D03*
X87235000Y-64897000D03*
X85965000Y-62357000D03*
X84695000Y-64897000D03*
X61495000Y-70613000D03*
X62765000Y-68073000D03*
X64035000Y-70613000D03*
X65305000Y-68073000D03*
D16*
X93829000Y-73279000D03*
X96671000Y-73279000D03*
D15*
X65305000Y-62357000D03*
X64035000Y-64897000D03*
X62765000Y-62357000D03*
X61495000Y-64897000D03*
D17*
X84097000Y-78619000D03*
X86097000Y-78619000D03*
X88097000Y-78619000D03*
X90097000Y-78619000D03*
D11*
X95425500Y-70612000D03*
X93550500Y-70612000D03*
D15*
X73095000Y-70613000D03*
X74365000Y-68073000D03*
X75635000Y-70613000D03*
X76905000Y-68073000D03*
D18*
X80010000Y-70231000D03*
X82423000Y-74549000D03*
X97155000Y-69596000D03*
D19*
X86548000Y-68265000D02*
X86106000Y-68707000D01*
X83856000Y-72898000D02*
X86106000Y-72898000D01*
X86106000Y-68707000D02*
X86106000Y-72898000D01*
X87469000Y-68265000D02*
X86548000Y-68265000D01*
X86106000Y-72898000D02*
X87454500Y-72898000D01*
X95425500Y-64516000D02*
X95425500Y-60452000D01*
X85852000Y-67310000D02*
X91313000Y-67310000D01*
X93550500Y-70612000D02*
X93829000Y-70890500D01*
X92583000Y-68580000D02*
X93550500Y-68580000D01*
X83741500Y-67818000D02*
X85344000Y-67818000D01*
X93829000Y-70890500D02*
X93829000Y-73279000D01*
X91313000Y-67310000D02*
X92583000Y-68580000D01*
X93550500Y-68580000D02*
X93550500Y-70612000D01*
X85344000Y-67818000D02*
X85852000Y-67310000D01*
X96671000Y-73279000D02*
X97917000Y-73279000D01*
X97536000Y-66548000D02*
X95425500Y-66548000D01*
X92075000Y-69977000D02*
X92075000Y-74930000D01*
X95123000Y-75565000D02*
X96671000Y-74017000D01*
X97917000Y-73279000D02*
X98171000Y-73025000D01*
X89569000Y-69215000D02*
X91313000Y-69215000D01*
X91313000Y-69215000D02*
X92075000Y-69977000D01*
X98171000Y-73025000D02*
X98171000Y-67183000D01*
X92075000Y-74930000D02*
X92710000Y-75565000D01*
X98171000Y-67183000D02*
X97536000Y-66548000D01*
X96671000Y-74017000D02*
X96671000Y-73279000D01*
X92710000Y-75565000D02*
X95123000Y-75565000D01*
X82550000Y-63246000D02*
X81866500Y-63929500D01*
X62765000Y-68073000D02*
X62765000Y-67029000D01*
X67437000Y-64897000D02*
X70613000Y-68073000D01*
X87235000Y-64897000D02*
X86550500Y-64897000D01*
X62765000Y-67029000D02*
X64035000Y-65759000D01*
X81866500Y-63929500D02*
X81866500Y-67818000D01*
X75635000Y-65843000D02*
X75635000Y-64897000D01*
X84899500Y-63246000D02*
X82550000Y-63246000D01*
X74365000Y-67113000D02*
X75635000Y-65843000D01*
X75635000Y-64897000D02*
X81788000Y-64897000D01*
X64035000Y-65759000D02*
X64035000Y-64897000D01*
X64035000Y-64897000D02*
X67437000Y-64897000D01*
X70613000Y-68073000D02*
X74365000Y-68073000D01*
X74365000Y-68073000D02*
X74365000Y-67113000D01*
X86550500Y-64897000D02*
X84899500Y-63246000D01*
X93042500Y-59944000D02*
X93550500Y-60452000D01*
X85344000Y-59944000D02*
X86106000Y-59944000D01*
X75635000Y-71939000D02*
X75635000Y-70613000D01*
X62765000Y-59971000D02*
X62738000Y-59944000D01*
X74365000Y-60001000D02*
X74422000Y-59944000D01*
X74365000Y-62357000D02*
X74365000Y-60001000D01*
X59690000Y-71628000D02*
X59690000Y-61976000D01*
X62765000Y-62357000D02*
X62765000Y-59971000D01*
X74422000Y-59944000D02*
X85344000Y-59944000D01*
X59690000Y-61976000D02*
X61722000Y-59944000D01*
X75184000Y-72390000D02*
X75635000Y-71939000D01*
X63500000Y-72390000D02*
X64008000Y-72390000D01*
X64035000Y-72363000D02*
X64008000Y-72390000D01*
X64035000Y-70613000D02*
X64035000Y-72363000D01*
X60452000Y-72390000D02*
X59690000Y-71628000D01*
X86106000Y-59944000D02*
X93042500Y-59944000D01*
X61722000Y-59944000D02*
X62738000Y-59944000D01*
X62738000Y-59944000D02*
X74422000Y-59944000D01*
X85965000Y-60085000D02*
X86106000Y-59944000D01*
X63500000Y-72390000D02*
X60452000Y-72390000D01*
X64008000Y-72390000D02*
X75184000Y-72390000D01*
X85965000Y-62357000D02*
X85965000Y-60085000D01*
X95425500Y-70612000D02*
X95425500Y-68580000D01*
X82006000Y-74132000D02*
X82423000Y-74549000D01*
X95425500Y-68580000D02*
X96139000Y-68580000D01*
X93550500Y-62484000D02*
X93423500Y-62357000D01*
X82006000Y-73548000D02*
X82006000Y-74132000D01*
X93423500Y-62357000D02*
X88505000Y-62357000D01*
X96139000Y-68580000D02*
X97155000Y-69596000D01*
X81866500Y-70231000D02*
X80010000Y-70231000D01*
X82804000Y-68580000D02*
X82804000Y-66802000D01*
X89408000Y-66548000D02*
X91440000Y-64516000D01*
X83058000Y-66548000D02*
X89408000Y-66548000D01*
X79756000Y-68961000D02*
X82423000Y-68961000D01*
X93550500Y-66548000D02*
X93550500Y-64516000D01*
X82423000Y-68961000D02*
X82804000Y-68580000D01*
X79285489Y-69431511D02*
X79756000Y-68961000D01*
X84097000Y-78382000D02*
X79285489Y-73570489D01*
X82804000Y-66802000D02*
X83058000Y-66548000D01*
X84097000Y-78619000D02*
X84097000Y-78382000D01*
X91440000Y-64516000D02*
X93550500Y-64516000D01*
X79285489Y-73570489D02*
X79285489Y-69431511D01*
X81026000Y-71755000D02*
X81407000Y-71374000D01*
X85598000Y-76581000D02*
X83312000Y-76581000D01*
X81026000Y-74295000D02*
X81026000Y-72263000D01*
X81041000Y-72248000D02*
X81026000Y-72263000D01*
X82006000Y-72248000D02*
X81041000Y-72248000D01*
X81026000Y-72263000D02*
X81026000Y-71755000D01*
X86097000Y-77080000D02*
X85598000Y-76581000D01*
X83312000Y-76581000D02*
X81026000Y-74295000D01*
X83566000Y-70406500D02*
X83741500Y-70231000D01*
X83566000Y-71374000D02*
X83566000Y-70406500D01*
X81407000Y-71374000D02*
X83566000Y-71374000D01*
X86097000Y-78619000D02*
X86097000Y-77080000D01*
X89329500Y-72898000D02*
X89329500Y-73992500D01*
X89329500Y-71549500D02*
X89329500Y-72898000D01*
X87469000Y-70165000D02*
X87945000Y-70165000D01*
X89329500Y-73992500D02*
X88097000Y-75225000D01*
X88097000Y-75225000D02*
X88097000Y-78619000D01*
X87945000Y-70165000D02*
X89329500Y-71549500D01*
M02*
