%TF.GenerationSoftware,KiCad,Pcbnew,(6.0.4-0)*%
%TF.CreationDate,2023-05-22T14:10:50+02:00*%
%TF.ProjectId,NodeMCU-Metriful,4e6f6465-4d43-4552-9d4d-657472696675,rev?*%
%TF.SameCoordinates,Original*%
%TF.FileFunction,Copper,L2,Bot*%
%TF.FilePolarity,Positive*%
%FSLAX46Y46*%
G04 Gerber Fmt 4.6, Leading zero omitted, Abs format (unit mm)*
G04 Created by KiCad (PCBNEW (6.0.4-0)) date 2023-05-22 14:10:50*
%MOMM*%
%LPD*%
G01*
G04 APERTURE LIST*
G04 Aperture macros list*
%AMRoundRect*
0 Rectangle with rounded corners*
0 $1 Rounding radius*
0 $2 $3 $4 $5 $6 $7 $8 $9 X,Y pos of 4 corners*
0 Add a 4 corners polygon primitive as box body*
4,1,4,$2,$3,$4,$5,$6,$7,$8,$9,$2,$3,0*
0 Add four circle primitives for the rounded corners*
1,1,$1+$1,$2,$3*
1,1,$1+$1,$4,$5*
1,1,$1+$1,$6,$7*
1,1,$1+$1,$8,$9*
0 Add four rect primitives between the rounded corners*
20,1,$1+$1,$2,$3,$4,$5,0*
20,1,$1+$1,$4,$5,$6,$7,0*
20,1,$1+$1,$6,$7,$8,$9,0*
20,1,$1+$1,$8,$9,$2,$3,0*%
G04 Aperture macros list end*
%TA.AperFunction,ComponentPad*%
%ADD10C,1.397000*%
%TD*%
%TA.AperFunction,ComponentPad*%
%ADD11RoundRect,0.250000X-0.350000X-0.625000X0.350000X-0.625000X0.350000X0.625000X-0.350000X0.625000X0*%
%TD*%
%TA.AperFunction,ComponentPad*%
%ADD12O,1.200000X1.750000*%
%TD*%
%TA.AperFunction,ComponentPad*%
%ADD13C,1.524000*%
%TD*%
%TA.AperFunction,ComponentPad*%
%ADD14R,1.700000X1.700000*%
%TD*%
%TA.AperFunction,ComponentPad*%
%ADD15O,1.700000X1.700000*%
%TD*%
%TA.AperFunction,ComponentPad*%
%ADD16R,1.050000X1.500000*%
%TD*%
%TA.AperFunction,ComponentPad*%
%ADD17O,1.050000X1.500000*%
%TD*%
%TA.AperFunction,ViaPad*%
%ADD18C,0.800000*%
%TD*%
%TA.AperFunction,Conductor*%
%ADD19C,0.250000*%
%TD*%
G04 APERTURE END LIST*
D10*
%TO.P,CN3,1,1*%
%TO.N,GND*%
X132080000Y-106046000D03*
%TO.P,CN3,2,2*%
%TO.N,Net-(CN1-Pad2)*%
X133350000Y-103506000D03*
%TO.P,CN3,3,3*%
%TO.N,Net-(CN1-Pad3)*%
X134620000Y-106046000D03*
%TO.P,CN3,4,4*%
%TO.N,unconnected-(CN3-Pad4)*%
X135890000Y-103506000D03*
%TD*%
D11*
%TO.P,J4,1,Pin_1*%
%TO.N,VDD*%
X91250000Y-111760000D03*
D12*
%TO.P,J4,2,Pin_2*%
%TO.N,Net-(J4-Pad2)*%
X93250000Y-111760000D03*
%TO.P,J4,3,Pin_3*%
%TO.N,GND*%
X95250000Y-111760000D03*
%TD*%
D10*
%TO.P,CN1,1,1*%
%TO.N,GND*%
X106580000Y-106046000D03*
%TO.P,CN1,2,2*%
%TO.N,Net-(CN1-Pad2)*%
X107850000Y-103506000D03*
%TO.P,CN1,3,3*%
%TO.N,Net-(CN1-Pad3)*%
X109120000Y-106046000D03*
%TO.P,CN1,4,4*%
%TO.N,unconnected-(CN1-Pad4)*%
X110390000Y-103506000D03*
%TD*%
D13*
%TO.P,U1,1,A0(ADC0)*%
%TO.N,unconnected-(U1-Pad1)*%
X142240000Y-73025000D03*
%TO.P,U1,2,RSV*%
%TO.N,unconnected-(U1-Pad2)*%
X142240000Y-75565000D03*
%TO.P,U1,3,RSV*%
%TO.N,unconnected-(U1-Pad3)*%
X142240000Y-78105000D03*
%TO.P,U1,4,SD3(GPIO10)*%
%TO.N,unconnected-(U1-Pad4)*%
X142240000Y-80645000D03*
%TO.P,U1,5,SD2(GPIO9)*%
%TO.N,unconnected-(U1-Pad5)*%
X142240000Y-83185000D03*
%TO.P,U1,6,SD1(MOSI)*%
%TO.N,unconnected-(U1-Pad6)*%
X142240000Y-85725000D03*
%TO.P,U1,7,CMD(CS)*%
%TO.N,unconnected-(U1-Pad7)*%
X142240000Y-88265000D03*
%TO.P,U1,8,SDO(MISO)*%
%TO.N,unconnected-(U1-Pad8)*%
X142240000Y-90805000D03*
%TO.P,U1,9,CLK(SCLK)*%
%TO.N,unconnected-(U1-Pad9)*%
X142240000Y-93345000D03*
%TO.P,U1,10,GND*%
%TO.N,GND*%
X142240000Y-95885000D03*
%TO.P,U1,11,3.3V*%
%TO.N,+3V3*%
X142240000Y-98425000D03*
%TO.P,U1,12,EN*%
%TO.N,unconnected-(U1-Pad12)*%
X142240000Y-100965000D03*
%TO.P,U1,13,RST*%
%TO.N,unconnected-(U1-Pad13)*%
X142240000Y-103505000D03*
%TO.P,U1,14,GND*%
%TO.N,GND*%
X142240000Y-106045000D03*
%TO.P,U1,15,VIN*%
%TO.N,VDD*%
X142240000Y-108585000D03*
%TO.P,U1,16,3.3V*%
%TO.N,+3V3*%
X165100000Y-108585000D03*
%TO.P,U1,17,GND*%
%TO.N,GND*%
X165100000Y-106045000D03*
%TO.P,U1,18,TX(GPIO1)*%
%TO.N,unconnected-(U1-Pad18)*%
X165100000Y-103505000D03*
%TO.P,U1,19,RX(DPIO3)*%
%TO.N,unconnected-(U1-Pad19)*%
X165100000Y-100965000D03*
%TO.P,U1,20,D8(GPIO15)*%
%TO.N,Net-(J1-Pad7)*%
X165100000Y-98425000D03*
%TO.P,U1,21,D7(GPIO13)*%
%TO.N,Net-(R3-Pad1)*%
X165100000Y-95885000D03*
%TO.P,U1,22,D6(GPIO12)*%
%TO.N,Net-(U1-Pad22)*%
X165100000Y-93345000D03*
%TO.P,U1,23,D5(GPIO14)*%
%TO.N,T_enable*%
X165100000Y-90805000D03*
%TO.P,U1,24,GND*%
%TO.N,GND*%
X165100000Y-88265000D03*
%TO.P,U1,25,3.3V*%
%TO.N,+3V3*%
X165100000Y-85725000D03*
%TO.P,U1,26,D4(GPIO2)*%
%TO.N,Net-(J1-Pad5)*%
X165100000Y-83185000D03*
%TO.P,U1,27,D3(GPIO0)*%
%TO.N,Net-(J1-Pad3)*%
X165100000Y-80645000D03*
%TO.P,U1,28,D2(GPIO4)*%
%TO.N,Net-(U1-Pad28)*%
X165100000Y-78105000D03*
%TO.P,U1,29,D1(GPIO5)*%
%TO.N,Net-(U1-Pad29)*%
X165100000Y-75565000D03*
%TO.P,U1,30,D0(GPIO16)*%
%TO.N,Net-(J1-Pad1)*%
X165100000Y-73025000D03*
%TD*%
D14*
%TO.P,J1,1,Pin_1*%
%TO.N,Net-(J1-Pad1)*%
X132080000Y-68580000D03*
D15*
%TO.P,J1,2,Pin_2*%
%TO.N,GND*%
X132080000Y-71120000D03*
%TO.P,J1,3,Pin_3*%
%TO.N,Net-(J1-Pad3)*%
X129540000Y-68580000D03*
%TO.P,J1,4,Pin_4*%
%TO.N,GND*%
X129540000Y-71120000D03*
%TO.P,J1,5,Pin_5*%
%TO.N,Net-(J1-Pad5)*%
X127000000Y-68580000D03*
%TO.P,J1,6,Pin_6*%
%TO.N,GND*%
X127000000Y-71120000D03*
%TO.P,J1,7,Pin_7*%
%TO.N,Net-(J1-Pad7)*%
X124460000Y-68580000D03*
%TO.P,J1,8,Pin_8*%
%TO.N,GND*%
X124460000Y-71120000D03*
%TD*%
D16*
%TO.P,U3,1,GND*%
%TO.N,GND*%
X104775000Y-95250000D03*
D17*
%TO.P,U3,2,DQ*%
%TO.N,Net-(CN1-Pad3)*%
X106045000Y-95250000D03*
%TO.P,U3,3,VDD*%
%TO.N,Net-(CN1-Pad2)*%
X107315000Y-95250000D03*
%TD*%
D10*
%TO.P,CN2,1,1*%
%TO.N,GND*%
X119380000Y-106045000D03*
%TO.P,CN2,2,2*%
%TO.N,Net-(CN1-Pad2)*%
X120650000Y-103505000D03*
%TO.P,CN2,3,3*%
%TO.N,Net-(CN1-Pad3)*%
X121920000Y-106045000D03*
%TO.P,CN2,4,4*%
%TO.N,unconnected-(CN2-Pad4)*%
X123190000Y-103505000D03*
%TD*%
D18*
%TO.N,GND*%
X90170000Y-80010000D03*
X120015000Y-77470000D03*
X113030000Y-90170000D03*
X123190000Y-97790000D03*
%TO.N,Net-(F1-Pad2)*%
X124460000Y-92075000D03*
X131285000Y-90330000D03*
%TO.N,Net-(U1-Pad22)*%
X107950000Y-90805000D03*
X135890000Y-88265000D03*
%TO.N,Net-(R3-Pad1)*%
X125730000Y-93345000D03*
X152400000Y-97155000D03*
%TO.N,Net-(U1-Pad28)*%
X104775000Y-78740000D03*
X104775000Y-74930000D03*
%TO.N,Net-(U1-Pad29)*%
X107950000Y-73660000D03*
X107950000Y-78740000D03*
%TD*%
D19*
%TO.N,Net-(F1-Pad2)*%
X128270000Y-92075000D02*
X130015000Y-90330000D01*
X124460000Y-92075000D02*
X128270000Y-92075000D01*
X130015000Y-90330000D02*
X131285000Y-90330000D01*
%TO.N,Net-(U1-Pad22)*%
X120650000Y-92075000D02*
X124460000Y-88265000D01*
X124460000Y-88265000D02*
X135890000Y-88265000D01*
X109220000Y-92075000D02*
X120650000Y-92075000D01*
X107950000Y-90805000D02*
X109220000Y-92075000D01*
%TO.N,Net-(R3-Pad1)*%
X140970000Y-97155000D02*
X152400000Y-97155000D01*
X125730000Y-93345000D02*
X137160000Y-93345000D01*
X137160000Y-93345000D02*
X140970000Y-97155000D01*
%TO.N,Net-(U1-Pad28)*%
X104775000Y-74930000D02*
X104775000Y-78740000D01*
%TO.N,Net-(U1-Pad29)*%
X107950000Y-73660000D02*
X107950000Y-78740000D01*
%TD*%
%TA.AperFunction,Conductor*%
%TO.N,GND*%
G36*
X169613621Y-63393502D02*
G01*
X169660114Y-63447158D01*
X169671500Y-63499500D01*
X169671500Y-114935500D01*
X169651498Y-115003621D01*
X169597842Y-115050114D01*
X169545500Y-115061500D01*
X83819500Y-115061500D01*
X83751379Y-115041498D01*
X83704886Y-114987842D01*
X83693500Y-114935500D01*
X83693500Y-112435400D01*
X90141500Y-112435400D01*
X90141837Y-112438646D01*
X90141837Y-112438650D01*
X90150800Y-112525028D01*
X90152474Y-112541166D01*
X90154655Y-112547702D01*
X90154655Y-112547704D01*
X90157728Y-112556915D01*
X90208450Y-112708946D01*
X90301522Y-112859348D01*
X90426697Y-112984305D01*
X90432927Y-112988145D01*
X90432928Y-112988146D01*
X90570090Y-113072694D01*
X90577262Y-113077115D01*
X90613942Y-113089281D01*
X90738611Y-113130632D01*
X90738613Y-113130632D01*
X90745139Y-113132797D01*
X90751975Y-113133497D01*
X90751978Y-113133498D01*
X90790386Y-113137433D01*
X90849600Y-113143500D01*
X91650400Y-113143500D01*
X91653646Y-113143163D01*
X91653650Y-113143163D01*
X91749308Y-113133238D01*
X91749312Y-113133237D01*
X91756166Y-113132526D01*
X91762702Y-113130345D01*
X91762704Y-113130345D01*
X91898867Y-113084917D01*
X91923946Y-113076550D01*
X92074348Y-112983478D01*
X92199305Y-112858303D01*
X92231075Y-112806764D01*
X92283846Y-112759271D01*
X92353918Y-112747847D01*
X92419042Y-112776121D01*
X92437418Y-112795045D01*
X92443604Y-112802920D01*
X92448135Y-112806852D01*
X92448138Y-112806855D01*
X92533620Y-112881032D01*
X92603363Y-112941552D01*
X92608549Y-112944552D01*
X92608553Y-112944555D01*
X92704957Y-113000326D01*
X92786454Y-113047473D01*
X92986271Y-113116861D01*
X92992206Y-113117722D01*
X92992208Y-113117722D01*
X93189664Y-113146352D01*
X93189667Y-113146352D01*
X93195604Y-113147213D01*
X93406899Y-113137433D01*
X93552173Y-113102422D01*
X93606701Y-113089281D01*
X93606703Y-113089280D01*
X93612534Y-113087875D01*
X93617992Y-113085393D01*
X93617996Y-113085392D01*
X93733041Y-113033084D01*
X93805087Y-113000326D01*
X93977611Y-112877946D01*
X94123881Y-112725150D01*
X94127130Y-112720119D01*
X94127135Y-112720112D01*
X94145033Y-112692393D01*
X94198789Y-112646016D01*
X94269085Y-112636063D01*
X94333602Y-112665696D01*
X94349970Y-112682909D01*
X94440262Y-112797857D01*
X94448499Y-112806506D01*
X94599123Y-112937212D01*
X94608847Y-112944147D01*
X94781467Y-113044010D01*
X94792331Y-113048984D01*
X94980727Y-113114407D01*
X94981716Y-113114648D01*
X94992008Y-113113180D01*
X94996000Y-113099615D01*
X94996000Y-113095402D01*
X95504000Y-113095402D01*
X95507973Y-113108933D01*
X95517399Y-113110288D01*
X95606537Y-113088806D01*
X95617832Y-113084917D01*
X95799382Y-113002371D01*
X95809724Y-112996424D01*
X95972397Y-112881032D01*
X95981425Y-112873239D01*
X96119342Y-112729169D01*
X96126738Y-112719804D01*
X96234921Y-112552259D01*
X96240417Y-112541655D01*
X96244988Y-112530314D01*
X102540134Y-112530314D01*
X102540693Y-112534558D01*
X102540693Y-112534562D01*
X102543023Y-112552259D01*
X102578115Y-112818806D01*
X102579248Y-112822946D01*
X102579248Y-112822948D01*
X102587502Y-112853120D01*
X102654897Y-113099474D01*
X102720480Y-113253230D01*
X102766948Y-113362173D01*
X102769060Y-113367125D01*
X102918490Y-113616806D01*
X103100424Y-113843897D01*
X103103540Y-113846854D01*
X103103541Y-113846855D01*
X103119740Y-113862227D01*
X103311495Y-114044195D01*
X103314974Y-114046695D01*
X103314979Y-114046699D01*
X103334667Y-114060846D01*
X103547796Y-114213994D01*
X103804955Y-114350153D01*
X103833470Y-114360588D01*
X104071451Y-114447677D01*
X104078214Y-114450152D01*
X104362516Y-114512140D01*
X104378869Y-114513427D01*
X104588263Y-114529907D01*
X104588272Y-114529907D01*
X104590720Y-114530100D01*
X104748152Y-114530100D01*
X104750288Y-114529954D01*
X104750299Y-114529954D01*
X104961030Y-114515588D01*
X104961036Y-114515587D01*
X104965307Y-114515296D01*
X104969502Y-114514427D01*
X104969504Y-114514427D01*
X105107775Y-114485793D01*
X105250243Y-114456289D01*
X105524534Y-114359157D01*
X105783105Y-114225699D01*
X105786606Y-114223238D01*
X105786610Y-114223236D01*
X105902138Y-114142041D01*
X106021171Y-114058383D01*
X106234327Y-113860306D01*
X106418629Y-113635133D01*
X106570667Y-113387031D01*
X106687626Y-113120590D01*
X106689388Y-113114407D01*
X106766167Y-112844869D01*
X106767343Y-112840741D01*
X106808342Y-112552663D01*
X106808370Y-112547452D01*
X106808460Y-112530314D01*
X110160134Y-112530314D01*
X110160693Y-112534558D01*
X110160693Y-112534562D01*
X110163023Y-112552259D01*
X110198115Y-112818806D01*
X110199248Y-112822946D01*
X110199248Y-112822948D01*
X110207502Y-112853120D01*
X110274897Y-113099474D01*
X110340480Y-113253230D01*
X110386948Y-113362173D01*
X110389060Y-113367125D01*
X110538490Y-113616806D01*
X110720424Y-113843897D01*
X110723540Y-113846854D01*
X110723541Y-113846855D01*
X110739740Y-113862227D01*
X110931495Y-114044195D01*
X110934974Y-114046695D01*
X110934979Y-114046699D01*
X110954667Y-114060846D01*
X111167796Y-114213994D01*
X111424955Y-114350153D01*
X111453470Y-114360588D01*
X111691451Y-114447677D01*
X111698214Y-114450152D01*
X111982516Y-114512140D01*
X111998869Y-114513427D01*
X112208263Y-114529907D01*
X112208272Y-114529907D01*
X112210720Y-114530100D01*
X112368152Y-114530100D01*
X112370288Y-114529954D01*
X112370299Y-114529954D01*
X112581030Y-114515588D01*
X112581036Y-114515587D01*
X112585307Y-114515296D01*
X112589502Y-114514427D01*
X112589504Y-114514427D01*
X112727775Y-114485793D01*
X112870243Y-114456289D01*
X113144534Y-114359157D01*
X113403105Y-114225699D01*
X113406606Y-114223238D01*
X113406610Y-114223236D01*
X113522138Y-114142041D01*
X113641171Y-114058383D01*
X113854327Y-113860306D01*
X114038629Y-113635133D01*
X114190667Y-113387031D01*
X114307626Y-113120590D01*
X114309388Y-113114407D01*
X114386167Y-112844869D01*
X114387343Y-112840741D01*
X114428342Y-112552663D01*
X114428370Y-112547452D01*
X114428465Y-112529314D01*
X115340134Y-112529314D01*
X115340693Y-112533558D01*
X115340693Y-112533562D01*
X115342511Y-112547367D01*
X115378115Y-112817806D01*
X115454897Y-113098474D01*
X115456581Y-113102422D01*
X115473959Y-113143163D01*
X115569060Y-113366125D01*
X115718490Y-113615806D01*
X115900424Y-113842897D01*
X115903540Y-113845854D01*
X115903541Y-113845855D01*
X115918769Y-113860306D01*
X116111495Y-114043195D01*
X116114974Y-114045695D01*
X116114979Y-114045699D01*
X116281606Y-114165432D01*
X116347796Y-114212994D01*
X116604955Y-114349153D01*
X116878214Y-114449152D01*
X117162516Y-114511140D01*
X117179492Y-114512476D01*
X117388263Y-114528907D01*
X117388272Y-114528907D01*
X117390720Y-114529100D01*
X117548152Y-114529100D01*
X117550288Y-114528954D01*
X117550299Y-114528954D01*
X117761030Y-114514588D01*
X117761036Y-114514587D01*
X117765307Y-114514296D01*
X117769502Y-114513427D01*
X117769504Y-114513427D01*
X117907775Y-114484793D01*
X118050243Y-114455289D01*
X118324534Y-114358157D01*
X118414267Y-114311843D01*
X118579298Y-114226664D01*
X118579299Y-114226664D01*
X118583105Y-114224699D01*
X118586606Y-114222238D01*
X118586610Y-114222236D01*
X118702138Y-114141041D01*
X118821171Y-114057383D01*
X119034327Y-113859306D01*
X119154737Y-113712194D01*
X119215916Y-113637448D01*
X119215918Y-113637445D01*
X119218629Y-113634133D01*
X119370667Y-113386031D01*
X119487626Y-113119590D01*
X119489103Y-113114407D01*
X119566167Y-112843869D01*
X119567343Y-112839741D01*
X119608342Y-112551663D01*
X119608395Y-112541655D01*
X119608460Y-112529314D01*
X122960134Y-112529314D01*
X122960693Y-112533558D01*
X122960693Y-112533562D01*
X122962511Y-112547367D01*
X122998115Y-112817806D01*
X123074897Y-113098474D01*
X123076581Y-113102422D01*
X123093959Y-113143163D01*
X123189060Y-113366125D01*
X123338490Y-113615806D01*
X123520424Y-113842897D01*
X123523540Y-113845854D01*
X123523541Y-113845855D01*
X123538769Y-113860306D01*
X123731495Y-114043195D01*
X123734974Y-114045695D01*
X123734979Y-114045699D01*
X123901606Y-114165432D01*
X123967796Y-114212994D01*
X124224955Y-114349153D01*
X124498214Y-114449152D01*
X124782516Y-114511140D01*
X124799492Y-114512476D01*
X125008263Y-114528907D01*
X125008272Y-114528907D01*
X125010720Y-114529100D01*
X125168152Y-114529100D01*
X125170288Y-114528954D01*
X125170299Y-114528954D01*
X125381030Y-114514588D01*
X125381036Y-114514587D01*
X125385307Y-114514296D01*
X125389502Y-114513427D01*
X125389504Y-114513427D01*
X125527775Y-114484793D01*
X125670243Y-114455289D01*
X125944534Y-114358157D01*
X126034267Y-114311843D01*
X126199298Y-114226664D01*
X126199299Y-114226664D01*
X126203105Y-114224699D01*
X126206606Y-114222238D01*
X126206610Y-114222236D01*
X126322138Y-114141041D01*
X126441171Y-114057383D01*
X126654327Y-113859306D01*
X126774737Y-113712194D01*
X126835916Y-113637448D01*
X126835918Y-113637445D01*
X126838629Y-113634133D01*
X126990667Y-113386031D01*
X127107626Y-113119590D01*
X127109103Y-113114407D01*
X127186167Y-112843869D01*
X127187343Y-112839741D01*
X127228342Y-112551663D01*
X127228395Y-112541655D01*
X127228454Y-112530314D01*
X128040134Y-112530314D01*
X128040693Y-112534558D01*
X128040693Y-112534562D01*
X128043023Y-112552259D01*
X128078115Y-112818806D01*
X128079248Y-112822946D01*
X128079248Y-112822948D01*
X128087502Y-112853120D01*
X128154897Y-113099474D01*
X128220480Y-113253230D01*
X128266948Y-113362173D01*
X128269060Y-113367125D01*
X128418490Y-113616806D01*
X128600424Y-113843897D01*
X128603540Y-113846854D01*
X128603541Y-113846855D01*
X128619740Y-113862227D01*
X128811495Y-114044195D01*
X128814974Y-114046695D01*
X128814979Y-114046699D01*
X128834667Y-114060846D01*
X129047796Y-114213994D01*
X129304955Y-114350153D01*
X129333470Y-114360588D01*
X129571451Y-114447677D01*
X129578214Y-114450152D01*
X129862516Y-114512140D01*
X129878869Y-114513427D01*
X130088263Y-114529907D01*
X130088272Y-114529907D01*
X130090720Y-114530100D01*
X130248152Y-114530100D01*
X130250288Y-114529954D01*
X130250299Y-114529954D01*
X130461030Y-114515588D01*
X130461036Y-114515587D01*
X130465307Y-114515296D01*
X130469502Y-114514427D01*
X130469504Y-114514427D01*
X130607775Y-114485793D01*
X130750243Y-114456289D01*
X131024534Y-114359157D01*
X131283105Y-114225699D01*
X131286606Y-114223238D01*
X131286610Y-114223236D01*
X131402138Y-114142041D01*
X131521171Y-114058383D01*
X131734327Y-113860306D01*
X131918629Y-113635133D01*
X132070667Y-113387031D01*
X132187626Y-113120590D01*
X132189388Y-113114407D01*
X132266167Y-112844869D01*
X132267343Y-112840741D01*
X132308342Y-112552663D01*
X132308370Y-112547452D01*
X132308460Y-112530314D01*
X135660134Y-112530314D01*
X135660693Y-112534558D01*
X135660693Y-112534562D01*
X135663023Y-112552259D01*
X135698115Y-112818806D01*
X135699248Y-112822946D01*
X135699248Y-112822948D01*
X135707502Y-112853120D01*
X135774897Y-113099474D01*
X135840480Y-113253230D01*
X135886948Y-113362173D01*
X135889060Y-113367125D01*
X136038490Y-113616806D01*
X136220424Y-113843897D01*
X136223540Y-113846854D01*
X136223541Y-113846855D01*
X136239740Y-113862227D01*
X136431495Y-114044195D01*
X136434974Y-114046695D01*
X136434979Y-114046699D01*
X136454667Y-114060846D01*
X136667796Y-114213994D01*
X136924955Y-114350153D01*
X136953470Y-114360588D01*
X137191451Y-114447677D01*
X137198214Y-114450152D01*
X137482516Y-114512140D01*
X137498869Y-114513427D01*
X137708263Y-114529907D01*
X137708272Y-114529907D01*
X137710720Y-114530100D01*
X137868152Y-114530100D01*
X137870288Y-114529954D01*
X137870299Y-114529954D01*
X138081030Y-114515588D01*
X138081036Y-114515587D01*
X138085307Y-114515296D01*
X138089502Y-114514427D01*
X138089504Y-114514427D01*
X138227775Y-114485793D01*
X138370243Y-114456289D01*
X138644534Y-114359157D01*
X138903105Y-114225699D01*
X138906606Y-114223238D01*
X138906610Y-114223236D01*
X139022138Y-114142041D01*
X139141171Y-114058383D01*
X139354327Y-113860306D01*
X139538629Y-113635133D01*
X139690667Y-113387031D01*
X139807626Y-113120590D01*
X139809388Y-113114407D01*
X139886167Y-112844869D01*
X139887343Y-112840741D01*
X139928342Y-112552663D01*
X139928370Y-112547452D01*
X139929844Y-112265972D01*
X139929844Y-112265965D01*
X139929866Y-112261686D01*
X139891885Y-111973194D01*
X139815103Y-111692526D01*
X139727816Y-111487885D01*
X139702626Y-111428827D01*
X139702624Y-111428823D01*
X139700940Y-111424875D01*
X139551510Y-111175194D01*
X139369576Y-110948103D01*
X139352285Y-110931694D01*
X139161622Y-110750763D01*
X139158505Y-110747805D01*
X139155026Y-110745305D01*
X139155021Y-110745301D01*
X138928859Y-110582788D01*
X138922204Y-110578006D01*
X138665045Y-110441847D01*
X138506895Y-110383972D01*
X138395817Y-110343323D01*
X138395815Y-110343322D01*
X138391786Y-110341848D01*
X138107484Y-110279860D01*
X138050967Y-110275412D01*
X137881737Y-110262093D01*
X137881728Y-110262093D01*
X137879280Y-110261900D01*
X137721848Y-110261900D01*
X137719712Y-110262046D01*
X137719701Y-110262046D01*
X137508970Y-110276412D01*
X137508964Y-110276413D01*
X137504693Y-110276704D01*
X137500498Y-110277573D01*
X137500496Y-110277573D01*
X137485044Y-110280773D01*
X137219757Y-110335711D01*
X136945466Y-110432843D01*
X136929406Y-110441132D01*
X136692640Y-110563336D01*
X136686895Y-110566301D01*
X136683394Y-110568762D01*
X136683390Y-110568764D01*
X136666672Y-110580514D01*
X136448829Y-110733617D01*
X136382935Y-110794850D01*
X136287096Y-110883909D01*
X136235673Y-110931694D01*
X136190424Y-110986978D01*
X136054903Y-111152552D01*
X136051371Y-111156867D01*
X135899333Y-111404969D01*
X135782374Y-111671410D01*
X135781198Y-111675538D01*
X135781197Y-111675541D01*
X135776644Y-111691526D01*
X135702657Y-111951259D01*
X135661658Y-112239337D01*
X135661636Y-112243626D01*
X135661635Y-112243633D01*
X135660156Y-112526028D01*
X135660134Y-112530314D01*
X132308460Y-112530314D01*
X132309844Y-112265972D01*
X132309844Y-112265965D01*
X132309866Y-112261686D01*
X132271885Y-111973194D01*
X132195103Y-111692526D01*
X132107816Y-111487885D01*
X132082626Y-111428827D01*
X132082624Y-111428823D01*
X132080940Y-111424875D01*
X131931510Y-111175194D01*
X131749576Y-110948103D01*
X131732285Y-110931694D01*
X131541622Y-110750763D01*
X131538505Y-110747805D01*
X131535026Y-110745305D01*
X131535021Y-110745301D01*
X131308859Y-110582788D01*
X131302204Y-110578006D01*
X131045045Y-110441847D01*
X130886895Y-110383972D01*
X130775817Y-110343323D01*
X130775815Y-110343322D01*
X130771786Y-110341848D01*
X130487484Y-110279860D01*
X130430967Y-110275412D01*
X130261737Y-110262093D01*
X130261728Y-110262093D01*
X130259280Y-110261900D01*
X130101848Y-110261900D01*
X130099712Y-110262046D01*
X130099701Y-110262046D01*
X129888970Y-110276412D01*
X129888964Y-110276413D01*
X129884693Y-110276704D01*
X129880498Y-110277573D01*
X129880496Y-110277573D01*
X129865044Y-110280773D01*
X129599757Y-110335711D01*
X129325466Y-110432843D01*
X129309406Y-110441132D01*
X129072640Y-110563336D01*
X129066895Y-110566301D01*
X129063394Y-110568762D01*
X129063390Y-110568764D01*
X129046672Y-110580514D01*
X128828829Y-110733617D01*
X128762935Y-110794850D01*
X128667096Y-110883909D01*
X128615673Y-110931694D01*
X128570424Y-110986978D01*
X128434903Y-111152552D01*
X128431371Y-111156867D01*
X128279333Y-111404969D01*
X128162374Y-111671410D01*
X128161198Y-111675538D01*
X128161197Y-111675541D01*
X128156644Y-111691526D01*
X128082657Y-111951259D01*
X128041658Y-112239337D01*
X128041636Y-112243626D01*
X128041635Y-112243633D01*
X128040156Y-112526028D01*
X128040134Y-112530314D01*
X127228454Y-112530314D01*
X127229844Y-112264972D01*
X127229844Y-112264965D01*
X127229866Y-112260686D01*
X127227056Y-112239337D01*
X127199774Y-112032115D01*
X127191885Y-111972194D01*
X127115103Y-111691526D01*
X127103327Y-111663918D01*
X127002626Y-111427827D01*
X127002624Y-111427823D01*
X127000940Y-111423875D01*
X126851510Y-111174194D01*
X126669576Y-110947103D01*
X126652285Y-110930694D01*
X126526210Y-110811054D01*
X126458505Y-110746805D01*
X126455026Y-110744305D01*
X126455021Y-110744301D01*
X126288394Y-110624568D01*
X126222204Y-110577006D01*
X125965045Y-110440847D01*
X125819197Y-110387474D01*
X125695817Y-110342323D01*
X125695815Y-110342322D01*
X125691786Y-110340848D01*
X125407484Y-110278860D01*
X125363673Y-110275412D01*
X125181737Y-110261093D01*
X125181728Y-110261093D01*
X125179280Y-110260900D01*
X125021848Y-110260900D01*
X125019712Y-110261046D01*
X125019701Y-110261046D01*
X124808970Y-110275412D01*
X124808964Y-110275413D01*
X124804693Y-110275704D01*
X124800498Y-110276573D01*
X124800496Y-110276573D01*
X124662225Y-110305208D01*
X124519757Y-110334711D01*
X124245466Y-110431843D01*
X124239189Y-110435083D01*
X124032614Y-110541704D01*
X123986895Y-110565301D01*
X123983394Y-110567762D01*
X123983390Y-110567764D01*
X123882618Y-110638588D01*
X123748829Y-110732617D01*
X123733561Y-110746805D01*
X123586020Y-110883909D01*
X123535673Y-110930694D01*
X123351371Y-111155867D01*
X123199333Y-111403969D01*
X123082374Y-111670410D01*
X123081198Y-111674538D01*
X123081197Y-111674541D01*
X123076359Y-111691526D01*
X123002657Y-111950259D01*
X122961658Y-112238337D01*
X122961636Y-112242626D01*
X122961635Y-112242633D01*
X122960156Y-112525028D01*
X122960134Y-112529314D01*
X119608460Y-112529314D01*
X119609844Y-112264972D01*
X119609844Y-112264965D01*
X119609866Y-112260686D01*
X119607056Y-112239337D01*
X119579774Y-112032115D01*
X119571885Y-111972194D01*
X119495103Y-111691526D01*
X119483327Y-111663918D01*
X119382626Y-111427827D01*
X119382624Y-111427823D01*
X119380940Y-111423875D01*
X119231510Y-111174194D01*
X119049576Y-110947103D01*
X119032285Y-110930694D01*
X118906210Y-110811054D01*
X118838505Y-110746805D01*
X118835026Y-110744305D01*
X118835021Y-110744301D01*
X118668394Y-110624568D01*
X118602204Y-110577006D01*
X118345045Y-110440847D01*
X118199197Y-110387474D01*
X118075817Y-110342323D01*
X118075815Y-110342322D01*
X118071786Y-110340848D01*
X117787484Y-110278860D01*
X117743673Y-110275412D01*
X117561737Y-110261093D01*
X117561728Y-110261093D01*
X117559280Y-110260900D01*
X117401848Y-110260900D01*
X117399712Y-110261046D01*
X117399701Y-110261046D01*
X117188970Y-110275412D01*
X117188964Y-110275413D01*
X117184693Y-110275704D01*
X117180498Y-110276573D01*
X117180496Y-110276573D01*
X117042225Y-110305208D01*
X116899757Y-110334711D01*
X116625466Y-110431843D01*
X116619189Y-110435083D01*
X116412614Y-110541704D01*
X116366895Y-110565301D01*
X116363394Y-110567762D01*
X116363390Y-110567764D01*
X116262618Y-110638588D01*
X116128829Y-110732617D01*
X116113561Y-110746805D01*
X115966020Y-110883909D01*
X115915673Y-110930694D01*
X115731371Y-111155867D01*
X115579333Y-111403969D01*
X115462374Y-111670410D01*
X115461198Y-111674538D01*
X115461197Y-111674541D01*
X115456359Y-111691526D01*
X115382657Y-111950259D01*
X115341658Y-112238337D01*
X115341636Y-112242626D01*
X115341635Y-112242633D01*
X115340156Y-112525028D01*
X115340134Y-112529314D01*
X114428465Y-112529314D01*
X114429844Y-112265972D01*
X114429844Y-112265965D01*
X114429866Y-112261686D01*
X114391885Y-111973194D01*
X114315103Y-111692526D01*
X114227816Y-111487885D01*
X114202626Y-111428827D01*
X114202624Y-111428823D01*
X114200940Y-111424875D01*
X114051510Y-111175194D01*
X113869576Y-110948103D01*
X113852285Y-110931694D01*
X113661622Y-110750763D01*
X113658505Y-110747805D01*
X113655026Y-110745305D01*
X113655021Y-110745301D01*
X113428859Y-110582788D01*
X113422204Y-110578006D01*
X113165045Y-110441847D01*
X113006895Y-110383972D01*
X112895817Y-110343323D01*
X112895815Y-110343322D01*
X112891786Y-110341848D01*
X112607484Y-110279860D01*
X112550967Y-110275412D01*
X112381737Y-110262093D01*
X112381728Y-110262093D01*
X112379280Y-110261900D01*
X112221848Y-110261900D01*
X112219712Y-110262046D01*
X112219701Y-110262046D01*
X112008970Y-110276412D01*
X112008964Y-110276413D01*
X112004693Y-110276704D01*
X112000498Y-110277573D01*
X112000496Y-110277573D01*
X111985044Y-110280773D01*
X111719757Y-110335711D01*
X111445466Y-110432843D01*
X111429406Y-110441132D01*
X111192640Y-110563336D01*
X111186895Y-110566301D01*
X111183394Y-110568762D01*
X111183390Y-110568764D01*
X111166672Y-110580514D01*
X110948829Y-110733617D01*
X110882935Y-110794850D01*
X110787096Y-110883909D01*
X110735673Y-110931694D01*
X110690424Y-110986978D01*
X110554903Y-111152552D01*
X110551371Y-111156867D01*
X110399333Y-111404969D01*
X110282374Y-111671410D01*
X110281198Y-111675538D01*
X110281197Y-111675541D01*
X110276644Y-111691526D01*
X110202657Y-111951259D01*
X110161658Y-112239337D01*
X110161636Y-112243626D01*
X110161635Y-112243633D01*
X110160156Y-112526028D01*
X110160134Y-112530314D01*
X106808460Y-112530314D01*
X106809844Y-112265972D01*
X106809844Y-112265965D01*
X106809866Y-112261686D01*
X106771885Y-111973194D01*
X106695103Y-111692526D01*
X106607816Y-111487885D01*
X106582626Y-111428827D01*
X106582624Y-111428823D01*
X106580940Y-111424875D01*
X106431510Y-111175194D01*
X106249576Y-110948103D01*
X106232285Y-110931694D01*
X106041622Y-110750763D01*
X106038505Y-110747805D01*
X106035026Y-110745305D01*
X106035021Y-110745301D01*
X105808859Y-110582788D01*
X105802204Y-110578006D01*
X105545045Y-110441847D01*
X105386895Y-110383972D01*
X105275817Y-110343323D01*
X105275815Y-110343322D01*
X105271786Y-110341848D01*
X104987484Y-110279860D01*
X104930967Y-110275412D01*
X104761737Y-110262093D01*
X104761728Y-110262093D01*
X104759280Y-110261900D01*
X104601848Y-110261900D01*
X104599712Y-110262046D01*
X104599701Y-110262046D01*
X104388970Y-110276412D01*
X104388964Y-110276413D01*
X104384693Y-110276704D01*
X104380498Y-110277573D01*
X104380496Y-110277573D01*
X104365044Y-110280773D01*
X104099757Y-110335711D01*
X103825466Y-110432843D01*
X103809406Y-110441132D01*
X103572640Y-110563336D01*
X103566895Y-110566301D01*
X103563394Y-110568762D01*
X103563390Y-110568764D01*
X103546672Y-110580514D01*
X103328829Y-110733617D01*
X103262935Y-110794850D01*
X103167096Y-110883909D01*
X103115673Y-110931694D01*
X103070424Y-110986978D01*
X102934903Y-111152552D01*
X102931371Y-111156867D01*
X102779333Y-111404969D01*
X102662374Y-111671410D01*
X102661198Y-111675538D01*
X102661197Y-111675541D01*
X102656644Y-111691526D01*
X102582657Y-111951259D01*
X102541658Y-112239337D01*
X102541636Y-112243626D01*
X102541635Y-112243633D01*
X102540156Y-112526028D01*
X102540134Y-112530314D01*
X96244988Y-112530314D01*
X96314961Y-112356688D01*
X96318355Y-112345230D01*
X96356857Y-112148072D01*
X96357934Y-112139209D01*
X96358000Y-112136500D01*
X96358000Y-112032115D01*
X96353525Y-112016876D01*
X96352135Y-112015671D01*
X96344452Y-112014000D01*
X95522115Y-112014000D01*
X95506876Y-112018475D01*
X95505671Y-112019865D01*
X95504000Y-112027548D01*
X95504000Y-113095402D01*
X94996000Y-113095402D01*
X94996000Y-111487885D01*
X95504000Y-111487885D01*
X95508475Y-111503124D01*
X95509865Y-111504329D01*
X95517548Y-111506000D01*
X96339885Y-111506000D01*
X96355124Y-111501525D01*
X96356329Y-111500135D01*
X96358000Y-111492452D01*
X96358000Y-111435168D01*
X96357715Y-111429192D01*
X96343529Y-111280506D01*
X96341270Y-111268772D01*
X96285128Y-111077401D01*
X96280698Y-111066325D01*
X96189381Y-110889022D01*
X96182931Y-110878976D01*
X96059738Y-110722143D01*
X96051501Y-110713494D01*
X95900877Y-110582788D01*
X95891153Y-110575853D01*
X95718533Y-110475990D01*
X95707669Y-110471016D01*
X95519273Y-110405593D01*
X95518284Y-110405352D01*
X95507992Y-110406820D01*
X95504000Y-110420385D01*
X95504000Y-111487885D01*
X94996000Y-111487885D01*
X94996000Y-110424598D01*
X94992027Y-110411067D01*
X94982601Y-110409712D01*
X94893463Y-110431194D01*
X94882168Y-110435083D01*
X94700618Y-110517629D01*
X94690276Y-110523576D01*
X94527603Y-110638968D01*
X94518575Y-110646761D01*
X94380658Y-110790831D01*
X94373259Y-110800200D01*
X94355582Y-110827577D01*
X94301828Y-110873955D01*
X94231532Y-110883909D01*
X94167015Y-110854278D01*
X94150644Y-110837063D01*
X94143193Y-110827577D01*
X94056396Y-110717080D01*
X94051865Y-110713148D01*
X94051862Y-110713145D01*
X93901167Y-110582379D01*
X93896637Y-110578448D01*
X93891451Y-110575448D01*
X93891447Y-110575445D01*
X93718742Y-110475533D01*
X93713546Y-110472527D01*
X93513729Y-110403139D01*
X93507794Y-110402278D01*
X93507792Y-110402278D01*
X93310336Y-110373648D01*
X93310333Y-110373648D01*
X93304396Y-110372787D01*
X93093101Y-110382567D01*
X92980466Y-110409712D01*
X92893299Y-110430719D01*
X92893297Y-110430720D01*
X92887466Y-110432125D01*
X92882008Y-110434607D01*
X92882004Y-110434608D01*
X92790990Y-110475990D01*
X92694913Y-110519674D01*
X92522389Y-110642054D01*
X92518247Y-110646381D01*
X92518241Y-110646386D01*
X92431194Y-110737317D01*
X92369639Y-110772694D01*
X92298730Y-110769175D01*
X92240979Y-110727879D01*
X92233032Y-110716491D01*
X92198478Y-110660652D01*
X92073303Y-110535695D01*
X92067072Y-110531854D01*
X91928968Y-110446725D01*
X91928966Y-110446724D01*
X91922738Y-110442885D01*
X91814005Y-110406820D01*
X91761389Y-110389368D01*
X91761387Y-110389368D01*
X91754861Y-110387203D01*
X91748025Y-110386503D01*
X91748022Y-110386502D01*
X91704969Y-110382091D01*
X91650400Y-110376500D01*
X90849600Y-110376500D01*
X90846354Y-110376837D01*
X90846350Y-110376837D01*
X90750692Y-110386762D01*
X90750688Y-110386763D01*
X90743834Y-110387474D01*
X90737298Y-110389655D01*
X90737296Y-110389655D01*
X90614213Y-110430719D01*
X90576054Y-110443450D01*
X90425652Y-110536522D01*
X90420479Y-110541704D01*
X90384240Y-110578006D01*
X90300695Y-110661697D01*
X90296855Y-110667927D01*
X90296854Y-110667928D01*
X90245794Y-110750763D01*
X90207885Y-110812262D01*
X90185757Y-110878976D01*
X90164142Y-110944145D01*
X90152203Y-110980139D01*
X90141500Y-111084600D01*
X90141500Y-112435400D01*
X83693500Y-112435400D01*
X83693500Y-108585000D01*
X140964647Y-108585000D01*
X140984022Y-108806463D01*
X141041560Y-109021196D01*
X141043882Y-109026177D01*
X141043883Y-109026178D01*
X141133186Y-109217689D01*
X141133189Y-109217694D01*
X141135512Y-109222676D01*
X141263023Y-109404781D01*
X141420219Y-109561977D01*
X141424727Y-109565134D01*
X141424730Y-109565136D01*
X141500495Y-109618187D01*
X141602323Y-109689488D01*
X141607305Y-109691811D01*
X141607310Y-109691814D01*
X141798822Y-109781117D01*
X141803804Y-109783440D01*
X141809112Y-109784862D01*
X141809114Y-109784863D01*
X141874949Y-109802503D01*
X142018537Y-109840978D01*
X142240000Y-109860353D01*
X142461463Y-109840978D01*
X142605051Y-109802503D01*
X142670886Y-109784863D01*
X142670888Y-109784862D01*
X142676196Y-109783440D01*
X142681178Y-109781117D01*
X142872690Y-109691814D01*
X142872695Y-109691811D01*
X142877677Y-109689488D01*
X142979505Y-109618187D01*
X143055270Y-109565136D01*
X143055273Y-109565134D01*
X143059781Y-109561977D01*
X143216977Y-109404781D01*
X143344488Y-109222676D01*
X143346811Y-109217694D01*
X143346814Y-109217689D01*
X143436117Y-109026178D01*
X143436118Y-109026177D01*
X143438440Y-109021196D01*
X143495978Y-108806463D01*
X143515353Y-108585000D01*
X163824647Y-108585000D01*
X163844022Y-108806463D01*
X163901560Y-109021196D01*
X163903882Y-109026177D01*
X163903883Y-109026178D01*
X163993186Y-109217689D01*
X163993189Y-109217694D01*
X163995512Y-109222676D01*
X164123023Y-109404781D01*
X164280219Y-109561977D01*
X164284727Y-109565134D01*
X164284730Y-109565136D01*
X164360495Y-109618187D01*
X164462323Y-109689488D01*
X164467305Y-109691811D01*
X164467310Y-109691814D01*
X164658822Y-109781117D01*
X164663804Y-109783440D01*
X164669112Y-109784862D01*
X164669114Y-109784863D01*
X164734949Y-109802503D01*
X164878537Y-109840978D01*
X165100000Y-109860353D01*
X165321463Y-109840978D01*
X165465051Y-109802503D01*
X165530886Y-109784863D01*
X165530888Y-109784862D01*
X165536196Y-109783440D01*
X165541178Y-109781117D01*
X165732690Y-109691814D01*
X165732695Y-109691811D01*
X165737677Y-109689488D01*
X165839505Y-109618187D01*
X165915270Y-109565136D01*
X165915273Y-109565134D01*
X165919781Y-109561977D01*
X166076977Y-109404781D01*
X166204488Y-109222676D01*
X166206811Y-109217694D01*
X166206814Y-109217689D01*
X166296117Y-109026178D01*
X166296118Y-109026177D01*
X166298440Y-109021196D01*
X166355978Y-108806463D01*
X166375353Y-108585000D01*
X166355978Y-108363537D01*
X166298440Y-108148804D01*
X166296117Y-108143822D01*
X166206814Y-107952311D01*
X166206811Y-107952306D01*
X166204488Y-107947324D01*
X166076977Y-107765219D01*
X165919781Y-107608023D01*
X165915273Y-107604866D01*
X165915270Y-107604864D01*
X165839505Y-107551813D01*
X165737677Y-107480512D01*
X165732695Y-107478189D01*
X165732690Y-107478186D01*
X165627035Y-107428919D01*
X165573750Y-107382002D01*
X165554289Y-107313725D01*
X165574831Y-107245765D01*
X165627035Y-107200529D01*
X165732445Y-107151376D01*
X165741931Y-107145898D01*
X165785764Y-107115207D01*
X165794139Y-107104729D01*
X165787071Y-107091281D01*
X165112812Y-106417022D01*
X165098868Y-106409408D01*
X165097035Y-106409539D01*
X165090420Y-106413790D01*
X164412207Y-107092003D01*
X164405777Y-107103777D01*
X164415074Y-107115793D01*
X164458069Y-107145898D01*
X164467555Y-107151376D01*
X164572965Y-107200529D01*
X164626250Y-107247446D01*
X164645711Y-107315723D01*
X164625169Y-107383683D01*
X164572965Y-107428919D01*
X164467311Y-107478186D01*
X164467306Y-107478189D01*
X164462324Y-107480512D01*
X164457817Y-107483668D01*
X164457815Y-107483669D01*
X164284730Y-107604864D01*
X164284727Y-107604866D01*
X164280219Y-107608023D01*
X164123023Y-107765219D01*
X163995512Y-107947324D01*
X163993189Y-107952306D01*
X163993186Y-107952311D01*
X163903883Y-108143822D01*
X163901560Y-108148804D01*
X163844022Y-108363537D01*
X163824647Y-108585000D01*
X143515353Y-108585000D01*
X143495978Y-108363537D01*
X143438440Y-108148804D01*
X143436117Y-108143822D01*
X143346814Y-107952311D01*
X143346811Y-107952306D01*
X143344488Y-107947324D01*
X143216977Y-107765219D01*
X143059781Y-107608023D01*
X143055273Y-107604866D01*
X143055270Y-107604864D01*
X142979505Y-107551813D01*
X142877677Y-107480512D01*
X142872695Y-107478189D01*
X142872690Y-107478186D01*
X142767035Y-107428919D01*
X142713750Y-107382002D01*
X142694289Y-107313725D01*
X142714831Y-107245765D01*
X142767035Y-107200529D01*
X142872445Y-107151376D01*
X142881931Y-107145898D01*
X142925764Y-107115207D01*
X142934139Y-107104729D01*
X142927071Y-107091281D01*
X142252812Y-106417022D01*
X142238868Y-106409408D01*
X142237035Y-106409539D01*
X142230420Y-106413790D01*
X141552207Y-107092003D01*
X141545777Y-107103777D01*
X141555074Y-107115793D01*
X141598069Y-107145898D01*
X141607555Y-107151376D01*
X141712965Y-107200529D01*
X141766250Y-107247446D01*
X141785711Y-107315723D01*
X141765169Y-107383683D01*
X141712965Y-107428919D01*
X141607311Y-107478186D01*
X141607306Y-107478189D01*
X141602324Y-107480512D01*
X141597817Y-107483668D01*
X141597815Y-107483669D01*
X141424730Y-107604864D01*
X141424727Y-107604866D01*
X141420219Y-107608023D01*
X141263023Y-107765219D01*
X141135512Y-107947324D01*
X141133189Y-107952306D01*
X141133186Y-107952311D01*
X141043883Y-108143822D01*
X141041560Y-108148804D01*
X140984022Y-108363537D01*
X140964647Y-108585000D01*
X83693500Y-108585000D01*
X83693500Y-107058314D01*
X105932046Y-107058314D01*
X105941928Y-107070803D01*
X105997041Y-107107627D01*
X106007146Y-107113114D01*
X106200267Y-107196086D01*
X106211210Y-107199641D01*
X106416209Y-107246028D01*
X106427618Y-107247530D01*
X106637645Y-107255781D01*
X106649129Y-107255179D01*
X106857145Y-107225019D01*
X106868328Y-107222334D01*
X107067362Y-107154771D01*
X107077865Y-107150095D01*
X107220404Y-107070270D01*
X107230266Y-107060194D01*
X107227311Y-107052522D01*
X106592811Y-106418021D01*
X106578868Y-106410408D01*
X106577034Y-106410539D01*
X106570420Y-106414790D01*
X105938239Y-107046972D01*
X105932046Y-107058314D01*
X83693500Y-107058314D01*
X83693500Y-106020048D01*
X105369124Y-106020048D01*
X105382871Y-106229779D01*
X105384672Y-106241149D01*
X105436409Y-106444863D01*
X105440250Y-106455710D01*
X105528247Y-106646592D01*
X105533996Y-106656549D01*
X105555112Y-106686427D01*
X105565702Y-106694816D01*
X105579001Y-106687788D01*
X106207979Y-106058811D01*
X106214356Y-106047132D01*
X106944408Y-106047132D01*
X106944539Y-106048966D01*
X106948790Y-106055580D01*
X107582611Y-106689400D01*
X107594986Y-106696157D01*
X107601566Y-106691231D01*
X107684095Y-106543865D01*
X107688771Y-106533362D01*
X107729754Y-106412630D01*
X107770591Y-106354554D01*
X107836344Y-106327775D01*
X107906136Y-106340796D01*
X107957809Y-106389483D01*
X107970774Y-106420521D01*
X107980034Y-106455083D01*
X107980035Y-106455085D01*
X107981458Y-106460395D01*
X108070714Y-106651805D01*
X108191852Y-106824809D01*
X108341191Y-106974148D01*
X108345699Y-106977305D01*
X108345702Y-106977307D01*
X108508257Y-107091129D01*
X108514194Y-107095286D01*
X108519176Y-107097609D01*
X108519181Y-107097612D01*
X108700623Y-107182219D01*
X108705605Y-107184542D01*
X108710913Y-107185964D01*
X108710915Y-107185965D01*
X108904291Y-107237780D01*
X108904293Y-107237780D01*
X108909606Y-107239204D01*
X109120000Y-107257611D01*
X109330394Y-107239204D01*
X109335707Y-107237780D01*
X109335709Y-107237780D01*
X109529085Y-107185965D01*
X109529087Y-107185964D01*
X109534395Y-107184542D01*
X109539377Y-107182219D01*
X109720819Y-107097612D01*
X109720824Y-107097609D01*
X109725806Y-107095286D01*
X109731743Y-107091129D01*
X109780036Y-107057314D01*
X118732046Y-107057314D01*
X118741928Y-107069803D01*
X118797041Y-107106627D01*
X118807146Y-107112114D01*
X119000267Y-107195086D01*
X119011210Y-107198641D01*
X119216209Y-107245028D01*
X119227618Y-107246530D01*
X119437645Y-107254781D01*
X119449129Y-107254179D01*
X119657145Y-107224019D01*
X119668328Y-107221334D01*
X119867362Y-107153771D01*
X119877865Y-107149095D01*
X120020404Y-107069270D01*
X120030266Y-107059194D01*
X120027311Y-107051522D01*
X119392811Y-106417021D01*
X119378868Y-106409408D01*
X119377034Y-106409539D01*
X119370420Y-106413790D01*
X118738239Y-107045972D01*
X118732046Y-107057314D01*
X109780036Y-107057314D01*
X109894298Y-106977307D01*
X109894301Y-106977305D01*
X109898809Y-106974148D01*
X110048148Y-106824809D01*
X110169286Y-106651805D01*
X110258542Y-106460395D01*
X110259966Y-106455083D01*
X110311780Y-106261709D01*
X110311780Y-106261707D01*
X110313204Y-106256394D01*
X110331611Y-106046000D01*
X110329253Y-106019048D01*
X118169124Y-106019048D01*
X118182871Y-106228779D01*
X118184672Y-106240149D01*
X118236409Y-106443863D01*
X118240250Y-106454710D01*
X118328247Y-106645592D01*
X118333996Y-106655549D01*
X118355112Y-106685427D01*
X118365702Y-106693816D01*
X118379001Y-106686788D01*
X119007979Y-106057811D01*
X119014356Y-106046132D01*
X119744408Y-106046132D01*
X119744539Y-106047966D01*
X119748790Y-106054580D01*
X120382611Y-106688400D01*
X120394986Y-106695157D01*
X120401566Y-106690231D01*
X120484095Y-106542865D01*
X120488771Y-106532362D01*
X120529754Y-106411630D01*
X120570591Y-106353554D01*
X120636344Y-106326775D01*
X120706136Y-106339796D01*
X120757809Y-106388483D01*
X120770774Y-106419521D01*
X120780034Y-106454083D01*
X120780035Y-106454085D01*
X120781458Y-106459395D01*
X120870714Y-106650805D01*
X120991852Y-106823809D01*
X121141191Y-106973148D01*
X121145699Y-106976305D01*
X121145702Y-106976307D01*
X121309685Y-107091129D01*
X121314194Y-107094286D01*
X121319176Y-107096609D01*
X121319181Y-107096612D01*
X121443905Y-107154771D01*
X121505605Y-107183542D01*
X121510913Y-107184964D01*
X121510915Y-107184965D01*
X121704291Y-107236780D01*
X121704293Y-107236780D01*
X121709606Y-107238204D01*
X121920000Y-107256611D01*
X122130394Y-107238204D01*
X122135707Y-107236780D01*
X122135709Y-107236780D01*
X122329085Y-107184965D01*
X122329087Y-107184964D01*
X122334395Y-107183542D01*
X122396095Y-107154771D01*
X122520819Y-107096612D01*
X122520824Y-107096609D01*
X122525806Y-107094286D01*
X122530315Y-107091129D01*
X122577180Y-107058314D01*
X131432046Y-107058314D01*
X131441928Y-107070803D01*
X131497041Y-107107627D01*
X131507146Y-107113114D01*
X131700267Y-107196086D01*
X131711210Y-107199641D01*
X131916209Y-107246028D01*
X131927618Y-107247530D01*
X132137645Y-107255781D01*
X132149129Y-107255179D01*
X132357145Y-107225019D01*
X132368328Y-107222334D01*
X132567362Y-107154771D01*
X132577865Y-107150095D01*
X132720404Y-107070270D01*
X132730266Y-107060194D01*
X132727311Y-107052522D01*
X132092811Y-106418021D01*
X132078868Y-106410408D01*
X132077034Y-106410539D01*
X132070420Y-106414790D01*
X131438239Y-107046972D01*
X131432046Y-107058314D01*
X122577180Y-107058314D01*
X122694298Y-106976307D01*
X122694301Y-106976305D01*
X122698809Y-106973148D01*
X122848148Y-106823809D01*
X122969286Y-106650805D01*
X123058542Y-106459395D01*
X123059966Y-106454083D01*
X123111780Y-106260709D01*
X123111780Y-106260707D01*
X123113204Y-106255394D01*
X123131611Y-106045000D01*
X123129428Y-106020048D01*
X130869124Y-106020048D01*
X130882871Y-106229779D01*
X130884672Y-106241149D01*
X130936409Y-106444863D01*
X130940250Y-106455710D01*
X131028247Y-106646592D01*
X131033996Y-106656549D01*
X131055112Y-106686427D01*
X131065702Y-106694816D01*
X131079001Y-106687788D01*
X131707979Y-106058811D01*
X131714356Y-106047132D01*
X132444408Y-106047132D01*
X132444539Y-106048966D01*
X132448790Y-106055580D01*
X133082611Y-106689400D01*
X133094986Y-106696157D01*
X133101566Y-106691231D01*
X133184095Y-106543865D01*
X133188771Y-106533362D01*
X133229754Y-106412630D01*
X133270591Y-106354554D01*
X133336344Y-106327775D01*
X133406136Y-106340796D01*
X133457809Y-106389483D01*
X133470774Y-106420521D01*
X133480034Y-106455083D01*
X133480035Y-106455085D01*
X133481458Y-106460395D01*
X133570714Y-106651805D01*
X133691852Y-106824809D01*
X133841191Y-106974148D01*
X133845699Y-106977305D01*
X133845702Y-106977307D01*
X134008257Y-107091129D01*
X134014194Y-107095286D01*
X134019176Y-107097609D01*
X134019181Y-107097612D01*
X134200623Y-107182219D01*
X134205605Y-107184542D01*
X134210913Y-107185964D01*
X134210915Y-107185965D01*
X134404291Y-107237780D01*
X134404293Y-107237780D01*
X134409606Y-107239204D01*
X134620000Y-107257611D01*
X134830394Y-107239204D01*
X134835707Y-107237780D01*
X134835709Y-107237780D01*
X135029085Y-107185965D01*
X135029087Y-107185964D01*
X135034395Y-107184542D01*
X135039377Y-107182219D01*
X135220819Y-107097612D01*
X135220824Y-107097609D01*
X135225806Y-107095286D01*
X135231743Y-107091129D01*
X135394298Y-106977307D01*
X135394301Y-106977305D01*
X135398809Y-106974148D01*
X135548148Y-106824809D01*
X135669286Y-106651805D01*
X135758542Y-106460395D01*
X135759966Y-106455083D01*
X135811780Y-106261709D01*
X135811780Y-106261707D01*
X135813204Y-106256394D01*
X135831219Y-106050475D01*
X140965628Y-106050475D01*
X140984038Y-106260896D01*
X140985941Y-106271691D01*
X141040609Y-106475715D01*
X141044355Y-106486007D01*
X141133623Y-106677441D01*
X141139103Y-106686932D01*
X141169794Y-106730765D01*
X141180271Y-106739140D01*
X141193718Y-106732072D01*
X141867978Y-106057812D01*
X141874356Y-106046132D01*
X142604408Y-106046132D01*
X142604539Y-106047965D01*
X142608790Y-106054580D01*
X143287003Y-106732793D01*
X143298777Y-106739223D01*
X143310793Y-106729926D01*
X143340897Y-106686932D01*
X143346377Y-106677441D01*
X143435645Y-106486007D01*
X143439391Y-106475715D01*
X143494059Y-106271691D01*
X143495962Y-106260896D01*
X143514372Y-106050475D01*
X163825628Y-106050475D01*
X163844038Y-106260896D01*
X163845941Y-106271691D01*
X163900609Y-106475715D01*
X163904355Y-106486007D01*
X163993623Y-106677441D01*
X163999103Y-106686932D01*
X164029794Y-106730765D01*
X164040271Y-106739140D01*
X164053718Y-106732072D01*
X164727978Y-106057812D01*
X164734356Y-106046132D01*
X165464408Y-106046132D01*
X165464539Y-106047965D01*
X165468790Y-106054580D01*
X166147003Y-106732793D01*
X166158777Y-106739223D01*
X166170793Y-106729926D01*
X166200897Y-106686932D01*
X166206377Y-106677441D01*
X166295645Y-106486007D01*
X166299391Y-106475715D01*
X166354059Y-106271691D01*
X166355962Y-106260896D01*
X166374372Y-106050475D01*
X166374372Y-106039525D01*
X166355962Y-105829104D01*
X166354059Y-105818309D01*
X166299391Y-105614285D01*
X166295645Y-105603993D01*
X166206377Y-105412559D01*
X166200897Y-105403068D01*
X166170206Y-105359235D01*
X166159729Y-105350860D01*
X166146282Y-105357928D01*
X165472022Y-106032188D01*
X165464408Y-106046132D01*
X164734356Y-106046132D01*
X164735592Y-106043868D01*
X164735461Y-106042035D01*
X164731210Y-106035420D01*
X164052997Y-105357207D01*
X164041223Y-105350777D01*
X164029207Y-105360074D01*
X163999103Y-105403068D01*
X163993623Y-105412559D01*
X163904355Y-105603993D01*
X163900609Y-105614285D01*
X163845941Y-105818309D01*
X163844038Y-105829104D01*
X163825628Y-106039525D01*
X163825628Y-106050475D01*
X143514372Y-106050475D01*
X143514372Y-106039525D01*
X143495962Y-105829104D01*
X143494059Y-105818309D01*
X143439391Y-105614285D01*
X143435645Y-105603993D01*
X143346377Y-105412559D01*
X143340897Y-105403068D01*
X143310206Y-105359235D01*
X143299729Y-105350860D01*
X143286282Y-105357928D01*
X142612022Y-106032188D01*
X142604408Y-106046132D01*
X141874356Y-106046132D01*
X141875592Y-106043868D01*
X141875461Y-106042035D01*
X141871210Y-106035420D01*
X141192997Y-105357207D01*
X141181223Y-105350777D01*
X141169207Y-105360074D01*
X141139103Y-105403068D01*
X141133623Y-105412559D01*
X141044355Y-105603993D01*
X141040609Y-105614285D01*
X140985941Y-105818309D01*
X140984038Y-105829104D01*
X140965628Y-106039525D01*
X140965628Y-106050475D01*
X135831219Y-106050475D01*
X135831611Y-106046000D01*
X135813204Y-105835606D01*
X135808569Y-105818309D01*
X135759965Y-105636915D01*
X135759964Y-105636913D01*
X135758542Y-105631605D01*
X135669286Y-105440195D01*
X135548148Y-105267191D01*
X135398809Y-105117852D01*
X135394301Y-105114695D01*
X135394298Y-105114693D01*
X135230315Y-104999871D01*
X135230312Y-104999869D01*
X135225806Y-104996714D01*
X135220824Y-104994391D01*
X135220819Y-104994388D01*
X135039377Y-104909781D01*
X135039376Y-104909781D01*
X135034395Y-104907458D01*
X135029087Y-104906036D01*
X135029085Y-104906035D01*
X134835709Y-104854220D01*
X134835707Y-104854220D01*
X134830394Y-104852796D01*
X134620000Y-104834389D01*
X134409606Y-104852796D01*
X134404293Y-104854220D01*
X134404291Y-104854220D01*
X134210915Y-104906035D01*
X134210913Y-104906036D01*
X134205605Y-104907458D01*
X134200624Y-104909780D01*
X134200623Y-104909781D01*
X134019176Y-104994391D01*
X134019173Y-104994393D01*
X134014195Y-104996714D01*
X133841191Y-105117852D01*
X133691852Y-105267191D01*
X133570714Y-105440195D01*
X133481458Y-105631605D01*
X133480036Y-105636911D01*
X133480033Y-105636920D01*
X133471103Y-105670247D01*
X133434151Y-105730869D01*
X133370290Y-105761890D01*
X133299796Y-105753460D01*
X133245049Y-105708257D01*
X133228127Y-105671835D01*
X133212755Y-105617328D01*
X133208636Y-105606597D01*
X133115671Y-105418083D01*
X133109665Y-105408281D01*
X133106510Y-105404056D01*
X133095251Y-105395606D01*
X133082834Y-105402377D01*
X132452021Y-106033189D01*
X132444408Y-106047132D01*
X131714356Y-106047132D01*
X131715592Y-106044868D01*
X131715461Y-106043034D01*
X131711210Y-106036420D01*
X131075603Y-105400814D01*
X131063228Y-105394057D01*
X131057262Y-105398523D01*
X130963256Y-105577198D01*
X130958851Y-105587832D01*
X130896522Y-105788563D01*
X130894130Y-105799817D01*
X130869425Y-106008547D01*
X130869124Y-106020048D01*
X123129428Y-106020048D01*
X123113204Y-105834606D01*
X123103882Y-105799817D01*
X123059965Y-105635915D01*
X123059964Y-105635913D01*
X123058542Y-105630605D01*
X122969286Y-105439195D01*
X122848148Y-105266191D01*
X122698809Y-105116852D01*
X122694301Y-105113695D01*
X122694298Y-105113693D01*
X122578782Y-105032808D01*
X131430921Y-105032808D01*
X131434407Y-105041196D01*
X132067189Y-105673979D01*
X132081132Y-105681592D01*
X132082966Y-105681461D01*
X132089580Y-105677210D01*
X132721700Y-105045089D01*
X132728457Y-105032714D01*
X132722427Y-105024658D01*
X132634972Y-104969478D01*
X132624721Y-104964254D01*
X132429497Y-104886368D01*
X132418469Y-104883101D01*
X132212322Y-104842096D01*
X132200875Y-104840893D01*
X131990716Y-104838142D01*
X131979236Y-104839045D01*
X131772087Y-104874640D01*
X131760979Y-104877617D01*
X131563782Y-104950366D01*
X131553400Y-104955318D01*
X131440519Y-105022475D01*
X131430921Y-105032808D01*
X122578782Y-105032808D01*
X122530315Y-104998871D01*
X122530312Y-104998869D01*
X122525806Y-104995714D01*
X122520824Y-104993391D01*
X122520819Y-104993388D01*
X122339377Y-104908781D01*
X122339376Y-104908781D01*
X122334395Y-104906458D01*
X122329087Y-104905036D01*
X122329085Y-104905035D01*
X122135709Y-104853220D01*
X122135707Y-104853220D01*
X122130394Y-104851796D01*
X121920000Y-104833389D01*
X121709606Y-104851796D01*
X121704293Y-104853220D01*
X121704291Y-104853220D01*
X121510915Y-104905035D01*
X121510913Y-104905036D01*
X121505605Y-104906458D01*
X121500624Y-104908780D01*
X121500623Y-104908781D01*
X121319176Y-104993391D01*
X121319173Y-104993393D01*
X121314195Y-104995714D01*
X121141191Y-105116852D01*
X120991852Y-105266191D01*
X120870714Y-105439195D01*
X120781458Y-105630605D01*
X120780036Y-105635911D01*
X120780033Y-105635920D01*
X120771103Y-105669247D01*
X120734151Y-105729869D01*
X120670290Y-105760890D01*
X120599796Y-105752460D01*
X120545049Y-105707257D01*
X120528127Y-105670835D01*
X120512755Y-105616328D01*
X120508636Y-105605597D01*
X120415671Y-105417083D01*
X120409665Y-105407281D01*
X120406510Y-105403056D01*
X120395251Y-105394606D01*
X120382834Y-105401377D01*
X119752021Y-106032189D01*
X119744408Y-106046132D01*
X119014356Y-106046132D01*
X119015592Y-106043868D01*
X119015461Y-106042034D01*
X119011210Y-106035420D01*
X118375603Y-105399814D01*
X118363228Y-105393057D01*
X118357262Y-105397523D01*
X118263256Y-105576198D01*
X118258851Y-105586832D01*
X118196522Y-105787563D01*
X118194130Y-105798817D01*
X118169425Y-106007547D01*
X118169124Y-106019048D01*
X110329253Y-106019048D01*
X110313204Y-105835606D01*
X110308569Y-105818309D01*
X110259965Y-105636915D01*
X110259964Y-105636913D01*
X110258542Y-105631605D01*
X110169286Y-105440195D01*
X110048148Y-105267191D01*
X109898809Y-105117852D01*
X109894301Y-105114695D01*
X109894298Y-105114693D01*
X109775926Y-105031808D01*
X118730921Y-105031808D01*
X118734407Y-105040196D01*
X119367189Y-105672979D01*
X119381132Y-105680592D01*
X119382966Y-105680461D01*
X119389580Y-105676210D01*
X120021700Y-105044089D01*
X120028457Y-105031714D01*
X120022427Y-105023658D01*
X119934972Y-104968478D01*
X119924721Y-104963254D01*
X119729497Y-104885368D01*
X119718469Y-104882101D01*
X119512322Y-104841096D01*
X119500875Y-104839893D01*
X119290716Y-104837142D01*
X119279236Y-104838045D01*
X119072087Y-104873640D01*
X119060979Y-104876617D01*
X118863782Y-104949366D01*
X118853400Y-104954318D01*
X118740519Y-105021475D01*
X118730921Y-105031808D01*
X109775926Y-105031808D01*
X109730315Y-104999871D01*
X109730312Y-104999869D01*
X109725806Y-104996714D01*
X109720824Y-104994391D01*
X109720819Y-104994388D01*
X109539377Y-104909781D01*
X109539376Y-104909781D01*
X109534395Y-104907458D01*
X109529087Y-104906036D01*
X109529085Y-104906035D01*
X109335709Y-104854220D01*
X109335707Y-104854220D01*
X109330394Y-104852796D01*
X109120000Y-104834389D01*
X108909606Y-104852796D01*
X108904293Y-104854220D01*
X108904291Y-104854220D01*
X108710915Y-104906035D01*
X108710913Y-104906036D01*
X108705605Y-104907458D01*
X108700624Y-104909780D01*
X108700623Y-104909781D01*
X108519176Y-104994391D01*
X108519173Y-104994393D01*
X108514195Y-104996714D01*
X108341191Y-105117852D01*
X108191852Y-105267191D01*
X108070714Y-105440195D01*
X107981458Y-105631605D01*
X107980036Y-105636911D01*
X107980033Y-105636920D01*
X107971103Y-105670247D01*
X107934151Y-105730869D01*
X107870290Y-105761890D01*
X107799796Y-105753460D01*
X107745049Y-105708257D01*
X107728127Y-105671835D01*
X107712755Y-105617328D01*
X107708636Y-105606597D01*
X107615671Y-105418083D01*
X107609665Y-105408281D01*
X107606510Y-105404056D01*
X107595251Y-105395606D01*
X107582834Y-105402377D01*
X106952021Y-106033189D01*
X106944408Y-106047132D01*
X106214356Y-106047132D01*
X106215592Y-106044868D01*
X106215461Y-106043034D01*
X106211210Y-106036420D01*
X105575603Y-105400814D01*
X105563228Y-105394057D01*
X105557262Y-105398523D01*
X105463256Y-105577198D01*
X105458851Y-105587832D01*
X105396522Y-105788563D01*
X105394130Y-105799817D01*
X105369425Y-106008547D01*
X105369124Y-106020048D01*
X83693500Y-106020048D01*
X83693500Y-105032808D01*
X105930921Y-105032808D01*
X105934407Y-105041196D01*
X106567189Y-105673979D01*
X106581132Y-105681592D01*
X106582966Y-105681461D01*
X106589580Y-105677210D01*
X107221700Y-105045089D01*
X107228457Y-105032714D01*
X107222427Y-105024658D01*
X107134972Y-104969478D01*
X107124721Y-104964254D01*
X106929497Y-104886368D01*
X106918469Y-104883101D01*
X106712322Y-104842096D01*
X106700875Y-104840893D01*
X106490716Y-104838142D01*
X106479236Y-104839045D01*
X106272087Y-104874640D01*
X106260979Y-104877617D01*
X106063782Y-104950366D01*
X106053400Y-104955318D01*
X105940519Y-105022475D01*
X105930921Y-105032808D01*
X83693500Y-105032808D01*
X83693500Y-103506000D01*
X106638389Y-103506000D01*
X106656796Y-103716394D01*
X106658220Y-103721707D01*
X106658220Y-103721709D01*
X106691254Y-103844991D01*
X106711458Y-103920395D01*
X106713780Y-103925376D01*
X106713781Y-103925377D01*
X106718682Y-103935886D01*
X106800714Y-104111805D01*
X106921852Y-104284809D01*
X107071191Y-104434148D01*
X107075699Y-104437305D01*
X107075702Y-104437307D01*
X107144009Y-104485136D01*
X107244194Y-104555286D01*
X107249176Y-104557609D01*
X107249181Y-104557612D01*
X107430623Y-104642219D01*
X107435605Y-104644542D01*
X107440913Y-104645964D01*
X107440915Y-104645965D01*
X107634291Y-104697780D01*
X107634293Y-104697780D01*
X107639606Y-104699204D01*
X107850000Y-104717611D01*
X108060394Y-104699204D01*
X108065707Y-104697780D01*
X108065709Y-104697780D01*
X108259085Y-104645965D01*
X108259087Y-104645964D01*
X108264395Y-104644542D01*
X108269377Y-104642219D01*
X108450819Y-104557612D01*
X108450824Y-104557609D01*
X108455806Y-104555286D01*
X108555991Y-104485136D01*
X108624298Y-104437307D01*
X108624301Y-104437305D01*
X108628809Y-104434148D01*
X108778148Y-104284809D01*
X108899286Y-104111805D01*
X108981319Y-103935886D01*
X108986219Y-103925377D01*
X108986220Y-103925376D01*
X108988542Y-103920395D01*
X108998293Y-103884004D01*
X109035245Y-103823381D01*
X109099106Y-103792360D01*
X109169600Y-103800788D01*
X109224347Y-103845991D01*
X109241707Y-103884004D01*
X109251458Y-103920395D01*
X109253780Y-103925376D01*
X109253781Y-103925377D01*
X109258682Y-103935886D01*
X109340714Y-104111805D01*
X109461852Y-104284809D01*
X109611191Y-104434148D01*
X109615699Y-104437305D01*
X109615702Y-104437307D01*
X109684009Y-104485136D01*
X109784194Y-104555286D01*
X109789176Y-104557609D01*
X109789181Y-104557612D01*
X109970623Y-104642219D01*
X109975605Y-104644542D01*
X109980913Y-104645964D01*
X109980915Y-104645965D01*
X110174291Y-104697780D01*
X110174293Y-104697780D01*
X110179606Y-104699204D01*
X110390000Y-104717611D01*
X110600394Y-104699204D01*
X110605707Y-104697780D01*
X110605709Y-104697780D01*
X110799085Y-104645965D01*
X110799087Y-104645964D01*
X110804395Y-104644542D01*
X110809377Y-104642219D01*
X110990819Y-104557612D01*
X110990824Y-104557609D01*
X110995806Y-104555286D01*
X111095991Y-104485136D01*
X111164298Y-104437307D01*
X111164301Y-104437305D01*
X111168809Y-104434148D01*
X111318148Y-104284809D01*
X111439286Y-104111805D01*
X111521319Y-103935886D01*
X111526219Y-103925377D01*
X111526220Y-103925376D01*
X111528542Y-103920395D01*
X111548747Y-103844991D01*
X111581780Y-103721709D01*
X111581780Y-103721707D01*
X111583204Y-103716394D01*
X111601611Y-103506000D01*
X111601524Y-103505000D01*
X119438389Y-103505000D01*
X119456796Y-103715394D01*
X119458220Y-103720707D01*
X119458220Y-103720709D01*
X119461186Y-103731776D01*
X119511458Y-103919395D01*
X119600714Y-104110805D01*
X119721852Y-104283809D01*
X119871191Y-104433148D01*
X119875699Y-104436305D01*
X119875702Y-104436307D01*
X120039685Y-104551129D01*
X120044194Y-104554286D01*
X120049176Y-104556609D01*
X120049181Y-104556612D01*
X120230623Y-104641219D01*
X120235605Y-104643542D01*
X120240913Y-104644964D01*
X120240915Y-104644965D01*
X120434291Y-104696780D01*
X120434293Y-104696780D01*
X120439606Y-104698204D01*
X120650000Y-104716611D01*
X120860394Y-104698204D01*
X120865707Y-104696780D01*
X120865709Y-104696780D01*
X121059085Y-104644965D01*
X121059087Y-104644964D01*
X121064395Y-104643542D01*
X121069377Y-104641219D01*
X121250819Y-104556612D01*
X121250824Y-104556609D01*
X121255806Y-104554286D01*
X121260315Y-104551129D01*
X121424298Y-104436307D01*
X121424301Y-104436305D01*
X121428809Y-104433148D01*
X121578148Y-104283809D01*
X121699286Y-104110805D01*
X121788542Y-103919395D01*
X121798293Y-103883004D01*
X121835245Y-103822381D01*
X121899106Y-103791360D01*
X121969600Y-103799788D01*
X122024347Y-103844991D01*
X122041707Y-103883004D01*
X122051458Y-103919395D01*
X122140714Y-104110805D01*
X122261852Y-104283809D01*
X122411191Y-104433148D01*
X122415699Y-104436305D01*
X122415702Y-104436307D01*
X122579685Y-104551129D01*
X122584194Y-104554286D01*
X122589176Y-104556609D01*
X122589181Y-104556612D01*
X122770623Y-104641219D01*
X122775605Y-104643542D01*
X122780913Y-104644964D01*
X122780915Y-104644965D01*
X122974291Y-104696780D01*
X122974293Y-104696780D01*
X122979606Y-104698204D01*
X123190000Y-104716611D01*
X123400394Y-104698204D01*
X123405707Y-104696780D01*
X123405709Y-104696780D01*
X123599085Y-104644965D01*
X123599087Y-104644964D01*
X123604395Y-104643542D01*
X123609377Y-104641219D01*
X123790819Y-104556612D01*
X123790824Y-104556609D01*
X123795806Y-104554286D01*
X123800315Y-104551129D01*
X123964298Y-104436307D01*
X123964301Y-104436305D01*
X123968809Y-104433148D01*
X124118148Y-104283809D01*
X124239286Y-104110805D01*
X124328542Y-103919395D01*
X124378815Y-103731776D01*
X124381780Y-103720709D01*
X124381780Y-103720707D01*
X124383204Y-103715394D01*
X124401524Y-103506000D01*
X132138389Y-103506000D01*
X132156796Y-103716394D01*
X132158220Y-103721707D01*
X132158220Y-103721709D01*
X132191254Y-103844991D01*
X132211458Y-103920395D01*
X132213780Y-103925376D01*
X132213781Y-103925377D01*
X132218682Y-103935886D01*
X132300714Y-104111805D01*
X132421852Y-104284809D01*
X132571191Y-104434148D01*
X132575699Y-104437305D01*
X132575702Y-104437307D01*
X132644009Y-104485136D01*
X132744194Y-104555286D01*
X132749176Y-104557609D01*
X132749181Y-104557612D01*
X132930623Y-104642219D01*
X132935605Y-104644542D01*
X132940913Y-104645964D01*
X132940915Y-104645965D01*
X133134291Y-104697780D01*
X133134293Y-104697780D01*
X133139606Y-104699204D01*
X133350000Y-104717611D01*
X133560394Y-104699204D01*
X133565707Y-104697780D01*
X133565709Y-104697780D01*
X133759085Y-104645965D01*
X133759087Y-104645964D01*
X133764395Y-104644542D01*
X133769377Y-104642219D01*
X133950819Y-104557612D01*
X133950824Y-104557609D01*
X133955806Y-104555286D01*
X134055991Y-104485136D01*
X134124298Y-104437307D01*
X134124301Y-104437305D01*
X134128809Y-104434148D01*
X134278148Y-104284809D01*
X134399286Y-104111805D01*
X134481319Y-103935886D01*
X134486219Y-103925377D01*
X134486220Y-103925376D01*
X134488542Y-103920395D01*
X134498293Y-103884004D01*
X134535245Y-103823381D01*
X134599106Y-103792360D01*
X134669600Y-103800788D01*
X134724347Y-103845991D01*
X134741707Y-103884004D01*
X134751458Y-103920395D01*
X134753780Y-103925376D01*
X134753781Y-103925377D01*
X134758682Y-103935886D01*
X134840714Y-104111805D01*
X134961852Y-104284809D01*
X135111191Y-104434148D01*
X135115699Y-104437305D01*
X135115702Y-104437307D01*
X135184009Y-104485136D01*
X135284194Y-104555286D01*
X135289176Y-104557609D01*
X135289181Y-104557612D01*
X135470623Y-104642219D01*
X135475605Y-104644542D01*
X135480913Y-104645964D01*
X135480915Y-104645965D01*
X135674291Y-104697780D01*
X135674293Y-104697780D01*
X135679606Y-104699204D01*
X135890000Y-104717611D01*
X136100394Y-104699204D01*
X136105707Y-104697780D01*
X136105709Y-104697780D01*
X136299085Y-104645965D01*
X136299087Y-104645964D01*
X136304395Y-104644542D01*
X136309377Y-104642219D01*
X136490819Y-104557612D01*
X136490824Y-104557609D01*
X136495806Y-104555286D01*
X136595991Y-104485136D01*
X136664298Y-104437307D01*
X136664301Y-104437305D01*
X136668809Y-104434148D01*
X136818148Y-104284809D01*
X136939286Y-104111805D01*
X137021319Y-103935886D01*
X137026219Y-103925377D01*
X137026220Y-103925376D01*
X137028542Y-103920395D01*
X137048747Y-103844991D01*
X137081780Y-103721709D01*
X137081780Y-103721707D01*
X137083204Y-103716394D01*
X137101611Y-103506000D01*
X137083204Y-103295606D01*
X137079970Y-103283537D01*
X137029965Y-103096915D01*
X137029964Y-103096913D01*
X137028542Y-103091605D01*
X136939286Y-102900195D01*
X136818148Y-102727191D01*
X136668809Y-102577852D01*
X136664301Y-102574695D01*
X136664298Y-102574693D01*
X136500315Y-102459871D01*
X136500312Y-102459869D01*
X136495806Y-102456714D01*
X136490824Y-102454391D01*
X136490819Y-102454388D01*
X136309377Y-102369781D01*
X136309376Y-102369781D01*
X136304395Y-102367458D01*
X136299087Y-102366036D01*
X136299085Y-102366035D01*
X136105709Y-102314220D01*
X136105707Y-102314220D01*
X136100394Y-102312796D01*
X135890000Y-102294389D01*
X135679606Y-102312796D01*
X135674293Y-102314220D01*
X135674291Y-102314220D01*
X135480915Y-102366035D01*
X135480913Y-102366036D01*
X135475605Y-102367458D01*
X135470624Y-102369780D01*
X135470623Y-102369781D01*
X135289176Y-102454391D01*
X135289173Y-102454393D01*
X135284195Y-102456714D01*
X135111191Y-102577852D01*
X134961852Y-102727191D01*
X134840714Y-102900195D01*
X134751458Y-103091605D01*
X134750036Y-103096913D01*
X134750035Y-103096915D01*
X134741707Y-103127996D01*
X134704755Y-103188619D01*
X134640894Y-103219640D01*
X134570400Y-103211212D01*
X134515653Y-103166009D01*
X134498293Y-103127996D01*
X134489965Y-103096915D01*
X134489964Y-103096913D01*
X134488542Y-103091605D01*
X134399286Y-102900195D01*
X134278148Y-102727191D01*
X134128809Y-102577852D01*
X134124301Y-102574695D01*
X134124298Y-102574693D01*
X133960315Y-102459871D01*
X133960312Y-102459869D01*
X133955806Y-102456714D01*
X133950824Y-102454391D01*
X133950819Y-102454388D01*
X133769377Y-102369781D01*
X133769376Y-102369781D01*
X133764395Y-102367458D01*
X133759087Y-102366036D01*
X133759085Y-102366035D01*
X133565709Y-102314220D01*
X133565707Y-102314220D01*
X133560394Y-102312796D01*
X133350000Y-102294389D01*
X133139606Y-102312796D01*
X133134293Y-102314220D01*
X133134291Y-102314220D01*
X132940915Y-102366035D01*
X132940913Y-102366036D01*
X132935605Y-102367458D01*
X132930624Y-102369780D01*
X132930623Y-102369781D01*
X132749176Y-102454391D01*
X132749173Y-102454393D01*
X132744195Y-102456714D01*
X132571191Y-102577852D01*
X132421852Y-102727191D01*
X132300714Y-102900195D01*
X132211458Y-103091605D01*
X132210036Y-103096913D01*
X132210035Y-103096915D01*
X132160030Y-103283537D01*
X132156796Y-103295606D01*
X132138389Y-103506000D01*
X124401524Y-103506000D01*
X124401611Y-103505000D01*
X124383204Y-103294606D01*
X124380238Y-103283537D01*
X124329965Y-103095915D01*
X124329964Y-103095913D01*
X124328542Y-103090605D01*
X124239286Y-102899195D01*
X124118148Y-102726191D01*
X123968809Y-102576852D01*
X123964301Y-102573695D01*
X123964298Y-102573693D01*
X123800315Y-102458871D01*
X123800312Y-102458869D01*
X123795806Y-102455714D01*
X123790824Y-102453391D01*
X123790819Y-102453388D01*
X123609377Y-102368781D01*
X123609376Y-102368781D01*
X123604395Y-102366458D01*
X123599087Y-102365036D01*
X123599085Y-102365035D01*
X123405709Y-102313220D01*
X123405707Y-102313220D01*
X123400394Y-102311796D01*
X123190000Y-102293389D01*
X122979606Y-102311796D01*
X122974293Y-102313220D01*
X122974291Y-102313220D01*
X122780915Y-102365035D01*
X122780913Y-102365036D01*
X122775605Y-102366458D01*
X122770624Y-102368780D01*
X122770623Y-102368781D01*
X122589176Y-102453391D01*
X122589173Y-102453393D01*
X122584195Y-102455714D01*
X122411191Y-102576852D01*
X122261852Y-102726191D01*
X122140714Y-102899195D01*
X122051458Y-103090605D01*
X122050036Y-103095913D01*
X122050035Y-103095915D01*
X122041707Y-103126996D01*
X122004755Y-103187619D01*
X121940894Y-103218640D01*
X121870400Y-103210212D01*
X121815653Y-103165009D01*
X121798293Y-103126996D01*
X121789965Y-103095915D01*
X121789964Y-103095913D01*
X121788542Y-103090605D01*
X121699286Y-102899195D01*
X121578148Y-102726191D01*
X121428809Y-102576852D01*
X121424301Y-102573695D01*
X121424298Y-102573693D01*
X121260315Y-102458871D01*
X121260312Y-102458869D01*
X121255806Y-102455714D01*
X121250824Y-102453391D01*
X121250819Y-102453388D01*
X121069377Y-102368781D01*
X121069376Y-102368781D01*
X121064395Y-102366458D01*
X121059087Y-102365036D01*
X121059085Y-102365035D01*
X120865709Y-102313220D01*
X120865707Y-102313220D01*
X120860394Y-102311796D01*
X120650000Y-102293389D01*
X120439606Y-102311796D01*
X120434293Y-102313220D01*
X120434291Y-102313220D01*
X120240915Y-102365035D01*
X120240913Y-102365036D01*
X120235605Y-102366458D01*
X120230624Y-102368780D01*
X120230623Y-102368781D01*
X120049176Y-102453391D01*
X120049173Y-102453393D01*
X120044195Y-102455714D01*
X119871191Y-102576852D01*
X119721852Y-102726191D01*
X119600714Y-102899195D01*
X119511458Y-103090605D01*
X119510036Y-103095913D01*
X119510035Y-103095915D01*
X119459762Y-103283537D01*
X119456796Y-103294606D01*
X119438389Y-103505000D01*
X111601524Y-103505000D01*
X111583204Y-103295606D01*
X111579970Y-103283537D01*
X111529965Y-103096915D01*
X111529964Y-103096913D01*
X111528542Y-103091605D01*
X111439286Y-102900195D01*
X111318148Y-102727191D01*
X111168809Y-102577852D01*
X111164301Y-102574695D01*
X111164298Y-102574693D01*
X111000315Y-102459871D01*
X111000312Y-102459869D01*
X110995806Y-102456714D01*
X110990824Y-102454391D01*
X110990819Y-102454388D01*
X110809377Y-102369781D01*
X110809376Y-102369781D01*
X110804395Y-102367458D01*
X110799087Y-102366036D01*
X110799085Y-102366035D01*
X110605709Y-102314220D01*
X110605707Y-102314220D01*
X110600394Y-102312796D01*
X110390000Y-102294389D01*
X110179606Y-102312796D01*
X110174293Y-102314220D01*
X110174291Y-102314220D01*
X109980915Y-102366035D01*
X109980913Y-102366036D01*
X109975605Y-102367458D01*
X109970624Y-102369780D01*
X109970623Y-102369781D01*
X109789176Y-102454391D01*
X109789173Y-102454393D01*
X109784195Y-102456714D01*
X109611191Y-102577852D01*
X109461852Y-102727191D01*
X109340714Y-102900195D01*
X109251458Y-103091605D01*
X109250036Y-103096913D01*
X109250035Y-103096915D01*
X109241707Y-103127996D01*
X109204755Y-103188619D01*
X109140894Y-103219640D01*
X109070400Y-103211212D01*
X109015653Y-103166009D01*
X108998293Y-103127996D01*
X108989965Y-103096915D01*
X108989964Y-103096913D01*
X108988542Y-103091605D01*
X108899286Y-102900195D01*
X108778148Y-102727191D01*
X108628809Y-102577852D01*
X108624301Y-102574695D01*
X108624298Y-102574693D01*
X108460315Y-102459871D01*
X108460312Y-102459869D01*
X108455806Y-102456714D01*
X108450824Y-102454391D01*
X108450819Y-102454388D01*
X108269377Y-102369781D01*
X108269376Y-102369781D01*
X108264395Y-102367458D01*
X108259087Y-102366036D01*
X108259085Y-102366035D01*
X108065709Y-102314220D01*
X108065707Y-102314220D01*
X108060394Y-102312796D01*
X107850000Y-102294389D01*
X107639606Y-102312796D01*
X107634293Y-102314220D01*
X107634291Y-102314220D01*
X107440915Y-102366035D01*
X107440913Y-102366036D01*
X107435605Y-102367458D01*
X107430624Y-102369780D01*
X107430623Y-102369781D01*
X107249176Y-102454391D01*
X107249173Y-102454393D01*
X107244195Y-102456714D01*
X107071191Y-102577852D01*
X106921852Y-102727191D01*
X106800714Y-102900195D01*
X106711458Y-103091605D01*
X106710036Y-103096913D01*
X106710035Y-103096915D01*
X106660030Y-103283537D01*
X106656796Y-103295606D01*
X106638389Y-103506000D01*
X83693500Y-103506000D01*
X83693500Y-96044669D01*
X103742001Y-96044669D01*
X103742371Y-96051490D01*
X103747895Y-96102352D01*
X103751521Y-96117604D01*
X103796676Y-96238054D01*
X103805214Y-96253649D01*
X103881715Y-96355724D01*
X103894276Y-96368285D01*
X103996351Y-96444786D01*
X104011946Y-96453324D01*
X104132394Y-96498478D01*
X104147649Y-96502105D01*
X104198514Y-96507631D01*
X104205328Y-96508000D01*
X104502885Y-96508000D01*
X104518124Y-96503525D01*
X104519329Y-96502135D01*
X104521000Y-96494452D01*
X104521000Y-95526004D01*
X105011500Y-95526004D01*
X105026277Y-95676713D01*
X105026968Y-95679002D01*
X105029000Y-95699724D01*
X105029000Y-96489884D01*
X105033475Y-96505123D01*
X105034865Y-96506328D01*
X105042548Y-96507999D01*
X105344669Y-96507999D01*
X105351490Y-96507629D01*
X105402352Y-96502105D01*
X105417604Y-96498479D01*
X105538056Y-96453323D01*
X105553466Y-96444886D01*
X105622823Y-96429716D01*
X105651235Y-96435040D01*
X105836180Y-96492290D01*
X105842305Y-96492934D01*
X105842306Y-96492934D01*
X106031622Y-96512832D01*
X106031623Y-96512832D01*
X106037750Y-96513476D01*
X106147090Y-96503525D01*
X106233457Y-96495665D01*
X106233460Y-96495664D01*
X106239596Y-96495106D01*
X106245502Y-96493368D01*
X106245506Y-96493367D01*
X106386909Y-96451749D01*
X106434029Y-96437881D01*
X106439486Y-96435028D01*
X106439489Y-96435027D01*
X106567155Y-96368285D01*
X106613460Y-96344077D01*
X106613462Y-96344077D01*
X106613645Y-96343981D01*
X106613663Y-96344016D01*
X106679441Y-96324111D01*
X106740409Y-96339271D01*
X106912565Y-96432356D01*
X107009373Y-96462323D01*
X107100293Y-96490468D01*
X107100296Y-96490469D01*
X107106180Y-96492290D01*
X107112305Y-96492934D01*
X107112306Y-96492934D01*
X107301622Y-96512832D01*
X107301623Y-96512832D01*
X107307750Y-96513476D01*
X107417090Y-96503525D01*
X107503457Y-96495665D01*
X107503460Y-96495664D01*
X107509596Y-96495106D01*
X107515502Y-96493368D01*
X107515506Y-96493367D01*
X107656909Y-96451749D01*
X107704029Y-96437881D01*
X107709486Y-96435028D01*
X107709489Y-96435027D01*
X107837155Y-96368285D01*
X107883645Y-96343981D01*
X107905788Y-96326178D01*
X107952163Y-96288891D01*
X108041601Y-96216981D01*
X108171881Y-96061719D01*
X108174845Y-96056327D01*
X108174848Y-96056323D01*
X108266556Y-95889506D01*
X108269523Y-95884109D01*
X108330807Y-95690916D01*
X108332401Y-95676713D01*
X108348107Y-95536683D01*
X108348500Y-95533183D01*
X108348500Y-94973996D01*
X108333723Y-94823287D01*
X108275142Y-94629258D01*
X108179990Y-94450302D01*
X108051890Y-94293237D01*
X108014066Y-94261946D01*
X107900472Y-94167973D01*
X107900469Y-94167971D01*
X107895722Y-94164044D01*
X107717435Y-94067644D01*
X107620627Y-94037677D01*
X107529707Y-94009532D01*
X107529704Y-94009531D01*
X107523820Y-94007710D01*
X107517695Y-94007066D01*
X107517694Y-94007066D01*
X107328378Y-93987168D01*
X107328377Y-93987168D01*
X107322250Y-93986524D01*
X107243709Y-93993672D01*
X107126543Y-94004335D01*
X107126540Y-94004336D01*
X107120404Y-94004894D01*
X107114498Y-94006632D01*
X107114494Y-94006633D01*
X106978442Y-94046676D01*
X106925971Y-94062119D01*
X106920514Y-94064972D01*
X106920511Y-94064973D01*
X106836163Y-94109069D01*
X106746540Y-94155923D01*
X106746538Y-94155923D01*
X106746355Y-94156019D01*
X106746337Y-94155984D01*
X106680559Y-94175889D01*
X106619591Y-94160729D01*
X106610815Y-94155984D01*
X106447435Y-94067644D01*
X106350627Y-94037677D01*
X106259707Y-94009532D01*
X106259704Y-94009531D01*
X106253820Y-94007710D01*
X106247695Y-94007066D01*
X106247694Y-94007066D01*
X106058378Y-93987168D01*
X106058377Y-93987168D01*
X106052250Y-93986524D01*
X105973709Y-93993672D01*
X105856543Y-94004335D01*
X105856540Y-94004336D01*
X105850404Y-94004894D01*
X105844498Y-94006632D01*
X105844494Y-94006633D01*
X105753188Y-94033506D01*
X105655971Y-94062119D01*
X105655771Y-94061441D01*
X105589727Y-94067956D01*
X105552677Y-94054680D01*
X105538063Y-94046679D01*
X105417606Y-94001522D01*
X105402351Y-93997895D01*
X105351486Y-93992369D01*
X105344672Y-93992000D01*
X105047115Y-93992000D01*
X105031876Y-93996475D01*
X105030671Y-93997865D01*
X105029000Y-94005548D01*
X105029000Y-94803758D01*
X105028215Y-94817803D01*
X105011500Y-94966817D01*
X105011500Y-95526004D01*
X104521000Y-95526004D01*
X104521000Y-95522115D01*
X104516525Y-95506876D01*
X104515135Y-95505671D01*
X104507452Y-95504000D01*
X103760116Y-95504000D01*
X103744877Y-95508475D01*
X103743672Y-95509865D01*
X103742001Y-95517548D01*
X103742001Y-96044669D01*
X83693500Y-96044669D01*
X83693500Y-94977885D01*
X103742000Y-94977885D01*
X103746475Y-94993124D01*
X103747865Y-94994329D01*
X103755548Y-94996000D01*
X104502885Y-94996000D01*
X104518124Y-94991525D01*
X104519329Y-94990135D01*
X104521000Y-94982452D01*
X104521000Y-94010116D01*
X104516525Y-93994877D01*
X104515135Y-93993672D01*
X104507452Y-93992001D01*
X104205331Y-93992001D01*
X104198510Y-93992371D01*
X104147648Y-93997895D01*
X104132396Y-94001521D01*
X104011946Y-94046676D01*
X103996351Y-94055214D01*
X103894276Y-94131715D01*
X103881715Y-94144276D01*
X103805214Y-94246351D01*
X103796676Y-94261946D01*
X103751522Y-94382394D01*
X103747895Y-94397649D01*
X103742369Y-94448514D01*
X103742000Y-94455328D01*
X103742000Y-94977885D01*
X83693500Y-94977885D01*
X83693500Y-90805000D01*
X107036496Y-90805000D01*
X107037186Y-90811565D01*
X107042406Y-90861226D01*
X107056458Y-90994928D01*
X107115473Y-91176556D01*
X107210960Y-91341944D01*
X107215378Y-91346851D01*
X107215379Y-91346852D01*
X107301659Y-91442676D01*
X107338747Y-91483866D01*
X107493248Y-91596118D01*
X107499276Y-91598802D01*
X107499278Y-91598803D01*
X107557626Y-91624781D01*
X107667712Y-91673794D01*
X107761113Y-91693647D01*
X107848056Y-91712128D01*
X107848061Y-91712128D01*
X107854513Y-91713500D01*
X107910406Y-91713500D01*
X107978527Y-91733502D01*
X107999501Y-91750405D01*
X108716343Y-92467247D01*
X108723887Y-92475537D01*
X108728000Y-92482018D01*
X108733777Y-92487443D01*
X108777667Y-92528658D01*
X108780509Y-92531413D01*
X108800230Y-92551134D01*
X108803425Y-92553612D01*
X108812447Y-92561318D01*
X108844679Y-92591586D01*
X108851628Y-92595406D01*
X108862432Y-92601346D01*
X108878956Y-92612199D01*
X108894959Y-92624613D01*
X108935543Y-92642176D01*
X108946173Y-92647383D01*
X108984940Y-92668695D01*
X108992617Y-92670666D01*
X108992622Y-92670668D01*
X109004558Y-92673732D01*
X109023266Y-92680137D01*
X109041855Y-92688181D01*
X109049683Y-92689421D01*
X109049690Y-92689423D01*
X109085524Y-92695099D01*
X109097144Y-92697505D01*
X109128959Y-92705673D01*
X109139970Y-92708500D01*
X109160224Y-92708500D01*
X109179934Y-92710051D01*
X109199943Y-92713220D01*
X109207835Y-92712474D01*
X109226580Y-92710702D01*
X109243962Y-92709059D01*
X109255819Y-92708500D01*
X120571233Y-92708500D01*
X120582416Y-92709027D01*
X120589909Y-92710702D01*
X120597835Y-92710453D01*
X120597836Y-92710453D01*
X120657986Y-92708562D01*
X120661945Y-92708500D01*
X120689856Y-92708500D01*
X120693791Y-92708003D01*
X120693856Y-92707995D01*
X120705693Y-92707062D01*
X120737951Y-92706048D01*
X120741970Y-92705922D01*
X120749889Y-92705673D01*
X120769343Y-92700021D01*
X120788700Y-92696013D01*
X120800930Y-92694468D01*
X120800931Y-92694468D01*
X120808797Y-92693474D01*
X120816168Y-92690555D01*
X120816170Y-92690555D01*
X120849912Y-92677196D01*
X120861142Y-92673351D01*
X120895983Y-92663229D01*
X120895984Y-92663229D01*
X120903593Y-92661018D01*
X120910412Y-92656985D01*
X120910417Y-92656983D01*
X120921028Y-92650707D01*
X120938776Y-92642012D01*
X120957617Y-92634552D01*
X120977987Y-92619753D01*
X120993387Y-92608564D01*
X121003307Y-92602048D01*
X121034535Y-92583580D01*
X121034538Y-92583578D01*
X121041362Y-92579542D01*
X121055683Y-92565221D01*
X121070717Y-92552380D01*
X121072432Y-92551134D01*
X121087107Y-92540472D01*
X121115298Y-92506395D01*
X121123288Y-92497616D01*
X121545904Y-92075000D01*
X123546496Y-92075000D01*
X123547186Y-92081565D01*
X123564224Y-92243669D01*
X123566458Y-92264928D01*
X123625473Y-92446556D01*
X123628776Y-92452278D01*
X123628777Y-92452279D01*
X123645947Y-92482018D01*
X123720960Y-92611944D01*
X123725378Y-92616851D01*
X123725379Y-92616852D01*
X123828896Y-92731819D01*
X123848747Y-92753866D01*
X123933164Y-92815199D01*
X123993011Y-92858680D01*
X124003248Y-92866118D01*
X124009276Y-92868802D01*
X124009278Y-92868803D01*
X124111049Y-92914114D01*
X124177712Y-92943794D01*
X124271113Y-92963647D01*
X124358056Y-92982128D01*
X124358061Y-92982128D01*
X124364513Y-92983500D01*
X124555487Y-92983500D01*
X124561939Y-92982128D01*
X124561944Y-92982128D01*
X124703716Y-92951993D01*
X124774507Y-92957395D01*
X124831139Y-93000212D01*
X124855633Y-93066850D01*
X124849746Y-93114176D01*
X124836458Y-93155072D01*
X124816496Y-93345000D01*
X124836458Y-93534928D01*
X124895473Y-93716556D01*
X124990960Y-93881944D01*
X124995378Y-93886851D01*
X124995379Y-93886852D01*
X125106366Y-94010116D01*
X125118747Y-94023866D01*
X125273248Y-94136118D01*
X125279276Y-94138802D01*
X125279278Y-94138803D01*
X125437306Y-94209161D01*
X125447712Y-94213794D01*
X125541112Y-94233647D01*
X125628056Y-94252128D01*
X125628061Y-94252128D01*
X125634513Y-94253500D01*
X125825487Y-94253500D01*
X125831939Y-94252128D01*
X125831944Y-94252128D01*
X125918887Y-94233647D01*
X126012288Y-94213794D01*
X126022694Y-94209161D01*
X126180722Y-94138803D01*
X126180724Y-94138802D01*
X126186752Y-94136118D01*
X126288603Y-94062119D01*
X126319671Y-94039546D01*
X126341253Y-94023866D01*
X126345668Y-94018963D01*
X126350580Y-94014540D01*
X126351705Y-94015789D01*
X126405014Y-93982949D01*
X126438200Y-93978500D01*
X136845406Y-93978500D01*
X136913527Y-93998502D01*
X136934501Y-94015405D01*
X140466343Y-97547247D01*
X140473887Y-97555537D01*
X140478000Y-97562018D01*
X140483777Y-97567443D01*
X140527667Y-97608658D01*
X140530509Y-97611413D01*
X140550231Y-97631135D01*
X140553355Y-97633558D01*
X140553359Y-97633562D01*
X140553424Y-97633612D01*
X140562445Y-97641317D01*
X140594679Y-97671586D01*
X140601627Y-97675405D01*
X140601629Y-97675407D01*
X140612432Y-97681346D01*
X140628959Y-97692202D01*
X140638698Y-97699757D01*
X140638700Y-97699758D01*
X140644960Y-97704614D01*
X140685540Y-97722174D01*
X140696188Y-97727391D01*
X140734940Y-97748695D01*
X140742616Y-97750666D01*
X140742619Y-97750667D01*
X140754562Y-97753733D01*
X140773267Y-97760137D01*
X140791855Y-97768181D01*
X140799678Y-97769420D01*
X140799688Y-97769423D01*
X140835524Y-97775099D01*
X140847144Y-97777505D01*
X140882289Y-97786528D01*
X140889970Y-97788500D01*
X140910224Y-97788500D01*
X140929935Y-97790051D01*
X140949943Y-97793220D01*
X140949630Y-97795199D01*
X141007033Y-97814025D01*
X141051823Y-97869111D01*
X141059721Y-97939666D01*
X141049821Y-97971087D01*
X141043885Y-97983817D01*
X141041560Y-97988804D01*
X140984022Y-98203537D01*
X140964647Y-98425000D01*
X140984022Y-98646463D01*
X141041560Y-98861196D01*
X141043882Y-98866177D01*
X141043883Y-98866178D01*
X141133186Y-99057689D01*
X141133189Y-99057694D01*
X141135512Y-99062676D01*
X141263023Y-99244781D01*
X141420219Y-99401977D01*
X141424727Y-99405134D01*
X141424730Y-99405136D01*
X141500495Y-99458187D01*
X141602323Y-99529488D01*
X141607305Y-99531811D01*
X141607310Y-99531814D01*
X141712373Y-99580805D01*
X141765658Y-99627722D01*
X141785119Y-99695999D01*
X141764577Y-99763959D01*
X141712373Y-99809195D01*
X141607311Y-99858186D01*
X141607306Y-99858189D01*
X141602324Y-99860512D01*
X141597817Y-99863668D01*
X141597815Y-99863669D01*
X141424730Y-99984864D01*
X141424727Y-99984866D01*
X141420219Y-99988023D01*
X141263023Y-100145219D01*
X141135512Y-100327324D01*
X141133189Y-100332306D01*
X141133186Y-100332311D01*
X141043883Y-100523822D01*
X141041560Y-100528804D01*
X140984022Y-100743537D01*
X140964647Y-100965000D01*
X140984022Y-101186463D01*
X141041560Y-101401196D01*
X141043882Y-101406177D01*
X141043883Y-101406178D01*
X141133186Y-101597689D01*
X141133189Y-101597694D01*
X141135512Y-101602676D01*
X141263023Y-101784781D01*
X141420219Y-101941977D01*
X141424727Y-101945134D01*
X141424730Y-101945136D01*
X141500495Y-101998187D01*
X141602323Y-102069488D01*
X141607305Y-102071811D01*
X141607310Y-102071814D01*
X141712373Y-102120805D01*
X141765658Y-102167722D01*
X141785119Y-102235999D01*
X141764577Y-102303959D01*
X141712373Y-102349195D01*
X141607311Y-102398186D01*
X141607306Y-102398189D01*
X141602324Y-102400512D01*
X141597817Y-102403668D01*
X141597815Y-102403669D01*
X141424730Y-102524864D01*
X141424727Y-102524866D01*
X141420219Y-102528023D01*
X141263023Y-102685219D01*
X141259866Y-102689727D01*
X141259864Y-102689730D01*
X141138669Y-102862815D01*
X141135512Y-102867324D01*
X141133189Y-102872306D01*
X141133186Y-102872311D01*
X141117861Y-102905176D01*
X141041560Y-103068804D01*
X141040138Y-103074112D01*
X141040137Y-103074114D01*
X141034028Y-103096915D01*
X140984022Y-103283537D01*
X140964647Y-103505000D01*
X140984022Y-103726463D01*
X141009723Y-103822381D01*
X141034564Y-103915085D01*
X141041560Y-103941196D01*
X141043882Y-103946177D01*
X141043883Y-103946178D01*
X141133186Y-104137689D01*
X141133189Y-104137694D01*
X141135512Y-104142676D01*
X141138668Y-104147183D01*
X141138669Y-104147185D01*
X141237762Y-104288704D01*
X141263023Y-104324781D01*
X141420219Y-104481977D01*
X141424727Y-104485134D01*
X141424730Y-104485136D01*
X141500495Y-104538187D01*
X141602323Y-104609488D01*
X141607305Y-104611811D01*
X141607310Y-104611814D01*
X141712965Y-104661081D01*
X141766250Y-104707998D01*
X141785711Y-104776275D01*
X141765169Y-104844235D01*
X141712965Y-104889471D01*
X141607559Y-104938623D01*
X141598068Y-104944103D01*
X141554235Y-104974794D01*
X141545860Y-104985271D01*
X141552928Y-104998718D01*
X142227188Y-105672978D01*
X142241132Y-105680592D01*
X142242965Y-105680461D01*
X142249580Y-105676210D01*
X142927793Y-104997997D01*
X142934223Y-104986223D01*
X142924926Y-104974207D01*
X142881931Y-104944102D01*
X142872445Y-104938624D01*
X142767035Y-104889471D01*
X142713750Y-104842554D01*
X142694289Y-104774277D01*
X142714831Y-104706317D01*
X142767035Y-104661081D01*
X142872690Y-104611814D01*
X142872695Y-104611811D01*
X142877677Y-104609488D01*
X142979505Y-104538187D01*
X143055270Y-104485136D01*
X143055273Y-104485134D01*
X143059781Y-104481977D01*
X143216977Y-104324781D01*
X143242239Y-104288704D01*
X143341331Y-104147185D01*
X143341332Y-104147183D01*
X143344488Y-104142676D01*
X143346811Y-104137694D01*
X143346814Y-104137689D01*
X143436117Y-103946178D01*
X143436118Y-103946177D01*
X143438440Y-103941196D01*
X143445437Y-103915085D01*
X143470277Y-103822381D01*
X143495978Y-103726463D01*
X143515353Y-103505000D01*
X163824647Y-103505000D01*
X163844022Y-103726463D01*
X163869723Y-103822381D01*
X163894564Y-103915085D01*
X163901560Y-103941196D01*
X163903882Y-103946177D01*
X163903883Y-103946178D01*
X163993186Y-104137689D01*
X163993189Y-104137694D01*
X163995512Y-104142676D01*
X163998668Y-104147183D01*
X163998669Y-104147185D01*
X164097762Y-104288704D01*
X164123023Y-104324781D01*
X164280219Y-104481977D01*
X164284727Y-104485134D01*
X164284730Y-104485136D01*
X164360495Y-104538187D01*
X164462323Y-104609488D01*
X164467305Y-104611811D01*
X164467310Y-104611814D01*
X164572965Y-104661081D01*
X164626250Y-104707998D01*
X164645711Y-104776275D01*
X164625169Y-104844235D01*
X164572965Y-104889471D01*
X164467559Y-104938623D01*
X164458068Y-104944103D01*
X164414235Y-104974794D01*
X164405860Y-104985271D01*
X164412928Y-104998718D01*
X165087188Y-105672978D01*
X165101132Y-105680592D01*
X165102965Y-105680461D01*
X165109580Y-105676210D01*
X165787793Y-104997997D01*
X165794223Y-104986223D01*
X165784926Y-104974207D01*
X165741931Y-104944102D01*
X165732445Y-104938624D01*
X165627035Y-104889471D01*
X165573750Y-104842554D01*
X165554289Y-104774277D01*
X165574831Y-104706317D01*
X165627035Y-104661081D01*
X165732690Y-104611814D01*
X165732695Y-104611811D01*
X165737677Y-104609488D01*
X165839505Y-104538187D01*
X165915270Y-104485136D01*
X165915273Y-104485134D01*
X165919781Y-104481977D01*
X166076977Y-104324781D01*
X166102239Y-104288704D01*
X166201331Y-104147185D01*
X166201332Y-104147183D01*
X166204488Y-104142676D01*
X166206811Y-104137694D01*
X166206814Y-104137689D01*
X166296117Y-103946178D01*
X166296118Y-103946177D01*
X166298440Y-103941196D01*
X166305437Y-103915085D01*
X166330277Y-103822381D01*
X166355978Y-103726463D01*
X166375353Y-103505000D01*
X166355978Y-103283537D01*
X166305972Y-103096915D01*
X166299863Y-103074114D01*
X166299862Y-103074112D01*
X166298440Y-103068804D01*
X166222139Y-102905176D01*
X166206814Y-102872311D01*
X166206811Y-102872306D01*
X166204488Y-102867324D01*
X166201331Y-102862815D01*
X166080136Y-102689730D01*
X166080134Y-102689727D01*
X166076977Y-102685219D01*
X165919781Y-102528023D01*
X165915273Y-102524866D01*
X165915270Y-102524864D01*
X165821019Y-102458869D01*
X165737677Y-102400512D01*
X165732695Y-102398189D01*
X165732690Y-102398186D01*
X165627627Y-102349195D01*
X165574342Y-102302278D01*
X165554881Y-102234001D01*
X165575423Y-102166041D01*
X165627627Y-102120805D01*
X165732690Y-102071814D01*
X165732695Y-102071811D01*
X165737677Y-102069488D01*
X165839505Y-101998187D01*
X165915270Y-101945136D01*
X165915273Y-101945134D01*
X165919781Y-101941977D01*
X166076977Y-101784781D01*
X166204488Y-101602676D01*
X166206811Y-101597694D01*
X166206814Y-101597689D01*
X166296117Y-101406178D01*
X166296118Y-101406177D01*
X166298440Y-101401196D01*
X166355978Y-101186463D01*
X166375353Y-100965000D01*
X166355978Y-100743537D01*
X166298440Y-100528804D01*
X166296117Y-100523822D01*
X166206814Y-100332311D01*
X166206811Y-100332306D01*
X166204488Y-100327324D01*
X166076977Y-100145219D01*
X165919781Y-99988023D01*
X165915273Y-99984866D01*
X165915270Y-99984864D01*
X165839505Y-99931813D01*
X165737677Y-99860512D01*
X165732695Y-99858189D01*
X165732690Y-99858186D01*
X165627627Y-99809195D01*
X165574342Y-99762278D01*
X165554881Y-99694001D01*
X165575423Y-99626041D01*
X165627627Y-99580805D01*
X165732690Y-99531814D01*
X165732695Y-99531811D01*
X165737677Y-99529488D01*
X165839505Y-99458187D01*
X165915270Y-99405136D01*
X165915273Y-99405134D01*
X165919781Y-99401977D01*
X166076977Y-99244781D01*
X166204488Y-99062676D01*
X166206811Y-99057694D01*
X166206814Y-99057689D01*
X166296117Y-98866178D01*
X166296118Y-98866177D01*
X166298440Y-98861196D01*
X166355978Y-98646463D01*
X166375353Y-98425000D01*
X166355978Y-98203537D01*
X166298440Y-97988804D01*
X166296115Y-97983817D01*
X166206814Y-97792311D01*
X166206811Y-97792306D01*
X166204488Y-97787324D01*
X166182694Y-97756199D01*
X166080136Y-97609730D01*
X166080134Y-97609727D01*
X166076977Y-97605219D01*
X165919781Y-97448023D01*
X165915273Y-97444866D01*
X165915270Y-97444864D01*
X165781512Y-97351206D01*
X165737677Y-97320512D01*
X165732695Y-97318189D01*
X165732690Y-97318186D01*
X165627627Y-97269195D01*
X165574342Y-97222278D01*
X165554881Y-97154001D01*
X165575423Y-97086041D01*
X165627627Y-97040805D01*
X165732690Y-96991814D01*
X165732695Y-96991811D01*
X165737677Y-96989488D01*
X165839505Y-96918187D01*
X165915270Y-96865136D01*
X165915273Y-96865134D01*
X165919781Y-96861977D01*
X166076977Y-96704781D01*
X166137703Y-96618056D01*
X166201331Y-96527185D01*
X166201332Y-96527183D01*
X166204488Y-96522676D01*
X166206811Y-96517694D01*
X166206814Y-96517689D01*
X166296117Y-96326178D01*
X166296118Y-96326177D01*
X166298440Y-96321196D01*
X166355978Y-96106463D01*
X166375353Y-95885000D01*
X166355978Y-95663537D01*
X166314429Y-95508475D01*
X166299863Y-95454114D01*
X166299862Y-95454112D01*
X166298440Y-95448804D01*
X166296117Y-95443822D01*
X166206814Y-95252311D01*
X166206811Y-95252306D01*
X166204488Y-95247324D01*
X166201331Y-95242815D01*
X166080136Y-95069730D01*
X166080134Y-95069727D01*
X166076977Y-95065219D01*
X165919781Y-94908023D01*
X165915273Y-94904866D01*
X165915270Y-94904864D01*
X165839505Y-94851813D01*
X165737677Y-94780512D01*
X165732695Y-94778189D01*
X165732690Y-94778186D01*
X165627627Y-94729195D01*
X165574342Y-94682278D01*
X165554881Y-94614001D01*
X165575423Y-94546041D01*
X165627627Y-94500805D01*
X165732690Y-94451814D01*
X165732695Y-94451811D01*
X165737677Y-94449488D01*
X165839505Y-94378187D01*
X165915270Y-94325136D01*
X165915273Y-94325134D01*
X165919781Y-94321977D01*
X166076977Y-94164781D01*
X166083113Y-94156019D01*
X166201331Y-93987185D01*
X166201332Y-93987183D01*
X166204488Y-93982676D01*
X166206811Y-93977694D01*
X166206814Y-93977689D01*
X166296117Y-93786178D01*
X166296118Y-93786177D01*
X166298440Y-93781196D01*
X166355978Y-93566463D01*
X166375353Y-93345000D01*
X166355978Y-93123537D01*
X166298440Y-92908804D01*
X166276962Y-92862745D01*
X166206814Y-92712311D01*
X166206811Y-92712306D01*
X166204488Y-92707324D01*
X166197613Y-92697505D01*
X166080136Y-92529730D01*
X166080134Y-92529727D01*
X166076977Y-92525219D01*
X165919781Y-92368023D01*
X165915273Y-92364866D01*
X165915270Y-92364864D01*
X165781512Y-92271206D01*
X165737677Y-92240512D01*
X165732695Y-92238189D01*
X165732690Y-92238186D01*
X165627627Y-92189195D01*
X165574342Y-92142278D01*
X165554881Y-92074001D01*
X165575423Y-92006041D01*
X165627627Y-91960805D01*
X165732690Y-91911814D01*
X165732695Y-91911811D01*
X165737677Y-91909488D01*
X165839505Y-91838187D01*
X165915270Y-91785136D01*
X165915273Y-91785134D01*
X165919781Y-91781977D01*
X166076977Y-91624781D01*
X166137703Y-91538056D01*
X166201331Y-91447185D01*
X166201332Y-91447183D01*
X166204488Y-91442676D01*
X166206811Y-91437694D01*
X166206814Y-91437689D01*
X166296117Y-91246178D01*
X166296118Y-91246177D01*
X166298440Y-91241196D01*
X166355978Y-91026463D01*
X166375353Y-90805000D01*
X166355978Y-90583537D01*
X166298440Y-90368804D01*
X166283407Y-90336565D01*
X166206814Y-90172311D01*
X166206811Y-90172306D01*
X166204488Y-90167324D01*
X166201331Y-90162815D01*
X166080136Y-89989730D01*
X166080134Y-89989727D01*
X166076977Y-89985219D01*
X165919781Y-89828023D01*
X165915273Y-89824866D01*
X165915270Y-89824864D01*
X165814487Y-89754295D01*
X165737677Y-89700512D01*
X165732695Y-89698189D01*
X165732690Y-89698186D01*
X165627035Y-89648919D01*
X165573750Y-89602002D01*
X165554289Y-89533725D01*
X165574831Y-89465765D01*
X165627035Y-89420529D01*
X165732445Y-89371376D01*
X165741931Y-89365898D01*
X165785764Y-89335207D01*
X165794139Y-89324729D01*
X165787071Y-89311281D01*
X165112812Y-88637022D01*
X165098868Y-88629408D01*
X165097035Y-88629539D01*
X165090420Y-88633790D01*
X164412207Y-89312003D01*
X164405777Y-89323777D01*
X164415074Y-89335793D01*
X164458069Y-89365898D01*
X164467555Y-89371376D01*
X164572965Y-89420529D01*
X164626250Y-89467446D01*
X164645711Y-89535723D01*
X164625169Y-89603683D01*
X164572965Y-89648919D01*
X164467311Y-89698186D01*
X164467306Y-89698189D01*
X164462324Y-89700512D01*
X164457817Y-89703668D01*
X164457815Y-89703669D01*
X164284730Y-89824864D01*
X164284727Y-89824866D01*
X164280219Y-89828023D01*
X164123023Y-89985219D01*
X164119866Y-89989727D01*
X164119864Y-89989730D01*
X163998669Y-90162815D01*
X163995512Y-90167324D01*
X163993189Y-90172306D01*
X163993186Y-90172311D01*
X163916593Y-90336565D01*
X163901560Y-90368804D01*
X163844022Y-90583537D01*
X163824647Y-90805000D01*
X163844022Y-91026463D01*
X163901560Y-91241196D01*
X163903882Y-91246177D01*
X163903883Y-91246178D01*
X163993186Y-91437689D01*
X163993189Y-91437694D01*
X163995512Y-91442676D01*
X163998668Y-91447183D01*
X163998669Y-91447185D01*
X164062298Y-91538056D01*
X164123023Y-91624781D01*
X164280219Y-91781977D01*
X164284727Y-91785134D01*
X164284730Y-91785136D01*
X164360495Y-91838187D01*
X164462323Y-91909488D01*
X164467305Y-91911811D01*
X164467310Y-91911814D01*
X164572373Y-91960805D01*
X164625658Y-92007722D01*
X164645119Y-92075999D01*
X164624577Y-92143959D01*
X164572373Y-92189195D01*
X164467311Y-92238186D01*
X164467306Y-92238189D01*
X164462324Y-92240512D01*
X164457817Y-92243668D01*
X164457815Y-92243669D01*
X164284730Y-92364864D01*
X164284727Y-92364866D01*
X164280219Y-92368023D01*
X164123023Y-92525219D01*
X164119866Y-92529727D01*
X164119864Y-92529730D01*
X164002387Y-92697505D01*
X163995512Y-92707324D01*
X163993189Y-92712306D01*
X163993186Y-92712311D01*
X163923038Y-92862745D01*
X163901560Y-92908804D01*
X163844022Y-93123537D01*
X163824647Y-93345000D01*
X163844022Y-93566463D01*
X163901560Y-93781196D01*
X163903882Y-93786177D01*
X163903883Y-93786178D01*
X163993186Y-93977689D01*
X163993189Y-93977694D01*
X163995512Y-93982676D01*
X163998668Y-93987183D01*
X163998669Y-93987185D01*
X164116888Y-94156019D01*
X164123023Y-94164781D01*
X164280219Y-94321977D01*
X164284727Y-94325134D01*
X164284730Y-94325136D01*
X164360495Y-94378187D01*
X164462323Y-94449488D01*
X164467305Y-94451811D01*
X164467310Y-94451814D01*
X164572373Y-94500805D01*
X164625658Y-94547722D01*
X164645119Y-94615999D01*
X164624577Y-94683959D01*
X164572373Y-94729195D01*
X164467311Y-94778186D01*
X164467306Y-94778189D01*
X164462324Y-94780512D01*
X164457817Y-94783668D01*
X164457815Y-94783669D01*
X164284730Y-94904864D01*
X164284727Y-94904866D01*
X164280219Y-94908023D01*
X164123023Y-95065219D01*
X164119866Y-95069727D01*
X164119864Y-95069730D01*
X163998669Y-95242815D01*
X163995512Y-95247324D01*
X163993189Y-95252306D01*
X163993186Y-95252311D01*
X163903883Y-95443822D01*
X163901560Y-95448804D01*
X163900138Y-95454112D01*
X163900137Y-95454114D01*
X163885571Y-95508475D01*
X163844022Y-95663537D01*
X163824647Y-95885000D01*
X163844022Y-96106463D01*
X163901560Y-96321196D01*
X163903882Y-96326177D01*
X163903883Y-96326178D01*
X163993186Y-96517689D01*
X163993189Y-96517694D01*
X163995512Y-96522676D01*
X163998668Y-96527183D01*
X163998669Y-96527185D01*
X164062298Y-96618056D01*
X164123023Y-96704781D01*
X164280219Y-96861977D01*
X164284727Y-96865134D01*
X164284730Y-96865136D01*
X164360495Y-96918187D01*
X164462323Y-96989488D01*
X164467305Y-96991811D01*
X164467310Y-96991814D01*
X164572373Y-97040805D01*
X164625658Y-97087722D01*
X164645119Y-97155999D01*
X164624577Y-97223959D01*
X164572373Y-97269195D01*
X164467311Y-97318186D01*
X164467306Y-97318189D01*
X164462324Y-97320512D01*
X164457817Y-97323668D01*
X164457815Y-97323669D01*
X164284730Y-97444864D01*
X164284727Y-97444866D01*
X164280219Y-97448023D01*
X164123023Y-97605219D01*
X164119866Y-97609727D01*
X164119864Y-97609730D01*
X164017306Y-97756199D01*
X163995512Y-97787324D01*
X163993189Y-97792306D01*
X163993186Y-97792311D01*
X163903885Y-97983817D01*
X163901560Y-97988804D01*
X163844022Y-98203537D01*
X163824647Y-98425000D01*
X163844022Y-98646463D01*
X163901560Y-98861196D01*
X163903882Y-98866177D01*
X163903883Y-98866178D01*
X163993186Y-99057689D01*
X163993189Y-99057694D01*
X163995512Y-99062676D01*
X164123023Y-99244781D01*
X164280219Y-99401977D01*
X164284727Y-99405134D01*
X164284730Y-99405136D01*
X164360495Y-99458187D01*
X164462323Y-99529488D01*
X164467305Y-99531811D01*
X164467310Y-99531814D01*
X164572373Y-99580805D01*
X164625658Y-99627722D01*
X164645119Y-99695999D01*
X164624577Y-99763959D01*
X164572373Y-99809195D01*
X164467311Y-99858186D01*
X164467306Y-99858189D01*
X164462324Y-99860512D01*
X164457817Y-99863668D01*
X164457815Y-99863669D01*
X164284730Y-99984864D01*
X164284727Y-99984866D01*
X164280219Y-99988023D01*
X164123023Y-100145219D01*
X163995512Y-100327324D01*
X163993189Y-100332306D01*
X163993186Y-100332311D01*
X163903883Y-100523822D01*
X163901560Y-100528804D01*
X163844022Y-100743537D01*
X163824647Y-100965000D01*
X163844022Y-101186463D01*
X163901560Y-101401196D01*
X163903882Y-101406177D01*
X163903883Y-101406178D01*
X163993186Y-101597689D01*
X163993189Y-101597694D01*
X163995512Y-101602676D01*
X164123023Y-101784781D01*
X164280219Y-101941977D01*
X164284727Y-101945134D01*
X164284730Y-101945136D01*
X164360495Y-101998187D01*
X164462323Y-102069488D01*
X164467305Y-102071811D01*
X164467310Y-102071814D01*
X164572373Y-102120805D01*
X164625658Y-102167722D01*
X164645119Y-102235999D01*
X164624577Y-102303959D01*
X164572373Y-102349195D01*
X164467311Y-102398186D01*
X164467306Y-102398189D01*
X164462324Y-102400512D01*
X164457817Y-102403668D01*
X164457815Y-102403669D01*
X164284730Y-102524864D01*
X164284727Y-102524866D01*
X164280219Y-102528023D01*
X164123023Y-102685219D01*
X164119866Y-102689727D01*
X164119864Y-102689730D01*
X163998669Y-102862815D01*
X163995512Y-102867324D01*
X163993189Y-102872306D01*
X163993186Y-102872311D01*
X163977861Y-102905176D01*
X163901560Y-103068804D01*
X163900138Y-103074112D01*
X163900137Y-103074114D01*
X163894028Y-103096915D01*
X163844022Y-103283537D01*
X163824647Y-103505000D01*
X143515353Y-103505000D01*
X143495978Y-103283537D01*
X143445972Y-103096915D01*
X143439863Y-103074114D01*
X143439862Y-103074112D01*
X143438440Y-103068804D01*
X143362139Y-102905176D01*
X143346814Y-102872311D01*
X143346811Y-102872306D01*
X143344488Y-102867324D01*
X143341331Y-102862815D01*
X143220136Y-102689730D01*
X143220134Y-102689727D01*
X143216977Y-102685219D01*
X143059781Y-102528023D01*
X143055273Y-102524866D01*
X143055270Y-102524864D01*
X142961019Y-102458869D01*
X142877677Y-102400512D01*
X142872695Y-102398189D01*
X142872690Y-102398186D01*
X142767627Y-102349195D01*
X142714342Y-102302278D01*
X142694881Y-102234001D01*
X142715423Y-102166041D01*
X142767627Y-102120805D01*
X142872690Y-102071814D01*
X142872695Y-102071811D01*
X142877677Y-102069488D01*
X142979505Y-101998187D01*
X143055270Y-101945136D01*
X143055273Y-101945134D01*
X143059781Y-101941977D01*
X143216977Y-101784781D01*
X143344488Y-101602676D01*
X143346811Y-101597694D01*
X143346814Y-101597689D01*
X143436117Y-101406178D01*
X143436118Y-101406177D01*
X143438440Y-101401196D01*
X143495978Y-101186463D01*
X143515353Y-100965000D01*
X143495978Y-100743537D01*
X143438440Y-100528804D01*
X143436117Y-100523822D01*
X143346814Y-100332311D01*
X143346811Y-100332306D01*
X143344488Y-100327324D01*
X143216977Y-100145219D01*
X143059781Y-99988023D01*
X143055273Y-99984866D01*
X143055270Y-99984864D01*
X142979505Y-99931813D01*
X142877677Y-99860512D01*
X142872695Y-99858189D01*
X142872690Y-99858186D01*
X142767627Y-99809195D01*
X142714342Y-99762278D01*
X142694881Y-99694001D01*
X142715423Y-99626041D01*
X142767627Y-99580805D01*
X142872690Y-99531814D01*
X142872695Y-99531811D01*
X142877677Y-99529488D01*
X142979505Y-99458187D01*
X143055270Y-99405136D01*
X143055273Y-99405134D01*
X143059781Y-99401977D01*
X143216977Y-99244781D01*
X143344488Y-99062676D01*
X143346811Y-99057694D01*
X143346814Y-99057689D01*
X143436117Y-98866178D01*
X143436118Y-98866177D01*
X143438440Y-98861196D01*
X143495978Y-98646463D01*
X143515353Y-98425000D01*
X143495978Y-98203537D01*
X143438440Y-97988804D01*
X143430179Y-97971087D01*
X143428623Y-97967751D01*
X143417961Y-97897560D01*
X143446940Y-97832747D01*
X143506359Y-97793890D01*
X143542817Y-97788500D01*
X151691800Y-97788500D01*
X151759921Y-97808502D01*
X151779147Y-97824843D01*
X151779420Y-97824540D01*
X151784332Y-97828963D01*
X151788747Y-97833866D01*
X151810329Y-97849546D01*
X151934368Y-97939666D01*
X151943248Y-97946118D01*
X151949276Y-97948802D01*
X151949278Y-97948803D01*
X152051049Y-97994114D01*
X152117712Y-98023794D01*
X152211112Y-98043647D01*
X152298056Y-98062128D01*
X152298061Y-98062128D01*
X152304513Y-98063500D01*
X152495487Y-98063500D01*
X152501939Y-98062128D01*
X152501944Y-98062128D01*
X152588887Y-98043647D01*
X152682288Y-98023794D01*
X152748951Y-97994114D01*
X152850722Y-97948803D01*
X152850724Y-97948802D01*
X152856752Y-97946118D01*
X152865633Y-97939666D01*
X152923586Y-97897560D01*
X153011253Y-97833866D01*
X153053876Y-97786528D01*
X153134621Y-97696852D01*
X153134622Y-97696851D01*
X153139040Y-97691944D01*
X153214053Y-97562018D01*
X153231223Y-97532279D01*
X153231224Y-97532278D01*
X153234527Y-97526556D01*
X153293542Y-97344928D01*
X153295777Y-97323669D01*
X153312814Y-97161565D01*
X153313504Y-97155000D01*
X153296108Y-96989488D01*
X153294232Y-96971635D01*
X153294232Y-96971633D01*
X153293542Y-96965072D01*
X153234527Y-96783444D01*
X153139040Y-96618056D01*
X153057220Y-96527185D01*
X153015675Y-96481045D01*
X153015674Y-96481044D01*
X153011253Y-96476134D01*
X152856752Y-96363882D01*
X152850724Y-96361198D01*
X152850722Y-96361197D01*
X152688319Y-96288891D01*
X152688318Y-96288891D01*
X152682288Y-96286206D01*
X152588888Y-96266353D01*
X152501944Y-96247872D01*
X152501939Y-96247872D01*
X152495487Y-96246500D01*
X152304513Y-96246500D01*
X152298061Y-96247872D01*
X152298056Y-96247872D01*
X152211112Y-96266353D01*
X152117712Y-96286206D01*
X152111682Y-96288891D01*
X152111681Y-96288891D01*
X151949278Y-96361197D01*
X151949276Y-96361198D01*
X151943248Y-96363882D01*
X151937907Y-96367762D01*
X151937906Y-96367763D01*
X151820142Y-96453324D01*
X151788747Y-96476134D01*
X151784332Y-96481037D01*
X151779420Y-96485460D01*
X151778295Y-96484211D01*
X151724986Y-96517051D01*
X151691800Y-96521500D01*
X143542266Y-96521500D01*
X143474145Y-96501498D01*
X143427652Y-96447842D01*
X143417548Y-96377568D01*
X143428070Y-96342252D01*
X143435645Y-96326008D01*
X143439391Y-96315715D01*
X143494059Y-96111691D01*
X143495962Y-96100896D01*
X143514372Y-95890475D01*
X143514372Y-95879525D01*
X143495962Y-95669104D01*
X143494059Y-95658309D01*
X143439391Y-95454285D01*
X143435645Y-95443993D01*
X143346377Y-95252559D01*
X143340897Y-95243068D01*
X143310206Y-95199235D01*
X143299729Y-95190860D01*
X143286282Y-95197928D01*
X142329095Y-96155115D01*
X142266783Y-96189141D01*
X142195968Y-96184076D01*
X142150905Y-96155115D01*
X141192997Y-95197207D01*
X141181223Y-95190777D01*
X141169207Y-95200074D01*
X141139103Y-95243068D01*
X141133623Y-95252559D01*
X141044355Y-95443993D01*
X141040609Y-95454285D01*
X140985941Y-95658309D01*
X140984038Y-95669104D01*
X140965628Y-95879525D01*
X140965628Y-95890476D01*
X140970379Y-95944783D01*
X140956389Y-96014388D01*
X140906990Y-96065380D01*
X140837864Y-96081570D01*
X140770958Y-96057817D01*
X140755763Y-96044859D01*
X139440376Y-94729471D01*
X138055905Y-93345000D01*
X140964647Y-93345000D01*
X140984022Y-93566463D01*
X141041560Y-93781196D01*
X141043882Y-93786177D01*
X141043883Y-93786178D01*
X141133186Y-93977689D01*
X141133189Y-93977694D01*
X141135512Y-93982676D01*
X141138668Y-93987183D01*
X141138669Y-93987185D01*
X141256888Y-94156019D01*
X141263023Y-94164781D01*
X141420219Y-94321977D01*
X141424727Y-94325134D01*
X141424730Y-94325136D01*
X141500495Y-94378187D01*
X141602323Y-94449488D01*
X141607305Y-94451811D01*
X141607310Y-94451814D01*
X141712965Y-94501081D01*
X141766250Y-94547998D01*
X141785711Y-94616275D01*
X141765169Y-94684235D01*
X141712965Y-94729471D01*
X141607559Y-94778623D01*
X141598068Y-94784103D01*
X141554235Y-94814794D01*
X141545860Y-94825271D01*
X141552928Y-94838718D01*
X142227188Y-95512978D01*
X142241132Y-95520592D01*
X142242965Y-95520461D01*
X142249580Y-95516210D01*
X142927793Y-94837997D01*
X142934223Y-94826223D01*
X142924926Y-94814207D01*
X142881931Y-94784102D01*
X142872445Y-94778624D01*
X142767035Y-94729471D01*
X142713750Y-94682554D01*
X142694289Y-94614277D01*
X142714831Y-94546317D01*
X142767035Y-94501081D01*
X142872690Y-94451814D01*
X142872695Y-94451811D01*
X142877677Y-94449488D01*
X142979505Y-94378187D01*
X143055270Y-94325136D01*
X143055273Y-94325134D01*
X143059781Y-94321977D01*
X143216977Y-94164781D01*
X143223113Y-94156019D01*
X143341331Y-93987185D01*
X143341332Y-93987183D01*
X143344488Y-93982676D01*
X143346811Y-93977694D01*
X143346814Y-93977689D01*
X143436117Y-93786178D01*
X143436118Y-93786177D01*
X143438440Y-93781196D01*
X143495978Y-93566463D01*
X143515353Y-93345000D01*
X143495978Y-93123537D01*
X143438440Y-92908804D01*
X143416962Y-92862745D01*
X143346814Y-92712311D01*
X143346811Y-92712306D01*
X143344488Y-92707324D01*
X143337613Y-92697505D01*
X143220136Y-92529730D01*
X143220134Y-92529727D01*
X143216977Y-92525219D01*
X143059781Y-92368023D01*
X143055273Y-92364866D01*
X143055270Y-92364864D01*
X142921512Y-92271206D01*
X142877677Y-92240512D01*
X142872695Y-92238189D01*
X142872690Y-92238186D01*
X142767627Y-92189195D01*
X142714342Y-92142278D01*
X142694881Y-92074001D01*
X142715423Y-92006041D01*
X142767627Y-91960805D01*
X142872690Y-91911814D01*
X142872695Y-91911811D01*
X142877677Y-91909488D01*
X142979505Y-91838187D01*
X143055270Y-91785136D01*
X143055273Y-91785134D01*
X143059781Y-91781977D01*
X143216977Y-91624781D01*
X143277703Y-91538056D01*
X143341331Y-91447185D01*
X143341332Y-91447183D01*
X143344488Y-91442676D01*
X143346811Y-91437694D01*
X143346814Y-91437689D01*
X143436117Y-91246178D01*
X143436118Y-91246177D01*
X143438440Y-91241196D01*
X143495978Y-91026463D01*
X143515353Y-90805000D01*
X143495978Y-90583537D01*
X143438440Y-90368804D01*
X143423407Y-90336565D01*
X143346814Y-90172311D01*
X143346811Y-90172306D01*
X143344488Y-90167324D01*
X143341331Y-90162815D01*
X143220136Y-89989730D01*
X143220134Y-89989727D01*
X143216977Y-89985219D01*
X143059781Y-89828023D01*
X143055273Y-89824866D01*
X143055270Y-89824864D01*
X142954487Y-89754295D01*
X142877677Y-89700512D01*
X142872695Y-89698189D01*
X142872690Y-89698186D01*
X142767627Y-89649195D01*
X142714342Y-89602278D01*
X142694881Y-89534001D01*
X142715423Y-89466041D01*
X142767627Y-89420805D01*
X142872690Y-89371814D01*
X142872695Y-89371811D01*
X142877677Y-89369488D01*
X142979505Y-89298187D01*
X143055270Y-89245136D01*
X143055273Y-89245134D01*
X143059781Y-89241977D01*
X143216977Y-89084781D01*
X143304894Y-88959223D01*
X143341331Y-88907185D01*
X143341332Y-88907183D01*
X143344488Y-88902676D01*
X143346811Y-88897694D01*
X143346814Y-88897689D01*
X143436117Y-88706178D01*
X143436118Y-88706177D01*
X143438440Y-88701196D01*
X143495978Y-88486463D01*
X143514874Y-88270475D01*
X163825628Y-88270475D01*
X163844038Y-88480896D01*
X163845941Y-88491691D01*
X163900609Y-88695715D01*
X163904355Y-88706007D01*
X163993623Y-88897441D01*
X163999103Y-88906932D01*
X164029794Y-88950765D01*
X164040271Y-88959140D01*
X164053718Y-88952072D01*
X164727978Y-88277812D01*
X164734356Y-88266132D01*
X165464408Y-88266132D01*
X165464539Y-88267965D01*
X165468790Y-88274580D01*
X166147003Y-88952793D01*
X166158777Y-88959223D01*
X166170793Y-88949926D01*
X166200897Y-88906932D01*
X166206377Y-88897441D01*
X166295645Y-88706007D01*
X166299391Y-88695715D01*
X166354059Y-88491691D01*
X166355962Y-88480896D01*
X166374372Y-88270475D01*
X166374372Y-88259525D01*
X166355962Y-88049104D01*
X166354059Y-88038309D01*
X166299391Y-87834285D01*
X166295645Y-87823993D01*
X166206377Y-87632559D01*
X166200897Y-87623068D01*
X166170206Y-87579235D01*
X166159729Y-87570860D01*
X166146282Y-87577928D01*
X165472022Y-88252188D01*
X165464408Y-88266132D01*
X164734356Y-88266132D01*
X164735592Y-88263868D01*
X164735461Y-88262035D01*
X164731210Y-88255420D01*
X164052997Y-87577207D01*
X164041223Y-87570777D01*
X164029207Y-87580074D01*
X163999103Y-87623068D01*
X163993623Y-87632559D01*
X163904355Y-87823993D01*
X163900609Y-87834285D01*
X163845941Y-88038309D01*
X163844038Y-88049104D01*
X163825628Y-88259525D01*
X163825628Y-88270475D01*
X143514874Y-88270475D01*
X143515353Y-88265000D01*
X143495978Y-88043537D01*
X143442079Y-87842384D01*
X143439863Y-87834114D01*
X143439862Y-87834112D01*
X143438440Y-87828804D01*
X143427636Y-87805634D01*
X143346814Y-87632311D01*
X143346811Y-87632306D01*
X143344488Y-87627324D01*
X143315647Y-87586134D01*
X143220136Y-87449730D01*
X143220134Y-87449727D01*
X143216977Y-87445219D01*
X143059781Y-87288023D01*
X143055273Y-87284866D01*
X143055270Y-87284864D01*
X142979505Y-87231813D01*
X142877677Y-87160512D01*
X142872695Y-87158189D01*
X142872690Y-87158186D01*
X142767627Y-87109195D01*
X142714342Y-87062278D01*
X142694881Y-86994001D01*
X142715423Y-86926041D01*
X142767627Y-86880805D01*
X142872690Y-86831814D01*
X142872695Y-86831811D01*
X142877677Y-86829488D01*
X142979505Y-86758187D01*
X143055270Y-86705136D01*
X143055273Y-86705134D01*
X143059781Y-86701977D01*
X143216977Y-86544781D01*
X143344488Y-86362676D01*
X143346811Y-86357694D01*
X143346814Y-86357689D01*
X143436117Y-86166178D01*
X143436118Y-86166177D01*
X143438440Y-86161196D01*
X143495978Y-85946463D01*
X143515353Y-85725000D01*
X143495978Y-85503537D01*
X143438440Y-85288804D01*
X143436117Y-85283822D01*
X143346814Y-85092311D01*
X143346811Y-85092306D01*
X143344488Y-85087324D01*
X143216977Y-84905219D01*
X143059781Y-84748023D01*
X143055273Y-84744866D01*
X143055270Y-84744864D01*
X142979505Y-84691813D01*
X142877677Y-84620512D01*
X142872695Y-84618189D01*
X142872690Y-84618186D01*
X142767627Y-84569195D01*
X142714342Y-84522278D01*
X142694881Y-84454001D01*
X142715423Y-84386041D01*
X142767627Y-84340805D01*
X142872690Y-84291814D01*
X142872695Y-84291811D01*
X142877677Y-84289488D01*
X142979505Y-84218187D01*
X143055270Y-84165136D01*
X143055273Y-84165134D01*
X143059781Y-84161977D01*
X143216977Y-84004781D01*
X143344488Y-83822676D01*
X143346811Y-83817694D01*
X143346814Y-83817689D01*
X143436117Y-83626178D01*
X143436118Y-83626177D01*
X143438440Y-83621196D01*
X143495978Y-83406463D01*
X143515353Y-83185000D01*
X143495978Y-82963537D01*
X143438440Y-82748804D01*
X143436117Y-82743822D01*
X143346814Y-82552311D01*
X143346811Y-82552306D01*
X143344488Y-82547324D01*
X143216977Y-82365219D01*
X143059781Y-82208023D01*
X143055273Y-82204866D01*
X143055270Y-82204864D01*
X142979505Y-82151813D01*
X142877677Y-82080512D01*
X142872695Y-82078189D01*
X142872690Y-82078186D01*
X142767627Y-82029195D01*
X142714342Y-81982278D01*
X142694881Y-81914001D01*
X142715423Y-81846041D01*
X142767627Y-81800805D01*
X142872690Y-81751814D01*
X142872695Y-81751811D01*
X142877677Y-81749488D01*
X142979505Y-81678187D01*
X143055270Y-81625136D01*
X143055273Y-81625134D01*
X143059781Y-81621977D01*
X143216977Y-81464781D01*
X143344488Y-81282676D01*
X143346811Y-81277694D01*
X143346814Y-81277689D01*
X143436117Y-81086178D01*
X143436118Y-81086177D01*
X143438440Y-81081196D01*
X143495978Y-80866463D01*
X143515353Y-80645000D01*
X143495978Y-80423537D01*
X143438440Y-80208804D01*
X143436117Y-80203822D01*
X143346814Y-80012311D01*
X143346811Y-80012306D01*
X143344488Y-80007324D01*
X143216977Y-79825219D01*
X143059781Y-79668023D01*
X143055273Y-79664866D01*
X143055270Y-79664864D01*
X142971359Y-79606109D01*
X142877677Y-79540512D01*
X142872695Y-79538189D01*
X142872690Y-79538186D01*
X142767627Y-79489195D01*
X142714342Y-79442278D01*
X142694881Y-79374001D01*
X142715423Y-79306041D01*
X142767627Y-79260805D01*
X142872690Y-79211814D01*
X142872695Y-79211811D01*
X142877677Y-79209488D01*
X143026514Y-79105271D01*
X143055270Y-79085136D01*
X143055273Y-79085134D01*
X143059781Y-79081977D01*
X143216977Y-78924781D01*
X143344488Y-78742676D01*
X143346811Y-78737694D01*
X143346814Y-78737689D01*
X143436117Y-78546178D01*
X143436118Y-78546177D01*
X143438440Y-78541196D01*
X143495978Y-78326463D01*
X143515353Y-78105000D01*
X143495978Y-77883537D01*
X143438440Y-77668804D01*
X143436117Y-77663822D01*
X143346814Y-77472311D01*
X143346811Y-77472306D01*
X143344488Y-77467324D01*
X143216977Y-77285219D01*
X143059781Y-77128023D01*
X143055273Y-77124866D01*
X143055270Y-77124864D01*
X142979505Y-77071813D01*
X142877677Y-77000512D01*
X142872695Y-76998189D01*
X142872690Y-76998186D01*
X142767627Y-76949195D01*
X142714342Y-76902278D01*
X142694881Y-76834001D01*
X142715423Y-76766041D01*
X142767627Y-76720805D01*
X142872690Y-76671814D01*
X142872695Y-76671811D01*
X142877677Y-76669488D01*
X142979505Y-76598187D01*
X143055270Y-76545136D01*
X143055273Y-76545134D01*
X143059781Y-76541977D01*
X143216977Y-76384781D01*
X143344488Y-76202676D01*
X143346811Y-76197694D01*
X143346814Y-76197689D01*
X143436117Y-76006178D01*
X143436118Y-76006177D01*
X143438440Y-76001196D01*
X143495978Y-75786463D01*
X143515353Y-75565000D01*
X143495978Y-75343537D01*
X143438440Y-75128804D01*
X143431241Y-75113365D01*
X143346814Y-74932311D01*
X143346811Y-74932306D01*
X143344488Y-74927324D01*
X143216977Y-74745219D01*
X143059781Y-74588023D01*
X143055273Y-74584866D01*
X143055270Y-74584864D01*
X142968651Y-74524213D01*
X142924323Y-74468756D01*
X142917014Y-74398137D01*
X142949045Y-74334776D01*
X143010246Y-74298791D01*
X143040922Y-74295000D01*
X144019000Y-74295000D01*
X144087121Y-74315002D01*
X144133614Y-74368658D01*
X144145000Y-74421000D01*
X144145000Y-75565000D01*
X163195000Y-75565000D01*
X163195000Y-74421000D01*
X163215002Y-74352879D01*
X163268658Y-74306386D01*
X163321000Y-74295000D01*
X164299078Y-74295000D01*
X164367199Y-74315002D01*
X164413692Y-74368658D01*
X164423796Y-74438932D01*
X164394302Y-74503512D01*
X164371349Y-74524213D01*
X164284730Y-74584864D01*
X164284727Y-74584866D01*
X164280219Y-74588023D01*
X164123023Y-74745219D01*
X163995512Y-74927324D01*
X163993189Y-74932306D01*
X163993186Y-74932311D01*
X163908759Y-75113365D01*
X163901560Y-75128804D01*
X163844022Y-75343537D01*
X163824647Y-75565000D01*
X163844022Y-75786463D01*
X163901560Y-76001196D01*
X163903882Y-76006177D01*
X163903883Y-76006178D01*
X163993186Y-76197689D01*
X163993189Y-76197694D01*
X163995512Y-76202676D01*
X164123023Y-76384781D01*
X164280219Y-76541977D01*
X164284727Y-76545134D01*
X164284730Y-76545136D01*
X164360495Y-76598187D01*
X164462323Y-76669488D01*
X164467305Y-76671811D01*
X164467310Y-76671814D01*
X164572373Y-76720805D01*
X164625658Y-76767722D01*
X164645119Y-76835999D01*
X164624577Y-76903959D01*
X164572373Y-76949195D01*
X164467311Y-76998186D01*
X164467306Y-76998189D01*
X164462324Y-77000512D01*
X164457817Y-77003668D01*
X164457815Y-77003669D01*
X164284730Y-77124864D01*
X164284727Y-77124866D01*
X164280219Y-77128023D01*
X164123023Y-77285219D01*
X163995512Y-77467324D01*
X163993189Y-77472306D01*
X163993186Y-77472311D01*
X163903883Y-77663822D01*
X163901560Y-77668804D01*
X163844022Y-77883537D01*
X163824647Y-78105000D01*
X163844022Y-78326463D01*
X163901560Y-78541196D01*
X163903882Y-78546177D01*
X163903883Y-78546178D01*
X163993186Y-78737689D01*
X163993189Y-78737694D01*
X163995512Y-78742676D01*
X164123023Y-78924781D01*
X164280219Y-79081977D01*
X164284727Y-79085134D01*
X164284730Y-79085136D01*
X164313486Y-79105271D01*
X164462323Y-79209488D01*
X164467305Y-79211811D01*
X164467310Y-79211814D01*
X164572373Y-79260805D01*
X164625658Y-79307722D01*
X164645119Y-79375999D01*
X164624577Y-79443959D01*
X164572373Y-79489195D01*
X164467311Y-79538186D01*
X164467306Y-79538189D01*
X164462324Y-79540512D01*
X164457817Y-79543668D01*
X164457815Y-79543669D01*
X164284730Y-79664864D01*
X164284727Y-79664866D01*
X164280219Y-79668023D01*
X164123023Y-79825219D01*
X163995512Y-80007324D01*
X163993189Y-80012306D01*
X163993186Y-80012311D01*
X163903883Y-80203822D01*
X163901560Y-80208804D01*
X163844022Y-80423537D01*
X163824647Y-80645000D01*
X163844022Y-80866463D01*
X163901560Y-81081196D01*
X163903882Y-81086177D01*
X163903883Y-81086178D01*
X163993186Y-81277689D01*
X163993189Y-81277694D01*
X163995512Y-81282676D01*
X164123023Y-81464781D01*
X164280219Y-81621977D01*
X164284727Y-81625134D01*
X164284730Y-81625136D01*
X164360495Y-81678187D01*
X164462323Y-81749488D01*
X164467305Y-81751811D01*
X164467310Y-81751814D01*
X164572373Y-81800805D01*
X164625658Y-81847722D01*
X164645119Y-81915999D01*
X164624577Y-81983959D01*
X164572373Y-82029195D01*
X164467311Y-82078186D01*
X164467306Y-82078189D01*
X164462324Y-82080512D01*
X164457817Y-82083668D01*
X164457815Y-82083669D01*
X164284730Y-82204864D01*
X164284727Y-82204866D01*
X164280219Y-82208023D01*
X164123023Y-82365219D01*
X163995512Y-82547324D01*
X163993189Y-82552306D01*
X163993186Y-82552311D01*
X163903883Y-82743822D01*
X163901560Y-82748804D01*
X163844022Y-82963537D01*
X163824647Y-83185000D01*
X163844022Y-83406463D01*
X163901560Y-83621196D01*
X163903882Y-83626177D01*
X163903883Y-83626178D01*
X163993186Y-83817689D01*
X163993189Y-83817694D01*
X163995512Y-83822676D01*
X164123023Y-84004781D01*
X164280219Y-84161977D01*
X164284727Y-84165134D01*
X164284730Y-84165136D01*
X164360495Y-84218187D01*
X164462323Y-84289488D01*
X164467305Y-84291811D01*
X164467310Y-84291814D01*
X164572373Y-84340805D01*
X164625658Y-84387722D01*
X164645119Y-84455999D01*
X164624577Y-84523959D01*
X164572373Y-84569195D01*
X164467311Y-84618186D01*
X164467306Y-84618189D01*
X164462324Y-84620512D01*
X164457817Y-84623668D01*
X164457815Y-84623669D01*
X164284730Y-84744864D01*
X164284727Y-84744866D01*
X164280219Y-84748023D01*
X164123023Y-84905219D01*
X163995512Y-85087324D01*
X163993189Y-85092306D01*
X163993186Y-85092311D01*
X163903883Y-85283822D01*
X163901560Y-85288804D01*
X163844022Y-85503537D01*
X163824647Y-85725000D01*
X163844022Y-85946463D01*
X163901560Y-86161196D01*
X163903882Y-86166177D01*
X163903883Y-86166178D01*
X163993186Y-86357689D01*
X163993189Y-86357694D01*
X163995512Y-86362676D01*
X164123023Y-86544781D01*
X164280219Y-86701977D01*
X164284727Y-86705134D01*
X164284730Y-86705136D01*
X164360495Y-86758187D01*
X164462323Y-86829488D01*
X164467305Y-86831811D01*
X164467310Y-86831814D01*
X164572965Y-86881081D01*
X164626250Y-86927998D01*
X164645711Y-86996275D01*
X164625169Y-87064235D01*
X164572965Y-87109471D01*
X164467559Y-87158623D01*
X164458068Y-87164103D01*
X164414235Y-87194794D01*
X164405860Y-87205271D01*
X164412928Y-87218718D01*
X165087188Y-87892978D01*
X165101132Y-87900592D01*
X165102965Y-87900461D01*
X165109580Y-87896210D01*
X165787793Y-87217997D01*
X165794223Y-87206223D01*
X165784926Y-87194207D01*
X165741931Y-87164102D01*
X165732445Y-87158624D01*
X165627035Y-87109471D01*
X165573750Y-87062554D01*
X165554289Y-86994277D01*
X165574831Y-86926317D01*
X165627035Y-86881081D01*
X165732690Y-86831814D01*
X165732695Y-86831811D01*
X165737677Y-86829488D01*
X165839505Y-86758187D01*
X165915270Y-86705136D01*
X165915273Y-86705134D01*
X165919781Y-86701977D01*
X166076977Y-86544781D01*
X166204488Y-86362676D01*
X166206811Y-86357694D01*
X166206814Y-86357689D01*
X166296117Y-86166178D01*
X166296118Y-86166177D01*
X166298440Y-86161196D01*
X166355978Y-85946463D01*
X166375353Y-85725000D01*
X166355978Y-85503537D01*
X166298440Y-85288804D01*
X166296117Y-85283822D01*
X166206814Y-85092311D01*
X166206811Y-85092306D01*
X166204488Y-85087324D01*
X166076977Y-84905219D01*
X165919781Y-84748023D01*
X165915273Y-84744866D01*
X165915270Y-84744864D01*
X165839505Y-84691813D01*
X165737677Y-84620512D01*
X165732695Y-84618189D01*
X165732690Y-84618186D01*
X165627627Y-84569195D01*
X165574342Y-84522278D01*
X165554881Y-84454001D01*
X165575423Y-84386041D01*
X165627627Y-84340805D01*
X165732690Y-84291814D01*
X165732695Y-84291811D01*
X165737677Y-84289488D01*
X165839505Y-84218187D01*
X165915270Y-84165136D01*
X165915273Y-84165134D01*
X165919781Y-84161977D01*
X166076977Y-84004781D01*
X166204488Y-83822676D01*
X166206811Y-83817694D01*
X166206814Y-83817689D01*
X166296117Y-83626178D01*
X166296118Y-83626177D01*
X166298440Y-83621196D01*
X166355978Y-83406463D01*
X166375353Y-83185000D01*
X166355978Y-82963537D01*
X166298440Y-82748804D01*
X166296117Y-82743822D01*
X166206814Y-82552311D01*
X166206811Y-82552306D01*
X166204488Y-82547324D01*
X166076977Y-82365219D01*
X165919781Y-82208023D01*
X165915273Y-82204866D01*
X165915270Y-82204864D01*
X165839505Y-82151813D01*
X165737677Y-82080512D01*
X165732695Y-82078189D01*
X165732690Y-82078186D01*
X165627627Y-82029195D01*
X165574342Y-81982278D01*
X165554881Y-81914001D01*
X165575423Y-81846041D01*
X165627627Y-81800805D01*
X165732690Y-81751814D01*
X165732695Y-81751811D01*
X165737677Y-81749488D01*
X165839505Y-81678187D01*
X165915270Y-81625136D01*
X165915273Y-81625134D01*
X165919781Y-81621977D01*
X166076977Y-81464781D01*
X166204488Y-81282676D01*
X166206811Y-81277694D01*
X166206814Y-81277689D01*
X166296117Y-81086178D01*
X166296118Y-81086177D01*
X166298440Y-81081196D01*
X166355978Y-80866463D01*
X166375353Y-80645000D01*
X166355978Y-80423537D01*
X166298440Y-80208804D01*
X166296117Y-80203822D01*
X166206814Y-80012311D01*
X166206811Y-80012306D01*
X166204488Y-80007324D01*
X166076977Y-79825219D01*
X165919781Y-79668023D01*
X165915273Y-79664866D01*
X165915270Y-79664864D01*
X165831359Y-79606109D01*
X165737677Y-79540512D01*
X165732695Y-79538189D01*
X165732690Y-79538186D01*
X165627627Y-79489195D01*
X165574342Y-79442278D01*
X165554881Y-79374001D01*
X165575423Y-79306041D01*
X165627627Y-79260805D01*
X165732690Y-79211814D01*
X165732695Y-79211811D01*
X165737677Y-79209488D01*
X165886514Y-79105271D01*
X165915270Y-79085136D01*
X165915273Y-79085134D01*
X165919781Y-79081977D01*
X166076977Y-78924781D01*
X166204488Y-78742676D01*
X166206811Y-78737694D01*
X166206814Y-78737689D01*
X166296117Y-78546178D01*
X166296118Y-78546177D01*
X166298440Y-78541196D01*
X166355978Y-78326463D01*
X166375353Y-78105000D01*
X166355978Y-77883537D01*
X166298440Y-77668804D01*
X166296117Y-77663822D01*
X166206814Y-77472311D01*
X166206811Y-77472306D01*
X166204488Y-77467324D01*
X166076977Y-77285219D01*
X165919781Y-77128023D01*
X165915273Y-77124866D01*
X165915270Y-77124864D01*
X165839505Y-77071813D01*
X165737677Y-77000512D01*
X165732695Y-76998189D01*
X165732690Y-76998186D01*
X165627627Y-76949195D01*
X165574342Y-76902278D01*
X165554881Y-76834001D01*
X165575423Y-76766041D01*
X165627627Y-76720805D01*
X165732690Y-76671814D01*
X165732695Y-76671811D01*
X165737677Y-76669488D01*
X165839505Y-76598187D01*
X165915270Y-76545136D01*
X165915273Y-76545134D01*
X165919781Y-76541977D01*
X166076977Y-76384781D01*
X166204488Y-76202676D01*
X166206811Y-76197694D01*
X166206814Y-76197689D01*
X166296117Y-76006178D01*
X166296118Y-76006177D01*
X166298440Y-76001196D01*
X166355978Y-75786463D01*
X166375353Y-75565000D01*
X166355978Y-75343537D01*
X166298440Y-75128804D01*
X166291241Y-75113365D01*
X166206814Y-74932311D01*
X166206811Y-74932306D01*
X166204488Y-74927324D01*
X166076977Y-74745219D01*
X165919781Y-74588023D01*
X165915273Y-74584866D01*
X165915270Y-74584864D01*
X165828651Y-74524213D01*
X165784323Y-74468756D01*
X165777014Y-74398137D01*
X165809045Y-74334776D01*
X165870246Y-74298791D01*
X165900922Y-74295000D01*
X166370000Y-74295000D01*
X166370000Y-73091693D01*
X166370479Y-73080712D01*
X166374874Y-73030475D01*
X166375353Y-73025000D01*
X166370479Y-72969288D01*
X166370000Y-72958307D01*
X166370000Y-66675000D01*
X163321000Y-66675000D01*
X163252879Y-66654998D01*
X163206386Y-66601342D01*
X163195000Y-66549000D01*
X163195000Y-64770000D01*
X144145000Y-64770000D01*
X144145000Y-66549000D01*
X144124998Y-66617121D01*
X144071342Y-66663614D01*
X144019000Y-66675000D01*
X140970000Y-66675000D01*
X140970000Y-72958307D01*
X140969521Y-72969288D01*
X140964647Y-73025000D01*
X140965126Y-73030475D01*
X140969521Y-73080712D01*
X140970000Y-73091693D01*
X140970000Y-74295000D01*
X141439078Y-74295000D01*
X141507199Y-74315002D01*
X141553692Y-74368658D01*
X141563796Y-74438932D01*
X141534302Y-74503512D01*
X141511349Y-74524213D01*
X141424730Y-74584864D01*
X141424727Y-74584866D01*
X141420219Y-74588023D01*
X141263023Y-74745219D01*
X141135512Y-74927324D01*
X141133189Y-74932306D01*
X141133186Y-74932311D01*
X141048759Y-75113365D01*
X141041560Y-75128804D01*
X140984022Y-75343537D01*
X140964647Y-75565000D01*
X140984022Y-75786463D01*
X141041560Y-76001196D01*
X141043882Y-76006177D01*
X141043883Y-76006178D01*
X141133186Y-76197689D01*
X141133189Y-76197694D01*
X141135512Y-76202676D01*
X141263023Y-76384781D01*
X141420219Y-76541977D01*
X141424727Y-76545134D01*
X141424730Y-76545136D01*
X141500495Y-76598187D01*
X141602323Y-76669488D01*
X141607305Y-76671811D01*
X141607310Y-76671814D01*
X141712373Y-76720805D01*
X141765658Y-76767722D01*
X141785119Y-76835999D01*
X141764577Y-76903959D01*
X141712373Y-76949195D01*
X141607311Y-76998186D01*
X141607306Y-76998189D01*
X141602324Y-77000512D01*
X141597817Y-77003668D01*
X141597815Y-77003669D01*
X141424730Y-77124864D01*
X141424727Y-77124866D01*
X141420219Y-77128023D01*
X141263023Y-77285219D01*
X141135512Y-77467324D01*
X141133189Y-77472306D01*
X141133186Y-77472311D01*
X141043883Y-77663822D01*
X141041560Y-77668804D01*
X140984022Y-77883537D01*
X140964647Y-78105000D01*
X140984022Y-78326463D01*
X141041560Y-78541196D01*
X141043882Y-78546177D01*
X141043883Y-78546178D01*
X141133186Y-78737689D01*
X141133189Y-78737694D01*
X141135512Y-78742676D01*
X141263023Y-78924781D01*
X141420219Y-79081977D01*
X141424727Y-79085134D01*
X141424730Y-79085136D01*
X141453486Y-79105271D01*
X141602323Y-79209488D01*
X141607305Y-79211811D01*
X141607310Y-79211814D01*
X141712373Y-79260805D01*
X141765658Y-79307722D01*
X141785119Y-79375999D01*
X141764577Y-79443959D01*
X141712373Y-79489195D01*
X141607311Y-79538186D01*
X141607306Y-79538189D01*
X141602324Y-79540512D01*
X141597817Y-79543668D01*
X141597815Y-79543669D01*
X141424730Y-79664864D01*
X141424727Y-79664866D01*
X141420219Y-79668023D01*
X141263023Y-79825219D01*
X141135512Y-80007324D01*
X141133189Y-80012306D01*
X141133186Y-80012311D01*
X141043883Y-80203822D01*
X141041560Y-80208804D01*
X140984022Y-80423537D01*
X140964647Y-80645000D01*
X140984022Y-80866463D01*
X141041560Y-81081196D01*
X141043882Y-81086177D01*
X141043883Y-81086178D01*
X141133186Y-81277689D01*
X141133189Y-81277694D01*
X141135512Y-81282676D01*
X141263023Y-81464781D01*
X141420219Y-81621977D01*
X141424727Y-81625134D01*
X141424730Y-81625136D01*
X141500495Y-81678187D01*
X141602323Y-81749488D01*
X141607305Y-81751811D01*
X141607310Y-81751814D01*
X141712373Y-81800805D01*
X141765658Y-81847722D01*
X141785119Y-81915999D01*
X141764577Y-81983959D01*
X141712373Y-82029195D01*
X141607311Y-82078186D01*
X141607306Y-82078189D01*
X141602324Y-82080512D01*
X141597817Y-82083668D01*
X141597815Y-82083669D01*
X141424730Y-82204864D01*
X141424727Y-82204866D01*
X141420219Y-82208023D01*
X141263023Y-82365219D01*
X141135512Y-82547324D01*
X141133189Y-82552306D01*
X141133186Y-82552311D01*
X141043883Y-82743822D01*
X141041560Y-82748804D01*
X140984022Y-82963537D01*
X140964647Y-83185000D01*
X140984022Y-83406463D01*
X141041560Y-83621196D01*
X141043882Y-83626177D01*
X141043883Y-83626178D01*
X141133186Y-83817689D01*
X141133189Y-83817694D01*
X141135512Y-83822676D01*
X141263023Y-84004781D01*
X141420219Y-84161977D01*
X141424727Y-84165134D01*
X141424730Y-84165136D01*
X141500495Y-84218187D01*
X141602323Y-84289488D01*
X141607305Y-84291811D01*
X141607310Y-84291814D01*
X141712373Y-84340805D01*
X141765658Y-84387722D01*
X141785119Y-84455999D01*
X141764577Y-84523959D01*
X141712373Y-84569195D01*
X141607311Y-84618186D01*
X141607306Y-84618189D01*
X141602324Y-84620512D01*
X141597817Y-84623668D01*
X141597815Y-84623669D01*
X141424730Y-84744864D01*
X141424727Y-84744866D01*
X141420219Y-84748023D01*
X141263023Y-84905219D01*
X141135512Y-85087324D01*
X141133189Y-85092306D01*
X141133186Y-85092311D01*
X141043883Y-85283822D01*
X141041560Y-85288804D01*
X140984022Y-85503537D01*
X140964647Y-85725000D01*
X140984022Y-85946463D01*
X141041560Y-86161196D01*
X141043882Y-86166177D01*
X141043883Y-86166178D01*
X141133186Y-86357689D01*
X141133189Y-86357694D01*
X141135512Y-86362676D01*
X141263023Y-86544781D01*
X141420219Y-86701977D01*
X141424727Y-86705134D01*
X141424730Y-86705136D01*
X141500495Y-86758187D01*
X141602323Y-86829488D01*
X141607305Y-86831811D01*
X141607310Y-86831814D01*
X141712373Y-86880805D01*
X141765658Y-86927722D01*
X141785119Y-86995999D01*
X141764577Y-87063959D01*
X141712373Y-87109195D01*
X141607311Y-87158186D01*
X141607306Y-87158189D01*
X141602324Y-87160512D01*
X141597817Y-87163668D01*
X141597815Y-87163669D01*
X141424730Y-87284864D01*
X141424727Y-87284866D01*
X141420219Y-87288023D01*
X141263023Y-87445219D01*
X141259866Y-87449727D01*
X141259864Y-87449730D01*
X141164353Y-87586134D01*
X141135512Y-87627324D01*
X141133189Y-87632306D01*
X141133186Y-87632311D01*
X141052364Y-87805634D01*
X141041560Y-87828804D01*
X141040138Y-87834112D01*
X141040137Y-87834114D01*
X141037921Y-87842384D01*
X140984022Y-88043537D01*
X140964647Y-88265000D01*
X140984022Y-88486463D01*
X141041560Y-88701196D01*
X141043882Y-88706177D01*
X141043883Y-88706178D01*
X141133186Y-88897689D01*
X141133189Y-88897694D01*
X141135512Y-88902676D01*
X141138668Y-88907183D01*
X141138669Y-88907185D01*
X141175107Y-88959223D01*
X141263023Y-89084781D01*
X141420219Y-89241977D01*
X141424727Y-89245134D01*
X141424730Y-89245136D01*
X141500495Y-89298187D01*
X141602323Y-89369488D01*
X141607305Y-89371811D01*
X141607310Y-89371814D01*
X141712373Y-89420805D01*
X141765658Y-89467722D01*
X141785119Y-89535999D01*
X141764577Y-89603959D01*
X141712373Y-89649195D01*
X141607311Y-89698186D01*
X141607306Y-89698189D01*
X141602324Y-89700512D01*
X141597817Y-89703668D01*
X141597815Y-89703669D01*
X141424730Y-89824864D01*
X141424727Y-89824866D01*
X141420219Y-89828023D01*
X141263023Y-89985219D01*
X141259866Y-89989727D01*
X141259864Y-89989730D01*
X141138669Y-90162815D01*
X141135512Y-90167324D01*
X141133189Y-90172306D01*
X141133186Y-90172311D01*
X141056593Y-90336565D01*
X141041560Y-90368804D01*
X140984022Y-90583537D01*
X140964647Y-90805000D01*
X140984022Y-91026463D01*
X141041560Y-91241196D01*
X141043882Y-91246177D01*
X141043883Y-91246178D01*
X141133186Y-91437689D01*
X141133189Y-91437694D01*
X141135512Y-91442676D01*
X141138668Y-91447183D01*
X141138669Y-91447185D01*
X141202298Y-91538056D01*
X141263023Y-91624781D01*
X141420219Y-91781977D01*
X141424727Y-91785134D01*
X141424730Y-91785136D01*
X141500495Y-91838187D01*
X141602323Y-91909488D01*
X141607305Y-91911811D01*
X141607310Y-91911814D01*
X141712373Y-91960805D01*
X141765658Y-92007722D01*
X141785119Y-92075999D01*
X141764577Y-92143959D01*
X141712373Y-92189195D01*
X141607311Y-92238186D01*
X141607306Y-92238189D01*
X141602324Y-92240512D01*
X141597817Y-92243668D01*
X141597815Y-92243669D01*
X141424730Y-92364864D01*
X141424727Y-92364866D01*
X141420219Y-92368023D01*
X141263023Y-92525219D01*
X141259866Y-92529727D01*
X141259864Y-92529730D01*
X141142387Y-92697505D01*
X141135512Y-92707324D01*
X141133189Y-92712306D01*
X141133186Y-92712311D01*
X141063038Y-92862745D01*
X141041560Y-92908804D01*
X140984022Y-93123537D01*
X140964647Y-93345000D01*
X138055905Y-93345000D01*
X137663652Y-92952747D01*
X137656112Y-92944461D01*
X137652000Y-92937982D01*
X137602348Y-92891356D01*
X137599507Y-92888602D01*
X137579770Y-92868865D01*
X137576573Y-92866385D01*
X137567551Y-92858680D01*
X137541100Y-92833841D01*
X137535321Y-92828414D01*
X137528375Y-92824595D01*
X137528372Y-92824593D01*
X137517566Y-92818652D01*
X137501047Y-92807801D01*
X137500583Y-92807441D01*
X137485041Y-92795386D01*
X137477772Y-92792241D01*
X137477768Y-92792238D01*
X137444463Y-92777826D01*
X137433813Y-92772609D01*
X137395060Y-92751305D01*
X137385908Y-92748955D01*
X137375438Y-92746267D01*
X137356734Y-92739863D01*
X137345420Y-92734967D01*
X137345419Y-92734967D01*
X137338145Y-92731819D01*
X137330322Y-92730580D01*
X137330312Y-92730577D01*
X137294476Y-92724901D01*
X137282856Y-92722495D01*
X137247711Y-92713472D01*
X137247710Y-92713472D01*
X137240030Y-92711500D01*
X137219776Y-92711500D01*
X137200065Y-92709949D01*
X137187886Y-92708020D01*
X137180057Y-92706780D01*
X137172165Y-92707526D01*
X137136039Y-92710941D01*
X137124181Y-92711500D01*
X128833594Y-92711500D01*
X128765473Y-92691498D01*
X128718980Y-92637842D01*
X128708876Y-92567568D01*
X128738370Y-92502988D01*
X128744499Y-92496405D01*
X130240499Y-91000405D01*
X130302811Y-90966379D01*
X130329594Y-90963500D01*
X130576800Y-90963500D01*
X130644921Y-90983502D01*
X130664147Y-90999843D01*
X130664420Y-90999540D01*
X130669332Y-91003963D01*
X130673747Y-91008866D01*
X130828248Y-91121118D01*
X130834276Y-91123802D01*
X130834278Y-91123803D01*
X130996681Y-91196109D01*
X131002712Y-91198794D01*
X131096113Y-91218647D01*
X131183056Y-91237128D01*
X131183061Y-91237128D01*
X131189513Y-91238500D01*
X131380487Y-91238500D01*
X131386939Y-91237128D01*
X131386944Y-91237128D01*
X131473887Y-91218647D01*
X131567288Y-91198794D01*
X131573319Y-91196109D01*
X131735722Y-91123803D01*
X131735724Y-91123802D01*
X131741752Y-91121118D01*
X131896253Y-91008866D01*
X131919091Y-90983502D01*
X132019621Y-90871852D01*
X132019622Y-90871851D01*
X132024040Y-90866944D01*
X132119527Y-90701556D01*
X132178542Y-90519928D01*
X132193868Y-90374114D01*
X132197814Y-90336565D01*
X132198504Y-90330000D01*
X132197814Y-90323435D01*
X132179232Y-90146635D01*
X132179232Y-90146633D01*
X132178542Y-90140072D01*
X132119527Y-89958444D01*
X132024040Y-89793056D01*
X132007881Y-89775109D01*
X131900675Y-89656045D01*
X131900674Y-89656044D01*
X131896253Y-89651134D01*
X131797157Y-89579136D01*
X131747094Y-89542763D01*
X131747093Y-89542762D01*
X131741752Y-89538882D01*
X131735724Y-89536198D01*
X131735722Y-89536197D01*
X131573319Y-89463891D01*
X131573318Y-89463891D01*
X131567288Y-89461206D01*
X131473887Y-89441353D01*
X131386944Y-89422872D01*
X131386939Y-89422872D01*
X131380487Y-89421500D01*
X131189513Y-89421500D01*
X131183061Y-89422872D01*
X131183056Y-89422872D01*
X131096113Y-89441353D01*
X131002712Y-89461206D01*
X130996682Y-89463891D01*
X130996681Y-89463891D01*
X130834278Y-89536197D01*
X130834276Y-89536198D01*
X130828248Y-89538882D01*
X130822907Y-89542762D01*
X130822906Y-89542763D01*
X130735098Y-89606560D01*
X130673747Y-89651134D01*
X130669332Y-89656037D01*
X130664420Y-89660460D01*
X130663295Y-89659211D01*
X130609986Y-89692051D01*
X130576800Y-89696500D01*
X130093768Y-89696500D01*
X130082585Y-89695973D01*
X130075092Y-89694298D01*
X130067166Y-89694547D01*
X130067165Y-89694547D01*
X130007002Y-89696438D01*
X130003044Y-89696500D01*
X129975144Y-89696500D01*
X129971154Y-89697004D01*
X129959320Y-89697936D01*
X129915111Y-89699326D01*
X129907495Y-89701539D01*
X129907493Y-89701539D01*
X129895652Y-89704979D01*
X129876293Y-89708988D01*
X129874983Y-89709154D01*
X129856203Y-89711526D01*
X129848837Y-89714442D01*
X129848831Y-89714444D01*
X129815098Y-89727800D01*
X129803868Y-89731645D01*
X129769017Y-89741770D01*
X129761407Y-89743981D01*
X129754584Y-89748016D01*
X129743966Y-89754295D01*
X129726213Y-89762992D01*
X129718568Y-89766019D01*
X129707383Y-89770448D01*
X129700968Y-89775109D01*
X129671612Y-89796437D01*
X129661695Y-89802951D01*
X129623638Y-89825458D01*
X129609317Y-89839779D01*
X129594284Y-89852619D01*
X129577893Y-89864528D01*
X129572842Y-89870634D01*
X129549702Y-89898605D01*
X129541712Y-89907384D01*
X128044500Y-91404595D01*
X127982188Y-91438621D01*
X127955405Y-91441500D01*
X125168200Y-91441500D01*
X125100079Y-91421498D01*
X125080853Y-91405157D01*
X125080580Y-91405460D01*
X125075668Y-91401037D01*
X125071253Y-91396134D01*
X125049671Y-91380454D01*
X124922094Y-91287763D01*
X124922093Y-91287762D01*
X124916752Y-91283882D01*
X124910724Y-91281198D01*
X124910722Y-91281197D01*
X124748319Y-91208891D01*
X124748318Y-91208891D01*
X124742288Y-91206206D01*
X124629721Y-91182279D01*
X124561944Y-91167872D01*
X124561939Y-91167872D01*
X124555487Y-91166500D01*
X124364513Y-91166500D01*
X124358061Y-91167872D01*
X124358056Y-91167872D01*
X124290279Y-91182279D01*
X124177712Y-91206206D01*
X124171682Y-91208891D01*
X124171681Y-91208891D01*
X124009278Y-91281197D01*
X124009276Y-91281198D01*
X124003248Y-91283882D01*
X123848747Y-91396134D01*
X123844326Y-91401044D01*
X123844325Y-91401045D01*
X123766257Y-91487749D01*
X123720960Y-91538056D01*
X123625473Y-91703444D01*
X123566458Y-91885072D01*
X123565768Y-91891633D01*
X123565768Y-91891635D01*
X123563892Y-91909488D01*
X123546496Y-92075000D01*
X121545904Y-92075000D01*
X124685499Y-88935405D01*
X124747811Y-88901379D01*
X124774594Y-88898500D01*
X135181800Y-88898500D01*
X135249921Y-88918502D01*
X135269147Y-88934843D01*
X135269420Y-88934540D01*
X135274332Y-88938963D01*
X135278747Y-88943866D01*
X135433248Y-89056118D01*
X135439276Y-89058802D01*
X135439278Y-89058803D01*
X135497626Y-89084781D01*
X135607712Y-89133794D01*
X135701113Y-89153647D01*
X135788056Y-89172128D01*
X135788061Y-89172128D01*
X135794513Y-89173500D01*
X135985487Y-89173500D01*
X135991939Y-89172128D01*
X135991944Y-89172128D01*
X136078887Y-89153647D01*
X136172288Y-89133794D01*
X136282374Y-89084781D01*
X136340722Y-89058803D01*
X136340724Y-89058802D01*
X136346752Y-89056118D01*
X136501253Y-88943866D01*
X136534281Y-88907185D01*
X136624621Y-88806852D01*
X136624622Y-88806851D01*
X136629040Y-88801944D01*
X136724527Y-88636556D01*
X136783542Y-88454928D01*
X136803504Y-88265000D01*
X136783542Y-88075072D01*
X136724527Y-87893444D01*
X136629040Y-87728056D01*
X136612881Y-87710109D01*
X136505675Y-87591045D01*
X136505674Y-87591044D01*
X136501253Y-87586134D01*
X136346752Y-87473882D01*
X136340724Y-87471198D01*
X136340722Y-87471197D01*
X136178319Y-87398891D01*
X136178318Y-87398891D01*
X136172288Y-87396206D01*
X136078887Y-87376353D01*
X135991944Y-87357872D01*
X135991939Y-87357872D01*
X135985487Y-87356500D01*
X135794513Y-87356500D01*
X135788061Y-87357872D01*
X135788056Y-87357872D01*
X135701113Y-87376353D01*
X135607712Y-87396206D01*
X135601682Y-87398891D01*
X135601681Y-87398891D01*
X135439278Y-87471197D01*
X135439276Y-87471198D01*
X135433248Y-87473882D01*
X135278747Y-87586134D01*
X135274332Y-87591037D01*
X135269420Y-87595460D01*
X135268295Y-87594211D01*
X135214986Y-87627051D01*
X135181800Y-87631500D01*
X124538768Y-87631500D01*
X124527585Y-87630973D01*
X124520092Y-87629298D01*
X124512166Y-87629547D01*
X124512165Y-87629547D01*
X124452002Y-87631438D01*
X124448044Y-87631500D01*
X124420144Y-87631500D01*
X124416154Y-87632004D01*
X124404320Y-87632936D01*
X124360111Y-87634326D01*
X124352495Y-87636539D01*
X124352493Y-87636539D01*
X124340652Y-87639979D01*
X124321293Y-87643988D01*
X124319983Y-87644154D01*
X124301203Y-87646526D01*
X124293837Y-87649442D01*
X124293831Y-87649444D01*
X124260098Y-87662800D01*
X124248868Y-87666645D01*
X124214017Y-87676770D01*
X124206407Y-87678981D01*
X124199584Y-87683016D01*
X124188966Y-87689295D01*
X124171213Y-87697992D01*
X124163568Y-87701019D01*
X124152383Y-87705448D01*
X124145968Y-87710109D01*
X124116612Y-87731437D01*
X124106695Y-87737951D01*
X124068638Y-87760458D01*
X124054317Y-87774779D01*
X124039284Y-87787619D01*
X124022893Y-87799528D01*
X124017842Y-87805634D01*
X123994702Y-87833605D01*
X123986712Y-87842384D01*
X120424500Y-91404595D01*
X120362188Y-91438621D01*
X120335405Y-91441500D01*
X109534595Y-91441500D01*
X109466474Y-91421498D01*
X109445500Y-91404595D01*
X108897122Y-90856217D01*
X108863096Y-90793905D01*
X108860907Y-90780292D01*
X108844232Y-90621635D01*
X108844232Y-90621633D01*
X108843542Y-90615072D01*
X108784527Y-90433444D01*
X108689040Y-90268056D01*
X108561253Y-90126134D01*
X108406752Y-90013882D01*
X108400724Y-90011198D01*
X108400722Y-90011197D01*
X108238319Y-89938891D01*
X108238318Y-89938891D01*
X108232288Y-89936206D01*
X108138888Y-89916353D01*
X108051944Y-89897872D01*
X108051939Y-89897872D01*
X108045487Y-89896500D01*
X107854513Y-89896500D01*
X107848061Y-89897872D01*
X107848056Y-89897872D01*
X107761112Y-89916353D01*
X107667712Y-89936206D01*
X107661682Y-89938891D01*
X107661681Y-89938891D01*
X107499278Y-90011197D01*
X107499276Y-90011198D01*
X107493248Y-90013882D01*
X107338747Y-90126134D01*
X107210960Y-90268056D01*
X107115473Y-90433444D01*
X107056458Y-90615072D01*
X107036496Y-90805000D01*
X83693500Y-90805000D01*
X83693500Y-78740000D01*
X103861496Y-78740000D01*
X103881458Y-78929928D01*
X103940473Y-79111556D01*
X104035960Y-79276944D01*
X104040378Y-79281851D01*
X104040379Y-79281852D01*
X104111624Y-79360978D01*
X104163747Y-79418866D01*
X104318248Y-79531118D01*
X104324276Y-79533802D01*
X104324278Y-79533803D01*
X104339347Y-79540512D01*
X104492712Y-79608794D01*
X104586113Y-79628647D01*
X104673056Y-79647128D01*
X104673061Y-79647128D01*
X104679513Y-79648500D01*
X104870487Y-79648500D01*
X104876939Y-79647128D01*
X104876944Y-79647128D01*
X104963887Y-79628647D01*
X105057288Y-79608794D01*
X105210653Y-79540512D01*
X105225722Y-79533803D01*
X105225724Y-79533802D01*
X105231752Y-79531118D01*
X105386253Y-79418866D01*
X105438376Y-79360978D01*
X105509621Y-79281852D01*
X105509622Y-79281851D01*
X105514040Y-79276944D01*
X105609527Y-79111556D01*
X105668542Y-78929928D01*
X105688504Y-78740000D01*
X107036496Y-78740000D01*
X107056458Y-78929928D01*
X107115473Y-79111556D01*
X107210960Y-79276944D01*
X107215378Y-79281851D01*
X107215379Y-79281852D01*
X107286624Y-79360978D01*
X107338747Y-79418866D01*
X107493248Y-79531118D01*
X107499276Y-79533802D01*
X107499278Y-79533803D01*
X107514347Y-79540512D01*
X107667712Y-79608794D01*
X107761113Y-79628647D01*
X107848056Y-79647128D01*
X107848061Y-79647128D01*
X107854513Y-79648500D01*
X108045487Y-79648500D01*
X108051939Y-79647128D01*
X108051944Y-79647128D01*
X108138887Y-79628647D01*
X108232288Y-79608794D01*
X108385653Y-79540512D01*
X108400722Y-79533803D01*
X108400724Y-79533802D01*
X108406752Y-79531118D01*
X108561253Y-79418866D01*
X108613376Y-79360978D01*
X108684621Y-79281852D01*
X108684622Y-79281851D01*
X108689040Y-79276944D01*
X108784527Y-79111556D01*
X108843542Y-78929928D01*
X108863504Y-78740000D01*
X108843542Y-78550072D01*
X108784527Y-78368444D01*
X108689040Y-78203056D01*
X108615863Y-78121785D01*
X108585147Y-78057779D01*
X108583500Y-78037476D01*
X108583500Y-74362524D01*
X108603502Y-74294403D01*
X108615858Y-74278221D01*
X108689040Y-74196944D01*
X108784527Y-74031556D01*
X108843542Y-73849928D01*
X108863504Y-73660000D01*
X108843542Y-73470072D01*
X108784527Y-73288444D01*
X108689040Y-73123056D01*
X108595821Y-73019525D01*
X108565675Y-72986045D01*
X108565674Y-72986044D01*
X108561253Y-72981134D01*
X108406752Y-72868882D01*
X108400724Y-72866198D01*
X108400722Y-72866197D01*
X108238319Y-72793891D01*
X108238318Y-72793891D01*
X108232288Y-72791206D01*
X108138887Y-72771353D01*
X108051944Y-72752872D01*
X108051939Y-72752872D01*
X108045487Y-72751500D01*
X107854513Y-72751500D01*
X107848061Y-72752872D01*
X107848056Y-72752872D01*
X107761113Y-72771353D01*
X107667712Y-72791206D01*
X107661682Y-72793891D01*
X107661681Y-72793891D01*
X107499278Y-72866197D01*
X107499276Y-72866198D01*
X107493248Y-72868882D01*
X107338747Y-72981134D01*
X107334326Y-72986044D01*
X107334325Y-72986045D01*
X107304180Y-73019525D01*
X107210960Y-73123056D01*
X107115473Y-73288444D01*
X107056458Y-73470072D01*
X107036496Y-73660000D01*
X107056458Y-73849928D01*
X107115473Y-74031556D01*
X107210960Y-74196944D01*
X107284137Y-74278215D01*
X107314853Y-74342221D01*
X107316500Y-74362524D01*
X107316500Y-78037476D01*
X107296498Y-78105597D01*
X107284142Y-78121779D01*
X107210960Y-78203056D01*
X107115473Y-78368444D01*
X107056458Y-78550072D01*
X107036496Y-78740000D01*
X105688504Y-78740000D01*
X105668542Y-78550072D01*
X105609527Y-78368444D01*
X105514040Y-78203056D01*
X105440863Y-78121785D01*
X105410147Y-78057779D01*
X105408500Y-78037476D01*
X105408500Y-75632524D01*
X105428502Y-75564403D01*
X105440858Y-75548221D01*
X105514040Y-75466944D01*
X105609527Y-75301556D01*
X105668542Y-75119928D01*
X105688504Y-74930000D01*
X105668542Y-74740072D01*
X105609527Y-74558444D01*
X105514040Y-74393056D01*
X105413552Y-74281452D01*
X105390675Y-74256045D01*
X105390674Y-74256044D01*
X105386253Y-74251134D01*
X105231752Y-74138882D01*
X105225724Y-74136198D01*
X105225722Y-74136197D01*
X105063319Y-74063891D01*
X105063318Y-74063891D01*
X105057288Y-74061206D01*
X104944721Y-74037279D01*
X104876944Y-74022872D01*
X104876939Y-74022872D01*
X104870487Y-74021500D01*
X104679513Y-74021500D01*
X104673061Y-74022872D01*
X104673056Y-74022872D01*
X104605279Y-74037279D01*
X104492712Y-74061206D01*
X104486682Y-74063891D01*
X104486681Y-74063891D01*
X104324278Y-74136197D01*
X104324276Y-74136198D01*
X104318248Y-74138882D01*
X104163747Y-74251134D01*
X104159326Y-74256044D01*
X104159325Y-74256045D01*
X104136449Y-74281452D01*
X104035960Y-74393056D01*
X103940473Y-74558444D01*
X103881458Y-74740072D01*
X103861496Y-74930000D01*
X103881458Y-75119928D01*
X103940473Y-75301556D01*
X104035960Y-75466944D01*
X104109137Y-75548215D01*
X104139853Y-75612221D01*
X104141500Y-75632524D01*
X104141500Y-78037476D01*
X104121498Y-78105597D01*
X104109142Y-78121779D01*
X104035960Y-78203056D01*
X103940473Y-78368444D01*
X103881458Y-78550072D01*
X103861496Y-78740000D01*
X83693500Y-78740000D01*
X83693500Y-71387966D01*
X123128257Y-71387966D01*
X123158565Y-71522446D01*
X123161645Y-71532275D01*
X123241770Y-71729603D01*
X123246413Y-71738794D01*
X123357694Y-71920388D01*
X123363777Y-71928699D01*
X123503213Y-72089667D01*
X123510580Y-72096883D01*
X123674434Y-72232916D01*
X123682881Y-72238831D01*
X123866756Y-72346279D01*
X123876042Y-72350729D01*
X124075001Y-72426703D01*
X124084899Y-72429579D01*
X124188250Y-72450606D01*
X124202299Y-72449410D01*
X124206000Y-72439065D01*
X124206000Y-72438517D01*
X124714000Y-72438517D01*
X124718064Y-72452359D01*
X124731478Y-72454393D01*
X124738184Y-72453534D01*
X124748262Y-72451392D01*
X124952255Y-72390191D01*
X124961842Y-72386433D01*
X125153095Y-72292739D01*
X125161945Y-72287464D01*
X125335328Y-72163792D01*
X125343200Y-72157139D01*
X125494052Y-72006812D01*
X125500730Y-71998965D01*
X125628022Y-71821819D01*
X125629147Y-71822627D01*
X125676669Y-71778876D01*
X125746607Y-71766661D01*
X125812046Y-71794197D01*
X125839870Y-71826028D01*
X125897690Y-71920383D01*
X125903777Y-71928699D01*
X126043213Y-72089667D01*
X126050580Y-72096883D01*
X126214434Y-72232916D01*
X126222881Y-72238831D01*
X126406756Y-72346279D01*
X126416042Y-72350729D01*
X126615001Y-72426703D01*
X126624899Y-72429579D01*
X126728250Y-72450606D01*
X126742299Y-72449410D01*
X126746000Y-72439065D01*
X126746000Y-72438517D01*
X127254000Y-72438517D01*
X127258064Y-72452359D01*
X127271478Y-72454393D01*
X127278184Y-72453534D01*
X127288262Y-72451392D01*
X127492255Y-72390191D01*
X127501842Y-72386433D01*
X127693095Y-72292739D01*
X127701945Y-72287464D01*
X127875328Y-72163792D01*
X127883200Y-72157139D01*
X128034052Y-72006812D01*
X128040730Y-71998965D01*
X128168022Y-71821819D01*
X128169147Y-71822627D01*
X128216669Y-71778876D01*
X128286607Y-71766661D01*
X128352046Y-71794197D01*
X128379870Y-71826028D01*
X128437690Y-71920383D01*
X128443777Y-71928699D01*
X128583213Y-72089667D01*
X128590580Y-72096883D01*
X128754434Y-72232916D01*
X128762881Y-72238831D01*
X128946756Y-72346279D01*
X128956042Y-72350729D01*
X129155001Y-72426703D01*
X129164899Y-72429579D01*
X129268250Y-72450606D01*
X129282299Y-72449410D01*
X129286000Y-72439065D01*
X129286000Y-72438517D01*
X129794000Y-72438517D01*
X129798064Y-72452359D01*
X129811478Y-72454393D01*
X129818184Y-72453534D01*
X129828262Y-72451392D01*
X130032255Y-72390191D01*
X130041842Y-72386433D01*
X130233095Y-72292739D01*
X130241945Y-72287464D01*
X130415328Y-72163792D01*
X130423200Y-72157139D01*
X130574052Y-72006812D01*
X130580730Y-71998965D01*
X130708022Y-71821819D01*
X130709147Y-71822627D01*
X130756669Y-71778876D01*
X130826607Y-71766661D01*
X130892046Y-71794197D01*
X130919870Y-71826028D01*
X130977690Y-71920383D01*
X130983777Y-71928699D01*
X131123213Y-72089667D01*
X131130580Y-72096883D01*
X131294434Y-72232916D01*
X131302881Y-72238831D01*
X131486756Y-72346279D01*
X131496042Y-72350729D01*
X131695001Y-72426703D01*
X131704899Y-72429579D01*
X131808250Y-72450606D01*
X131822299Y-72449410D01*
X131826000Y-72439065D01*
X131826000Y-72438517D01*
X132334000Y-72438517D01*
X132338064Y-72452359D01*
X132351478Y-72454393D01*
X132358184Y-72453534D01*
X132368262Y-72451392D01*
X132572255Y-72390191D01*
X132581842Y-72386433D01*
X132773095Y-72292739D01*
X132781945Y-72287464D01*
X132955328Y-72163792D01*
X132963200Y-72157139D01*
X133114052Y-72006812D01*
X133120730Y-71998965D01*
X133245003Y-71826020D01*
X133250313Y-71817183D01*
X133344670Y-71626267D01*
X133348469Y-71616672D01*
X133410377Y-71412910D01*
X133412555Y-71402837D01*
X133413986Y-71391962D01*
X133411775Y-71377778D01*
X133398617Y-71374000D01*
X132352115Y-71374000D01*
X132336876Y-71378475D01*
X132335671Y-71379865D01*
X132334000Y-71387548D01*
X132334000Y-72438517D01*
X131826000Y-72438517D01*
X131826000Y-71392115D01*
X131821525Y-71376876D01*
X131820135Y-71375671D01*
X131812452Y-71374000D01*
X129812115Y-71374000D01*
X129796876Y-71378475D01*
X129795671Y-71379865D01*
X129794000Y-71387548D01*
X129794000Y-72438517D01*
X129286000Y-72438517D01*
X129286000Y-71392115D01*
X129281525Y-71376876D01*
X129280135Y-71375671D01*
X129272452Y-71374000D01*
X127272115Y-71374000D01*
X127256876Y-71378475D01*
X127255671Y-71379865D01*
X127254000Y-71387548D01*
X127254000Y-72438517D01*
X126746000Y-72438517D01*
X126746000Y-71392115D01*
X126741525Y-71376876D01*
X126740135Y-71375671D01*
X126732452Y-71374000D01*
X124732115Y-71374000D01*
X124716876Y-71378475D01*
X124715671Y-71379865D01*
X124714000Y-71387548D01*
X124714000Y-72438517D01*
X124206000Y-72438517D01*
X124206000Y-71392115D01*
X124201525Y-71376876D01*
X124200135Y-71375671D01*
X124192452Y-71374000D01*
X123143225Y-71374000D01*
X123129694Y-71377973D01*
X123128257Y-71387966D01*
X83693500Y-71387966D01*
X83693500Y-68546695D01*
X123097251Y-68546695D01*
X123110110Y-68769715D01*
X123111247Y-68774761D01*
X123111248Y-68774767D01*
X123135304Y-68881508D01*
X123159222Y-68987639D01*
X123243266Y-69194616D01*
X123280685Y-69255678D01*
X123357291Y-69380688D01*
X123359987Y-69385088D01*
X123506250Y-69553938D01*
X123678126Y-69696632D01*
X123751955Y-69739774D01*
X123800679Y-69791412D01*
X123813750Y-69861195D01*
X123787019Y-69926967D01*
X123746562Y-69960327D01*
X123738457Y-69964546D01*
X123729738Y-69970036D01*
X123559433Y-70097905D01*
X123551726Y-70104748D01*
X123404590Y-70258717D01*
X123398104Y-70266727D01*
X123278098Y-70442649D01*
X123273000Y-70451623D01*
X123183338Y-70644783D01*
X123179775Y-70654470D01*
X123124389Y-70854183D01*
X123125912Y-70862607D01*
X123138292Y-70866000D01*
X133398344Y-70866000D01*
X133411875Y-70862027D01*
X133413180Y-70852947D01*
X133371214Y-70685875D01*
X133367894Y-70676124D01*
X133282972Y-70480814D01*
X133278105Y-70471739D01*
X133162426Y-70292926D01*
X133156136Y-70284757D01*
X133012293Y-70126677D01*
X132981241Y-70062831D01*
X132989635Y-69992333D01*
X133034812Y-69937564D01*
X133061256Y-69923895D01*
X133168297Y-69883767D01*
X133176705Y-69880615D01*
X133293261Y-69793261D01*
X133380615Y-69676705D01*
X133431745Y-69540316D01*
X133438500Y-69478134D01*
X133438500Y-67681866D01*
X133431745Y-67619684D01*
X133380615Y-67483295D01*
X133293261Y-67366739D01*
X133176705Y-67279385D01*
X133040316Y-67228255D01*
X132978134Y-67221500D01*
X131181866Y-67221500D01*
X131119684Y-67228255D01*
X130983295Y-67279385D01*
X130866739Y-67366739D01*
X130779385Y-67483295D01*
X130776233Y-67491703D01*
X130734919Y-67601907D01*
X130692277Y-67658671D01*
X130625716Y-67683371D01*
X130556367Y-67668163D01*
X130523743Y-67642476D01*
X130473151Y-67586875D01*
X130473142Y-67586866D01*
X130469670Y-67583051D01*
X130465619Y-67579852D01*
X130465615Y-67579848D01*
X130298414Y-67447800D01*
X130298410Y-67447798D01*
X130294359Y-67444598D01*
X130098789Y-67336638D01*
X130093920Y-67334914D01*
X130093916Y-67334912D01*
X129893087Y-67263795D01*
X129893083Y-67263794D01*
X129888212Y-67262069D01*
X129883119Y-67261162D01*
X129883116Y-67261161D01*
X129673373Y-67223800D01*
X129673367Y-67223799D01*
X129668284Y-67222894D01*
X129594452Y-67221992D01*
X129450081Y-67220228D01*
X129450079Y-67220228D01*
X129444911Y-67220165D01*
X129224091Y-67253955D01*
X129011756Y-67323357D01*
X128813607Y-67426507D01*
X128809474Y-67429610D01*
X128809471Y-67429612D01*
X128639100Y-67557530D01*
X128634965Y-67560635D01*
X128595525Y-67601907D01*
X128541280Y-67658671D01*
X128480629Y-67722138D01*
X128373201Y-67879621D01*
X128318293Y-67924621D01*
X128247768Y-67932792D01*
X128184021Y-67901538D01*
X128163324Y-67877054D01*
X128082822Y-67752617D01*
X128082820Y-67752614D01*
X128080014Y-67748277D01*
X127929670Y-67583051D01*
X127925619Y-67579852D01*
X127925615Y-67579848D01*
X127758414Y-67447800D01*
X127758410Y-67447798D01*
X127754359Y-67444598D01*
X127558789Y-67336638D01*
X127553920Y-67334914D01*
X127553916Y-67334912D01*
X127353087Y-67263795D01*
X127353083Y-67263794D01*
X127348212Y-67262069D01*
X127343119Y-67261162D01*
X127343116Y-67261161D01*
X127133373Y-67223800D01*
X127133367Y-67223799D01*
X127128284Y-67222894D01*
X127054452Y-67221992D01*
X126910081Y-67220228D01*
X126910079Y-67220228D01*
X126904911Y-67220165D01*
X126684091Y-67253955D01*
X126471756Y-67323357D01*
X126273607Y-67426507D01*
X126269474Y-67429610D01*
X126269471Y-67429612D01*
X126099100Y-67557530D01*
X126094965Y-67560635D01*
X126055525Y-67601907D01*
X126001280Y-67658671D01*
X125940629Y-67722138D01*
X125833201Y-67879621D01*
X125778293Y-67924621D01*
X125707768Y-67932792D01*
X125644021Y-67901538D01*
X125623324Y-67877054D01*
X125542822Y-67752617D01*
X125542820Y-67752614D01*
X125540014Y-67748277D01*
X125389670Y-67583051D01*
X125385619Y-67579852D01*
X125385615Y-67579848D01*
X125218414Y-67447800D01*
X125218410Y-67447798D01*
X125214359Y-67444598D01*
X125018789Y-67336638D01*
X125013920Y-67334914D01*
X125013916Y-67334912D01*
X124813087Y-67263795D01*
X124813083Y-67263794D01*
X124808212Y-67262069D01*
X124803119Y-67261162D01*
X124803116Y-67261161D01*
X124593373Y-67223800D01*
X124593367Y-67223799D01*
X124588284Y-67222894D01*
X124514452Y-67221992D01*
X124370081Y-67220228D01*
X124370079Y-67220228D01*
X124364911Y-67220165D01*
X124144091Y-67253955D01*
X123931756Y-67323357D01*
X123733607Y-67426507D01*
X123729474Y-67429610D01*
X123729471Y-67429612D01*
X123559100Y-67557530D01*
X123554965Y-67560635D01*
X123515525Y-67601907D01*
X123461280Y-67658671D01*
X123400629Y-67722138D01*
X123274743Y-67906680D01*
X123180688Y-68109305D01*
X123120989Y-68324570D01*
X123097251Y-68546695D01*
X83693500Y-68546695D01*
X83693500Y-63499500D01*
X83713502Y-63431379D01*
X83767158Y-63384886D01*
X83819500Y-63373500D01*
X169545500Y-63373500D01*
X169613621Y-63393502D01*
G37*
%TD.AperFunction*%
%TD*%
M02*
